<?xml version="1.0" encoding="UTF-8" standalone="no"?>
<!-- Created with Inkscape (http://www.inkscape.org/) -->

<svg
   sodipodi:docname="enclosure_back.svg"
   inkscape:version="1.1.2 (0a00cf5339, 2022-02-04)"
   id="svg837"
   version="1.1"
   viewBox="0 0 316 260"
   height="260mm"
   width="316mm"
   xmlns:inkscape="http://www.inkscape.org/namespaces/inkscape"
   xmlns:sodipodi="http://sodipodi.sourceforge.net/DTD/sodipodi-0.dtd"
   xmlns="http://www.w3.org/2000/svg"
   xmlns:svg="http://www.w3.org/2000/svg">
  <sodipodi:namedview
     id="namedview839"
     pagecolor="#ffffff"
     bordercolor="#666666"
     borderopacity="1.0"
     inkscape:pageshadow="2"
     inkscape:pageopacity="0.0"
     inkscape:pagecheckerboard="0"
     inkscape:document-units="mm"
     showgrid="true"
     inkscape:zoom="0.90583672"
     inkscape:cx="422.26153"
     inkscape:cy="502.85001"
     inkscape:window-width="2486"
     inkscape:window-height="1376"
     inkscape:window-x="74"
     inkscape:window-y="27"
     inkscape:window-maximized="1"
     inkscape:current-layer="Body_cs"
     inkscape:object-paths="false"
     inkscape:snap-object-midpoints="true"
     inkscape:object-nodes="true"
     inkscape:snap-global="true"
     inkscape:snap-grids="false">
    <inkscape:grid
       type="xygrid"
       id="grid2110"
       units="mm"
       spacingx="9.9999999"
       spacingy="9.9999999" />
  </sodipodi:namedview>
  <defs
     id="defs834" />
  <g
     inkscape:label="Layer 1"
     inkscape:groupmode="layer"
     id="layer1">
    <g
       id="Body_cs"
       transform="matrix(1 0 0 -1 228.121 186.709)">
      <path
         id="rect45679"
         style="fill:#808080;stroke-width:0.427837;stroke-linejoin:round"
         transform="scale(1,-1)"
         d="m -62.675609,-36.70932 h 51.109213 c 2.4627483,0 4.4453938,1.982645 4.4453938,4.445393 v 81.109213 c 0,2.462748 -1.9826455,4.445394 -4.4453938,4.445394 h -51.109213 c -2.462748,0 -4.445393,-1.982646 -4.445393,-4.445394 v -81.109213 c 0,-2.462748 1.982645,-4.445393 4.445393,-4.445393 z" />
      <path
         id="Body_cs_w0000-9-2"
         d="m -228.12099,48.709318 v -116 a -6,6 0 0 1 6,-6 h 59.99999 a -6,6 0 0 1 6,6 v 116 a -6,6 0 0 1 -6,6 h -59.99999 a -6,6 0 0 1 -6,-6"
         stroke="#191919"
         stroke-width="0.35px"
         style="fill:#808080;fill-opacity:1;fill-rule:evenodd;stroke:none;stroke-width:0.35;stroke-miterlimit:4;stroke-dasharray:none" />
      <path
         id="Body_cs_w0001-1-0"
         d="m -160.121,-37.290692 v -19.99999 l -4,-4 -4,4 v 19.99999 20.00001 l 4,4 4,-4 v -20.00001"
         stroke="#191919"
         stroke-width="0.35px"
         style="fill:#fefefe;fill-opacity:1;fill-rule:evenodd;stroke:#010101;stroke-width:0.35;stroke-miterlimit:4;stroke-dasharray:none;stroke-opacity:1" />
      <path
         id="Body_cs_w0002-2-2"
         d="m -168.121,-65.290682 -4,4 h -19.99999 -20 l -4,-4 4,-4 h 20 19.99999 l 4,4"
         stroke="#191919"
         stroke-width="0.35px"
         style="fill:#fefefe;fill-opacity:1;fill-rule:evenodd;stroke:#010101;stroke-width:0.35;stroke-miterlimit:4;stroke-dasharray:none;stroke-opacity:1" />
      <path
         id="Body_cs_w0003-7-3"
         d="m -224.12099,-37.290692 v 20.00001 l 4,4 4,-4 v -20 -20 l -4,-4 -4,4 v 20"
         stroke="#191919"
         stroke-width="0.35px"
         style="fill:#fefefe;fill-opacity:1;fill-rule:evenodd;stroke:#010101;stroke-width:0.35;stroke-miterlimit:4;stroke-dasharray:none;stroke-opacity:1" />
      <path
         id="Body_cs_w0004-0-7"
         d="M -160.121,18.709319 V -1.290682 l -4,-4 -4,4 v 20.000001 19.999999 l 4,4 4,-4 V 18.709319"
         stroke="#191919"
         stroke-width="0.35px"
         style="fill:#fefefe;fill-opacity:1;fill-rule:evenodd;stroke:#010101;stroke-width:0.35;stroke-miterlimit:4;stroke-dasharray:none;stroke-opacity:1" />
      <path
         id="Body_cs_w0005-9-5"
         d="m -212.12099,-13.290682 -4,4 4,4 h 20 19.99999 l 4,-4 -4,-4 h -19.99999 -20"
         stroke="#191919"
         stroke-width="0.35px"
         style="fill:#fefefe;fill-opacity:1;fill-rule:evenodd;stroke:#010101;stroke-width:0.35;stroke-miterlimit:4;stroke-dasharray:none;stroke-opacity:1" />
      <path
         id="Body_cs_w0006-3-9"
         d="m -224.12099,18.709319 v 19.999999 l 4,4 4,-4 V 18.709319 -1.290682 l -4,-4 -4,4 v 20"
         stroke="#191919"
         stroke-width="0.35px"
         style="fill:#fefefe;fill-opacity:1;fill-rule:evenodd;stroke:#010101;stroke-width:0.35;stroke-miterlimit:4;stroke-dasharray:none;stroke-opacity:1" />
      <path
         id="Body_cs_w0007-6-2"
         d="m -216.12099,46.709318 4,-4 h 20 19.99999 l 4,4 -4,4 h -19.99999 -20 l -4,-4"
         stroke="#191919"
         stroke-width="0.35px"
         style="fill:#fefefe;fill-opacity:1;fill-rule:evenodd;stroke:#010101;stroke-width:0.35;stroke-miterlimit:4;stroke-dasharray:none;stroke-opacity:1" />
      <path
         id="Body_cs_w0000-3-0-2"
         d="M -153.12101,48.70932 V -67.29069 a -6,6 0 0 1 6,-6 h 60.000004 a -6,6 0 0 1 6.000004,6 V 48.70932 a -6,6 0 0 1 -6.000004,6 h -60.000004 a -6,6 0 0 1 -6,-6"
         stroke="#191919"
         stroke-width="0.35px"
         style="fill:#808080;fill-opacity:1;fill-rule:evenodd;stroke:none;stroke-width:0.35;stroke-miterlimit:4;stroke-dasharray:none" />
      <path
         id="Body_cs_w0001-6-6-8"
         d="m -85.121006,-37.29069 v -20 l -4,-4 -4,4 v 20 20.00001 l 4,4 4,-4 v -20.00001"
         stroke="#191919"
         stroke-width="0.35px"
         style="fill:#fefefe;fill-opacity:1;fill-rule:evenodd;stroke:#010101;stroke-width:0.35;stroke-miterlimit:4;stroke-dasharray:none;stroke-opacity:1" />
      <path
         id="Body_cs_w0002-7-2-9"
         d="m -93.121006,-65.29069 -4,4 h -20.000004 -20 l -4,-4 4,-4 h 20 20.000004 l 4,4"
         stroke="#191919"
         stroke-width="0.35px"
         style="fill:#fefefe;fill-opacity:1;fill-rule:evenodd;stroke:#010101;stroke-width:0.35;stroke-miterlimit:4;stroke-dasharray:none;stroke-opacity:1" />
      <path
         id="Body_cs_w0003-5-6-7"
         d="m -149.12101,-37.29069 v 20.00001 l 4,4 4,-4 v -20 -20 l -4,-4 -4,4 v 20"
         stroke="#191919"
         stroke-width="0.35px"
         style="fill:#fefefe;fill-opacity:1;fill-rule:evenodd;stroke:#010101;stroke-width:0.35;stroke-miterlimit:4;stroke-dasharray:none;stroke-opacity:1" />
      <path
         id="Body_cs_w0004-3-1-3"
         d="m -85.121006,18.70932 v -20 l -4,-4 -4,4 v 20 20 l 4,4 4,-4 v -20"
         stroke="#191919"
         stroke-width="0.35px"
         style="fill:#fefefe;fill-opacity:1;fill-rule:evenodd;stroke:#010101;stroke-width:0.35;stroke-miterlimit:4;stroke-dasharray:none;stroke-opacity:1" />
      <path
         id="Body_cs_w0005-5-8-6"
         d="m -137.12101,-13.29068 -4,4 4,4 h 20 20.000004 l 4,-4 -4,-4 h -20.000004 -20"
         stroke="#191919"
         stroke-width="0.35px"
         style="fill:#fefefe;fill-opacity:1;fill-rule:evenodd;stroke:#010101;stroke-width:0.35;stroke-miterlimit:4;stroke-dasharray:none;stroke-opacity:1" />
      <path
         id="Body_cs_w0006-6-7-1"
         d="m -149.12101,18.70932 v 20 l 4,4 4,-4 v -20 -20 l -4,-4 -4,4 v 20"
         stroke="#191919"
         stroke-width="0.35px"
         style="fill:#fefefe;fill-opacity:1;fill-rule:evenodd;stroke:#010101;stroke-width:0.35;stroke-miterlimit:4;stroke-dasharray:none;stroke-opacity:1" />
      <path
         id="Body_cs_w0007-2-9-2"
         d="m -141.12101,46.70932 4,-4 h 20 20.000004 l 4,4 -4,4 h -20.000004 -20 l -4,-4"
         stroke="#191919"
         stroke-width="0.35px"
         style="fill:#fefefe;fill-opacity:1;fill-rule:evenodd;stroke:#010101;stroke-width:0.35;stroke-miterlimit:4;stroke-dasharray:none;stroke-opacity:1" />
      <title
         id="title906">b'Body_cs'</title>
      <g
         id="g2130"
         transform="matrix(-1,0,0,1,-107.43056,8.7256)">
        <path
           id="Body_cs_w0000"
           d="M -48.309558,171.98372 V 55.983723 a 6,6 0 0 0 -6,-6 h -60.000002 a 6,6 0 0 0 -6,6 V 171.98372 a 6,6 0 0 0 6,6 h 60.000002 a 6,6 0 0 0 6,-6"
           stroke="#191919"
           stroke-width="0.35px"
           style="fill:#808080;fill-opacity:1;fill-rule:evenodd;stroke:none;stroke-width:0.35;stroke-miterlimit:4;stroke-dasharray:none" />
        <path
           id="Body_cs_w0001"
           d="m -116.30956,85.983723 v -20 l 4,-4 4,4 v 20 19.999997 l -4,4 -4,-4 V 85.983723"
           stroke="#191919"
           stroke-width="0.35px"
           style="fill:#ffffff;fill-opacity:1;fill-rule:evenodd;stroke:#010101;stroke-width:0.35;stroke-miterlimit:4;stroke-dasharray:none;stroke-opacity:1" />
        <path
           id="Body_cs_w0002"
           d="m -108.30956,57.983723 4,4 h 20.000002 20 l 4,-4 -4,-4 h -20 -20.000002 l -4,4"
           stroke="#191919"
           stroke-width="0.35px"
           style="fill:#ffffff;fill-opacity:1;fill-rule:evenodd;stroke:#010101;stroke-width:0.35;stroke-miterlimit:4;stroke-dasharray:none;stroke-opacity:1" />
        <path
           id="Body_cs_w0003"
           d="m -52.309558,85.983723 v 19.999997 l -4,4 -4,-4 v -19.999997 -20 l 4,-4 4,4 v 20"
           stroke="#191919"
           stroke-width="0.35px"
           style="fill:#ffffff;fill-opacity:1;fill-rule:evenodd;stroke:#010101;stroke-width:0.35;stroke-miterlimit:4;stroke-dasharray:none;stroke-opacity:1" />
        <path
           id="Body_cs_w0004"
           d="m -116.30956,141.98372 v -20 l 4,-4 4,4 v 20 20 l -4,4 -4,-4 v -20"
           stroke="#191919"
           stroke-width="0.35px"
           style="fill:#ffffff;fill-opacity:1;fill-rule:evenodd;stroke:#010101;stroke-width:0.35;stroke-miterlimit:4;stroke-dasharray:none;stroke-opacity:1" />
        <path
           id="Body_cs_w0005"
           d="m -64.309558,109.98372 4,4 -4,4 h -20 -20.000002 l -4,-4 4,-4 h 20.000002 20"
           stroke="#191919"
           stroke-width="0.35px"
           style="fill:#ffffff;fill-opacity:1;fill-rule:evenodd;stroke:#010101;stroke-width:0.35;stroke-miterlimit:4;stroke-dasharray:none;stroke-opacity:1" />
        <path
           id="Body_cs_w0006"
           d="m -52.309558,141.98372 v 20 l -4,4 -4,-4 v -20 -20 l 4,-4 4,4 v 20"
           stroke="#191919"
           stroke-width="0.35px"
           style="fill:#ffffff;fill-opacity:1;fill-rule:evenodd;stroke:#010101;stroke-width:0.35;stroke-miterlimit:4;stroke-dasharray:none;stroke-opacity:1" />
        <path
           id="Body_cs_w0007"
           d="m -60.309558,169.98372 -4,-4 h -20 -20.000002 l -4,4 4,4 h 20.000002 20 l 4,-4"
           stroke="#191919"
           stroke-width="0.35px"
           style="fill:#ffffff;fill-opacity:1;fill-rule:evenodd;stroke:#000000;stroke-width:0.35;stroke-miterlimit:4;stroke-dasharray:none;stroke-opacity:1" />
      </g>
      <path
         id="Body_cs_w0000-3"
         d="M 15.879,180.70932 V 64.709317 a -6,6 0 0 1 6,-6 h 60 a -6,6 0 0 1 6,6 V 180.70932 a -6,6 0 0 1 -6,6 h -60 a -6,6 0 0 1 -6,-6"
         stroke="#191919"
         stroke-width="0.35px"
         style="fill:#808080;fill-opacity:1;fill-rule:evenodd;stroke:none;stroke-width:0.35;stroke-miterlimit:4;stroke-dasharray:none" />
      <path
         id="Body_cs_w0001-6"
         d="m 83.879,94.709317 v -20 l -4,-4 -4,4 v 20 20.000003 l 4,4 4,-4 V 94.709317"
         stroke="#191919"
         stroke-width="0.35px"
         style="fill:#fefefe;fill-opacity:1;fill-rule:evenodd;stroke:#010101;stroke-width:0.35;stroke-miterlimit:4;stroke-dasharray:none;stroke-opacity:1" />
      <path
         id="Body_cs_w0002-7"
         d="m 75.879,66.709317 -4,4 h -20 -20 l -4,-4 4,-4 h 20 20 l 4,4"
         stroke="#191919"
         stroke-width="0.35px"
         style="fill:#fefefe;fill-opacity:1;fill-rule:evenodd;stroke:#010101;stroke-width:0.35;stroke-miterlimit:4;stroke-dasharray:none;stroke-opacity:1" />
      <path
         id="Body_cs_w0003-5"
         d="m 19.879,94.709317 v 20.000003 l 4,4 4,-4 v -20.000003 -20 l -4,-4 -4,4 v 20"
         stroke="#191919"
         stroke-width="0.35px"
         style="fill:#fefefe;fill-opacity:1;fill-rule:evenodd;stroke:#010101;stroke-width:0.35;stroke-miterlimit:4;stroke-dasharray:none;stroke-opacity:1" />
      <path
         id="Body_cs_w0004-3"
         d="m 83.879,150.70932 v -20 l -4,-4 -4,4 v 20 20 l 4,4 4,-4 v -20"
         stroke="#191919"
         stroke-width="0.35px"
         style="fill:#fefefe;fill-opacity:1;fill-rule:evenodd;stroke:#010101;stroke-width:0.35;stroke-miterlimit:4;stroke-dasharray:none;stroke-opacity:1" />
      <path
         id="Body_cs_w0005-5"
         d="m 31.879,118.70932 -4,4 4,4 h 20 20 l 4,-4 -4,-4 h -20 -20"
         stroke="#191919"
         stroke-width="0.35px"
         style="fill:#fefefe;fill-opacity:1;fill-rule:evenodd;stroke:#010101;stroke-width:0.35;stroke-miterlimit:4;stroke-dasharray:none;stroke-opacity:1" />
      <path
         id="Body_cs_w0006-6"
         d="m 19.879,150.70932 v 20 l 4,4 4,-4 v -20 -20 l -4,-4 -4,4 v 20"
         stroke="#191919"
         stroke-width="0.35px"
         style="fill:#fefefe;fill-opacity:1;fill-rule:evenodd;stroke:#010101;stroke-width:0.35;stroke-miterlimit:4;stroke-dasharray:none;stroke-opacity:1" />
      <path
         id="Body_cs_w0007-2"
         d="m 27.879,178.70932 4,-4 h 20 20 l 4,4 -4,4 h -20 -20 l -4,-4"
         stroke="#191919"
         stroke-width="0.35px"
         style="fill:#fefefe;fill-opacity:1;fill-rule:evenodd;stroke:#010101;stroke-width:0.35;stroke-miterlimit:4;stroke-dasharray:none;stroke-opacity:1" />
      <path
         id="Body_cs_w0000-9"
         d="M -228.121,180.70932 V 64.709317 a -6,6 0 0 1 6,-6 h 60 a -6,6 0 0 1 6,6 V 180.70932 a -6,6 0 0 1 -6,6 h -60 a -6,6 0 0 1 -6,-6"
         stroke="#191919"
         stroke-width="0.35px"
         style="fill:#808080;fill-opacity:1;fill-rule:evenodd;stroke:none;stroke-width:0.35;stroke-miterlimit:4;stroke-dasharray:none" />
      <path
         id="Body_cs_w0001-1"
         d="m -160.121,94.709317 v -20 l -4,-4 -4,4 v 20 20.000003 l 4,4 4,-4 V 94.709317"
         stroke="#191919"
         stroke-width="0.35px"
         style="fill:#fefefe;fill-opacity:1;fill-rule:evenodd;stroke:#010101;stroke-width:0.35;stroke-miterlimit:4;stroke-dasharray:none;stroke-opacity:1" />
      <path
         id="Body_cs_w0002-2"
         d="m -168.121,66.709317 -4,4 h -20 -20 l -4,-4 4,-4 h 20 20 l 4,4"
         stroke="#191919"
         stroke-width="0.35px"
         style="fill:#fefefe;fill-opacity:1;fill-rule:evenodd;stroke:#010101;stroke-width:0.35;stroke-miterlimit:4;stroke-dasharray:none;stroke-opacity:1" />
      <path
         id="Body_cs_w0003-7"
         d="m -224.121,94.709317 v 20.000003 l 4,4 4,-4 v -20.000003 -20 l -4,-4 -4,4 v 20"
         stroke="#191919"
         stroke-width="0.35px"
         style="fill:#fefefe;fill-opacity:1;fill-rule:evenodd;stroke:#010101;stroke-width:0.35;stroke-miterlimit:4;stroke-dasharray:none;stroke-opacity:1" />
      <path
         id="Body_cs_w0004-0"
         d="m -160.121,150.70932 v -20 l -4,-4 -4,4 v 20 20 l 4,4 4,-4 v -20"
         stroke="#191919"
         stroke-width="0.35px"
         style="fill:#fefefe;fill-opacity:1;fill-rule:evenodd;stroke:#010101;stroke-width:0.35;stroke-miterlimit:4;stroke-dasharray:none;stroke-opacity:1" />
      <path
         id="Body_cs_w0005-9"
         d="m -212.121,118.70932 -4,4 4,4 h 20 20 l 4,-4 -4,-4 h -20 -20"
         stroke="#191919"
         stroke-width="0.35px"
         style="fill:#fefefe;fill-opacity:1;fill-rule:evenodd;stroke:#010101;stroke-width:0.35;stroke-miterlimit:4;stroke-dasharray:none;stroke-opacity:1" />
      <path
         id="Body_cs_w0006-3"
         d="m -224.121,150.70932 v 20 l 4,4 4,-4 v -20 -20 l -4,-4 -4,4 v 20"
         stroke="#191919"
         stroke-width="0.35px"
         style="fill:#fefefe;fill-opacity:1;fill-rule:evenodd;stroke:#010101;stroke-width:0.35;stroke-miterlimit:4;stroke-dasharray:none;stroke-opacity:1" />
      <path
         id="Body_cs_w0007-6"
         d="m -216.121,178.70932 4,-4 h 20 20 l 4,4 -4,4 h -20 -20 l -4,-4"
         stroke="#191919"
         stroke-width="0.35px"
         style="fill:#fefefe;fill-opacity:1;fill-rule:evenodd;stroke:#010101;stroke-width:0.35;stroke-miterlimit:4;stroke-dasharray:none;stroke-opacity:1" />
      <g
         id="g2140"
         transform="matrix(-1,0,0,1,-84.401937,12.61197)">
        <path
           id="Body_cs_w0000-3-0"
           d="M 68.719063,168.09735 V 52.097347 a 6,6 0 0 0 -6,-6 H 2.7190628 a 6,6 0 0 0 -6,6 V 168.09735 a 6,6 0 0 0 6,6 H 62.719063 a 6,6 0 0 0 6,-6"
           stroke="#191919"
           stroke-width="0.35px"
           style="fill:#808080;fill-opacity:1;fill-rule:evenodd;stroke:none;stroke-width:0.35;stroke-miterlimit:4;stroke-dasharray:none" />
        <path
           id="Body_cs_w0001-6-6"
           d="m 0.71906279,82.097347 v -20 l 4.00000001,-4 4,4 v 20 20.000003 l -4,4 -4.00000001,-4 V 82.097347"
           stroke="#191919"
           stroke-width="0.35px"
           style="fill:#ffffff;fill-opacity:1;fill-rule:evenodd;stroke:#010101;stroke-width:0.35;stroke-miterlimit:4;stroke-dasharray:none;stroke-opacity:1" />
        <path
           id="Body_cs_w0002-7-2"
           d="m 8.7190628,54.097347 4.0000002,4 h 20 20 l 4,-4 -4,-4 h -20 -20 l -4.0000002,4"
           stroke="#191919"
           stroke-width="0.35px"
           style="fill:#ffffff;fill-opacity:1;fill-rule:evenodd;stroke:#010101;stroke-width:0.35;stroke-miterlimit:4;stroke-dasharray:none;stroke-opacity:1" />
        <path
           id="Body_cs_w0003-5-6"
           d="m 64.719063,82.097347 v 20.000003 l -4,4 -4,-4 v -20.000003 -20 l 4,-4 4,4 v 20"
           stroke="#191919"
           stroke-width="0.35px"
           style="fill:#ffffff;fill-opacity:1;fill-rule:evenodd;stroke:#010101;stroke-width:0.35;stroke-miterlimit:4;stroke-dasharray:none;stroke-opacity:1" />
        <path
           id="Body_cs_w0004-3-1"
           d="m 0.71906279,138.09735 v -20 l 4.00000001,-4 4,4 v 20 20 l -4,4 -4.00000001,-4 v -20"
           stroke="#191919"
           stroke-width="0.35px"
           style="fill:#ffffff;fill-opacity:1;fill-rule:evenodd;stroke:#010101;stroke-width:0.35;stroke-miterlimit:4;stroke-dasharray:none;stroke-opacity:1" />
        <path
           id="Body_cs_w0005-5-8"
           d="m 52.719063,106.09735 4,4 -4,4 h -20 -20 l -4.0000002,-4 4.0000002,-4 h 20 20"
           stroke="#191919"
           stroke-width="0.35px"
           style="fill:#ffffff;fill-opacity:1;fill-rule:evenodd;stroke:#010101;stroke-width:0.35;stroke-miterlimit:4;stroke-dasharray:none;stroke-opacity:1" />
        <path
           id="Body_cs_w0006-6-7"
           d="m 64.719063,138.09735 v 20 l -4,4 -4,-4 v -20 -20 l 4,-4 4,4 v 20"
           stroke="#191919"
           stroke-width="0.35px"
           style="fill:#ffffff;fill-opacity:1;fill-rule:evenodd;stroke:#010101;stroke-width:0.35;stroke-miterlimit:4;stroke-dasharray:none;stroke-opacity:1" />
        <path
           id="Body_cs_w0007-2-9"
           d="m 56.719063,166.09735 -4,-4 h -20 -20 l -4.0000002,4 4.0000002,4 h 20 20 l 4,-4"
           stroke="#191919"
           stroke-width="0.35px"
           style="fill:#ffffff;fill-opacity:1;fill-rule:evenodd;stroke:#000000;stroke-width:0.35;stroke-miterlimit:4;stroke-dasharray:none;stroke-opacity:1" />
      </g>
      <path
         id="Body001_cs_w0000"
         d="m -68.121,186.70932 h -4 a -6,6 0 0 1 -6,-6 v -116 a -6,6 0 0 1 6,-6 h 4 a -6,6 0 0 1 6,6 v 116 a -6,6 0 0 1 -6,6"
         stroke="#191919"
         stroke-width="0.35px"
         style="fill:#808080;fill-opacity:1;fill-rule:evenodd;stroke:none;stroke-width:0.35;stroke-miterlimit:4;stroke-dasharray:none" />
      <path
         id="Body001_cs_w0001"
         style="fill:#fefefe;fill-opacity:1;fill-rule:evenodd;stroke:#010101;stroke-width:0.349999;stroke-miterlimit:4;stroke-dasharray:none;stroke-opacity:1"
         d="m -70.120864,106.10932 3.999757,-3.99976 v -5.000205 -5.000212 l -3.999757,-3.999756 -4.000272,3.999756 v 5.000212 5.000205 z" />
      <path
         id="Body001_cs_w0002"
         d="m -74.121,148.30932 v 5 l 4,4 4,-4 v -5 -5 l -4,-4 -4,4 v 5"
         stroke="#191919"
         stroke-width="0.35px"
         style="fill:#fefefe;fill-opacity:1;fill-rule:evenodd;stroke:#010101;stroke-width:0.35;stroke-miterlimit:4;stroke-dasharray:none;stroke-opacity:1" />
      <path
         id="Body001_cs_w0007"
         style="fill:#fefefe;fill-opacity:1;fill-rule:evenodd;stroke-width:0.349999;stroke-miterlimit:4;stroke-dasharray:none;stroke:#010101;stroke-opacity:1"
         d="m -70.120864,157.3093 3.999757,-3.99976 v -5.00021 -5.00021 l -3.999757,-3.99976 -4.000272,3.99976 v 5.00021 5.00021 z" />
      <g
         aria-label="316x260"
         transform="matrix(0.41216903,0,0,-0.41216903,49.956364,-53.226318)"
         id="text6194"
         style="font-size:40px;line-height:60.4%;font-family:Impact;-inkscape-font-specification:'Impact, Normal';text-align:center;letter-spacing:0px;word-spacing:0px;text-anchor:middle;fill:#0700ff;stroke:#0000ff;stroke-width:0.264583px">
        <path
           d="m -53.062406,7.6266174 q 1.796875,0.6054688 2.675781,1.9921875 0.878906,1.3671871 0.878906,6.4453121 0,3.769532 -0.859375,5.859375 -0.859375,2.070313 -2.96875,3.164063 -2.109375,1.074219 -5.410156,1.074219 -3.75,0 -5.898437,-1.25 -2.128907,-1.269532 -2.8125,-3.085938 Q -68.121,19.989899 -68.121,15.47818 v -2.5 h 7.890625 v 5.136719 q 0,2.050781 0.234375,2.617187 0.253906,0.546875 1.09375,0.546875 0.917969,0 1.210938,-0.703125 0.292968,-0.703125 0.292968,-3.671875 v -2.1875 q 0,-1.816406 -0.410156,-2.65625 -0.410156,-0.839844 -1.210937,-1.09375 -0.800782,-0.273437 -3.105469,-0.3125 V 6.0641174 q 2.8125,0 3.476562,-0.2148437 0.664063,-0.2148438 0.957032,-0.9375 0.292968,-0.7226563 0.292968,-2.265625 V 0.88833618 q 0,-1.66015625 -0.351562,-2.18749998 -0.332031,-0.5273438 -1.054688,-0.5273438 -0.820312,0 -1.132812,0.5664063 -0.292969,0.54687498 -0.292969,2.3632812 V 3.7008362 H -68.121 V 1.0055237 q 0,-4.53125 2.070313,-6.1132813 2.070312,-1.6015625 6.582031,-1.6015625 5.644531,0 7.65625,2.2070313 2.011719,2.2070312 2.011719,6.1328125 0,2.65625 -0.722657,3.8476562 -0.722656,1.171875 -2.539062,2.1484375 z"
           id="path9746" />
        <path
           d="M -34.507719,-6.0843201 V 25.536774 h -7.890625 V 8.5836487 q 0,-3.671875 -0.175781,-4.4140625 -0.175781,-0.7421875 -0.976562,-1.1132813 -0.78125,-0.390625 -3.515625,-0.390625 h -0.78125 v -3.6914062 q 5.722656,-1.2304688 8.691406,-5.0585938 z"
           id="path9748" />
        <path
           d="m -12.496,2.3141174 h -7.890625 q 0,-2.20703122 -0.05859,-2.77343747 -0.03906,-0.58593753 -0.46875,-0.97656253 -0.410156,-0.390625 -1.132812,-0.390625 -0.605469,0 -0.996094,0.3710938 -0.390625,0.3710937 -0.449219,0.95703123 -0.05859,0.5859375 -0.05859,2.36328127 v 5.0390625 q 0.605468,-1.2695313 1.777343,-1.8945313 1.171875,-0.6445312 2.890625,-0.6445312 2.167969,0 3.828125,1.171875 1.660157,1.171875 2.109375,2.8125 0.449219,1.640625 0.449219,4.4335933 v 2.519532 q 0,3.320312 -0.253906,4.941406 -0.253906,1.621094 -1.367188,3.007812 -1.09375,1.367188 -3.027343,2.128907 -1.914063,0.761718 -4.472657,0.761718 -3.183593,0 -5.214843,-0.878906 -2.03125,-0.878906 -3.144532,-2.519531 -1.09375,-1.660156 -1.289062,-3.476563 -0.175781,-1.816406 -0.175781,-7.050781 V 7.8414612 q 0,-5.6445313 0.15625,-7.53906252 0.175781,-1.91406248 1.367187,-3.61328128 1.191406,-1.6992187 3.242188,-2.5390625 2.070312,-0.859375 4.765625,-0.859375 3.320312,0 5.449218,1.0742188 2.128907,1.0742187 3.046875,3.0273437 0.917969,1.95312503 0.917969,4.921875 z m -7.890625,9.8632816 q 0,-1.679688 -0.371094,-2.3046878 -0.371093,-0.625 -1.210937,-0.625 -0.820313,0 -1.210938,0.6054687 -0.371093,0.5859371 -0.371093,2.3242191 v 5.722656 q 0,2.089844 0.351562,2.734375 0.371094,0.644531 1.210938,0.644531 0.507812,0 1.054687,-0.488281 0.546875,-0.507813 0.546875,-2.695313 z"
           id="path9750" />
        <path
           d="M 5.8438438,-0.38119507 2.6993125,12.001617 6.5079063,25.536774 H -1.167875 q -1.1328125,-5.117188 -1.71875,-8.808594 -0.78125,4.609375 -1.6992187,8.808594 H -11.187406 L -7.7889687,12.001617 -11.187406,-0.38119507 h 6.6015623 q 1.5820312,7.92968747 1.6992187,9.00390627 1.1328125,-6.6210938 1.71875,-9.00390627 z"
           id="path9752" />
        <path
           d="m 24.574313,20.146149 v 5.390625 H 7.2110313 V 21.025055 Q 14.925875,8.4078674 16.371188,5.4195862 q 1.464843,-3.0078125 1.464843,-4.68750002 0,-1.2890625 -0.449218,-1.91406248 -0.429688,-0.6445313 -1.328125,-0.6445313 -0.898438,0 -1.347657,0.703125 -0.429687,0.70312503 -0.429687,2.7929688 V 4.6773987 H 7.2110313 V 3.5250549 q 0,-2.65624997 0.2734375,-4.17968747 0.2734375,-1.54296873 1.3476562,-3.02734373 1.0742188,-1.484375 2.792969,-2.2460938 1.71875,-0.7617187 4.121094,-0.7617187 4.707031,0 7.109375,2.34375 2.421875,2.3242187 2.421875,5.8984375 0,2.7148437 -1.367188,5.7421875 -1.347656,3.0273438 -7.988281,12.8515628 z"
           id="path9754" />
        <path
           d="m 46.586031,2.3141174 h -7.890625 q 0,-2.20703122 -0.05859,-2.77343747 -0.03906,-0.58593753 -0.46875,-0.97656253 -0.410157,-0.390625 -1.132813,-0.390625 -0.605469,0 -0.996094,0.3710938 -0.390625,0.3710937 -0.449218,0.95703123 -0.05859,0.5859375 -0.05859,2.36328127 V 6.9039612 Q 36.13682,5.6344299 37.308695,5.0094299 38.48057,4.3648987 40.19932,4.3648987 q 2.167968,0 3.828125,1.171875 1.660156,1.171875 2.109375,2.8125 0.449218,1.640625 0.449218,4.4335933 v 2.519532 q 0,3.320312 -0.253906,4.941406 -0.253906,1.621094 -1.367187,3.007812 -1.09375,1.367188 -3.027344,2.128907 -1.914063,0.761718 -4.472656,0.761718 -3.183594,0 -5.214844,-0.878906 -2.03125,-0.878906 -3.144531,-2.519531 -1.09375,-1.660156 -1.289063,-3.476563 -0.175781,-1.816406 -0.175781,-7.050781 V 7.8414612 q 0,-5.6445313 0.15625,-7.53906252 0.175781,-1.91406248 1.367187,-3.61328128 1.191407,-1.6992187 3.242188,-2.5390625 2.070312,-0.859375 4.765625,-0.859375 3.320312,0 5.449219,1.0742188 2.128906,1.0742187 3.046875,3.0273437 0.917968,1.95312503 0.917968,4.921875 z m -7.890625,9.8632816 q 0,-1.679688 -0.371093,-2.3046878 -0.371094,-0.625 -1.210938,-0.625 -0.820312,0 -1.210937,0.6054687 -0.371094,0.5859371 -0.371094,2.3242191 v 5.722656 q 0,2.089844 0.351562,2.734375 0.371094,0.644531 1.210938,0.644531 0.507812,0 1.054687,-0.488281 0.546875,-0.507813 0.546875,-2.695313 z"
           id="path9756" />
        <path
           d="M 67.914156,4.6188049 V 15.16568 q 0,3.59375 -0.390625,5.234375 -0.390625,1.640625 -1.621093,3.066406 -1.230469,1.425781 -2.96875,2.050781 -1.738282,0.625 -3.886719,0.625 -2.832031,0 -4.707031,-0.644531 -1.875,-0.664062 -2.988282,-2.050781 -1.113281,-1.386719 -1.582031,-2.910156 -0.46875,-1.542969 -0.46875,-4.882813 V 4.6188049 q 0,-4.35546872 0.742188,-6.5234375 0.761718,-2.1679687 2.988281,-3.4765625 2.246094,-1.3085937 5.429687,-1.3085937 2.597657,0 4.648438,0.9179687 2.050781,0.8984375 3.066406,2.2070313 1.015625,1.3085937 1.367188,2.94921873 0.371093,1.64062497 0.371093,5.23437497 z m -7.890625,-2.65625 q 0,-2.51953122 -0.253906,-3.1445312 -0.234375,-0.6445313 -1.132812,-0.6445313 -0.878907,0 -1.171875,0.6835938 Q 57.1915,-0.47885132 57.1915,1.9625549 V 17.392242 q 0,2.753907 0.253906,3.320313 0.273438,0.566406 1.152344,0.566406 0.878906,0 1.152344,-0.664062 0.273437,-0.664063 0.273437,-2.988282 z"
           id="path9758" />
      </g>
      <g
         aria-label="WORK"
         transform="rotate(-180,-70.878774,0.2837)"
         id="text14787"
         style="font-size:20px;line-height:60.4%;font-family:Impact;-inkscape-font-specification:'Impact, Normal';text-align:center;letter-spacing:0px;word-spacing:0px;text-anchor:middle;fill:#1000ff;stroke:none;stroke-width:0.264583px;fill-opacity:1">
        <path
           d="m -171.951,-33.309889 -1.82618,15.810547 h -5.13671 q -0.70313,-3.642578 -1.24024,-8.28125 -0.24414,1.982422 -1.14258,8.28125 h -5.10742 l -1.83594,-15.810547 h 3.99414 l 0.41993,5.517578 0.42968,5.322266 q 0.22461,-4.130859 1.13282,-10.839844 h 4.27734 q 0.0879,0.69336 0.44922,5.214844 l 0.44922,6.005859 q 0.34179,-5.732422 1.14258,-11.220703 z"
           id="path44841"
           style="fill:#1000ff;fill-opacity:1;stroke:none" />
        <path
           d="m -161.73616,-24.052076 q 0,2.382812 -0.11719,3.378906 -0.10742,0.986328 -0.70312,1.806641 -0.58594,0.820312 -1.5918,1.259765 -1.00586,0.439453 -2.34375,0.439453 -1.26953,0 -2.28516,-0.410156 -1.00586,-0.419922 -1.62109,-1.25 -0.61523,-0.830078 -0.73242,-1.806641 -0.11719,-0.976562 -0.11719,-3.417968 v -2.705078 q 0,-2.382813 0.10742,-3.369141 0.11719,-0.996094 0.70313,-1.816406 0.5957,-0.820313 1.60156,-1.259766 1.00586,-0.439453 2.34375,-0.439453 1.26953,0 2.27539,0.419922 1.01563,0.410156 1.63086,1.240234 0.61523,0.830078 0.73242,1.806641 0.11719,0.976562 0.11719,3.417969 z m -4.11133,-5.195313 q 0,-1.103515 -0.12695,-1.40625 -0.11719,-0.3125 -0.49805,-0.3125 -0.32226,0 -0.49805,0.253906 -0.16601,0.244141 -0.16601,1.464844 v 7.382813 q 0,1.376953 0.10742,1.699218 0.11719,0.322266 0.52734,0.322266 0.41993,0 0.53711,-0.371094 0.11719,-0.371093 0.11719,-1.767578 z"
           id="path44843"
           style="fill:#1000ff;fill-opacity:1;stroke:none" />
        <path
           d="m -160.20296,-33.309889 h 2.91016 q 2.91016,0 3.93555,0.22461 1.03515,0.224609 1.67968,1.152343 0.6543,0.917969 0.6543,2.939453 0,1.845704 -0.45898,2.480469 -0.45899,0.634766 -1.80664,0.761719 1.2207,0.302734 1.64062,0.810547 0.41992,0.507812 0.51758,0.9375 0.10742,0.419922 0.10742,2.333984 v 4.169922 h -3.81836 v -5.253906 q 0,-1.269531 -0.20508,-1.572266 -0.19531,-0.302734 -1.04492,-0.302734 v 7.128906 h -4.11133 z m 4.11133,2.705078 v 3.515625 q 0.69336,0 0.9668,-0.185547 0.2832,-0.195312 0.2832,-1.240234 v -0.869141 q 0,-0.751953 -0.27344,-0.986328 -0.26367,-0.234375 -0.97656,-0.234375 z"
           id="path44845"
           style="fill:#1000ff;fill-opacity:1;stroke:none" />
        <path
           d="m -139.63655,-33.309889 -2.35352,7.138672 2.57813,8.671875 h -4.24805 l -1.66015,-6.777344 v 6.777344 h -4.11133 v -15.810547 h 4.11133 v 6.142578 l 1.82617,-6.142578 z"
           id="path44847"
           style="fill:#1000ff;fill-opacity:1;stroke:none" />
      </g>
      <g
         transform="scale(1,-1)"
         id="text23705"
         style="font-size:3px;line-height:60.4%;font-family:FreeMono;-inkscape-font-specification:FreeMono;text-align:center;letter-spacing:0px;word-spacing:0px;text-anchor:middle;fill:none;stroke:#000000;stroke-width:0.264583px" />
      <g
         aria-label="REST"
         transform="rotate(-180,-71.327649,-0.3968244)"
         id="text29781"
         style="font-size:20px;line-height:60.4%;font-family:Impact;-inkscape-font-specification:'Impact, Normal';text-align:center;letter-spacing:0px;word-spacing:0px;text-anchor:middle;fill:#1000ff;stroke:none;stroke-width:0.264583px;fill-opacity:1">
        <path
           d="m -178.23938,-4.6709375 h 2.91016 q 2.91015,0 3.93554,0.2246093 1.03516,0.2246094 1.67969,1.1523438 0.6543,0.9179687 0.6543,2.93945311 0,1.84570309 -0.45899,2.48046879 -0.45898,0.6347656 -1.80664,0.7617187 1.22071,0.3027344 1.64063,0.8105469 0.41992,0.5078125 0.51758,0.9375 0.10742,0.4199219 0.10742,2.3339844 v 4.1699215 h -3.81836 V 5.8857031 q 0,-1.2695313 -0.20508,-1.5722656 -0.19531,-0.3027344 -1.04492,-0.3027344 v 7.1289059 h -4.11133 z m 4.11133,2.7050781 v 3.515625 q 0.69336,0 0.9668,-0.1855469 0.2832,-0.1953125 0.2832,-1.24023436 v -0.86914063 q 0,-0.75195311 -0.27344,-0.98632811 -0.26367,-0.234375 -0.97656,-0.234375 z"
           id="path44850"
           style="fill:#1000ff;fill-opacity:1;stroke:none" />
        <path
           d="m -167.4679,-4.6709375 h 6.85547 v 3.1640625 h -2.74414 v 2.9980468 h 2.56836 v 3.0078125 h -2.56836 v 3.4765625 h 3.01758 v 3.1640622 h -7.12891 z"
           id="path44852"
           style="fill:#1000ff;fill-opacity:1;stroke:none" />
        <path
           d="m -150.44641,0.11421871 h -3.81836 V -1.0576563 q 0,-0.8203125 -0.14648,-1.0449219 -0.14649,-0.2246093 -0.48829,-0.2246093 -0.37109,0 -0.5664,0.3027343 -0.18555,0.3027344 -0.18555,0.9179688 0,0.79101561 0.21484,1.19140624 0.20508,0.40039062 1.16211,0.96679686 2.74414,1.6308594 3.45704,2.6757813 0.71289,1.0449218 0.71289,3.3691406 0,1.6894531 -0.40039,2.4902344 -0.39063,0.800781 -1.52344,1.347656 -1.13281,0.53711 -2.63672,0.53711 -1.65039,0 -2.82227,-0.625 -1.16211,-0.625 -1.52343,-1.5917973 -0.36133,-0.9667969 -0.36133,-2.7441406 V 5.4755468 h 3.81836 V 7.399375 q 0,0.8886718 0.15625,1.1425781 0.16601,0.2539062 0.57617,0.2539062 0.41016,0 0.60547,-0.3222656 0.20508,-0.3222656 0.20508,-0.9570312 0,-1.3964844 -0.38086,-1.8261719 -0.39063,-0.4296875 -1.92383,-1.4355469 -1.5332,-1.015625 -2.03125,-1.4746094 -0.49805,-0.4589843 -0.83008,-1.2695312 -0.32227,-0.81054689 -0.32227,-2.07031251 0,-1.81640629 0.45899,-2.65624999 0.46875,-0.8398438 1.50391,-1.3085938 1.03515,-0.4785156 2.5,-0.4785156 1.60156,0 2.7246,0.5175781 1.13282,0.5175782 1.49415,1.3085938 0.37109,0.78125 0.37109,2.66601561 z"
           id="path44854"
           style="fill:#1000ff;fill-opacity:1;stroke:none" />
        <path
           d="m -140.5343,-4.6709375 v 3.1640625 h -2.44141 v 12.646484 h -4.11133 V -1.506875 h -2.43164 v -3.1640625 z"
           id="path44856"
           style="fill:#1000ff;fill-opacity:1;stroke:none" />
      </g>
      <path
         id="path33584"
         style="fill:#ffffff;stroke:#000002;stroke-width:0.349999;stroke-linejoin:round;stroke-opacity:1;fill-opacity:1"
         d="m -25.620998,25.972015 a 3.5,3.5 0 0 1 3.5,-3.5 3.5,3.5 0 0 1 3.5,3.5 3.5,3.5 0 0 1 -3.5,3.5 3.5,3.5 0 0 1 -3.5,-3.5 z" />
      <path
         id="path33584-9"
         style="fill:#ffffff;stroke:#000002;stroke-width:0.349999;stroke-linejoin:round;stroke-opacity:1;fill-opacity:1"
         d="m -55.620996,25.972015 a 3.5,3.5 0 0 1 3.5,-3.5 3.5,3.5 0 0 1 3.5,3.5 3.5,3.5 0 0 1 -3.5,3.5 3.5,3.5 0 0 1 -3.5,-3.5 z" />
      <g
         aria-label=":"
         transform="rotate(-180,-70.416714,-0.4974977)"
         id="text39966"
         style="font-size:20px;line-height:60.4%;font-family:Impact;-inkscape-font-specification:'Impact, Normal';text-align:center;letter-spacing:0px;word-spacing:0px;text-anchor:middle;fill:#1100ff;stroke:none;stroke-width:0.264583px;fill-opacity:1">
        <path
           d="m -102.23392,-32.850801 v 3.21289 h -2.97851 v -3.21289 z m 0,7.070312 v 3.222656 h -2.97851 v -3.222656 z"
           id="path44862"
           style="stroke:none;fill:#1100ff;fill-opacity:1" />
      </g>
      <path
         id="path33584-3"
         style="fill:#ffffff;stroke:#000002;stroke-width:0.349999;stroke-linejoin:round;stroke-opacity:1;fill-opacity:1"
         d="m -25.620998,-3.2906798 a 3.5,3.4999999 0 0 1 3.5,-3.5000001 3.5,3.4999999 0 0 1 3.5,3.5000001 3.5,3.4999999 0 0 1 -3.5,3.49999993 3.5,3.4999999 0 0 1 -3.5,-3.49999993 z" />
      <path
         id="path33584-9-7"
         style="fill:#ffffff;stroke:#000002;stroke-width:0.349999;stroke-linejoin:round;stroke-opacity:1;fill-opacity:1"
         d="m -55.620996,-3.2906798 a 3.5,3.4999999 0 0 1 3.5,-3.5000001 3.5,3.4999999 0 0 1 3.5,3.5000001 3.5,3.4999999 0 0 1 -3.5,3.49999995 3.5,3.4999999 0 0 1 -3.5,-3.49999995 z" />
      <g
         aria-label=":"
         transform="rotate(-180,-70.304494,-0.0460811)"
         id="text39966-8"
         style="font-size:20px;line-height:60.4%;font-family:Impact;-inkscape-font-specification:'Impact, Normal';text-align:center;letter-spacing:0px;word-spacing:0px;text-anchor:middle;fill:#0400ff;stroke:none;stroke-width:0.264583px;fill-opacity:1">
        <path
           d="m -102.00948,-1.9479685 v 3.2128906 h -2.97851 v -3.2128906 z m 0,7.0703125 v 3.2226563 h -2.97851 V 5.122344 Z"
           id="path44859"
           style="stroke:none;fill:#0400ff;fill-opacity:1" />
      </g>
      <path
         id="path44732"
         style="fill:#ffffff;stroke:#000002;stroke-width:0.266666;stroke-linejoin:round;stroke-opacity:1;fill-opacity:1"
         d="m -30.120998,-33.290676 a 8,8 0 0 1 8,-8 8,8 0 0 1 8,8 8,8 0 0 1 -8,8 8,8 0 0 1 -8,-8 z" />
      <path
         id="path44732-0"
         style="fill:#ffffff;stroke:#000002;stroke-width:0.266666;stroke-linejoin:round;stroke-opacity:1;fill-opacity:1"
         d="m -60.120996,-33.290676 a 8,8 0 0 1 8,-8 8,8 0 0 1 8,8 8,8 0 0 1 -8,8 8,8 0 0 1 -8,-8 z" />
      <path
         id="path45989"
         style="fill:#808080;stroke-width:0.349999;stroke-linejoin:round"
         d="m 36.878998,-33.290678 a 15,-15 0 0 0 -15,-15 15,-15 0 0 0 -15.0000006,15 15,-15 0 0 0 15.0000006,15 15,-15 0 0 0 15,-15 z" />
      <path
         id="path46447"
         style="fill:#ffffff;stroke:#000000;stroke-width:0.306;stroke-linejoin:round;stroke-opacity:1;stroke-miterlimit:4;stroke-dasharray:none;fill-opacity:1"
         d="m 23.628997,-33.290678 a 1.75,1.75 0 0 0 -1.75,-1.75 1.75,1.75 0 0 0 -1.75,1.75 1.75,1.75 0 0 0 1.75,1.75 1.75,1.75 0 0 0 1.75,-1.75 z" />
      <g
         transform="matrix(1 0 0 -1 -228.121 186.709)"
         id="g51626"
         style="stroke:#030303;stroke-opacity:1;fill:#ffffff;stroke-width:0.3;stroke-miterlimit:4;stroke-dasharray:none;fill-opacity:1">
        <g
           id="g51608"
           style="stroke:#030303;stroke-opacity:1;fill:#ffffff;stroke-width:0.3;stroke-miterlimit:4;stroke-dasharray:none;fill-opacity:1">
          <path
             id="circle51594"
             d="m 246.60146,224.01241 a 1.75,1.75 0 0 1 -1.75,1.75 1.75,1.75 0 0 1 -1.75,-1.75 1.75,1.75 0 0 1 1.75,-1.75 1.75,1.75 0 0 1 1.75,1.75 z"
             style="fill:#ffffff;fill-opacity:1" />
          <path
             id="circle51596"
             d="m 245.70061,217.54727 a 1.75,1.75 0 0 1 -1.75,1.75 1.75,1.75 0 0 1 -1.75,-1.75 1.75,1.75 0 0 1 1.75,-1.75 1.75,1.75 0 0 1 1.75,1.75 z"
             style="fill:#ffffff;fill-opacity:1" />
          <path
             id="circle51598"
             d="m 250.84915,213.53455 a 1.75,1.75 0 0 1 -1.75,1.75 1.75,1.75 0 0 1 -1.75,-1.75 1.75,1.75 0 0 1 1.75,-1.75 1.75,1.75 0 0 1 1.75,1.75 z"
             style="fill:#ffffff;fill-opacity:1" />
          <path
             id="circle51600"
             d="m 256.89854,215.98697 a 1.75,1.75 0 0 1 -1.75,1.75 1.75,1.75 0 0 1 -1.75,-1.75 1.75,1.75 0 0 1 1.75,-1.75 1.75,1.75 0 0 1 1.75,1.75 z"
             style="fill:#ffffff;fill-opacity:1" />
          <path
             id="circle51602"
             d="m 257.79938,222.45209 a 1.75,1.75 0 0 1 -1.75,1.75 1.75,1.75 0 0 1 -1.75,-1.75 1.75,1.75 0 0 1 1.75,-1.75 1.75,1.75 0 0 1 1.75,1.75 z"
             style="fill:#ffffff;fill-opacity:1" />
          <path
             id="circle51604"
             d="m 252.65085,226.46481 a 1.75,1.75 0 0 1 -1.75,1.75 1.75,1.75 0 0 1 -1.75,-1.75 1.75,1.75 0 0 1 1.75,-1.75 1.75,1.75 0 0 1 1.75,1.75 z"
             style="fill:#ffffff;fill-opacity:1" />
          <path
             id="circle51606"
             d="m 246.60146,224.01241 a 1.75,1.75 0 0 1 -1.75,1.75 1.75,1.75 0 0 1 -1.75,-1.75 1.75,1.75 0 0 1 1.75,-1.75 1.75,1.75 0 0 1 1.75,1.75 z"
             style="fill:#ffffff;fill-opacity:1" />
        </g>
        <g
           id="g51624"
           style="stroke:#030303;stroke-opacity:1;fill:#ffffff;stroke-width:0.3;stroke-miterlimit:4;stroke-dasharray:none;fill-opacity:1">
          <g
             aria-label="1"
             id="text51610"
             style="font-size:0.00000000000000000000000000000001px;fill:#ffffff;fill-opacity:1">
            <path
               d="m 246.60146,222.26241 v 0 0 0 0 0 0 0 0 0 0 z"
               id="path52900"
               style="fill:#ffffff;fill-opacity:1" />
          </g>
          <g
             aria-label="2"
             id="text51612"
             style="font-size:0.00000000000000000000000000000001px;fill:#ffffff;fill-opacity:1">
            <path
               d="m 245.70061,215.79727 v 0 0 0 0 q 0,0 0,0 0,0 0,0 0,0 0,0 0,0 0,0 0,0 0,0 0,0 0,0 0,0 0,0 0,0 0,0 v 0 q 0,0 0,0 0,0 0,0 0,0 0,0 0,0 0,0 0,0 0,0 0,0 0,0 0,0 0,0 0,0 0,0 z"
               id="path52903"
               style="fill:#ffffff;fill-opacity:1" />
          </g>
          <g
             aria-label="3"
             id="text51614"
             style="font-size:0.00000000000000000000000000000001px;fill:#ffffff;fill-opacity:1">
            <path
               d="m 250.84915,211.78455 q 0,0 0,0 0,0 0,0 0,0 0,0 0,0 0,0 0,0 0,0 0,0 0,0 v 0 q 0,0 0,0 0,0 0,0 0,0 0,0 0,0 0,0 0,0 0,0 0,0 0,0 v 0 0 0 q 0,0 0,0 0,0 0,0 0,0 0,0 0,0 0,0 0,0 0,0 0,0 0,0 v 0 q 0,0 0,0 0,0 0,0 0,0 0,0 0,0 0,0 0,0 0,0 0,0 0,0 z"
               id="path52906"
               style="fill:#ffffff;fill-opacity:1" />
          </g>
          <g
             aria-label="4"
             id="text51616"
             style="font-size:0.00000000000000000000000000000001px;fill:#ffffff;fill-opacity:1">
            <path
               d="m 256.89853,214.23697 v 0 0 z m 0,0 v 0 0 0 0 0 0 0 0 0 0 z"
               id="path52909"
               style="fill:#ffffff;fill-opacity:1" />
          </g>
          <g
             aria-label="5"
             id="text51618"
             style="font-size:0.00000000000000000000000000000001px;fill:#ffffff;fill-opacity:1">
            <path
               d="m 257.79938,220.70209 v 0 0 0 0 q 0,0 0,0 0,0 0,0 0,0 0,0 0,0 0,0 0,0 0,0 0,0 0,0 0,0 0,0 0,0 0,0 v 0 q 0,0 0,0 0,0 0,0 0,0 0,0 0,0 0,0 0,0 0,0 0,0 0,0 0,0 0,0 0,0 0,0 z"
               id="path52912"
               style="fill:#ffffff;fill-opacity:1" />
          </g>
          <g
             aria-label="6"
             id="text51620"
             style="font-size:0.00000000000000000000000000000001px;fill:#ffffff;fill-opacity:1">
            <path
               d="m 252.65085,224.71481 q 0,0 0,0 0,0 0,0 0,0 0,0 0,0 0,0 0,0 0,0 0,0 0,0 0,0 0,0 0,0 0,0 z m 0,0 v 0 q 0,0 0,0 0,0 0,0 0,0 0,0 0,0 0,0 0,0 0,0 0,0 0,0 0,0 0,0 0,0 0,0 0,0 0,0 0,0 0,0 0,0 0,0 0,0 0,0 0,0 0,0 0,0 0,0 0,0 0,0 0,0 0,0 z"
               id="path52915"
               style="fill:#ffffff;fill-opacity:1" />
          </g>
          <g
             aria-label="7"
             id="text51622"
             style="font-size:0.00000000000000000000000000000001px;fill:#ffffff;fill-opacity:1">
            <path
               d="m 246.60146,222.26241 v 0 0 0 0 0 0 z"
               id="path52918"
               style="fill:#ffffff;fill-opacity:1" />
          </g>
        </g>
      </g>
      <g
         transform="matrix(1 0 0 -1 -228.121 186.709)"
         id="g52344"
         style="stroke:#030303;stroke-opacity:1;fill:#ffffff;stroke-width:0.3;stroke-miterlimit:4;stroke-dasharray:none;fill-opacity:1">
        <g
           id="g52314"
           style="stroke:#030303;stroke-opacity:1;fill:#ffffff;stroke-width:0.3;stroke-miterlimit:4;stroke-dasharray:none;fill-opacity:1">
          <path
             id="circle52288"
             d="m 255.50012,208.73999 a 1.75,1.75 0 0 1 -1.75,1.75 1.75,1.75 0 0 1 -1.75,-1.75 1.75,1.75 0 0 1 1.75,-1.75 1.75,1.75 0 0 1 1.75,1.75 z"
             style="fill:#ffffff;fill-opacity:1" />
          <path
             id="circle52290"
             d="m 260.62753,212.12357 a 1.75,1.75 0 0 1 -1.75,1.75 1.75,1.75 0 0 1 -1.75,-1.75 1.75,1.75 0 0 1 1.75,-1.75 1.75,1.75 0 0 1 1.75,1.75 z"
             style="fill:#ffffff;fill-opacity:1" />
          <path
             id="circle52292"
             d="m 263.37625,217.61754 a 1.75,1.75 0 0 1 -1.75,1.75 1.75,1.75 0 0 1 -1.75,-1.75 1.75,1.75 0 0 1 1.75,-1.75 1.75,1.75 0 0 1 1.75,1.75 z"
             style="fill:#ffffff;fill-opacity:1" />
          <path
             id="circle52294"
             d="m 263.0097,223.7498 a 1.75,1.75 0 0 1 -1.75,1.75 1.75,1.75 0 0 1 -1.75,-1.75 1.75,1.75 0 0 1 1.75,-1.75 1.75,1.75 0 0 1 1.75,1.75 z"
             style="fill:#ffffff;fill-opacity:1" />
          <path
             id="circle52296"
             d="m 259.62613,228.87723 a 1.75,1.75 0 0 1 -1.75,1.75 1.75,1.75 0 0 1 -1.75,-1.75 1.75,1.75 0 0 1 1.75,-1.75 1.75,1.75 0 0 1 1.75,1.75 z"
             style="fill:#ffffff;fill-opacity:1" />
          <path
             id="circle52298"
             d="m 254.13214,231.62593 a 1.75,1.75 0 0 1 -1.75,1.75 1.75,1.75 0 0 1 -1.75,-1.75 1.75,1.75 0 0 1 1.75,-1.75 1.75,1.75 0 0 1 1.75,1.75 z"
             style="fill:#ffffff;fill-opacity:1" />
          <path
             id="circle52300"
             d="m 247.99988,231.25938 a 1.75,1.75 0 0 1 -1.75,1.75 1.75,1.75 0 0 1 -1.75,-1.75 1.75,1.75 0 0 1 1.75,-1.75 1.75,1.75 0 0 1 1.75,1.75 z"
             style="fill:#ffffff;fill-opacity:1" />
          <path
             id="circle52302"
             d="m 242.87245,227.87581 a 1.75,1.75 0 0 1 -1.75,1.75 1.75,1.75 0 0 1 -1.75,-1.75 1.75,1.75 0 0 1 1.75,-1.75 1.75,1.75 0 0 1 1.75,1.75 z"
             style="fill:#ffffff;fill-opacity:1" />
          <path
             id="circle52304"
             d="m 240.12375,222.38184 a 1.75,1.75 0 0 1 -1.75,1.75 1.75,1.75 0 0 1 -1.75,-1.75 1.75,1.75 0 0 1 1.75,-1.75 1.75,1.75 0 0 1 1.75,1.75 z"
             style="fill:#ffffff;fill-opacity:1" />
          <path
             id="circle52306"
             d="m 240.4903,216.24956 a 1.75,1.75 0 0 1 -1.75,1.75 1.75,1.75 0 0 1 -1.75,-1.75 1.75,1.75 0 0 1 1.75,-1.75 1.75,1.75 0 0 1 1.75,1.75 z"
             style="fill:#ffffff;fill-opacity:1" />
          <path
             id="circle52308"
             d="m 243.87387,211.12213 a 1.75,1.75 0 0 1 -1.75,1.75 1.75,1.75 0 0 1 -1.75,-1.75 1.75,1.75 0 0 1 1.75,-1.75 1.75,1.75 0 0 1 1.75,1.75 z"
             style="fill:#ffffff;fill-opacity:1" />
          <path
             id="circle52310"
             d="m 249.36784,208.37344 a 1.75,1.75 0 0 1 -1.75,1.75 1.75,1.75 0 0 1 -1.75,-1.75 1.75,1.75 0 0 1 1.75,-1.75 1.75,1.75 0 0 1 1.75,1.75 z"
             style="fill:#ffffff;fill-opacity:1" />
          <path
             id="circle52312"
             d="m 255.50012,208.73999 a 1.75,1.75 0 0 1 -1.75,1.75 1.75,1.75 0 0 1 -1.75,-1.75 1.75,1.75 0 0 1 1.75,-1.75 1.75,1.75 0 0 1 1.75,1.75 z"
             style="fill:#ffffff;fill-opacity:1" />
        </g>
        <g
           id="g52342"
           style="stroke:#030303;stroke-opacity:1;fill:#ffffff;stroke-width:0.3;stroke-miterlimit:4;stroke-dasharray:none;fill-opacity:1">
          <g
             aria-label="1"
             id="text52316"
             style="font-size:0.00000000000000000000000000000001px;fill:#ffffff;fill-opacity:1">
            <path
               d="m 255.50012,206.98999 v 0 0 0 0 0 0 0 0 0 0 z"
               id="path52846"
               style="fill:#ffffff;fill-opacity:1" />
          </g>
          <g
             aria-label="2"
             id="text52318"
             style="font-size:0.00000000000000000000000000000001px;fill:#ffffff;fill-opacity:1">
            <path
               d="m 260.62753,210.37357 v 0 0 0 0 q 0,0 0,0 0,0 0,0 0,0 0,0 0,0 0,0 0,0 0,0 0,0 0,0 0,0 0,0 0,0 0,0 v 0 q 0,0 0,0 0,0 0,0 0,0 0,0 0,0 0,0 0,0 0,0 0,0 0,0 0,0 0,0 0,0 0,0 z"
               id="path52849"
               style="fill:#ffffff;fill-opacity:1" />
          </g>
          <g
             aria-label="3"
             id="text52320"
             style="font-size:0.00000000000000000000000000000001px;fill:#ffffff;fill-opacity:1">
            <path
               d="m 263.37625,215.86754 q 0,0 0,0 0,0 0,0 0,0 0,0 0,0 0,0 0,0 0,0 0,0 0,0 v 0 q 0,0 0,0 0,0 0,0 0,0 0,0 0,0 0,0 0,0 0,0 0,0 0,0 v 0 0 0 q 0,0 0,0 0,0 0,0 0,0 0,0 0,0 0,0 0,0 0,0 0,0 0,0 v 0 q 0,0 0,0 0,0 0,0 0,0 0,0 0,0 0,0 0,0 0,0 0,0 0,0 z"
               id="path52852"
               style="fill:#ffffff;fill-opacity:1" />
          </g>
          <g
             aria-label="4"
             id="text52322"
             style="font-size:0.00000000000000000000000000000001px;fill:#ffffff;fill-opacity:1">
            <path
               d="m 263.0097,221.9998 v 0 0 z m 0,0 v 0 0 0 0 0 0 0 0 0 0 z"
               id="path52855"
               style="fill:#ffffff;fill-opacity:1" />
          </g>
          <g
             aria-label="5"
             id="text52324"
             style="font-size:0.00000000000000000000000000000001px;fill:#ffffff;fill-opacity:1">
            <path
               d="m 259.62613,227.12723 v 0 0 0 0 q 0,0 0,0 0,0 0,0 0,0 0,0 0,0 0,0 0,0 0,0 0,0 0,0 0,0 0,0 0,0 0,0 v 0 q 0,0 0,0 0,0 0,0 0,0 0,0 0,0 0,0 0,0 0,0 0,0 0,0 0,0 0,0 0,0 0,0 z"
               id="path52858"
               style="fill:#ffffff;fill-opacity:1" />
          </g>
          <g
             aria-label="6"
             id="text52326"
             style="font-size:0.00000000000000000000000000000001px;fill:#ffffff;fill-opacity:1">
            <path
               d="m 254.13214,229.87593 q 0,0 0,0 0,0 0,0 0,0 0,0 0,0 0,0 0,0 0,0 0,0 0,0 0,0 0,0 0,0 0,0 z m 0,0 v 0 q 0,0 0,0 0,0 0,0 0,0 0,0 0,0 0,0 0,0 0,0 0,0 0,0 0,0 0,0 0,0 0,0 0,0 0,0 0,0 0,0 0,0 0,0 0,0 0,0 0,0 0,0 0,0 0,0 0,0 0,0 0,0 0,0 z"
               id="path52861"
               style="fill:#ffffff;fill-opacity:1" />
          </g>
          <g
             aria-label="7"
             id="text52328"
             style="font-size:0.00000000000000000000000000000001px;fill:#ffffff;fill-opacity:1">
            <path
               d="m 247.99988,229.50938 v 0 0 0 0 0 0 z"
               id="path52864"
               style="fill:#ffffff;fill-opacity:1" />
          </g>
          <g
             aria-label="8"
             id="text52330"
             style="font-size:0.00000000000000000000000000000001px;fill:#ffffff;fill-opacity:1">
            <path
               d="m 242.87245,226.12581 q 0,0 0,0 0,0 0,0 0,0 0,0 0,0 0,0 0,0 0,0 0,0 0,0 0,0 0,0 0,0 0,0 z m 0,0 q 0,0 0,0 0,0 0,0 0,0 0,0 0,0 0,0 0,0 0,0 0,0 0,0 0,0 0,0 0,0 0,0 0,0 0,0 0,0 0,0 0,0 0,0 0,0 0,0 0,0 0,0 0,0 0,0 0,0 0,0 0,0 0,0 z m 0,0 q 0,0 0,0 0,0 0,0 0,0 0,0 0,0 0,0 0,0 0,0 0,0 0,0 0,0 0,0 0,0 0,0 z"
               id="path52867"
               style="fill:#ffffff;fill-opacity:1" />
          </g>
          <g
             aria-label="9"
             id="text52332"
             style="font-size:0.00000000000000000000000000000001px;fill:#ffffff;fill-opacity:1">
            <path
               d="m 240.12375,220.63184 v 0 q 0,0 0,0 0,0 0,0 0,0 0,0 0,0 0,0 0,0 0,0 0,0 0,0 0,0 0,0 0,0 0,0 0,0 0,0 0,0 0,0 0,0 0,0 0,0 0,0 0,0 0,0 0,0 0,0 0,0 0,0 0,0 0,0 z m 0,0 q 0,0 0,0 0,0 0,0 0,0 0,0 0,0 0,0 0,0 0,0 0,0 0,0 0,0 0,0 0,0 0,0 z"
               id="path52870"
               style="fill:#ffffff;fill-opacity:1" />
          </g>
          <g
             aria-label="10"
             id="text52334"
             style="font-size:0.00000000000000000000000000000001px;fill:#ffffff;fill-opacity:1">
            <path
               d="m 240.4903,214.49956 v 0 0 0 0 0 0 0 0 0 0 z"
               id="path52873"
               style="fill:#ffffff;fill-opacity:1" />
            <path
               d="m 240.4903,214.49956 q 0,0 0,0 0,0 0,0 0,0 0,0 0,0 0,0 0,0 0,0 0,0 0,0 0,0 0,0 0,0 0,0 z m 0,0 q 0,0 0,0 0,0 0,0 0,0 0,0 0,0 0,0 0,0 0,0 0,0 0,0 0,0 0,0 0,0 0,0 z"
               id="path52875"
               style="fill:#ffffff;fill-opacity:1" />
          </g>
          <g
             aria-label="11"
             id="text52336"
             style="font-size:0.00000000000000000000000000000001px;fill:#ffffff;fill-opacity:1">
            <path
               d="m 243.87387,209.37213 v 0 0 0 0 0 0 0 0 0 0 z"
               id="path52878"
               style="fill:#ffffff;fill-opacity:1" />
            <path
               d="m 243.87387,209.37213 v 0 0 0 0 0 0 0 0 0 0 z"
               id="path52880"
               style="fill:#ffffff;fill-opacity:1" />
          </g>
          <g
             aria-label="12"
             id="text52338"
             style="font-size:0.00000000000000000000000000000001px;fill:#ffffff;fill-opacity:1">
            <path
               d="m 249.36784,206.62344 v 0 0 0 0 0 0 0 0 0 0 z"
               id="path52883"
               style="fill:#ffffff;fill-opacity:1" />
            <path
               d="m 249.36784,206.62344 v 0 0 0 0 q 0,0 0,0 0,0 0,0 0,0 0,0 0,0 0,0 0,0 0,0 0,0 0,0 0,0 0,0 0,0 0,0 v 0 q 0,0 0,0 0,0 0,0 0,0 0,0 0,0 0,0 0,0 0,0 0,0 0,0 0,0 0,0 0,0 0,0 z"
               id="path52885"
               style="fill:#ffffff;fill-opacity:1" />
          </g>
          <g
             aria-label="13"
             id="text52340"
             style="font-size:0.00000000000000000000000000000001px;fill:#ffffff;fill-opacity:1">
            <path
               d="m 255.50012,206.98999 v 0 0 0 0 0 0 0 0 0 0 z"
               id="path52888"
               style="fill:#ffffff;fill-opacity:1" />
            <path
               d="m 255.50012,206.98999 q 0,0 0,0 0,0 0,0 0,0 0,0 0,0 0,0 0,0 0,0 0,0 0,0 v 0 q 0,0 0,0 0,0 0,0 0,0 0,0 0,0 0,0 0,0 0,0 0,0 0,0 v 0 0 0 q 0,0 0,0 0,0 0,0 0,0 0,0 0,0 0,0 0,0 0,0 0,0 0,0 v 0 q 0,0 0,0 0,0 0,0 0,0 0,0 0,0 0,0 0,0 0,0 0,0 0,0 z"
               id="path52890"
               style="fill:#ffffff;fill-opacity:1" />
          </g>
        </g>
      </g>
    </g>
  </g>
</svg>
