<?xml version="1.0"?>
<!DOCTYPE svg PUBLIC "-//W3C//DTD SVG 1.1//EN" "http://www.w3.org/Graphics/SVG/1.1/DTD/svg11.dtd">
<svg width="12.240000000000002mm" height="75.0968542494955mm" viewBox="0 0 12.240000000000002 75.0968542494955" xmlns="http://www.w3.org/2000/svg" version="1.1">
<g id="Body001_cs" transform="translate(6.120000,37.548427) scale(1,-1)">
<path id="Body001_cs_w0000"  d="M 5.999999999999998 -10.064101615137758 L 6.0 -19.77157287524818 L 1.6798977603893372 -15.451470635640455 A 2.5 2.5 0 0 1 2.5 -13.6A 2.5 2.5 0 0 1 1.34758e-14 -11.1L 4.857533354175343e-15 -8.509285000000002 L 2.489242000000005 -8.509285000000002 L 2.489242000000005 -6.6000000000000085 L 2.999999999999998 -6.600000000000006 A 3.4641 3 -90 0 0 6 -10.0641" stroke="#191919" stroke-width="0.35 px" style="stroke-width:0.35;stroke-miterlimit:4;stroke-dasharray:none;fill:none;fill-opacity:1;fill-rule: evenodd"/>
<path id="Body001_cs_w0001"  d="M -2.7104595140684014e-14 -16.10000000000001 A 2.5 2.5 0 0 1 1.6799 -15.4515L 6.0 -19.77157287524818 L 6.000000000000001 -20.60000000000001 L 4.0 -20.60000000000001 L 0.0 -16.60000000000137 L -2.7e-14 -16.10000000000001 " stroke="#191919" stroke-width="0.35 px" style="stroke-width:0.35;stroke-miterlimit:4;stroke-dasharray:none;fill:none;fill-opacity:1;fill-rule: evenodd"/>
<path id="Body001_cs_w0002"  d="M -2.5339069999999952 -8.509285000000002 L -2.5339069999999952 -6.6000000000000005 L -3.0 -6.600000000000008 A 3.4641 3 -90 0 1 -6 -10.0641L -6.0 -19.771572875248186 L -1.6798977603893321 -15.451470635640465 A 2.5 2.5 0 0 0 1.28634e-14 -11.1L 4.857533354175343e-15 -8.509285000000002 L -2.5339069999999952 -8.509285000000002 " stroke="#191919" stroke-width="0.35 px" style="stroke-width:0.35;stroke-miterlimit:4;stroke-dasharray:none;fill:none;fill-opacity:1;fill-rule: evenodd"/>
<path id="Body001_cs_w0003"  d="M 6.0 -25.60000000000001 L 4.0 -25.60000000000001 L 4.0 -20.60000000000001 L 6.000000000000001 -20.60000000000001 L 6.0 -25.60000000000001 " stroke="#191919" stroke-width="0.35 px" style="stroke-width:0.35;stroke-miterlimit:4;stroke-dasharray:none;fill:none;fill-opacity:1;fill-rule: evenodd"/>
<path id="Body001_cs_w0004"  d="M 0.0 -34.59999999999865 L 0.0 -37.42842712474775 L 6.0 -31.42842712475183 L 6.0 -25.60000000000001 L 4.0 -25.60000000000001 L 4.0 -30.60000000000001 L 0.0 -34.59999999999865 " stroke="#191919" stroke-width="0.35 px" style="stroke-width:0.35;stroke-miterlimit:4;stroke-dasharray:none;fill:none;fill-opacity:1;fill-rule: evenodd"/>
<path id="Body001_cs_w0005"  d="M -6.000000000000001 -19.771572875248197 L -1.6798977603893321 -15.451470635640465 A 2.5 2.5 0 0 1 -2.71046e-14 -16.1L 0.0 -16.600000000002723 L -4.0 -20.600000000000016 L -6.000000000000001 -20.6 L -6.0 -19.771572875248197 " stroke="#191919" stroke-width="0.35 px" style="stroke-width:0.35;stroke-miterlimit:4;stroke-dasharray:none;fill:none;fill-opacity:1;fill-rule: evenodd"/>
<path id="Body001_cs_w0006"  d="M 0.0 -37.42842712474775 L -6.0 -31.428427124751824 L -6.0 -25.60000000000001 L -4.0 -25.60000000000001 L -4.0 -30.60000000000001 L 0.0 -34.59999999999865 L 0.0 -37.42842712474775 " stroke="#191919" stroke-width="0.35 px" style="stroke-width:0.35;stroke-miterlimit:4;stroke-dasharray:none;fill:none;fill-opacity:1;fill-rule: evenodd"/>
<path id="Body001_cs_w0007"  d="M -4.0 -25.60000000000001 L -4.0 -20.60000000000001 L -6.000000000000001 -20.6 L -6.0 -25.60000000000001 L -4.0 -25.60000000000001 " stroke="#191919" stroke-width="0.35 px" style="stroke-width:0.35;stroke-miterlimit:4;stroke-dasharray:none;fill:none;fill-opacity:1;fill-rule: evenodd"/>
<path id="Body001_cs_w0008"  d="M 2.489242000000005 7.363871999999995 L 2.489242000000005 6.6000000000000005 L 2.999999999999998 6.6 A 3.4641 3 90 0 1 6 10.0641L 6.0 19.77157287524818 L 1.6798977603893372 15.451470635640455 A 2.5 2.5 0 0 0 2.5 13.6A 2.5 2.5 0 0 0 1.34758e-14 11.1L 9.440892098500627e-16 7.363871999999995 L 2.489242000000005 7.363871999999995 " stroke="#191919" stroke-width="0.35 px" style="stroke-width:0.35;stroke-miterlimit:4;stroke-dasharray:none;fill:none;fill-opacity:1;fill-rule: evenodd"/>
<path id="Body001_cs_w0009"  d="M 6.000000000000001 19.771572875248182 L 1.6798977603893372 15.451470635640455 A 2.5 2.5 0 0 1 -2.59372e-14 16.1L 0.0 16.600000000002723 L 4.0 20.6 L 6.000000000000001 20.6 L 6.0 19.77157287524818 " stroke="#191919" stroke-width="0.35 px" style="stroke-width:0.35;stroke-miterlimit:4;stroke-dasharray:none;fill:none;fill-opacity:1;fill-rule: evenodd"/>
<path id="Body001_cs_w0010"  d="M 4.0 25.6 L 4.0 20.6 L 6.000000000000001 20.6 L 6.0 25.6 L 4.0 25.6 " stroke="#191919" stroke-width="0.35 px" style="stroke-width:0.35;stroke-miterlimit:4;stroke-dasharray:none;fill:none;fill-opacity:1;fill-rule: evenodd"/>
<path id="Body001_cs_w0011"  d="M 0.0 37.42842712474774 L 6.0 31.428427124751824 L 6.0 25.6 L 4.0 25.6 L 4.0 30.600000000000005 L 0.0 34.59999999999864 L 0.0 37.42842712474774 " stroke="#191919" stroke-width="0.35 px" style="stroke-width:0.35;stroke-miterlimit:4;stroke-dasharray:none;fill:none;fill-opacity:1;fill-rule: evenodd"/>
<path id="Body001_cs_w0012"  d="M -6.0 10.064101615137755 L -6.0 19.77157287524818 L -1.6798977603893366 15.451470635640455 A 2.5 2.5 0 0 1 1.28634e-14 11.1L 9.440892098500627e-16 7.363871999999995 L -2.5339069999999952 7.363871999999995 L -2.5339069999999952 6.600000000000001 L -3.0 6.6 A 3.4641 3 90 0 0 -6 10.0641" stroke="#191919" stroke-width="0.35 px" style="stroke-width:0.35;stroke-miterlimit:4;stroke-dasharray:none;fill:none;fill-opacity:1;fill-rule: evenodd"/>
<path id="Body001_cs_w0013"  d="M 0.0 34.59999999999864 L 0.0 37.42842712474774 L -6.0 31.428427124751824 L -6.0 25.6 L -4.0 25.6 L -4.0 30.600000000000005 L 0.0 34.59999999999864 " stroke="#191919" stroke-width="0.35 px" style="stroke-width:0.35;stroke-miterlimit:4;stroke-dasharray:none;fill:none;fill-opacity:1;fill-rule: evenodd"/>
<path id="Body001_cs_w0014"  d="M -6.0 25.6 L -4.0 25.6 L -4.0 20.6 L -6.0 20.6 L -6.0 25.6 " stroke="#191919" stroke-width="0.35 px" style="stroke-width:0.35;stroke-miterlimit:4;stroke-dasharray:none;fill:none;fill-opacity:1;fill-rule: evenodd"/>
<path id="Body001_cs_w0015"  d="M -2.7e-14 16.1 A 2.5 2.5 0 0 1 -1.6799 15.4515L -6.0 19.77157287524818 L -6.0 20.6 L -4.0 20.6 L 0.0 16.600000000001362 L -2.7e-14 16.1 " stroke="#191919" stroke-width="0.35 px" style="stroke-width:0.35;stroke-miterlimit:4;stroke-dasharray:none;fill:none;fill-opacity:1;fill-rule: evenodd"/>
<path id="Body001_cs_w0016"  d="M 2.489242000000005 -8.509285000000002 L 4.857533354175343e-15 -8.509285000000002 L -1e-15 -6.600000000000009 L 2.489242000000005 -6.6000000000000085 L 2.489242000000005 -8.509285000000002 " stroke="#191919" stroke-width="0.35 px" style="stroke-width:0.35;stroke-miterlimit:4;stroke-dasharray:none;fill:none;fill-opacity:1;fill-rule: evenodd"/>
<path id="Body001_cs_w0017"  d="M -1e-15 6.600000000000001 L -2.5339069999999952 6.600000000000001 L -2.5339069999999952 -6.6000000000000005 L 2.31e-15 -6.600000000000001 L 2.489242000000005 -6.6000000000000085 L 2.489242000000005 6.6000000000000005 L -2.31e-15 6.600000000000001 " stroke="#191919" stroke-width="0.35 px" style="stroke-width:0.35;stroke-miterlimit:4;stroke-dasharray:none;fill:none;fill-opacity:1;fill-rule: evenodd"/>
<path id="Body001_cs_w0018"  d="M 4.857533354175343e-15 -8.509285000000002 L -1e-15 -6.600000000000009 L -2.5339069999999952 -6.6000000000000005 L -2.5339069999999952 -8.509285000000002 L 4.884981308350689e-15 -8.509285000000002 " stroke="#191919" stroke-width="0.35 px" style="stroke-width:0.35;stroke-miterlimit:4;stroke-dasharray:none;fill:none;fill-opacity:1;fill-rule: evenodd"/>
<path id="Body001_cs_w0019"  d="M 9.440892098500627e-16 7.363871999999995 L -1e-15 6.600000000000001 L 2.489242000000005 6.6000000000000005 L 2.489242000000005 7.363871999999995 L 8.881784197001252e-16 7.363871999999995 " stroke="#191919" stroke-width="0.35 px" style="stroke-width:0.35;stroke-miterlimit:4;stroke-dasharray:none;fill:none;fill-opacity:1;fill-rule: evenodd"/>
<path id="Body001_cs_w0020"  d="M -2.5339069999999952 7.363871999999995 L 9.440892098500627e-16 7.363871999999995 L -1e-15 6.600000000000001 L -2.5339069999999952 6.600000000000001 L -2.5339069999999952 7.363871999999995 " stroke="#191919" stroke-width="0.35 px" style="stroke-width:0.35;stroke-miterlimit:4;stroke-dasharray:none;fill:none;fill-opacity:1;fill-rule: evenodd"/>
<title>b'Body001_cs'</title>
</g>
</svg>