G04 #@! TF.GenerationSoftware,KiCad,Pcbnew,6.0.2+dfsg-1*
G04 #@! TF.CreationDate,2022-11-12T16:17:19-08:00*
G04 #@! TF.ProjectId,separator,73657061-7261-4746-9f72-2e6b69636164,rev?*
G04 #@! TF.SameCoordinates,Original*
G04 #@! TF.FileFunction,Legend,Bot*
G04 #@! TF.FilePolarity,Positive*
%FSLAX46Y46*%
G04 Gerber Fmt 4.6, Leading zero omitted, Abs format (unit mm)*
G04 Created by KiCad (PCBNEW 6.0.2+dfsg-1) date 2022-11-12 16:17:19*
%MOMM*%
%LPD*%
G01*
G04 APERTURE LIST*
G04 Aperture macros list*
%AMRoundRect*
0 Rectangle with rounded corners*
0 $1 Rounding radius*
0 $2 $3 $4 $5 $6 $7 $8 $9 X,Y pos of 4 corners*
0 Add a 4 corners polygon primitive as box body*
4,1,4,$2,$3,$4,$5,$6,$7,$8,$9,$2,$3,0*
0 Add four circle primitives for the rounded corners*
1,1,$1+$1,$2,$3*
1,1,$1+$1,$4,$5*
1,1,$1+$1,$6,$7*
1,1,$1+$1,$8,$9*
0 Add four rect primitives between the rounded corners*
20,1,$1+$1,$2,$3,$4,$5,0*
20,1,$1+$1,$4,$5,$6,$7,0*
20,1,$1+$1,$6,$7,$8,$9,0*
20,1,$1+$1,$8,$9,$2,$3,0*%
G04 Aperture macros list end*
%ADD10C,0.150000*%
%ADD11C,0.120000*%
%ADD12C,3.200000*%
%ADD13RoundRect,0.250000X0.350000X0.625000X-0.350000X0.625000X-0.350000X-0.625000X0.350000X-0.625000X0*%
%ADD14O,1.200000X1.750000*%
G04 APERTURE END LIST*
D10*
X147857142Y-120547619D02*
X147809523Y-120500000D01*
X147714285Y-120452380D01*
X147476190Y-120452380D01*
X147380952Y-120500000D01*
X147333333Y-120547619D01*
X147285714Y-120642857D01*
X147285714Y-120738095D01*
X147333333Y-120880952D01*
X147904761Y-121452380D01*
X147285714Y-121452380D01*
X146666666Y-120452380D02*
X146571428Y-120452380D01*
X146476190Y-120500000D01*
X146428571Y-120547619D01*
X146380952Y-120642857D01*
X146333333Y-120833333D01*
X146333333Y-121071428D01*
X146380952Y-121261904D01*
X146428571Y-121357142D01*
X146476190Y-121404761D01*
X146571428Y-121452380D01*
X146666666Y-121452380D01*
X146761904Y-121404761D01*
X146809523Y-121357142D01*
X146857142Y-121261904D01*
X146904761Y-121071428D01*
X146904761Y-120833333D01*
X146857142Y-120642857D01*
X146809523Y-120547619D01*
X146761904Y-120500000D01*
X146666666Y-120452380D01*
X145952380Y-120547619D02*
X145904761Y-120500000D01*
X145809523Y-120452380D01*
X145571428Y-120452380D01*
X145476190Y-120500000D01*
X145428571Y-120547619D01*
X145380952Y-120642857D01*
X145380952Y-120738095D01*
X145428571Y-120880952D01*
X146000000Y-121452380D01*
X145380952Y-121452380D01*
X145000000Y-120547619D02*
X144952380Y-120500000D01*
X144857142Y-120452380D01*
X144619047Y-120452380D01*
X144523809Y-120500000D01*
X144476190Y-120547619D01*
X144428571Y-120642857D01*
X144428571Y-120738095D01*
X144476190Y-120880952D01*
X145047619Y-121452380D01*
X144428571Y-121452380D01*
X144000000Y-121071428D02*
X143238095Y-121071428D01*
X142238095Y-121452380D02*
X142809523Y-121452380D01*
X142523809Y-121452380D02*
X142523809Y-120452380D01*
X142619047Y-120595238D01*
X142714285Y-120690476D01*
X142809523Y-120738095D01*
X141285714Y-121452380D02*
X141857142Y-121452380D01*
X141571428Y-121452380D02*
X141571428Y-120452380D01*
X141666666Y-120595238D01*
X141761904Y-120690476D01*
X141857142Y-120738095D01*
X140857142Y-121071428D02*
X140095238Y-121071428D01*
X139095238Y-121452380D02*
X139666666Y-121452380D01*
X139380952Y-121452380D02*
X139380952Y-120452380D01*
X139476190Y-120595238D01*
X139571428Y-120690476D01*
X139666666Y-120738095D01*
X138714285Y-120547619D02*
X138666666Y-120500000D01*
X138571428Y-120452380D01*
X138333333Y-120452380D01*
X138238095Y-120500000D01*
X138190476Y-120547619D01*
X138142857Y-120642857D01*
X138142857Y-120738095D01*
X138190476Y-120880952D01*
X138761904Y-121452380D01*
X138142857Y-121452380D01*
X143714285Y-122785714D02*
X143476190Y-123452380D01*
X143238095Y-122785714D01*
X142333333Y-123452380D02*
X142904761Y-123452380D01*
X142619047Y-123452380D02*
X142619047Y-122452380D01*
X142714285Y-122595238D01*
X142809523Y-122690476D01*
X142904761Y-122738095D01*
X144095238Y-90552380D02*
X144095238Y-91266666D01*
X144142857Y-91409523D01*
X144238095Y-91504761D01*
X144380952Y-91552380D01*
X144476190Y-91552380D01*
X143619047Y-91552380D02*
X143619047Y-90552380D01*
X143142857Y-91552380D02*
X143142857Y-90552380D01*
X142571428Y-91552380D01*
X142571428Y-90552380D01*
X141571428Y-91552380D02*
X142142857Y-91552380D01*
X141857142Y-91552380D02*
X141857142Y-90552380D01*
X141952380Y-90695238D01*
X142047619Y-90790476D01*
X142142857Y-90838095D01*
X144761904Y-82002380D02*
X144761904Y-82716666D01*
X144809523Y-82859523D01*
X144904761Y-82954761D01*
X145047619Y-83002380D01*
X145142857Y-83002380D01*
X144095238Y-82002380D02*
X143904761Y-82002380D01*
X143809523Y-82050000D01*
X143714285Y-82145238D01*
X143666666Y-82335714D01*
X143666666Y-82669047D01*
X143714285Y-82859523D01*
X143809523Y-82954761D01*
X143904761Y-83002380D01*
X144095238Y-83002380D01*
X144190476Y-82954761D01*
X144285714Y-82859523D01*
X144333333Y-82669047D01*
X144333333Y-82335714D01*
X144285714Y-82145238D01*
X144190476Y-82050000D01*
X144095238Y-82002380D01*
X143238095Y-82002380D02*
X143238095Y-82811904D01*
X143190476Y-82907142D01*
X143142857Y-82954761D01*
X143047619Y-83002380D01*
X142857142Y-83002380D01*
X142761904Y-82954761D01*
X142714285Y-82907142D01*
X142666666Y-82811904D01*
X142666666Y-82002380D01*
X142333333Y-82002380D02*
X141761904Y-82002380D01*
X142047619Y-83002380D02*
X142047619Y-82002380D01*
X140904761Y-83002380D02*
X141476190Y-83002380D01*
X141190476Y-83002380D02*
X141190476Y-82002380D01*
X141285714Y-82145238D01*
X141380952Y-82240476D01*
X141476190Y-82288095D01*
D11*
X142100000Y-96300000D02*
X142100000Y-95800000D01*
X144500000Y-92800000D02*
X146450000Y-92800000D01*
X144500000Y-92190000D02*
X144500000Y-92800000D01*
X147060000Y-94800000D02*
X146450000Y-94800000D01*
X147060000Y-92190000D02*
X147060000Y-96910000D01*
X141900000Y-95800000D02*
X141900000Y-96300000D01*
X138940000Y-96910000D02*
X138940000Y-92190000D01*
X143900000Y-95800000D02*
X143900000Y-96300000D01*
X146450000Y-92800000D02*
X146450000Y-96300000D01*
X144000000Y-96300000D02*
X144000000Y-95800000D01*
X144100000Y-95800000D02*
X143900000Y-95800000D01*
X139550000Y-92800000D02*
X141500000Y-92800000D01*
X145300000Y-92190000D02*
X145300000Y-91990000D01*
X138940000Y-94800000D02*
X139550000Y-94800000D01*
X147060000Y-96910000D02*
X138940000Y-96910000D01*
X147360000Y-91890000D02*
X147360000Y-93140000D01*
X142000000Y-96300000D02*
X142000000Y-95800000D01*
X139550000Y-96300000D02*
X139550000Y-92800000D01*
X138940000Y-93500000D02*
X139550000Y-93500000D01*
X138940000Y-92190000D02*
X147060000Y-92190000D01*
X145300000Y-92090000D02*
X145600000Y-92090000D01*
X146110000Y-91890000D02*
X147360000Y-91890000D01*
X144100000Y-96300000D02*
X144100000Y-95800000D01*
X147060000Y-93500000D02*
X146450000Y-93500000D01*
X141500000Y-92800000D02*
X141500000Y-92190000D01*
X142100000Y-95800000D02*
X141900000Y-95800000D01*
X146450000Y-96300000D02*
X139550000Y-96300000D01*
X145300000Y-91990000D02*
X145600000Y-91990000D01*
X145600000Y-91990000D02*
X145600000Y-92190000D01*
X147360000Y-83340000D02*
X147360000Y-84590000D01*
X139550000Y-84250000D02*
X141500000Y-84250000D01*
X139550000Y-87750000D02*
X139550000Y-84250000D01*
X147060000Y-88360000D02*
X138940000Y-88360000D01*
X141500000Y-84250000D02*
X141500000Y-83640000D01*
X138940000Y-83640000D02*
X147060000Y-83640000D01*
X144500000Y-83640000D02*
X144500000Y-84250000D01*
X138940000Y-88360000D02*
X138940000Y-83640000D01*
X146110000Y-83340000D02*
X147360000Y-83340000D01*
X138940000Y-86250000D02*
X139550000Y-86250000D01*
X138940000Y-84950000D02*
X139550000Y-84950000D01*
X142100000Y-87750000D02*
X142100000Y-87250000D01*
X146450000Y-84250000D02*
X146450000Y-87750000D01*
X143900000Y-87250000D02*
X143900000Y-87750000D01*
X142000000Y-87750000D02*
X142000000Y-87250000D01*
X145300000Y-83540000D02*
X145600000Y-83540000D01*
X144100000Y-87250000D02*
X143900000Y-87250000D01*
X145300000Y-83640000D02*
X145300000Y-83440000D01*
X145300000Y-83440000D02*
X145600000Y-83440000D01*
X145600000Y-83440000D02*
X145600000Y-83640000D01*
X144100000Y-87750000D02*
X144100000Y-87250000D01*
X146450000Y-87750000D02*
X139550000Y-87750000D01*
X147060000Y-83640000D02*
X147060000Y-88360000D01*
X144500000Y-84250000D02*
X146450000Y-84250000D01*
X144000000Y-87750000D02*
X144000000Y-87250000D01*
X147060000Y-86250000D02*
X146450000Y-86250000D01*
X141900000Y-87250000D02*
X141900000Y-87750000D01*
X147060000Y-84950000D02*
X146450000Y-84950000D01*
X142100000Y-87250000D02*
X141900000Y-87250000D01*
%LPC*%
D12*
X143000000Y-104000000D03*
X143000000Y-77000000D03*
D13*
X145000000Y-94000000D03*
D14*
X143000000Y-94000000D03*
X141000000Y-94000000D03*
D13*
X145000000Y-85450000D03*
D14*
X143000000Y-85450000D03*
X141000000Y-85450000D03*
M02*
