%FSLAX45Y45*%
G04 Gerber Fmt 4.5, Leading zero omitted, Abs format (unit mm)*
G04 Created by KiCad (PCBNEW 6.0.2+dfsg-1) date 2022-11-08 00:59:17*
%MOMM*%
%LPD*%
G01*
G04 APERTURE LIST*
%TA.AperFunction,Profile*%
%ADD10C,0.100000*%
%TD*%
%ADD11C,0.200000*%
%ADD12C,0.040000*%
%ADD13C,0.075000*%
G04 APERTURE END LIST*
D10*
X15000000Y-5900000D02*
X15000000Y-12200000D01*
X15000000Y-12200000D02*
X14300000Y-12900000D01*
X14300000Y-12900000D02*
X13600000Y-12200000D01*
X13600000Y-12200000D02*
X13600000Y-5900000D01*
X13600000Y-5900000D02*
X14300000Y-5200000D01*
X14300000Y-5200000D02*
X15000000Y-5900000D01*
D11*
D12*
X14080000Y-5980000D02*
X14120000Y-6020000D01*
X14120000Y-5980000D02*
X14080000Y-6020000D01*
X14080000Y-11080000D02*
X14120000Y-11120000D01*
X14120000Y-11080000D02*
X14080000Y-11120000D01*
D13*
X14137500Y-8545000D02*
G75*
G03*
X14137500Y-8545000I-37500J0D01*
G01*
X14137500Y-9400000D02*
G75*
G03*
X14137500Y-9400000I-37500J0D01*
G01*
X14337500Y-8545000D02*
G75*
G03*
X14337500Y-8545000I-37500J0D01*
G01*
X14337500Y-9400000D02*
G75*
G03*
X14337500Y-9400000I-37500J0D01*
G01*
X14537500Y-8545000D02*
G75*
G03*
X14537500Y-8545000I-37500J0D01*
G01*
X14537500Y-9400000D02*
G75*
G03*
X14537500Y-9400000I-37500J0D01*
G01*
D11*
X13852619Y-13215476D02*
X13852619Y-13015476D01*
X13900238Y-13015476D01*
X13928809Y-13025000D01*
X13947857Y-13044048D01*
X13957381Y-13063095D01*
X13966905Y-13101190D01*
X13966905Y-13129762D01*
X13957381Y-13167857D01*
X13947857Y-13186905D01*
X13928809Y-13205952D01*
X13900238Y-13215476D01*
X13852619Y-13215476D01*
X14052619Y-13215476D02*
X14052619Y-13082143D01*
X14052619Y-13120238D02*
X14062143Y-13101190D01*
X14071667Y-13091667D01*
X14090714Y-13082143D01*
X14109762Y-13082143D01*
X14176428Y-13215476D02*
X14176428Y-13082143D01*
X14176428Y-13015476D02*
X14166905Y-13025000D01*
X14176428Y-13034524D01*
X14185952Y-13025000D01*
X14176428Y-13015476D01*
X14176428Y-13034524D01*
X14300238Y-13215476D02*
X14281190Y-13205952D01*
X14271667Y-13186905D01*
X14271667Y-13015476D01*
X14405000Y-13215476D02*
X14385952Y-13205952D01*
X14376428Y-13186905D01*
X14376428Y-13015476D01*
X14633571Y-13215476D02*
X14633571Y-13015476D01*
X14700238Y-13158333D01*
X14766905Y-13015476D01*
X14766905Y-13215476D01*
X14947857Y-13215476D02*
X14947857Y-13110714D01*
X14938333Y-13091667D01*
X14919286Y-13082143D01*
X14881190Y-13082143D01*
X14862143Y-13091667D01*
X14947857Y-13205952D02*
X14928809Y-13215476D01*
X14881190Y-13215476D01*
X14862143Y-13205952D01*
X14852619Y-13186905D01*
X14852619Y-13167857D01*
X14862143Y-13148809D01*
X14881190Y-13139286D01*
X14928809Y-13139286D01*
X14947857Y-13129762D01*
X15043095Y-13082143D02*
X15043095Y-13282143D01*
X15043095Y-13091667D02*
X15062143Y-13082143D01*
X15100238Y-13082143D01*
X15119286Y-13091667D01*
X15128809Y-13101190D01*
X15138333Y-13120238D01*
X15138333Y-13177381D01*
X15128809Y-13196428D01*
X15119286Y-13205952D01*
X15100238Y-13215476D01*
X15062143Y-13215476D01*
X15043095Y-13205952D01*
X15224048Y-13196428D02*
X15233571Y-13205952D01*
X15224048Y-13215476D01*
X15214524Y-13205952D01*
X15224048Y-13196428D01*
X15224048Y-13215476D01*
X15224048Y-13091667D02*
X15233571Y-13101190D01*
X15224048Y-13110714D01*
X15214524Y-13101190D01*
X15224048Y-13091667D01*
X15224048Y-13110714D01*
D12*
X13555000Y-13525000D02*
X13595000Y-13565000D01*
X13595000Y-13525000D02*
X13555000Y-13565000D01*
D11*
X13890714Y-13435476D02*
X13909762Y-13435476D01*
X13928809Y-13445000D01*
X13938333Y-13454524D01*
X13947857Y-13473571D01*
X13957381Y-13511667D01*
X13957381Y-13559286D01*
X13947857Y-13597381D01*
X13938333Y-13616428D01*
X13928809Y-13625952D01*
X13909762Y-13635476D01*
X13890714Y-13635476D01*
X13871667Y-13625952D01*
X13862143Y-13616428D01*
X13852619Y-13597381D01*
X13843095Y-13559286D01*
X13843095Y-13511667D01*
X13852619Y-13473571D01*
X13862143Y-13454524D01*
X13871667Y-13445000D01*
X13890714Y-13435476D01*
X14043095Y-13616428D02*
X14052619Y-13625952D01*
X14043095Y-13635476D01*
X14033571Y-13625952D01*
X14043095Y-13616428D01*
X14043095Y-13635476D01*
X14224048Y-13502143D02*
X14224048Y-13635476D01*
X14176428Y-13425952D02*
X14128809Y-13568809D01*
X14252619Y-13568809D01*
X14366905Y-13435476D02*
X14385952Y-13435476D01*
X14405000Y-13445000D01*
X14414524Y-13454524D01*
X14424048Y-13473571D01*
X14433571Y-13511667D01*
X14433571Y-13559286D01*
X14424048Y-13597381D01*
X14414524Y-13616428D01*
X14405000Y-13625952D01*
X14385952Y-13635476D01*
X14366905Y-13635476D01*
X14347857Y-13625952D01*
X14338333Y-13616428D01*
X14328809Y-13597381D01*
X14319286Y-13559286D01*
X14319286Y-13511667D01*
X14328809Y-13473571D01*
X14338333Y-13454524D01*
X14347857Y-13445000D01*
X14366905Y-13435476D01*
X14557381Y-13435476D02*
X14576428Y-13435476D01*
X14595476Y-13445000D01*
X14605000Y-13454524D01*
X14614524Y-13473571D01*
X14624048Y-13511667D01*
X14624048Y-13559286D01*
X14614524Y-13597381D01*
X14605000Y-13616428D01*
X14595476Y-13625952D01*
X14576428Y-13635476D01*
X14557381Y-13635476D01*
X14538333Y-13625952D01*
X14528809Y-13616428D01*
X14519286Y-13597381D01*
X14509762Y-13559286D01*
X14509762Y-13511667D01*
X14519286Y-13473571D01*
X14528809Y-13454524D01*
X14538333Y-13445000D01*
X14557381Y-13435476D01*
X14709762Y-13635476D02*
X14709762Y-13502143D01*
X14709762Y-13521190D02*
X14719286Y-13511667D01*
X14738333Y-13502143D01*
X14766905Y-13502143D01*
X14785952Y-13511667D01*
X14795476Y-13530714D01*
X14795476Y-13635476D01*
X14795476Y-13530714D02*
X14805000Y-13511667D01*
X14824048Y-13502143D01*
X14852619Y-13502143D01*
X14871667Y-13511667D01*
X14881190Y-13530714D01*
X14881190Y-13635476D01*
X14976428Y-13635476D02*
X14976428Y-13502143D01*
X14976428Y-13521190D02*
X14985952Y-13511667D01*
X15005000Y-13502143D01*
X15033571Y-13502143D01*
X15052619Y-13511667D01*
X15062143Y-13530714D01*
X15062143Y-13635476D01*
X15062143Y-13530714D02*
X15071667Y-13511667D01*
X15090714Y-13502143D01*
X15119286Y-13502143D01*
X15138333Y-13511667D01*
X15147857Y-13530714D01*
X15147857Y-13635476D01*
X15538333Y-13425952D02*
X15366905Y-13683095D01*
X15795476Y-13435476D02*
X15814524Y-13435476D01*
X15833571Y-13445000D01*
X15843095Y-13454524D01*
X15852619Y-13473571D01*
X15862143Y-13511667D01*
X15862143Y-13559286D01*
X15852619Y-13597381D01*
X15843095Y-13616428D01*
X15833571Y-13625952D01*
X15814524Y-13635476D01*
X15795476Y-13635476D01*
X15776428Y-13625952D01*
X15766905Y-13616428D01*
X15757381Y-13597381D01*
X15747857Y-13559286D01*
X15747857Y-13511667D01*
X15757381Y-13473571D01*
X15766905Y-13454524D01*
X15776428Y-13445000D01*
X15795476Y-13435476D01*
X15947857Y-13616428D02*
X15957381Y-13625952D01*
X15947857Y-13635476D01*
X15938333Y-13625952D01*
X15947857Y-13616428D01*
X15947857Y-13635476D01*
X16081190Y-13435476D02*
X16100238Y-13435476D01*
X16119286Y-13445000D01*
X16128809Y-13454524D01*
X16138333Y-13473571D01*
X16147857Y-13511667D01*
X16147857Y-13559286D01*
X16138333Y-13597381D01*
X16128809Y-13616428D01*
X16119286Y-13625952D01*
X16100238Y-13635476D01*
X16081190Y-13635476D01*
X16062143Y-13625952D01*
X16052619Y-13616428D01*
X16043095Y-13597381D01*
X16033571Y-13559286D01*
X16033571Y-13511667D01*
X16043095Y-13473571D01*
X16052619Y-13454524D01*
X16062143Y-13445000D01*
X16081190Y-13435476D01*
X16338333Y-13635476D02*
X16224048Y-13635476D01*
X16281190Y-13635476D02*
X16281190Y-13435476D01*
X16262143Y-13464048D01*
X16243095Y-13483095D01*
X16224048Y-13492619D01*
X16519286Y-13435476D02*
X16424048Y-13435476D01*
X16414524Y-13530714D01*
X16424048Y-13521190D01*
X16443095Y-13511667D01*
X16490714Y-13511667D01*
X16509762Y-13521190D01*
X16519286Y-13530714D01*
X16528809Y-13549762D01*
X16528809Y-13597381D01*
X16519286Y-13616428D01*
X16509762Y-13625952D01*
X16490714Y-13635476D01*
X16443095Y-13635476D01*
X16424048Y-13625952D01*
X16414524Y-13616428D01*
X16595476Y-13435476D02*
X16728809Y-13435476D01*
X16643095Y-13635476D01*
X16795476Y-13435476D02*
X16795476Y-13473571D01*
X16871667Y-13435476D02*
X16871667Y-13473571D01*
X17166905Y-13711667D02*
X17157381Y-13702143D01*
X17138333Y-13673571D01*
X17128810Y-13654524D01*
X17119286Y-13625952D01*
X17109762Y-13578333D01*
X17109762Y-13540238D01*
X17119286Y-13492619D01*
X17128810Y-13464048D01*
X17138333Y-13445000D01*
X17157381Y-13416428D01*
X17166905Y-13406905D01*
X17233571Y-13454524D02*
X17243095Y-13445000D01*
X17262143Y-13435476D01*
X17309762Y-13435476D01*
X17328810Y-13445000D01*
X17338333Y-13454524D01*
X17347857Y-13473571D01*
X17347857Y-13492619D01*
X17338333Y-13521190D01*
X17224048Y-13635476D01*
X17347857Y-13635476D01*
X17585952Y-13635476D02*
X17585952Y-13435476D01*
X17671667Y-13635476D02*
X17671667Y-13530714D01*
X17662143Y-13511667D01*
X17643095Y-13502143D01*
X17614524Y-13502143D01*
X17595476Y-13511667D01*
X17585952Y-13521190D01*
X17795476Y-13635476D02*
X17776429Y-13625952D01*
X17766905Y-13616428D01*
X17757381Y-13597381D01*
X17757381Y-13540238D01*
X17766905Y-13521190D01*
X17776429Y-13511667D01*
X17795476Y-13502143D01*
X17824048Y-13502143D01*
X17843095Y-13511667D01*
X17852619Y-13521190D01*
X17862143Y-13540238D01*
X17862143Y-13597381D01*
X17852619Y-13616428D01*
X17843095Y-13625952D01*
X17824048Y-13635476D01*
X17795476Y-13635476D01*
X17976429Y-13635476D02*
X17957381Y-13625952D01*
X17947857Y-13606905D01*
X17947857Y-13435476D01*
X18128810Y-13625952D02*
X18109762Y-13635476D01*
X18071667Y-13635476D01*
X18052619Y-13625952D01*
X18043095Y-13606905D01*
X18043095Y-13530714D01*
X18052619Y-13511667D01*
X18071667Y-13502143D01*
X18109762Y-13502143D01*
X18128810Y-13511667D01*
X18138333Y-13530714D01*
X18138333Y-13549762D01*
X18043095Y-13568809D01*
X18214524Y-13625952D02*
X18233571Y-13635476D01*
X18271667Y-13635476D01*
X18290714Y-13625952D01*
X18300238Y-13606905D01*
X18300238Y-13597381D01*
X18290714Y-13578333D01*
X18271667Y-13568809D01*
X18243095Y-13568809D01*
X18224048Y-13559286D01*
X18214524Y-13540238D01*
X18214524Y-13530714D01*
X18224048Y-13511667D01*
X18243095Y-13502143D01*
X18271667Y-13502143D01*
X18290714Y-13511667D01*
X18366905Y-13711667D02*
X18376429Y-13702143D01*
X18395476Y-13673571D01*
X18405000Y-13654524D01*
X18414524Y-13625952D01*
X18424048Y-13578333D01*
X18424048Y-13540238D01*
X18414524Y-13492619D01*
X18405000Y-13464048D01*
X18395476Y-13445000D01*
X18376429Y-13416428D01*
X18366905Y-13406905D01*
D13*
X13595000Y-13809000D02*
G75*
G03*
X13595000Y-13809000I-37500J0D01*
G01*
D11*
X13890714Y-13699476D02*
X13909762Y-13699476D01*
X13928809Y-13709000D01*
X13938333Y-13718524D01*
X13947857Y-13737571D01*
X13957381Y-13775667D01*
X13957381Y-13823286D01*
X13947857Y-13861381D01*
X13938333Y-13880428D01*
X13928809Y-13889952D01*
X13909762Y-13899476D01*
X13890714Y-13899476D01*
X13871667Y-13889952D01*
X13862143Y-13880428D01*
X13852619Y-13861381D01*
X13843095Y-13823286D01*
X13843095Y-13775667D01*
X13852619Y-13737571D01*
X13862143Y-13718524D01*
X13871667Y-13709000D01*
X13890714Y-13699476D01*
X14043095Y-13880428D02*
X14052619Y-13889952D01*
X14043095Y-13899476D01*
X14033571Y-13889952D01*
X14043095Y-13880428D01*
X14043095Y-13899476D01*
X14119286Y-13699476D02*
X14252619Y-13699476D01*
X14166905Y-13899476D01*
X14424048Y-13699476D02*
X14328809Y-13699476D01*
X14319286Y-13794714D01*
X14328809Y-13785190D01*
X14347857Y-13775667D01*
X14395476Y-13775667D01*
X14414524Y-13785190D01*
X14424048Y-13794714D01*
X14433571Y-13813762D01*
X14433571Y-13861381D01*
X14424048Y-13880428D01*
X14414524Y-13889952D01*
X14395476Y-13899476D01*
X14347857Y-13899476D01*
X14328809Y-13889952D01*
X14319286Y-13880428D01*
X14557381Y-13699476D02*
X14576428Y-13699476D01*
X14595476Y-13709000D01*
X14605000Y-13718524D01*
X14614524Y-13737571D01*
X14624048Y-13775667D01*
X14624048Y-13823286D01*
X14614524Y-13861381D01*
X14605000Y-13880428D01*
X14595476Y-13889952D01*
X14576428Y-13899476D01*
X14557381Y-13899476D01*
X14538333Y-13889952D01*
X14528809Y-13880428D01*
X14519286Y-13861381D01*
X14509762Y-13823286D01*
X14509762Y-13775667D01*
X14519286Y-13737571D01*
X14528809Y-13718524D01*
X14538333Y-13709000D01*
X14557381Y-13699476D01*
X14709762Y-13899476D02*
X14709762Y-13766143D01*
X14709762Y-13785190D02*
X14719286Y-13775667D01*
X14738333Y-13766143D01*
X14766905Y-13766143D01*
X14785952Y-13775667D01*
X14795476Y-13794714D01*
X14795476Y-13899476D01*
X14795476Y-13794714D02*
X14805000Y-13775667D01*
X14824048Y-13766143D01*
X14852619Y-13766143D01*
X14871667Y-13775667D01*
X14881190Y-13794714D01*
X14881190Y-13899476D01*
X14976428Y-13899476D02*
X14976428Y-13766143D01*
X14976428Y-13785190D02*
X14985952Y-13775667D01*
X15005000Y-13766143D01*
X15033571Y-13766143D01*
X15052619Y-13775667D01*
X15062143Y-13794714D01*
X15062143Y-13899476D01*
X15062143Y-13794714D02*
X15071667Y-13775667D01*
X15090714Y-13766143D01*
X15119286Y-13766143D01*
X15138333Y-13775667D01*
X15147857Y-13794714D01*
X15147857Y-13899476D01*
X15538333Y-13689952D02*
X15366905Y-13947095D01*
X15795476Y-13699476D02*
X15814524Y-13699476D01*
X15833571Y-13709000D01*
X15843095Y-13718524D01*
X15852619Y-13737571D01*
X15862143Y-13775667D01*
X15862143Y-13823286D01*
X15852619Y-13861381D01*
X15843095Y-13880428D01*
X15833571Y-13889952D01*
X15814524Y-13899476D01*
X15795476Y-13899476D01*
X15776428Y-13889952D01*
X15766905Y-13880428D01*
X15757381Y-13861381D01*
X15747857Y-13823286D01*
X15747857Y-13775667D01*
X15757381Y-13737571D01*
X15766905Y-13718524D01*
X15776428Y-13709000D01*
X15795476Y-13699476D01*
X15947857Y-13880428D02*
X15957381Y-13889952D01*
X15947857Y-13899476D01*
X15938333Y-13889952D01*
X15947857Y-13880428D01*
X15947857Y-13899476D01*
X16081190Y-13699476D02*
X16100238Y-13699476D01*
X16119286Y-13709000D01*
X16128809Y-13718524D01*
X16138333Y-13737571D01*
X16147857Y-13775667D01*
X16147857Y-13823286D01*
X16138333Y-13861381D01*
X16128809Y-13880428D01*
X16119286Y-13889952D01*
X16100238Y-13899476D01*
X16081190Y-13899476D01*
X16062143Y-13889952D01*
X16052619Y-13880428D01*
X16043095Y-13861381D01*
X16033571Y-13823286D01*
X16033571Y-13775667D01*
X16043095Y-13737571D01*
X16052619Y-13718524D01*
X16062143Y-13709000D01*
X16081190Y-13699476D01*
X16224048Y-13718524D02*
X16233571Y-13709000D01*
X16252619Y-13699476D01*
X16300238Y-13699476D01*
X16319286Y-13709000D01*
X16328809Y-13718524D01*
X16338333Y-13737571D01*
X16338333Y-13756619D01*
X16328809Y-13785190D01*
X16214524Y-13899476D01*
X16338333Y-13899476D01*
X16433571Y-13899476D02*
X16471667Y-13899476D01*
X16490714Y-13889952D01*
X16500238Y-13880428D01*
X16519286Y-13851857D01*
X16528809Y-13813762D01*
X16528809Y-13737571D01*
X16519286Y-13718524D01*
X16509762Y-13709000D01*
X16490714Y-13699476D01*
X16452619Y-13699476D01*
X16433571Y-13709000D01*
X16424048Y-13718524D01*
X16414524Y-13737571D01*
X16414524Y-13785190D01*
X16424048Y-13804238D01*
X16433571Y-13813762D01*
X16452619Y-13823286D01*
X16490714Y-13823286D01*
X16509762Y-13813762D01*
X16519286Y-13804238D01*
X16528809Y-13785190D01*
X16709762Y-13699476D02*
X16614524Y-13699476D01*
X16605000Y-13794714D01*
X16614524Y-13785190D01*
X16633571Y-13775667D01*
X16681190Y-13775667D01*
X16700238Y-13785190D01*
X16709762Y-13794714D01*
X16719286Y-13813762D01*
X16719286Y-13861381D01*
X16709762Y-13880428D01*
X16700238Y-13889952D01*
X16681190Y-13899476D01*
X16633571Y-13899476D01*
X16614524Y-13889952D01*
X16605000Y-13880428D01*
X16795476Y-13699476D02*
X16795476Y-13737571D01*
X16871667Y-13699476D02*
X16871667Y-13737571D01*
X17166905Y-13975667D02*
X17157381Y-13966143D01*
X17138333Y-13937571D01*
X17128810Y-13918524D01*
X17119286Y-13889952D01*
X17109762Y-13842333D01*
X17109762Y-13804238D01*
X17119286Y-13756619D01*
X17128810Y-13728048D01*
X17138333Y-13709000D01*
X17157381Y-13680428D01*
X17166905Y-13670905D01*
X17328810Y-13699476D02*
X17290714Y-13699476D01*
X17271667Y-13709000D01*
X17262143Y-13718524D01*
X17243095Y-13747095D01*
X17233571Y-13785190D01*
X17233571Y-13861381D01*
X17243095Y-13880428D01*
X17252619Y-13889952D01*
X17271667Y-13899476D01*
X17309762Y-13899476D01*
X17328810Y-13889952D01*
X17338333Y-13880428D01*
X17347857Y-13861381D01*
X17347857Y-13813762D01*
X17338333Y-13794714D01*
X17328810Y-13785190D01*
X17309762Y-13775667D01*
X17271667Y-13775667D01*
X17252619Y-13785190D01*
X17243095Y-13794714D01*
X17233571Y-13813762D01*
X17585952Y-13899476D02*
X17585952Y-13699476D01*
X17671667Y-13899476D02*
X17671667Y-13794714D01*
X17662143Y-13775667D01*
X17643095Y-13766143D01*
X17614524Y-13766143D01*
X17595476Y-13775667D01*
X17585952Y-13785190D01*
X17795476Y-13899476D02*
X17776429Y-13889952D01*
X17766905Y-13880428D01*
X17757381Y-13861381D01*
X17757381Y-13804238D01*
X17766905Y-13785190D01*
X17776429Y-13775667D01*
X17795476Y-13766143D01*
X17824048Y-13766143D01*
X17843095Y-13775667D01*
X17852619Y-13785190D01*
X17862143Y-13804238D01*
X17862143Y-13861381D01*
X17852619Y-13880428D01*
X17843095Y-13889952D01*
X17824048Y-13899476D01*
X17795476Y-13899476D01*
X17976429Y-13899476D02*
X17957381Y-13889952D01*
X17947857Y-13870905D01*
X17947857Y-13699476D01*
X18128810Y-13889952D02*
X18109762Y-13899476D01*
X18071667Y-13899476D01*
X18052619Y-13889952D01*
X18043095Y-13870905D01*
X18043095Y-13794714D01*
X18052619Y-13775667D01*
X18071667Y-13766143D01*
X18109762Y-13766143D01*
X18128810Y-13775667D01*
X18138333Y-13794714D01*
X18138333Y-13813762D01*
X18043095Y-13832809D01*
X18214524Y-13889952D02*
X18233571Y-13899476D01*
X18271667Y-13899476D01*
X18290714Y-13889952D01*
X18300238Y-13870905D01*
X18300238Y-13861381D01*
X18290714Y-13842333D01*
X18271667Y-13832809D01*
X18243095Y-13832809D01*
X18224048Y-13823286D01*
X18214524Y-13804238D01*
X18214524Y-13794714D01*
X18224048Y-13775667D01*
X18243095Y-13766143D01*
X18271667Y-13766143D01*
X18290714Y-13775667D01*
X18366905Y-13975667D02*
X18376429Y-13966143D01*
X18395476Y-13937571D01*
X18405000Y-13918524D01*
X18414524Y-13889952D01*
X18424048Y-13842333D01*
X18424048Y-13804238D01*
X18414524Y-13756619D01*
X18405000Y-13728048D01*
X18395476Y-13709000D01*
X18376429Y-13680428D01*
X18366905Y-13670905D01*
M02*
