G04 #@! TF.GenerationSoftware,KiCad,Pcbnew,6.0.2+dfsg-1*
G04 #@! TF.CreationDate,2022-11-08T00:58:57-08:00*
G04 #@! TF.ProjectId,separator,73657061-7261-4746-9f72-2e6b69636164,rev?*
G04 #@! TF.SameCoordinates,Original*
G04 #@! TF.FileFunction,Copper,L2,Bot*
G04 #@! TF.FilePolarity,Positive*
%FSLAX46Y46*%
G04 Gerber Fmt 4.6, Leading zero omitted, Abs format (unit mm)*
G04 Created by KiCad (PCBNEW 6.0.2+dfsg-1) date 2022-11-08 00:58:57*
%MOMM*%
%LPD*%
G01*
G04 APERTURE LIST*
G04 Aperture macros list*
%AMRoundRect*
0 Rectangle with rounded corners*
0 $1 Rounding radius*
0 $2 $3 $4 $5 $6 $7 $8 $9 X,Y pos of 4 corners*
0 Add a 4 corners polygon primitive as box body*
4,1,4,$2,$3,$4,$5,$6,$7,$8,$9,$2,$3,0*
0 Add four circle primitives for the rounded corners*
1,1,$1+$1,$2,$3*
1,1,$1+$1,$4,$5*
1,1,$1+$1,$6,$7*
1,1,$1+$1,$8,$9*
0 Add four rect primitives between the rounded corners*
20,1,$1+$1,$2,$3,$4,$5,0*
20,1,$1+$1,$4,$5,$6,$7,0*
20,1,$1+$1,$6,$7,$8,$9,0*
20,1,$1+$1,$8,$9,$2,$3,0*%
G04 Aperture macros list end*
G04 #@! TA.AperFunction,ComponentPad*
%ADD10RoundRect,0.250000X0.350000X0.625000X-0.350000X0.625000X-0.350000X-0.625000X0.350000X-0.625000X0*%
G04 #@! TD*
G04 #@! TA.AperFunction,ComponentPad*
%ADD11O,1.200000X1.750000*%
G04 #@! TD*
G04 #@! TA.AperFunction,ViaPad*
%ADD12C,0.800000*%
G04 #@! TD*
G04 APERTURE END LIST*
D10*
X145000000Y-85450000D03*
D11*
X143000000Y-85450000D03*
X141000000Y-85450000D03*
D10*
X145000000Y-94000000D03*
D11*
X143000000Y-94000000D03*
X141000000Y-94000000D03*
D12*
X141000000Y-111000000D03*
X141000000Y-60000000D03*
G04 #@! TA.AperFunction,Conductor*
G36*
X143044032Y-53060134D02*
G01*
X143089095Y-53089095D01*
X148963095Y-58963095D01*
X148997121Y-59025407D01*
X149000000Y-59052190D01*
X149000000Y-121947810D01*
X148979998Y-122015931D01*
X148963095Y-122036905D01*
X143089095Y-127910905D01*
X143026783Y-127944931D01*
X142955968Y-127939866D01*
X142910905Y-127910905D01*
X137036905Y-122036905D01*
X137002879Y-121974593D01*
X137000000Y-121947810D01*
X137000000Y-104132703D01*
X140890743Y-104132703D01*
X140928268Y-104417734D01*
X141004129Y-104695036D01*
X141116923Y-104959476D01*
X141264561Y-105206161D01*
X141444313Y-105430528D01*
X141652851Y-105628423D01*
X141886317Y-105796186D01*
X141890112Y-105798195D01*
X141890113Y-105798196D01*
X141911869Y-105809715D01*
X142140392Y-105930712D01*
X142410373Y-106029511D01*
X142691264Y-106090755D01*
X142719841Y-106093004D01*
X142914282Y-106108307D01*
X142914291Y-106108307D01*
X142916739Y-106108500D01*
X143072271Y-106108500D01*
X143074407Y-106108354D01*
X143074418Y-106108354D01*
X143282548Y-106094165D01*
X143282554Y-106094164D01*
X143286825Y-106093873D01*
X143291020Y-106093004D01*
X143291022Y-106093004D01*
X143427584Y-106064723D01*
X143568342Y-106035574D01*
X143839343Y-105939607D01*
X144094812Y-105807750D01*
X144098313Y-105805289D01*
X144098317Y-105805287D01*
X144212418Y-105725095D01*
X144330023Y-105642441D01*
X144540622Y-105446740D01*
X144722713Y-105224268D01*
X144872927Y-104979142D01*
X144988483Y-104715898D01*
X145067244Y-104439406D01*
X145107751Y-104154784D01*
X145107845Y-104136951D01*
X145109235Y-103871583D01*
X145109235Y-103871576D01*
X145109257Y-103867297D01*
X145071732Y-103582266D01*
X144995871Y-103304964D01*
X144883077Y-103040524D01*
X144735439Y-102793839D01*
X144555687Y-102569472D01*
X144347149Y-102371577D01*
X144113683Y-102203814D01*
X144091843Y-102192250D01*
X144068654Y-102179972D01*
X143859608Y-102069288D01*
X143589627Y-101970489D01*
X143308736Y-101909245D01*
X143277685Y-101906801D01*
X143085718Y-101891693D01*
X143085709Y-101891693D01*
X143083261Y-101891500D01*
X142927729Y-101891500D01*
X142925593Y-101891646D01*
X142925582Y-101891646D01*
X142717452Y-101905835D01*
X142717446Y-101905836D01*
X142713175Y-101906127D01*
X142708980Y-101906996D01*
X142708978Y-101906996D01*
X142572416Y-101935277D01*
X142431658Y-101964426D01*
X142160657Y-102060393D01*
X141905188Y-102192250D01*
X141901687Y-102194711D01*
X141901683Y-102194713D01*
X141891594Y-102201804D01*
X141669977Y-102357559D01*
X141459378Y-102553260D01*
X141277287Y-102775732D01*
X141127073Y-103020858D01*
X141011517Y-103284102D01*
X140932756Y-103560594D01*
X140892249Y-103845216D01*
X140892227Y-103849505D01*
X140892226Y-103849512D01*
X140890765Y-104128417D01*
X140890743Y-104132703D01*
X137000000Y-104132703D01*
X137000000Y-94324832D01*
X139892000Y-94324832D01*
X139892285Y-94330808D01*
X139906471Y-94479494D01*
X139908730Y-94491228D01*
X139964872Y-94682599D01*
X139969302Y-94693675D01*
X140060619Y-94870978D01*
X140067069Y-94881024D01*
X140190262Y-95037857D01*
X140198499Y-95046506D01*
X140349123Y-95177212D01*
X140358847Y-95184147D01*
X140531467Y-95284010D01*
X140542331Y-95288984D01*
X140730727Y-95354407D01*
X140731716Y-95354648D01*
X140742008Y-95353180D01*
X140746000Y-95339615D01*
X140746000Y-95335402D01*
X141254000Y-95335402D01*
X141257973Y-95348933D01*
X141267399Y-95350288D01*
X141356537Y-95328806D01*
X141367832Y-95324917D01*
X141549382Y-95242371D01*
X141559724Y-95236424D01*
X141722397Y-95121032D01*
X141731425Y-95113239D01*
X141869342Y-94969169D01*
X141876741Y-94959800D01*
X141894418Y-94932423D01*
X141948172Y-94886045D01*
X142018468Y-94876091D01*
X142082985Y-94905722D01*
X142099356Y-94922937D01*
X142193604Y-95042920D01*
X142198135Y-95046852D01*
X142198138Y-95046855D01*
X142283620Y-95121032D01*
X142353363Y-95181552D01*
X142358549Y-95184552D01*
X142358553Y-95184555D01*
X142454957Y-95240326D01*
X142536454Y-95287473D01*
X142736271Y-95356861D01*
X142742206Y-95357722D01*
X142742208Y-95357722D01*
X142939664Y-95386352D01*
X142939667Y-95386352D01*
X142945604Y-95387213D01*
X143156899Y-95377433D01*
X143288077Y-95345819D01*
X143356701Y-95329281D01*
X143356703Y-95329280D01*
X143362534Y-95327875D01*
X143367992Y-95325393D01*
X143367996Y-95325392D01*
X143483041Y-95273084D01*
X143555087Y-95240326D01*
X143727611Y-95117946D01*
X143731753Y-95113619D01*
X143731759Y-95113614D01*
X143818806Y-95022683D01*
X143880361Y-94987306D01*
X143951270Y-94990825D01*
X144009021Y-95032121D01*
X144016965Y-95043504D01*
X144051522Y-95099348D01*
X144176697Y-95224305D01*
X144182927Y-95228145D01*
X144182928Y-95228146D01*
X144320090Y-95312694D01*
X144327262Y-95317115D01*
X144363942Y-95329281D01*
X144488611Y-95370632D01*
X144488613Y-95370632D01*
X144495139Y-95372797D01*
X144501975Y-95373497D01*
X144501978Y-95373498D01*
X144540386Y-95377433D01*
X144599600Y-95383500D01*
X145400400Y-95383500D01*
X145403646Y-95383163D01*
X145403650Y-95383163D01*
X145499308Y-95373238D01*
X145499312Y-95373237D01*
X145506166Y-95372526D01*
X145512702Y-95370345D01*
X145512704Y-95370345D01*
X145648867Y-95324917D01*
X145673946Y-95316550D01*
X145824348Y-95223478D01*
X145949305Y-95098303D01*
X145986565Y-95037857D01*
X146038275Y-94953968D01*
X146038276Y-94953966D01*
X146042115Y-94947738D01*
X146097797Y-94779861D01*
X146108500Y-94675400D01*
X146108500Y-93324600D01*
X146097526Y-93218834D01*
X146041550Y-93051054D01*
X145948478Y-92900652D01*
X145823303Y-92775695D01*
X145817072Y-92771854D01*
X145678968Y-92686725D01*
X145678966Y-92686724D01*
X145672738Y-92682885D01*
X145564005Y-92646820D01*
X145511389Y-92629368D01*
X145511387Y-92629368D01*
X145504861Y-92627203D01*
X145498025Y-92626503D01*
X145498022Y-92626502D01*
X145454969Y-92622091D01*
X145400400Y-92616500D01*
X144599600Y-92616500D01*
X144596354Y-92616837D01*
X144596350Y-92616837D01*
X144500692Y-92626762D01*
X144500688Y-92626763D01*
X144493834Y-92627474D01*
X144487298Y-92629655D01*
X144487296Y-92629655D01*
X144423117Y-92651067D01*
X144326054Y-92683450D01*
X144175652Y-92776522D01*
X144050695Y-92901697D01*
X144046855Y-92907927D01*
X144046854Y-92907928D01*
X144018926Y-92953236D01*
X143966154Y-93000729D01*
X143896082Y-93012153D01*
X143830958Y-92983879D01*
X143812582Y-92964955D01*
X143806396Y-92957080D01*
X143801865Y-92953148D01*
X143801862Y-92953145D01*
X143651167Y-92822379D01*
X143646637Y-92818448D01*
X143641451Y-92815448D01*
X143641447Y-92815445D01*
X143468742Y-92715533D01*
X143463546Y-92712527D01*
X143263729Y-92643139D01*
X143257794Y-92642278D01*
X143257792Y-92642278D01*
X143060336Y-92613648D01*
X143060333Y-92613648D01*
X143054396Y-92612787D01*
X142843101Y-92622567D01*
X142730466Y-92649712D01*
X142643299Y-92670719D01*
X142643297Y-92670720D01*
X142637466Y-92672125D01*
X142632008Y-92674607D01*
X142632004Y-92674608D01*
X142540990Y-92715990D01*
X142444913Y-92759674D01*
X142272389Y-92882054D01*
X142126119Y-93034850D01*
X142122870Y-93039881D01*
X142122865Y-93039888D01*
X142104967Y-93067607D01*
X142051211Y-93113984D01*
X141980915Y-93123937D01*
X141916398Y-93094304D01*
X141900030Y-93077091D01*
X141809738Y-92962143D01*
X141801501Y-92953494D01*
X141650877Y-92822788D01*
X141641153Y-92815853D01*
X141468533Y-92715990D01*
X141457669Y-92711016D01*
X141269273Y-92645593D01*
X141268284Y-92645352D01*
X141257992Y-92646820D01*
X141254000Y-92660385D01*
X141254000Y-95335402D01*
X140746000Y-95335402D01*
X140746000Y-94272115D01*
X140741525Y-94256876D01*
X140740135Y-94255671D01*
X140732452Y-94254000D01*
X139910115Y-94254000D01*
X139894876Y-94258475D01*
X139893671Y-94259865D01*
X139892000Y-94267548D01*
X139892000Y-94324832D01*
X137000000Y-94324832D01*
X137000000Y-93727885D01*
X139892000Y-93727885D01*
X139896475Y-93743124D01*
X139897865Y-93744329D01*
X139905548Y-93746000D01*
X140727885Y-93746000D01*
X140743124Y-93741525D01*
X140744329Y-93740135D01*
X140746000Y-93732452D01*
X140746000Y-92664598D01*
X140742027Y-92651067D01*
X140732601Y-92649712D01*
X140643463Y-92671194D01*
X140632168Y-92675083D01*
X140450618Y-92757629D01*
X140440276Y-92763576D01*
X140277603Y-92878968D01*
X140268575Y-92886761D01*
X140130658Y-93030831D01*
X140123262Y-93040196D01*
X140015079Y-93207741D01*
X140009583Y-93218345D01*
X139935039Y-93403312D01*
X139931645Y-93414770D01*
X139893143Y-93611928D01*
X139892066Y-93620791D01*
X139892000Y-93623500D01*
X139892000Y-93727885D01*
X137000000Y-93727885D01*
X137000000Y-85774832D01*
X139892000Y-85774832D01*
X139892285Y-85780808D01*
X139906471Y-85929494D01*
X139908730Y-85941228D01*
X139964872Y-86132599D01*
X139969302Y-86143675D01*
X140060619Y-86320978D01*
X140067069Y-86331024D01*
X140190262Y-86487857D01*
X140198499Y-86496506D01*
X140349123Y-86627212D01*
X140358847Y-86634147D01*
X140531467Y-86734010D01*
X140542331Y-86738984D01*
X140730727Y-86804407D01*
X140731716Y-86804648D01*
X140742008Y-86803180D01*
X140746000Y-86789615D01*
X140746000Y-86785402D01*
X141254000Y-86785402D01*
X141257973Y-86798933D01*
X141267399Y-86800288D01*
X141356537Y-86778806D01*
X141367832Y-86774917D01*
X141549382Y-86692371D01*
X141559724Y-86686424D01*
X141722397Y-86571032D01*
X141731425Y-86563239D01*
X141869342Y-86419169D01*
X141876741Y-86409800D01*
X141894418Y-86382423D01*
X141948172Y-86336045D01*
X142018468Y-86326091D01*
X142082985Y-86355722D01*
X142099356Y-86372937D01*
X142193604Y-86492920D01*
X142198135Y-86496852D01*
X142198138Y-86496855D01*
X142283620Y-86571032D01*
X142353363Y-86631552D01*
X142358549Y-86634552D01*
X142358553Y-86634555D01*
X142454957Y-86690326D01*
X142536454Y-86737473D01*
X142736271Y-86806861D01*
X142742206Y-86807722D01*
X142742208Y-86807722D01*
X142939664Y-86836352D01*
X142939667Y-86836352D01*
X142945604Y-86837213D01*
X143156899Y-86827433D01*
X143288077Y-86795819D01*
X143356701Y-86779281D01*
X143356703Y-86779280D01*
X143362534Y-86777875D01*
X143367992Y-86775393D01*
X143367996Y-86775392D01*
X143483041Y-86723084D01*
X143555087Y-86690326D01*
X143727611Y-86567946D01*
X143731753Y-86563619D01*
X143731759Y-86563614D01*
X143818806Y-86472683D01*
X143880361Y-86437306D01*
X143951270Y-86440825D01*
X144009021Y-86482121D01*
X144016965Y-86493504D01*
X144051522Y-86549348D01*
X144176697Y-86674305D01*
X144182927Y-86678145D01*
X144182928Y-86678146D01*
X144320090Y-86762694D01*
X144327262Y-86767115D01*
X144363942Y-86779281D01*
X144488611Y-86820632D01*
X144488613Y-86820632D01*
X144495139Y-86822797D01*
X144501975Y-86823497D01*
X144501978Y-86823498D01*
X144540386Y-86827433D01*
X144599600Y-86833500D01*
X145400400Y-86833500D01*
X145403646Y-86833163D01*
X145403650Y-86833163D01*
X145499308Y-86823238D01*
X145499312Y-86823237D01*
X145506166Y-86822526D01*
X145512702Y-86820345D01*
X145512704Y-86820345D01*
X145648867Y-86774917D01*
X145673946Y-86766550D01*
X145824348Y-86673478D01*
X145949305Y-86548303D01*
X145986565Y-86487857D01*
X146038275Y-86403968D01*
X146038276Y-86403966D01*
X146042115Y-86397738D01*
X146097797Y-86229861D01*
X146108500Y-86125400D01*
X146108500Y-84774600D01*
X146097526Y-84668834D01*
X146041550Y-84501054D01*
X145948478Y-84350652D01*
X145823303Y-84225695D01*
X145817072Y-84221854D01*
X145678968Y-84136725D01*
X145678966Y-84136724D01*
X145672738Y-84132885D01*
X145564005Y-84096820D01*
X145511389Y-84079368D01*
X145511387Y-84079368D01*
X145504861Y-84077203D01*
X145498025Y-84076503D01*
X145498022Y-84076502D01*
X145454969Y-84072091D01*
X145400400Y-84066500D01*
X144599600Y-84066500D01*
X144596354Y-84066837D01*
X144596350Y-84066837D01*
X144500692Y-84076762D01*
X144500688Y-84076763D01*
X144493834Y-84077474D01*
X144487298Y-84079655D01*
X144487296Y-84079655D01*
X144423117Y-84101067D01*
X144326054Y-84133450D01*
X144175652Y-84226522D01*
X144050695Y-84351697D01*
X144046855Y-84357927D01*
X144046854Y-84357928D01*
X144018926Y-84403236D01*
X143966154Y-84450729D01*
X143896082Y-84462153D01*
X143830958Y-84433879D01*
X143812582Y-84414955D01*
X143806396Y-84407080D01*
X143801865Y-84403148D01*
X143801862Y-84403145D01*
X143651167Y-84272379D01*
X143646637Y-84268448D01*
X143641451Y-84265448D01*
X143641447Y-84265445D01*
X143468742Y-84165533D01*
X143463546Y-84162527D01*
X143263729Y-84093139D01*
X143257794Y-84092278D01*
X143257792Y-84092278D01*
X143060336Y-84063648D01*
X143060333Y-84063648D01*
X143054396Y-84062787D01*
X142843101Y-84072567D01*
X142730466Y-84099712D01*
X142643299Y-84120719D01*
X142643297Y-84120720D01*
X142637466Y-84122125D01*
X142632008Y-84124607D01*
X142632004Y-84124608D01*
X142540990Y-84165990D01*
X142444913Y-84209674D01*
X142272389Y-84332054D01*
X142126119Y-84484850D01*
X142122870Y-84489881D01*
X142122865Y-84489888D01*
X142104967Y-84517607D01*
X142051211Y-84563984D01*
X141980915Y-84573937D01*
X141916398Y-84544304D01*
X141900030Y-84527091D01*
X141809738Y-84412143D01*
X141801501Y-84403494D01*
X141650877Y-84272788D01*
X141641153Y-84265853D01*
X141468533Y-84165990D01*
X141457669Y-84161016D01*
X141269273Y-84095593D01*
X141268284Y-84095352D01*
X141257992Y-84096820D01*
X141254000Y-84110385D01*
X141254000Y-86785402D01*
X140746000Y-86785402D01*
X140746000Y-85722115D01*
X140741525Y-85706876D01*
X140740135Y-85705671D01*
X140732452Y-85704000D01*
X139910115Y-85704000D01*
X139894876Y-85708475D01*
X139893671Y-85709865D01*
X139892000Y-85717548D01*
X139892000Y-85774832D01*
X137000000Y-85774832D01*
X137000000Y-85177885D01*
X139892000Y-85177885D01*
X139896475Y-85193124D01*
X139897865Y-85194329D01*
X139905548Y-85196000D01*
X140727885Y-85196000D01*
X140743124Y-85191525D01*
X140744329Y-85190135D01*
X140746000Y-85182452D01*
X140746000Y-84114598D01*
X140742027Y-84101067D01*
X140732601Y-84099712D01*
X140643463Y-84121194D01*
X140632168Y-84125083D01*
X140450618Y-84207629D01*
X140440276Y-84213576D01*
X140277603Y-84328968D01*
X140268575Y-84336761D01*
X140130658Y-84480831D01*
X140123262Y-84490196D01*
X140015079Y-84657741D01*
X140009583Y-84668345D01*
X139935039Y-84853312D01*
X139931645Y-84864770D01*
X139893143Y-85061928D01*
X139892066Y-85070791D01*
X139892000Y-85073500D01*
X139892000Y-85177885D01*
X137000000Y-85177885D01*
X137000000Y-77132703D01*
X140890743Y-77132703D01*
X140928268Y-77417734D01*
X141004129Y-77695036D01*
X141116923Y-77959476D01*
X141264561Y-78206161D01*
X141444313Y-78430528D01*
X141652851Y-78628423D01*
X141886317Y-78796186D01*
X141890112Y-78798195D01*
X141890113Y-78798196D01*
X141911869Y-78809715D01*
X142140392Y-78930712D01*
X142410373Y-79029511D01*
X142691264Y-79090755D01*
X142719841Y-79093004D01*
X142914282Y-79108307D01*
X142914291Y-79108307D01*
X142916739Y-79108500D01*
X143072271Y-79108500D01*
X143074407Y-79108354D01*
X143074418Y-79108354D01*
X143282548Y-79094165D01*
X143282554Y-79094164D01*
X143286825Y-79093873D01*
X143291020Y-79093004D01*
X143291022Y-79093004D01*
X143427584Y-79064723D01*
X143568342Y-79035574D01*
X143839343Y-78939607D01*
X144094812Y-78807750D01*
X144098313Y-78805289D01*
X144098317Y-78805287D01*
X144212417Y-78725096D01*
X144330023Y-78642441D01*
X144540622Y-78446740D01*
X144722713Y-78224268D01*
X144872927Y-77979142D01*
X144988483Y-77715898D01*
X145067244Y-77439406D01*
X145107751Y-77154784D01*
X145107845Y-77136951D01*
X145109235Y-76871583D01*
X145109235Y-76871576D01*
X145109257Y-76867297D01*
X145071732Y-76582266D01*
X144995871Y-76304964D01*
X144883077Y-76040524D01*
X144735439Y-75793839D01*
X144555687Y-75569472D01*
X144347149Y-75371577D01*
X144113683Y-75203814D01*
X144091843Y-75192250D01*
X144068654Y-75179972D01*
X143859608Y-75069288D01*
X143589627Y-74970489D01*
X143308736Y-74909245D01*
X143277685Y-74906801D01*
X143085718Y-74891693D01*
X143085709Y-74891693D01*
X143083261Y-74891500D01*
X142927729Y-74891500D01*
X142925593Y-74891646D01*
X142925582Y-74891646D01*
X142717452Y-74905835D01*
X142717446Y-74905836D01*
X142713175Y-74906127D01*
X142708980Y-74906996D01*
X142708978Y-74906996D01*
X142572416Y-74935277D01*
X142431658Y-74964426D01*
X142160657Y-75060393D01*
X141905188Y-75192250D01*
X141901687Y-75194711D01*
X141901683Y-75194713D01*
X141891594Y-75201804D01*
X141669977Y-75357559D01*
X141459378Y-75553260D01*
X141277287Y-75775732D01*
X141127073Y-76020858D01*
X141011517Y-76284102D01*
X140932756Y-76560594D01*
X140892249Y-76845216D01*
X140892227Y-76849505D01*
X140892226Y-76849512D01*
X140890765Y-77128417D01*
X140890743Y-77132703D01*
X137000000Y-77132703D01*
X137000000Y-59052190D01*
X137020002Y-58984069D01*
X137036905Y-58963095D01*
X142910905Y-53089095D01*
X142973217Y-53055069D01*
X143044032Y-53060134D01*
G37*
G04 #@! TD.AperFunction*
M02*
