G04 #@! TF.GenerationSoftware,KiCad,Pcbnew,6.0.2+dfsg-1*
G04 #@! TF.CreationDate,2022-11-08T00:58:57-08:00*
G04 #@! TF.ProjectId,separator,73657061-7261-4746-9f72-2e6b69636164,rev?*
G04 #@! TF.SameCoordinates,Original*
G04 #@! TF.FileFunction,Legend,Top*
G04 #@! TF.FilePolarity,Positive*
%FSLAX46Y46*%
G04 Gerber Fmt 4.6, Leading zero omitted, Abs format (unit mm)*
G04 Created by KiCad (PCBNEW 6.0.2+dfsg-1) date 2022-11-08 00:58:57*
%MOMM*%
%LPD*%
G01*
G04 APERTURE LIST*
G04 Aperture macros list*
%AMRoundRect*
0 Rectangle with rounded corners*
0 $1 Rounding radius*
0 $2 $3 $4 $5 $6 $7 $8 $9 X,Y pos of 4 corners*
0 Add a 4 corners polygon primitive as box body*
4,1,4,$2,$3,$4,$5,$6,$7,$8,$9,$2,$3,0*
0 Add four circle primitives for the rounded corners*
1,1,$1+$1,$2,$3*
1,1,$1+$1,$4,$5*
1,1,$1+$1,$6,$7*
1,1,$1+$1,$8,$9*
0 Add four rect primitives between the rounded corners*
20,1,$1+$1,$2,$3,$4,$5,0*
20,1,$1+$1,$4,$5,$6,$7,0*
20,1,$1+$1,$6,$7,$8,$9,0*
20,1,$1+$1,$8,$9,$2,$3,0*%
G04 Aperture macros list end*
%ADD10C,0.150000*%
%ADD11C,0.120000*%
%ADD12C,3.200000*%
%ADD13RoundRect,0.250000X0.350000X0.625000X-0.350000X0.625000X-0.350000X-0.625000X0.350000X-0.625000X0*%
%ADD14O,1.200000X1.750000*%
%ADD15R,1.500000X1.000000*%
G04 APERTURE END LIST*
D10*
X142261904Y-61952380D02*
X142261904Y-60952380D01*
X142500000Y-60952380D01*
X142642857Y-61000000D01*
X142738095Y-61095238D01*
X142785714Y-61190476D01*
X142833333Y-61380952D01*
X142833333Y-61523809D01*
X142785714Y-61714285D01*
X142738095Y-61809523D01*
X142642857Y-61904761D01*
X142500000Y-61952380D01*
X142261904Y-61952380D01*
X143214285Y-61047619D02*
X143261904Y-61000000D01*
X143357142Y-60952380D01*
X143595238Y-60952380D01*
X143690476Y-61000000D01*
X143738095Y-61047619D01*
X143785714Y-61142857D01*
X143785714Y-61238095D01*
X143738095Y-61380952D01*
X143166666Y-61952380D01*
X143785714Y-61952380D01*
X139135714Y-63852380D02*
X138564285Y-63852380D01*
X138850000Y-63852380D02*
X138850000Y-62852380D01*
X138754761Y-62995238D01*
X138659523Y-63090476D01*
X138564285Y-63138095D01*
X142261904Y-112952380D02*
X142261904Y-111952380D01*
X142500000Y-111952380D01*
X142642857Y-112000000D01*
X142738095Y-112095238D01*
X142785714Y-112190476D01*
X142833333Y-112380952D01*
X142833333Y-112523809D01*
X142785714Y-112714285D01*
X142738095Y-112809523D01*
X142642857Y-112904761D01*
X142500000Y-112952380D01*
X142261904Y-112952380D01*
X143785714Y-112952380D02*
X143214285Y-112952380D01*
X143500000Y-112952380D02*
X143500000Y-111952380D01*
X143404761Y-112095238D01*
X143309523Y-112190476D01*
X143214285Y-112238095D01*
X139135714Y-114852380D02*
X138564285Y-114852380D01*
X138850000Y-114852380D02*
X138850000Y-113852380D01*
X138754761Y-113995238D01*
X138659523Y-114090476D01*
X138564285Y-114138095D01*
D11*
X139350000Y-62250000D02*
X146650000Y-62250000D01*
X139350000Y-67750000D02*
X146650000Y-67750000D01*
X146650000Y-67750000D02*
X146650000Y-66600000D01*
X146650000Y-118750000D02*
X146650000Y-117600000D01*
X139350000Y-118750000D02*
X146650000Y-118750000D01*
X139350000Y-113250000D02*
X146650000Y-113250000D01*
%LPC*%
D12*
X143000000Y-104000000D03*
X143000000Y-77000000D03*
D13*
X145000000Y-85450000D03*
D14*
X143000000Y-85450000D03*
X141000000Y-85450000D03*
D13*
X145000000Y-94000000D03*
D14*
X143000000Y-94000000D03*
X141000000Y-94000000D03*
D15*
X140550000Y-63400000D03*
X140550000Y-66600000D03*
X145450000Y-66600000D03*
X145450000Y-63400000D03*
X145450000Y-114400000D03*
X145450000Y-117600000D03*
X140550000Y-117600000D03*
X140550000Y-114400000D03*
M02*
