G04 #@! TF.GenerationSoftware,KiCad,Pcbnew,6.0.2+dfsg-1*
G04 #@! TF.CreationDate,2022-11-12T16:17:18-08:00*
G04 #@! TF.ProjectId,separator,73657061-7261-4746-9f72-2e6b69636164,rev?*
G04 #@! TF.SameCoordinates,Original*
G04 #@! TF.FileFunction,Copper,L1,Top*
G04 #@! TF.FilePolarity,Positive*
%FSLAX46Y46*%
G04 Gerber Fmt 4.6, Leading zero omitted, Abs format (unit mm)*
G04 Created by KiCad (PCBNEW 6.0.2+dfsg-1) date 2022-11-12 16:17:18*
%MOMM*%
%LPD*%
G01*
G04 APERTURE LIST*
G04 Aperture macros list*
%AMRoundRect*
0 Rectangle with rounded corners*
0 $1 Rounding radius*
0 $2 $3 $4 $5 $6 $7 $8 $9 X,Y pos of 4 corners*
0 Add a 4 corners polygon primitive as box body*
4,1,4,$2,$3,$4,$5,$6,$7,$8,$9,$2,$3,0*
0 Add four circle primitives for the rounded corners*
1,1,$1+$1,$2,$3*
1,1,$1+$1,$4,$5*
1,1,$1+$1,$6,$7*
1,1,$1+$1,$8,$9*
0 Add four rect primitives between the rounded corners*
20,1,$1+$1,$2,$3,$4,$5,0*
20,1,$1+$1,$4,$5,$6,$7,0*
20,1,$1+$1,$6,$7,$8,$9,0*
20,1,$1+$1,$8,$9,$2,$3,0*%
G04 Aperture macros list end*
G04 #@! TA.AperFunction,SMDPad,CuDef*
%ADD10R,1.500000X1.000000*%
G04 #@! TD*
G04 #@! TA.AperFunction,ComponentPad*
%ADD11RoundRect,0.250000X0.350000X0.625000X-0.350000X0.625000X-0.350000X-0.625000X0.350000X-0.625000X0*%
G04 #@! TD*
G04 #@! TA.AperFunction,ComponentPad*
%ADD12O,1.200000X1.750000*%
G04 #@! TD*
G04 #@! TA.AperFunction,ViaPad*
%ADD13C,0.800000*%
G04 #@! TD*
G04 #@! TA.AperFunction,Conductor*
%ADD14C,1.000000*%
G04 #@! TD*
G04 #@! TA.AperFunction,Conductor*
%ADD15C,0.250000*%
G04 #@! TD*
G04 APERTURE END LIST*
D10*
X140550000Y-63400000D03*
X140550000Y-66600000D03*
X145450000Y-66600000D03*
X145450000Y-63400000D03*
X140550000Y-114400000D03*
X140550000Y-117600000D03*
X145450000Y-117600000D03*
X145450000Y-114400000D03*
D11*
X145000000Y-94000000D03*
D12*
X143000000Y-94000000D03*
X141000000Y-94000000D03*
D11*
X145000000Y-85450000D03*
D12*
X143000000Y-85450000D03*
X141000000Y-85450000D03*
D13*
X141000000Y-111000000D03*
X141000000Y-60000000D03*
D14*
X140550000Y-111450000D02*
X141000000Y-111000000D01*
X140550000Y-60450000D02*
X141000000Y-60000000D01*
X140550000Y-63400000D02*
X140550000Y-60450000D01*
X140550000Y-114400000D02*
X140550000Y-111450000D01*
D15*
X143850000Y-65000000D02*
X145450000Y-63400000D01*
X140550000Y-117600000D02*
X139000000Y-116050000D01*
X139000000Y-66000000D02*
X140000000Y-65000000D01*
X139000000Y-116050000D02*
X139000000Y-66000000D01*
X140000000Y-65000000D02*
X143850000Y-65000000D01*
X145450000Y-114400000D02*
X145450000Y-96450000D01*
X145450000Y-96450000D02*
X143000000Y-94000000D01*
X140550000Y-66600000D02*
X140550000Y-67550000D01*
X140550000Y-67550000D02*
X148000000Y-75000000D01*
X143000000Y-83000000D02*
X143000000Y-85450000D01*
X148000000Y-78000000D02*
X143000000Y-83000000D01*
X148000000Y-75000000D02*
X148000000Y-78000000D01*
G04 #@! TA.AperFunction,Conductor*
G36*
X143044032Y-53060134D02*
G01*
X143089095Y-53089095D01*
X148963095Y-58963095D01*
X148997121Y-59025407D01*
X149000000Y-59052190D01*
X149000000Y-121947810D01*
X148979998Y-122015931D01*
X148963095Y-122036905D01*
X143089095Y-127910905D01*
X143026783Y-127944931D01*
X142955968Y-127939866D01*
X142910905Y-127910905D01*
X137036905Y-122036905D01*
X137002879Y-121974593D01*
X137000000Y-121947810D01*
X137000000Y-65979943D01*
X138361780Y-65979943D01*
X138362526Y-65987835D01*
X138365941Y-66023961D01*
X138366500Y-66035819D01*
X138366500Y-115971233D01*
X138365973Y-115982416D01*
X138364298Y-115989909D01*
X138364547Y-115997835D01*
X138364547Y-115997836D01*
X138366438Y-116057986D01*
X138366500Y-116061945D01*
X138366500Y-116089856D01*
X138366997Y-116093790D01*
X138366997Y-116093791D01*
X138367005Y-116093856D01*
X138367938Y-116105693D01*
X138369327Y-116149889D01*
X138374978Y-116169339D01*
X138378987Y-116188700D01*
X138381526Y-116208797D01*
X138384445Y-116216168D01*
X138384445Y-116216170D01*
X138397804Y-116249912D01*
X138401649Y-116261142D01*
X138413982Y-116303593D01*
X138418015Y-116310412D01*
X138418017Y-116310417D01*
X138424293Y-116321028D01*
X138432988Y-116338776D01*
X138440448Y-116357617D01*
X138445110Y-116364033D01*
X138445110Y-116364034D01*
X138466436Y-116393387D01*
X138472952Y-116403307D01*
X138495458Y-116441362D01*
X138509779Y-116455683D01*
X138522619Y-116470716D01*
X138534528Y-116487107D01*
X138540634Y-116492158D01*
X138568605Y-116515298D01*
X138577384Y-116523288D01*
X139254595Y-117200499D01*
X139288621Y-117262811D01*
X139291500Y-117289594D01*
X139291500Y-118148134D01*
X139298255Y-118210316D01*
X139349385Y-118346705D01*
X139436739Y-118463261D01*
X139553295Y-118550615D01*
X139689684Y-118601745D01*
X139751866Y-118608500D01*
X141348134Y-118608500D01*
X141410316Y-118601745D01*
X141546705Y-118550615D01*
X141663261Y-118463261D01*
X141750615Y-118346705D01*
X141801745Y-118210316D01*
X141808500Y-118148134D01*
X141808500Y-118144669D01*
X144192001Y-118144669D01*
X144192371Y-118151490D01*
X144197895Y-118202352D01*
X144201521Y-118217604D01*
X144246676Y-118338054D01*
X144255214Y-118353649D01*
X144331715Y-118455724D01*
X144344276Y-118468285D01*
X144446351Y-118544786D01*
X144461946Y-118553324D01*
X144582394Y-118598478D01*
X144597649Y-118602105D01*
X144648514Y-118607631D01*
X144655328Y-118608000D01*
X145177885Y-118608000D01*
X145193124Y-118603525D01*
X145194329Y-118602135D01*
X145196000Y-118594452D01*
X145196000Y-118589884D01*
X145704000Y-118589884D01*
X145708475Y-118605123D01*
X145709865Y-118606328D01*
X145717548Y-118607999D01*
X146244669Y-118607999D01*
X146251490Y-118607629D01*
X146302352Y-118602105D01*
X146317604Y-118598479D01*
X146438054Y-118553324D01*
X146453649Y-118544786D01*
X146555724Y-118468285D01*
X146568285Y-118455724D01*
X146644786Y-118353649D01*
X146653324Y-118338054D01*
X146698478Y-118217606D01*
X146702105Y-118202351D01*
X146707631Y-118151486D01*
X146708000Y-118144672D01*
X146708000Y-117872115D01*
X146703525Y-117856876D01*
X146702135Y-117855671D01*
X146694452Y-117854000D01*
X145722115Y-117854000D01*
X145706876Y-117858475D01*
X145705671Y-117859865D01*
X145704000Y-117867548D01*
X145704000Y-118589884D01*
X145196000Y-118589884D01*
X145196000Y-117872115D01*
X145191525Y-117856876D01*
X145190135Y-117855671D01*
X145182452Y-117854000D01*
X144210116Y-117854000D01*
X144194877Y-117858475D01*
X144193672Y-117859865D01*
X144192001Y-117867548D01*
X144192001Y-118144669D01*
X141808500Y-118144669D01*
X141808500Y-117327885D01*
X144192000Y-117327885D01*
X144196475Y-117343124D01*
X144197865Y-117344329D01*
X144205548Y-117346000D01*
X145177885Y-117346000D01*
X145193124Y-117341525D01*
X145194329Y-117340135D01*
X145196000Y-117332452D01*
X145196000Y-117327885D01*
X145704000Y-117327885D01*
X145708475Y-117343124D01*
X145709865Y-117344329D01*
X145717548Y-117346000D01*
X146689884Y-117346000D01*
X146705123Y-117341525D01*
X146706328Y-117340135D01*
X146707999Y-117332452D01*
X146707999Y-117055331D01*
X146707629Y-117048510D01*
X146702105Y-116997648D01*
X146698479Y-116982396D01*
X146653324Y-116861946D01*
X146644786Y-116846351D01*
X146568285Y-116744276D01*
X146555724Y-116731715D01*
X146453649Y-116655214D01*
X146438054Y-116646676D01*
X146317606Y-116601522D01*
X146302351Y-116597895D01*
X146251486Y-116592369D01*
X146244672Y-116592000D01*
X145722115Y-116592000D01*
X145706876Y-116596475D01*
X145705671Y-116597865D01*
X145704000Y-116605548D01*
X145704000Y-117327885D01*
X145196000Y-117327885D01*
X145196000Y-116610116D01*
X145191525Y-116594877D01*
X145190135Y-116593672D01*
X145182452Y-116592001D01*
X144655331Y-116592001D01*
X144648510Y-116592371D01*
X144597648Y-116597895D01*
X144582396Y-116601521D01*
X144461946Y-116646676D01*
X144446351Y-116655214D01*
X144344276Y-116731715D01*
X144331715Y-116744276D01*
X144255214Y-116846351D01*
X144246676Y-116861946D01*
X144201522Y-116982394D01*
X144197895Y-116997649D01*
X144192369Y-117048514D01*
X144192000Y-117055328D01*
X144192000Y-117327885D01*
X141808500Y-117327885D01*
X141808500Y-117051866D01*
X141801745Y-116989684D01*
X141750615Y-116853295D01*
X141663261Y-116736739D01*
X141546705Y-116649385D01*
X141410316Y-116598255D01*
X141348134Y-116591500D01*
X140489595Y-116591500D01*
X140421474Y-116571498D01*
X140400499Y-116554595D01*
X139670404Y-115824499D01*
X139636379Y-115762187D01*
X139633500Y-115735404D01*
X139633500Y-115534500D01*
X139653502Y-115466379D01*
X139707158Y-115419886D01*
X139759500Y-115408500D01*
X140490127Y-115408500D01*
X140503297Y-115409190D01*
X140536796Y-115412711D01*
X140536798Y-115412711D01*
X140542925Y-115413355D01*
X140590570Y-115409019D01*
X140601990Y-115408500D01*
X141348134Y-115408500D01*
X141410316Y-115401745D01*
X141546705Y-115350615D01*
X141663261Y-115263261D01*
X141750615Y-115146705D01*
X141801745Y-115010316D01*
X141808500Y-114948134D01*
X141808500Y-113851866D01*
X141801745Y-113789684D01*
X141750615Y-113653295D01*
X141663261Y-113536739D01*
X141608935Y-113496024D01*
X141566420Y-113439165D01*
X141558500Y-113395198D01*
X141558500Y-111919924D01*
X141578502Y-111851803D01*
X141595405Y-111830829D01*
X141748309Y-111677925D01*
X141842103Y-111563739D01*
X141935562Y-111389437D01*
X141993387Y-111200302D01*
X142013374Y-111003538D01*
X141994761Y-110806638D01*
X141938259Y-110617104D01*
X141846018Y-110442154D01*
X141721553Y-110288453D01*
X141569604Y-110161854D01*
X141395959Y-110067178D01*
X141301595Y-110037606D01*
X141213114Y-110009878D01*
X141213111Y-110009877D01*
X141207232Y-110008035D01*
X141201109Y-110007370D01*
X141201105Y-110007369D01*
X141016736Y-109987341D01*
X141016732Y-109987341D01*
X141010611Y-109986676D01*
X140813587Y-110003913D01*
X140807670Y-110005632D01*
X140807665Y-110005633D01*
X140676936Y-110043614D01*
X140623664Y-110059091D01*
X140448074Y-110150108D01*
X140413963Y-110177338D01*
X140329777Y-110244542D01*
X140329770Y-110244549D01*
X140327027Y-110246738D01*
X139880613Y-110693152D01*
X139870483Y-110702242D01*
X139840975Y-110725968D01*
X139839767Y-110724467D01*
X139784999Y-110753636D01*
X139714240Y-110747834D01*
X139657851Y-110704697D01*
X139633734Y-110637922D01*
X139633500Y-110630243D01*
X139633500Y-94327846D01*
X139891500Y-94327846D01*
X139906548Y-94485566D01*
X139966092Y-94688534D01*
X139968836Y-94693861D01*
X139968836Y-94693862D01*
X140016440Y-94786290D01*
X140062942Y-94876580D01*
X140193604Y-95042920D01*
X140198135Y-95046852D01*
X140198138Y-95046855D01*
X140284058Y-95121412D01*
X140353363Y-95181552D01*
X140358549Y-95184552D01*
X140358553Y-95184555D01*
X140454957Y-95240326D01*
X140536454Y-95287473D01*
X140736271Y-95356861D01*
X140742206Y-95357722D01*
X140742208Y-95357722D01*
X140939664Y-95386352D01*
X140939667Y-95386352D01*
X140945604Y-95387213D01*
X141156899Y-95377433D01*
X141335356Y-95334425D01*
X141356701Y-95329281D01*
X141356703Y-95329280D01*
X141362534Y-95327875D01*
X141367992Y-95325393D01*
X141367996Y-95325392D01*
X141483041Y-95273084D01*
X141555087Y-95240326D01*
X141727611Y-95117946D01*
X141873881Y-94965150D01*
X141877688Y-94959255D01*
X141894746Y-94932837D01*
X141948501Y-94886460D01*
X142018797Y-94876507D01*
X142083314Y-94906139D01*
X142099681Y-94923351D01*
X142193604Y-95042920D01*
X142198135Y-95046852D01*
X142198138Y-95046855D01*
X142284058Y-95121412D01*
X142353363Y-95181552D01*
X142358549Y-95184552D01*
X142358553Y-95184555D01*
X142454957Y-95240326D01*
X142536454Y-95287473D01*
X142736271Y-95356861D01*
X142742206Y-95357722D01*
X142742208Y-95357722D01*
X142939664Y-95386352D01*
X142939667Y-95386352D01*
X142945604Y-95387213D01*
X143156899Y-95377433D01*
X143256983Y-95353313D01*
X143349818Y-95330940D01*
X143420729Y-95334425D01*
X143468434Y-95364338D01*
X144779595Y-96675499D01*
X144813621Y-96737811D01*
X144816500Y-96764594D01*
X144816500Y-102536224D01*
X144796498Y-102604345D01*
X144742842Y-102650838D01*
X144672568Y-102660942D01*
X144607988Y-102631448D01*
X144592166Y-102615005D01*
X144558364Y-102572814D01*
X144555687Y-102569472D01*
X144347149Y-102371577D01*
X144113683Y-102203814D01*
X144091843Y-102192250D01*
X144068654Y-102179972D01*
X143859608Y-102069288D01*
X143589627Y-101970489D01*
X143308736Y-101909245D01*
X143277685Y-101906801D01*
X143085718Y-101891693D01*
X143085709Y-101891693D01*
X143083261Y-101891500D01*
X142927729Y-101891500D01*
X142925593Y-101891646D01*
X142925582Y-101891646D01*
X142717452Y-101905835D01*
X142717446Y-101905836D01*
X142713175Y-101906127D01*
X142708980Y-101906996D01*
X142708978Y-101906996D01*
X142572416Y-101935277D01*
X142431658Y-101964426D01*
X142160657Y-102060393D01*
X141905188Y-102192250D01*
X141901687Y-102194711D01*
X141901683Y-102194713D01*
X141891594Y-102201804D01*
X141669977Y-102357559D01*
X141459378Y-102553260D01*
X141277287Y-102775732D01*
X141127073Y-103020858D01*
X141011517Y-103284102D01*
X140932756Y-103560594D01*
X140892249Y-103845216D01*
X140890743Y-104132703D01*
X140928268Y-104417734D01*
X141004129Y-104695036D01*
X141116923Y-104959476D01*
X141264561Y-105206161D01*
X141444313Y-105430528D01*
X141652851Y-105628423D01*
X141886317Y-105796186D01*
X141890112Y-105798195D01*
X141890113Y-105798196D01*
X141911869Y-105809715D01*
X142140392Y-105930712D01*
X142410373Y-106029511D01*
X142691264Y-106090755D01*
X142719841Y-106093004D01*
X142914282Y-106108307D01*
X142914291Y-106108307D01*
X142916739Y-106108500D01*
X143072271Y-106108500D01*
X143074407Y-106108354D01*
X143074418Y-106108354D01*
X143282548Y-106094165D01*
X143282554Y-106094164D01*
X143286825Y-106093873D01*
X143291020Y-106093004D01*
X143291022Y-106093004D01*
X143427584Y-106064723D01*
X143568342Y-106035574D01*
X143839343Y-105939607D01*
X144094812Y-105807750D01*
X144098313Y-105805289D01*
X144098317Y-105805287D01*
X144212418Y-105725095D01*
X144330023Y-105642441D01*
X144540622Y-105446740D01*
X144592997Y-105382750D01*
X144651620Y-105342706D01*
X144722589Y-105340712D01*
X144783370Y-105377403D01*
X144814665Y-105441130D01*
X144816500Y-105462557D01*
X144816500Y-113265500D01*
X144796498Y-113333621D01*
X144742842Y-113380114D01*
X144690500Y-113391500D01*
X144651866Y-113391500D01*
X144589684Y-113398255D01*
X144453295Y-113449385D01*
X144336739Y-113536739D01*
X144249385Y-113653295D01*
X144198255Y-113789684D01*
X144191500Y-113851866D01*
X144191500Y-114948134D01*
X144198255Y-115010316D01*
X144249385Y-115146705D01*
X144336739Y-115263261D01*
X144453295Y-115350615D01*
X144589684Y-115401745D01*
X144651866Y-115408500D01*
X146248134Y-115408500D01*
X146310316Y-115401745D01*
X146446705Y-115350615D01*
X146563261Y-115263261D01*
X146650615Y-115146705D01*
X146701745Y-115010316D01*
X146708500Y-114948134D01*
X146708500Y-113851866D01*
X146701745Y-113789684D01*
X146650615Y-113653295D01*
X146563261Y-113536739D01*
X146446705Y-113449385D01*
X146310316Y-113398255D01*
X146248134Y-113391500D01*
X146209500Y-113391500D01*
X146141379Y-113371498D01*
X146094886Y-113317842D01*
X146083500Y-113265500D01*
X146083500Y-96528767D01*
X146084027Y-96517584D01*
X146085702Y-96510091D01*
X146083562Y-96442014D01*
X146083500Y-96438055D01*
X146083500Y-96410144D01*
X146082995Y-96406144D01*
X146082062Y-96394301D01*
X146080922Y-96358029D01*
X146080673Y-96350110D01*
X146075022Y-96330658D01*
X146071014Y-96311306D01*
X146069467Y-96299063D01*
X146068474Y-96291203D01*
X146065556Y-96283832D01*
X146052200Y-96250097D01*
X146048355Y-96238870D01*
X146047721Y-96236687D01*
X146036018Y-96196407D01*
X146031984Y-96189585D01*
X146031981Y-96189579D01*
X146025706Y-96178968D01*
X146017010Y-96161218D01*
X146012472Y-96149756D01*
X146012469Y-96149751D01*
X146009552Y-96142383D01*
X145983573Y-96106625D01*
X145977057Y-96096707D01*
X145958575Y-96065457D01*
X145954542Y-96058637D01*
X145940218Y-96044313D01*
X145927376Y-96029278D01*
X145915472Y-96012893D01*
X145881406Y-95984711D01*
X145872627Y-95976722D01*
X145471625Y-95575720D01*
X145437599Y-95513408D01*
X145442664Y-95442593D01*
X145485211Y-95385757D01*
X145520844Y-95367101D01*
X145666784Y-95318412D01*
X145679962Y-95312239D01*
X145817807Y-95226937D01*
X145829208Y-95217901D01*
X145943739Y-95103171D01*
X145952751Y-95091760D01*
X146037816Y-94953757D01*
X146043963Y-94940576D01*
X146095138Y-94786290D01*
X146098005Y-94772914D01*
X146107672Y-94678562D01*
X146108000Y-94672146D01*
X146108000Y-94272115D01*
X146103525Y-94256876D01*
X146102135Y-94255671D01*
X146094452Y-94254000D01*
X144872000Y-94254000D01*
X144803879Y-94233998D01*
X144757386Y-94180342D01*
X144746000Y-94128000D01*
X144746000Y-93727885D01*
X145254000Y-93727885D01*
X145258475Y-93743124D01*
X145259865Y-93744329D01*
X145267548Y-93746000D01*
X146089884Y-93746000D01*
X146105123Y-93741525D01*
X146106328Y-93740135D01*
X146107999Y-93732452D01*
X146107999Y-93327905D01*
X146107662Y-93321386D01*
X146097743Y-93225794D01*
X146094851Y-93212400D01*
X146043412Y-93058216D01*
X146037239Y-93045038D01*
X145951937Y-92907193D01*
X145942901Y-92895792D01*
X145828171Y-92781261D01*
X145816760Y-92772249D01*
X145678757Y-92687184D01*
X145665576Y-92681037D01*
X145511290Y-92629862D01*
X145497914Y-92626995D01*
X145403562Y-92617328D01*
X145397145Y-92617000D01*
X145272115Y-92617000D01*
X145256876Y-92621475D01*
X145255671Y-92622865D01*
X145254000Y-92630548D01*
X145254000Y-93727885D01*
X144746000Y-93727885D01*
X144746000Y-92635116D01*
X144741525Y-92619877D01*
X144740135Y-92618672D01*
X144732452Y-92617001D01*
X144602905Y-92617001D01*
X144596386Y-92617338D01*
X144500794Y-92627257D01*
X144487400Y-92630149D01*
X144333216Y-92681588D01*
X144320038Y-92687761D01*
X144182193Y-92773063D01*
X144170792Y-92782099D01*
X144056261Y-92896829D01*
X144047249Y-92908240D01*
X144019255Y-92953655D01*
X143966483Y-93001148D01*
X143896411Y-93012572D01*
X143831287Y-92984298D01*
X143812912Y-92965375D01*
X143806396Y-92957080D01*
X143801865Y-92953148D01*
X143801862Y-92953145D01*
X143651167Y-92822379D01*
X143646637Y-92818448D01*
X143641451Y-92815448D01*
X143641447Y-92815445D01*
X143468742Y-92715533D01*
X143463546Y-92712527D01*
X143263729Y-92643139D01*
X143257794Y-92642278D01*
X143257792Y-92642278D01*
X143060336Y-92613648D01*
X143060333Y-92613648D01*
X143054396Y-92612787D01*
X142843101Y-92622567D01*
X142711923Y-92654181D01*
X142643299Y-92670719D01*
X142643297Y-92670720D01*
X142637466Y-92672125D01*
X142632008Y-92674607D01*
X142632004Y-92674608D01*
X142516959Y-92726916D01*
X142444913Y-92759674D01*
X142272389Y-92882054D01*
X142126119Y-93034850D01*
X142122868Y-93039885D01*
X142122866Y-93039888D01*
X142105254Y-93067163D01*
X142051499Y-93113540D01*
X141981203Y-93123493D01*
X141916686Y-93093861D01*
X141900317Y-93076647D01*
X141885840Y-93058216D01*
X141806396Y-92957080D01*
X141801865Y-92953148D01*
X141801862Y-92953145D01*
X141651167Y-92822379D01*
X141646637Y-92818448D01*
X141641451Y-92815448D01*
X141641447Y-92815445D01*
X141468742Y-92715533D01*
X141463546Y-92712527D01*
X141263729Y-92643139D01*
X141257794Y-92642278D01*
X141257792Y-92642278D01*
X141060336Y-92613648D01*
X141060333Y-92613648D01*
X141054396Y-92612787D01*
X140843101Y-92622567D01*
X140711923Y-92654181D01*
X140643299Y-92670719D01*
X140643297Y-92670720D01*
X140637466Y-92672125D01*
X140632008Y-92674607D01*
X140632004Y-92674608D01*
X140516959Y-92726916D01*
X140444913Y-92759674D01*
X140272389Y-92882054D01*
X140126119Y-93034850D01*
X140011380Y-93212548D01*
X139932314Y-93408737D01*
X139891772Y-93616337D01*
X139891500Y-93621899D01*
X139891500Y-94327846D01*
X139633500Y-94327846D01*
X139633500Y-77132703D01*
X140890743Y-77132703D01*
X140928268Y-77417734D01*
X141004129Y-77695036D01*
X141005813Y-77698984D01*
X141022283Y-77737596D01*
X141116923Y-77959476D01*
X141126836Y-77976039D01*
X141252148Y-78185420D01*
X141264561Y-78206161D01*
X141444313Y-78430528D01*
X141652851Y-78628423D01*
X141886317Y-78796186D01*
X141890112Y-78798195D01*
X141890113Y-78798196D01*
X141911869Y-78809715D01*
X142140392Y-78930712D01*
X142410373Y-79029511D01*
X142691264Y-79090755D01*
X142719841Y-79093004D01*
X142914282Y-79108307D01*
X142914291Y-79108307D01*
X142916739Y-79108500D01*
X143072271Y-79108500D01*
X143074407Y-79108354D01*
X143074418Y-79108354D01*
X143282548Y-79094165D01*
X143282554Y-79094164D01*
X143286825Y-79093873D01*
X143291020Y-79093004D01*
X143291022Y-79093004D01*
X143427584Y-79064723D01*
X143568342Y-79035574D01*
X143839343Y-78939607D01*
X144094812Y-78807750D01*
X144098313Y-78805289D01*
X144098317Y-78805287D01*
X144212417Y-78725096D01*
X144330023Y-78642441D01*
X144408403Y-78569606D01*
X144537479Y-78449661D01*
X144537481Y-78449658D01*
X144540622Y-78446740D01*
X144722713Y-78224268D01*
X144872927Y-77979142D01*
X144879495Y-77964181D01*
X144986757Y-77719830D01*
X144988483Y-77715898D01*
X145067244Y-77439406D01*
X145107751Y-77154784D01*
X145107845Y-77136951D01*
X145109235Y-76871583D01*
X145109235Y-76871576D01*
X145109257Y-76867297D01*
X145071732Y-76582266D01*
X144995871Y-76304964D01*
X144883077Y-76040524D01*
X144735439Y-75793839D01*
X144555687Y-75569472D01*
X144347149Y-75371577D01*
X144113683Y-75203814D01*
X144091843Y-75192250D01*
X144068654Y-75179972D01*
X143859608Y-75069288D01*
X143643058Y-74990042D01*
X143593658Y-74971964D01*
X143593656Y-74971963D01*
X143589627Y-74970489D01*
X143308736Y-74909245D01*
X143277685Y-74906801D01*
X143085718Y-74891693D01*
X143085709Y-74891693D01*
X143083261Y-74891500D01*
X142927729Y-74891500D01*
X142925593Y-74891646D01*
X142925582Y-74891646D01*
X142717452Y-74905835D01*
X142717446Y-74905836D01*
X142713175Y-74906127D01*
X142708980Y-74906996D01*
X142708978Y-74906996D01*
X142572416Y-74935277D01*
X142431658Y-74964426D01*
X142160657Y-75060393D01*
X141905188Y-75192250D01*
X141901687Y-75194711D01*
X141901683Y-75194713D01*
X141891594Y-75201804D01*
X141669977Y-75357559D01*
X141459378Y-75553260D01*
X141277287Y-75775732D01*
X141127073Y-76020858D01*
X141011517Y-76284102D01*
X140932756Y-76560594D01*
X140892249Y-76845216D01*
X140892227Y-76849505D01*
X140892226Y-76849512D01*
X140890765Y-77128417D01*
X140890743Y-77132703D01*
X139633500Y-77132703D01*
X139633500Y-67734500D01*
X139653502Y-67666379D01*
X139707158Y-67619886D01*
X139759500Y-67608500D01*
X139809064Y-67608500D01*
X139877185Y-67628502D01*
X139923678Y-67682158D01*
X139930653Y-67701886D01*
X139931526Y-67708797D01*
X139934442Y-67716161D01*
X139934443Y-67716166D01*
X139947804Y-67749912D01*
X139951649Y-67761142D01*
X139963982Y-67803593D01*
X139968015Y-67810412D01*
X139968017Y-67810417D01*
X139974293Y-67821028D01*
X139982988Y-67838776D01*
X139990448Y-67857617D01*
X139995110Y-67864033D01*
X139995110Y-67864034D01*
X140016436Y-67893387D01*
X140022952Y-67903307D01*
X140045458Y-67941362D01*
X140059779Y-67955683D01*
X140072619Y-67970716D01*
X140084528Y-67987107D01*
X140090634Y-67992158D01*
X140118605Y-68015298D01*
X140127384Y-68023288D01*
X147329595Y-75225500D01*
X147363621Y-75287812D01*
X147366500Y-75314595D01*
X147366500Y-77685406D01*
X147346498Y-77753527D01*
X147329595Y-77774501D01*
X142607747Y-82496348D01*
X142599461Y-82503888D01*
X142592982Y-82508000D01*
X142587557Y-82513777D01*
X142546357Y-82557651D01*
X142543602Y-82560493D01*
X142523865Y-82580230D01*
X142521385Y-82583427D01*
X142513682Y-82592447D01*
X142483414Y-82624679D01*
X142479595Y-82631625D01*
X142479593Y-82631628D01*
X142473652Y-82642434D01*
X142462801Y-82658953D01*
X142450386Y-82674959D01*
X142447241Y-82682228D01*
X142447238Y-82682232D01*
X142432826Y-82715537D01*
X142427609Y-82726187D01*
X142406305Y-82764940D01*
X142404334Y-82772615D01*
X142404334Y-82772616D01*
X142401267Y-82784562D01*
X142394863Y-82803266D01*
X142386819Y-82821855D01*
X142385580Y-82829678D01*
X142385577Y-82829688D01*
X142379901Y-82865524D01*
X142377495Y-82877144D01*
X142366500Y-82919970D01*
X142366500Y-82940224D01*
X142364949Y-82959934D01*
X142361780Y-82979943D01*
X142362526Y-82987835D01*
X142365941Y-83023961D01*
X142366500Y-83035819D01*
X142366500Y-84200193D01*
X142346498Y-84268314D01*
X142313399Y-84302963D01*
X142277280Y-84328584D01*
X142277276Y-84328587D01*
X142272389Y-84332054D01*
X142126119Y-84484850D01*
X142122868Y-84489885D01*
X142122866Y-84489888D01*
X142105254Y-84517163D01*
X142051499Y-84563540D01*
X141981203Y-84573493D01*
X141916686Y-84543861D01*
X141900317Y-84526647D01*
X141885840Y-84508216D01*
X141806396Y-84407080D01*
X141801865Y-84403148D01*
X141801862Y-84403145D01*
X141651167Y-84272379D01*
X141646637Y-84268448D01*
X141641451Y-84265448D01*
X141641447Y-84265445D01*
X141468742Y-84165533D01*
X141463546Y-84162527D01*
X141263729Y-84093139D01*
X141257794Y-84092278D01*
X141257792Y-84092278D01*
X141060336Y-84063648D01*
X141060333Y-84063648D01*
X141054396Y-84062787D01*
X140843101Y-84072567D01*
X140711923Y-84104181D01*
X140643299Y-84120719D01*
X140643297Y-84120720D01*
X140637466Y-84122125D01*
X140632008Y-84124607D01*
X140632004Y-84124608D01*
X140516959Y-84176916D01*
X140444913Y-84209674D01*
X140272389Y-84332054D01*
X140126119Y-84484850D01*
X140011380Y-84662548D01*
X139932314Y-84858737D01*
X139891772Y-85066337D01*
X139891500Y-85071899D01*
X139891500Y-85777846D01*
X139906548Y-85935566D01*
X139966092Y-86138534D01*
X139968836Y-86143861D01*
X139968836Y-86143862D01*
X140016440Y-86236290D01*
X140062942Y-86326580D01*
X140193604Y-86492920D01*
X140198135Y-86496852D01*
X140198138Y-86496855D01*
X140284058Y-86571412D01*
X140353363Y-86631552D01*
X140358549Y-86634552D01*
X140358553Y-86634555D01*
X140454957Y-86690326D01*
X140536454Y-86737473D01*
X140736271Y-86806861D01*
X140742206Y-86807722D01*
X140742208Y-86807722D01*
X140939664Y-86836352D01*
X140939667Y-86836352D01*
X140945604Y-86837213D01*
X141156899Y-86827433D01*
X141288077Y-86795819D01*
X141356701Y-86779281D01*
X141356703Y-86779280D01*
X141362534Y-86777875D01*
X141367992Y-86775393D01*
X141367996Y-86775392D01*
X141483041Y-86723084D01*
X141555087Y-86690326D01*
X141727611Y-86567946D01*
X141873881Y-86415150D01*
X141877688Y-86409255D01*
X141894746Y-86382837D01*
X141948501Y-86336460D01*
X142018797Y-86326507D01*
X142083314Y-86356139D01*
X142099681Y-86373351D01*
X142193604Y-86492920D01*
X142198135Y-86496852D01*
X142198138Y-86496855D01*
X142284058Y-86571412D01*
X142353363Y-86631552D01*
X142358549Y-86634552D01*
X142358553Y-86634555D01*
X142454957Y-86690326D01*
X142536454Y-86737473D01*
X142736271Y-86806861D01*
X142742206Y-86807722D01*
X142742208Y-86807722D01*
X142939664Y-86836352D01*
X142939667Y-86836352D01*
X142945604Y-86837213D01*
X143156899Y-86827433D01*
X143288077Y-86795819D01*
X143356701Y-86779281D01*
X143356703Y-86779280D01*
X143362534Y-86777875D01*
X143367992Y-86775393D01*
X143367996Y-86775392D01*
X143483041Y-86723084D01*
X143555087Y-86690326D01*
X143727611Y-86567946D01*
X143731749Y-86563623D01*
X143731754Y-86563619D01*
X143819164Y-86472309D01*
X143880720Y-86436933D01*
X143951629Y-86440452D01*
X144009379Y-86481749D01*
X144017326Y-86493137D01*
X144048063Y-86542807D01*
X144057099Y-86554208D01*
X144171829Y-86668739D01*
X144183240Y-86677751D01*
X144321243Y-86762816D01*
X144334424Y-86768963D01*
X144488710Y-86820138D01*
X144502086Y-86823005D01*
X144596438Y-86832672D01*
X144602854Y-86833000D01*
X144727885Y-86833000D01*
X144743124Y-86828525D01*
X144744329Y-86827135D01*
X144746000Y-86819452D01*
X144746000Y-86814884D01*
X145254000Y-86814884D01*
X145258475Y-86830123D01*
X145259865Y-86831328D01*
X145267548Y-86832999D01*
X145397095Y-86832999D01*
X145403614Y-86832662D01*
X145499206Y-86822743D01*
X145512600Y-86819851D01*
X145666784Y-86768412D01*
X145679962Y-86762239D01*
X145817807Y-86676937D01*
X145829208Y-86667901D01*
X145943739Y-86553171D01*
X145952751Y-86541760D01*
X146037816Y-86403757D01*
X146043963Y-86390576D01*
X146095138Y-86236290D01*
X146098005Y-86222914D01*
X146107672Y-86128562D01*
X146108000Y-86122146D01*
X146108000Y-85722115D01*
X146103525Y-85706876D01*
X146102135Y-85705671D01*
X146094452Y-85704000D01*
X145272115Y-85704000D01*
X145256876Y-85708475D01*
X145255671Y-85709865D01*
X145254000Y-85717548D01*
X145254000Y-86814884D01*
X144746000Y-86814884D01*
X144746000Y-85177885D01*
X145254000Y-85177885D01*
X145258475Y-85193124D01*
X145259865Y-85194329D01*
X145267548Y-85196000D01*
X146089884Y-85196000D01*
X146105123Y-85191525D01*
X146106328Y-85190135D01*
X146107999Y-85182452D01*
X146107999Y-84777905D01*
X146107662Y-84771386D01*
X146097743Y-84675794D01*
X146094851Y-84662400D01*
X146043412Y-84508216D01*
X146037239Y-84495038D01*
X145951937Y-84357193D01*
X145942901Y-84345792D01*
X145828171Y-84231261D01*
X145816760Y-84222249D01*
X145678757Y-84137184D01*
X145665576Y-84131037D01*
X145511290Y-84079862D01*
X145497914Y-84076995D01*
X145403562Y-84067328D01*
X145397145Y-84067000D01*
X145272115Y-84067000D01*
X145256876Y-84071475D01*
X145255671Y-84072865D01*
X145254000Y-84080548D01*
X145254000Y-85177885D01*
X144746000Y-85177885D01*
X144746000Y-84085116D01*
X144741525Y-84069877D01*
X144740135Y-84068672D01*
X144732452Y-84067001D01*
X144602905Y-84067001D01*
X144596386Y-84067338D01*
X144500794Y-84077257D01*
X144487400Y-84080149D01*
X144333216Y-84131588D01*
X144320038Y-84137761D01*
X144182193Y-84223063D01*
X144170792Y-84232099D01*
X144056261Y-84346829D01*
X144047249Y-84358240D01*
X144019255Y-84403655D01*
X143966483Y-84451148D01*
X143896411Y-84462572D01*
X143831287Y-84434298D01*
X143812912Y-84415375D01*
X143806396Y-84407080D01*
X143676918Y-84294725D01*
X143638579Y-84234973D01*
X143633500Y-84199561D01*
X143633500Y-83314594D01*
X143653502Y-83246473D01*
X143670405Y-83225499D01*
X148392253Y-78503652D01*
X148400539Y-78496112D01*
X148407018Y-78492000D01*
X148453644Y-78442348D01*
X148456398Y-78439507D01*
X148476135Y-78419770D01*
X148478615Y-78416573D01*
X148486320Y-78407551D01*
X148511159Y-78381100D01*
X148516586Y-78375321D01*
X148520405Y-78368375D01*
X148520407Y-78368372D01*
X148526348Y-78357566D01*
X148537199Y-78341047D01*
X148544758Y-78331301D01*
X148549614Y-78325041D01*
X148552759Y-78317772D01*
X148552762Y-78317768D01*
X148567174Y-78284463D01*
X148572391Y-78273813D01*
X148593695Y-78235060D01*
X148598733Y-78215437D01*
X148605137Y-78196734D01*
X148610033Y-78185420D01*
X148610033Y-78185419D01*
X148613181Y-78178145D01*
X148614420Y-78170322D01*
X148614423Y-78170312D01*
X148620099Y-78134476D01*
X148622505Y-78122856D01*
X148631528Y-78087711D01*
X148631528Y-78087710D01*
X148633500Y-78080030D01*
X148633500Y-78059776D01*
X148635051Y-78040065D01*
X148636980Y-78027886D01*
X148638220Y-78020057D01*
X148634059Y-77976038D01*
X148633500Y-77964181D01*
X148633500Y-75078767D01*
X148634027Y-75067584D01*
X148635702Y-75060091D01*
X148633562Y-74992014D01*
X148633500Y-74988055D01*
X148633500Y-74960144D01*
X148632995Y-74956144D01*
X148632062Y-74944301D01*
X148630922Y-74908030D01*
X148630673Y-74900111D01*
X148625021Y-74880657D01*
X148621013Y-74861300D01*
X148619468Y-74849070D01*
X148619468Y-74849069D01*
X148618474Y-74841203D01*
X148615555Y-74833830D01*
X148602196Y-74800088D01*
X148598351Y-74788858D01*
X148588229Y-74754017D01*
X148588229Y-74754016D01*
X148586018Y-74746407D01*
X148581985Y-74739588D01*
X148581983Y-74739583D01*
X148575707Y-74728972D01*
X148567012Y-74711224D01*
X148559552Y-74692383D01*
X148533564Y-74656613D01*
X148527048Y-74646693D01*
X148508580Y-74615465D01*
X148508578Y-74615462D01*
X148504542Y-74608638D01*
X148490221Y-74594317D01*
X148477380Y-74579283D01*
X148470131Y-74569306D01*
X148465472Y-74562893D01*
X148431395Y-74534702D01*
X148422616Y-74526712D01*
X141592202Y-67696297D01*
X141558176Y-67633985D01*
X141563241Y-67563170D01*
X141605731Y-67506377D01*
X141663261Y-67463261D01*
X141750615Y-67346705D01*
X141801745Y-67210316D01*
X141808500Y-67148134D01*
X141808500Y-67144669D01*
X144192001Y-67144669D01*
X144192371Y-67151490D01*
X144197895Y-67202352D01*
X144201521Y-67217604D01*
X144246676Y-67338054D01*
X144255214Y-67353649D01*
X144331715Y-67455724D01*
X144344276Y-67468285D01*
X144446351Y-67544786D01*
X144461946Y-67553324D01*
X144582394Y-67598478D01*
X144597649Y-67602105D01*
X144648514Y-67607631D01*
X144655328Y-67608000D01*
X145177885Y-67608000D01*
X145193124Y-67603525D01*
X145194329Y-67602135D01*
X145196000Y-67594452D01*
X145196000Y-67589884D01*
X145704000Y-67589884D01*
X145708475Y-67605123D01*
X145709865Y-67606328D01*
X145717548Y-67607999D01*
X146244669Y-67607999D01*
X146251490Y-67607629D01*
X146302352Y-67602105D01*
X146317604Y-67598479D01*
X146438054Y-67553324D01*
X146453649Y-67544786D01*
X146555724Y-67468285D01*
X146568285Y-67455724D01*
X146644786Y-67353649D01*
X146653324Y-67338054D01*
X146698478Y-67217606D01*
X146702105Y-67202351D01*
X146707631Y-67151486D01*
X146708000Y-67144672D01*
X146708000Y-66872115D01*
X146703525Y-66856876D01*
X146702135Y-66855671D01*
X146694452Y-66854000D01*
X145722115Y-66854000D01*
X145706876Y-66858475D01*
X145705671Y-66859865D01*
X145704000Y-66867548D01*
X145704000Y-67589884D01*
X145196000Y-67589884D01*
X145196000Y-66872115D01*
X145191525Y-66856876D01*
X145190135Y-66855671D01*
X145182452Y-66854000D01*
X144210116Y-66854000D01*
X144194877Y-66858475D01*
X144193672Y-66859865D01*
X144192001Y-66867548D01*
X144192001Y-67144669D01*
X141808500Y-67144669D01*
X141808500Y-66327885D01*
X144192000Y-66327885D01*
X144196475Y-66343124D01*
X144197865Y-66344329D01*
X144205548Y-66346000D01*
X145177885Y-66346000D01*
X145193124Y-66341525D01*
X145194329Y-66340135D01*
X145196000Y-66332452D01*
X145196000Y-66327885D01*
X145704000Y-66327885D01*
X145708475Y-66343124D01*
X145709865Y-66344329D01*
X145717548Y-66346000D01*
X146689884Y-66346000D01*
X146705123Y-66341525D01*
X146706328Y-66340135D01*
X146707999Y-66332452D01*
X146707999Y-66055331D01*
X146707629Y-66048510D01*
X146702105Y-65997648D01*
X146698479Y-65982396D01*
X146653324Y-65861946D01*
X146644786Y-65846351D01*
X146568285Y-65744276D01*
X146555724Y-65731715D01*
X146453649Y-65655214D01*
X146438054Y-65646676D01*
X146317606Y-65601522D01*
X146302351Y-65597895D01*
X146251486Y-65592369D01*
X146244672Y-65592000D01*
X145722115Y-65592000D01*
X145706876Y-65596475D01*
X145705671Y-65597865D01*
X145704000Y-65605548D01*
X145704000Y-66327885D01*
X145196000Y-66327885D01*
X145196000Y-65610116D01*
X145191525Y-65594877D01*
X145190135Y-65593672D01*
X145182452Y-65592001D01*
X144655331Y-65592001D01*
X144648510Y-65592371D01*
X144597648Y-65597895D01*
X144582396Y-65601521D01*
X144461940Y-65646678D01*
X144444991Y-65655958D01*
X144375634Y-65671128D01*
X144370551Y-65669239D01*
X144348405Y-65726117D01*
X144337721Y-65738270D01*
X144331715Y-65744276D01*
X144255214Y-65846351D01*
X144246676Y-65861946D01*
X144201522Y-65982394D01*
X144197895Y-65997649D01*
X144192369Y-66048514D01*
X144192000Y-66055328D01*
X144192000Y-66327885D01*
X141808500Y-66327885D01*
X141808500Y-66051866D01*
X141801745Y-65989684D01*
X141750615Y-65853295D01*
X141736953Y-65835066D01*
X141712104Y-65768560D01*
X141727156Y-65699178D01*
X141777330Y-65648947D01*
X141837778Y-65633500D01*
X143771233Y-65633500D01*
X143782416Y-65634027D01*
X143789909Y-65635702D01*
X143797835Y-65635453D01*
X143797836Y-65635453D01*
X143857986Y-65633562D01*
X143861945Y-65633500D01*
X143889856Y-65633500D01*
X143893791Y-65633003D01*
X143893856Y-65632995D01*
X143905693Y-65632062D01*
X143937951Y-65631048D01*
X143941970Y-65630922D01*
X143949889Y-65630673D01*
X143969343Y-65625021D01*
X143988700Y-65621013D01*
X144000930Y-65619468D01*
X144000931Y-65619468D01*
X144008797Y-65618474D01*
X144016168Y-65615555D01*
X144016170Y-65615555D01*
X144049912Y-65602196D01*
X144061142Y-65598351D01*
X144095983Y-65588229D01*
X144095984Y-65588229D01*
X144103593Y-65586018D01*
X144110412Y-65581985D01*
X144110417Y-65581983D01*
X144121028Y-65575707D01*
X144138776Y-65567012D01*
X144157617Y-65559552D01*
X144174566Y-65547238D01*
X144241434Y-65523380D01*
X144262011Y-65528165D01*
X144261330Y-65518795D01*
X144287396Y-65465124D01*
X144315298Y-65431396D01*
X144323288Y-65422616D01*
X145300499Y-64445405D01*
X145362811Y-64411379D01*
X145389594Y-64408500D01*
X146248134Y-64408500D01*
X146310316Y-64401745D01*
X146446705Y-64350615D01*
X146563261Y-64263261D01*
X146650615Y-64146705D01*
X146701745Y-64010316D01*
X146708500Y-63948134D01*
X146708500Y-62851866D01*
X146701745Y-62789684D01*
X146650615Y-62653295D01*
X146563261Y-62536739D01*
X146446705Y-62449385D01*
X146310316Y-62398255D01*
X146248134Y-62391500D01*
X144651866Y-62391500D01*
X144589684Y-62398255D01*
X144453295Y-62449385D01*
X144336739Y-62536739D01*
X144249385Y-62653295D01*
X144198255Y-62789684D01*
X144191500Y-62851866D01*
X144191500Y-63710405D01*
X144171498Y-63778526D01*
X144154595Y-63799500D01*
X143624500Y-64329595D01*
X143562188Y-64363621D01*
X143535405Y-64366500D01*
X141837778Y-64366500D01*
X141769657Y-64346498D01*
X141723164Y-64292842D01*
X141713060Y-64222568D01*
X141736953Y-64164934D01*
X141745229Y-64153892D01*
X141745230Y-64153890D01*
X141750615Y-64146705D01*
X141801745Y-64010316D01*
X141808500Y-63948134D01*
X141808500Y-62851866D01*
X141801745Y-62789684D01*
X141750615Y-62653295D01*
X141663261Y-62536739D01*
X141608935Y-62496024D01*
X141566420Y-62439165D01*
X141558500Y-62395198D01*
X141558500Y-60919924D01*
X141578502Y-60851803D01*
X141595405Y-60830829D01*
X141748309Y-60677925D01*
X141842103Y-60563739D01*
X141935562Y-60389437D01*
X141993387Y-60200302D01*
X142007451Y-60061846D01*
X142012752Y-60009666D01*
X142012752Y-60009661D01*
X142013374Y-60003538D01*
X141994761Y-59806638D01*
X141938259Y-59617104D01*
X141846018Y-59442154D01*
X141721553Y-59288453D01*
X141569604Y-59161854D01*
X141395959Y-59067178D01*
X141262667Y-59025407D01*
X141213114Y-59009878D01*
X141213111Y-59009877D01*
X141207232Y-59008035D01*
X141201109Y-59007370D01*
X141201105Y-59007369D01*
X141016736Y-58987341D01*
X141016732Y-58987341D01*
X141010611Y-58986676D01*
X140813587Y-59003913D01*
X140807670Y-59005632D01*
X140807665Y-59005633D01*
X140676936Y-59043614D01*
X140623664Y-59059091D01*
X140448074Y-59150108D01*
X140413963Y-59177338D01*
X140329777Y-59244542D01*
X140329770Y-59244549D01*
X140327027Y-59246738D01*
X139880613Y-59693152D01*
X139870483Y-59702242D01*
X139840975Y-59725968D01*
X139837011Y-59730692D01*
X139808709Y-59764421D01*
X139805528Y-59768069D01*
X139803885Y-59769881D01*
X139801691Y-59772075D01*
X139774358Y-59805349D01*
X139773696Y-59806147D01*
X139713846Y-59877474D01*
X139711278Y-59882144D01*
X139707897Y-59886261D01*
X139676860Y-59944145D01*
X139664023Y-59968086D01*
X139663394Y-59969245D01*
X139621538Y-60045381D01*
X139621535Y-60045389D01*
X139618567Y-60050787D01*
X139616955Y-60055869D01*
X139614438Y-60060563D01*
X139587238Y-60149531D01*
X139586918Y-60150559D01*
X139558765Y-60239306D01*
X139558171Y-60244602D01*
X139556613Y-60249698D01*
X139555990Y-60255834D01*
X139547218Y-60342187D01*
X139547089Y-60343393D01*
X139541500Y-60393227D01*
X139541500Y-60396754D01*
X139541445Y-60397739D01*
X139540998Y-60403419D01*
X139536626Y-60446462D01*
X139537206Y-60452593D01*
X139540941Y-60492109D01*
X139541500Y-60503967D01*
X139541500Y-62395198D01*
X139521498Y-62463319D01*
X139491065Y-62496024D01*
X139436739Y-62536739D01*
X139349385Y-62653295D01*
X139298255Y-62789684D01*
X139291500Y-62851866D01*
X139291500Y-63948134D01*
X139298255Y-64010316D01*
X139349385Y-64146705D01*
X139436739Y-64263261D01*
X139443919Y-64268642D01*
X139548306Y-64346876D01*
X139590821Y-64403735D01*
X139595847Y-64474554D01*
X139562177Y-64533935D01*
X139562893Y-64534527D01*
X139559549Y-64538569D01*
X139559547Y-64538573D01*
X139557844Y-64540631D01*
X139557841Y-64540634D01*
X139534707Y-64568598D01*
X139526717Y-64577379D01*
X138607742Y-65496353D01*
X138599463Y-65503887D01*
X138592982Y-65508000D01*
X138548950Y-65554890D01*
X138546357Y-65557651D01*
X138543602Y-65560493D01*
X138523865Y-65580230D01*
X138521385Y-65583427D01*
X138513682Y-65592447D01*
X138483414Y-65624679D01*
X138479595Y-65631625D01*
X138479593Y-65631628D01*
X138473652Y-65642434D01*
X138462801Y-65658953D01*
X138450386Y-65674959D01*
X138447241Y-65682228D01*
X138447238Y-65682232D01*
X138432826Y-65715537D01*
X138427609Y-65726187D01*
X138406305Y-65764940D01*
X138404334Y-65772615D01*
X138404334Y-65772616D01*
X138401267Y-65784562D01*
X138394863Y-65803266D01*
X138386819Y-65821855D01*
X138385580Y-65829678D01*
X138385577Y-65829688D01*
X138379901Y-65865524D01*
X138377495Y-65877144D01*
X138366500Y-65919970D01*
X138366500Y-65940224D01*
X138364949Y-65959934D01*
X138361780Y-65979943D01*
X137000000Y-65979943D01*
X137000000Y-59052190D01*
X137020002Y-58984069D01*
X137036905Y-58963095D01*
X142910905Y-53089095D01*
X142973217Y-53055069D01*
X143044032Y-53060134D01*
G37*
G04 #@! TD.AperFunction*
M02*
