G04 #@! TF.GenerationSoftware,KiCad,Pcbnew,6.0.2+dfsg-1*
G04 #@! TF.CreationDate,2022-11-12T16:19:11-08:00*
G04 #@! TF.ProjectId,digit,64696769-742e-46b6-9963-61645f706362,rev?*
G04 #@! TF.SameCoordinates,Original*
G04 #@! TF.FileFunction,Soldermask,Top*
G04 #@! TF.FilePolarity,Negative*
%FSLAX46Y46*%
G04 Gerber Fmt 4.6, Leading zero omitted, Abs format (unit mm)*
G04 Created by KiCad (PCBNEW 6.0.2+dfsg-1) date 2022-11-12 16:19:11*
%MOMM*%
%LPD*%
G01*
G04 APERTURE LIST*
G04 Aperture macros list*
%AMRoundRect*
0 Rectangle with rounded corners*
0 $1 Rounding radius*
0 $2 $3 $4 $5 $6 $7 $8 $9 X,Y pos of 4 corners*
0 Add a 4 corners polygon primitive as box body*
4,1,4,$2,$3,$4,$5,$6,$7,$8,$9,$2,$3,0*
0 Add four circle primitives for the rounded corners*
1,1,$1+$1,$2,$3*
1,1,$1+$1,$4,$5*
1,1,$1+$1,$6,$7*
1,1,$1+$1,$8,$9*
0 Add four rect primitives between the rounded corners*
20,1,$1+$1,$2,$3,$4,$5,0*
20,1,$1+$1,$4,$5,$6,$7,0*
20,1,$1+$1,$6,$7,$8,$9,0*
20,1,$1+$1,$8,$9,$2,$3,0*%
G04 Aperture macros list end*
%ADD10R,1.000000X1.500000*%
%ADD11C,3.200000*%
%ADD12R,1.500000X1.000000*%
%ADD13RoundRect,0.250000X0.350000X0.625000X-0.350000X0.625000X-0.350000X-0.625000X0.350000X-0.625000X0*%
%ADD14O,1.200000X1.750000*%
G04 APERTURE END LIST*
D10*
X76600000Y-131550000D03*
X73400000Y-131550000D03*
X73400000Y-136450000D03*
X76600000Y-136450000D03*
X129400000Y-122450000D03*
X132600000Y-122450000D03*
X132600000Y-117550000D03*
X129400000Y-117550000D03*
X76600000Y-75550000D03*
X73400000Y-75550000D03*
X73400000Y-80450000D03*
X76600000Y-80450000D03*
X129400000Y-66450000D03*
X132600000Y-66450000D03*
X132600000Y-61550000D03*
X129400000Y-61550000D03*
X76600000Y-60550000D03*
X73400000Y-60550000D03*
X73400000Y-65450000D03*
X76600000Y-65450000D03*
D11*
X103000000Y-59000000D03*
D10*
X76600000Y-145550000D03*
X73400000Y-145550000D03*
X73400000Y-150450000D03*
X76600000Y-150450000D03*
D12*
X91450000Y-51600000D03*
X91450000Y-48400000D03*
X86550000Y-48400000D03*
X86550000Y-51600000D03*
X119450000Y-51600000D03*
X119450000Y-48400000D03*
X114550000Y-48400000D03*
X114550000Y-51600000D03*
D10*
X129400000Y-79450000D03*
X132600000Y-79450000D03*
X132600000Y-74550000D03*
X129400000Y-74550000D03*
D12*
X106450000Y-51600000D03*
X106450000Y-48400000D03*
X101550000Y-48400000D03*
X101550000Y-51600000D03*
X118450000Y-107600000D03*
X118450000Y-104400000D03*
X113550000Y-104400000D03*
X113550000Y-107600000D03*
D11*
X103000000Y-153000000D03*
D10*
X129400000Y-93450000D03*
X132600000Y-93450000D03*
X132600000Y-88550000D03*
X129400000Y-88550000D03*
D12*
X101550000Y-160400000D03*
X101550000Y-163600000D03*
X106450000Y-163600000D03*
X106450000Y-160400000D03*
D10*
X76600000Y-116550000D03*
X73400000Y-116550000D03*
X73400000Y-121450000D03*
X76600000Y-121450000D03*
D12*
X93450000Y-107600000D03*
X93450000Y-104400000D03*
X88550000Y-104400000D03*
X88550000Y-107600000D03*
D10*
X129400000Y-136450000D03*
X132600000Y-136450000D03*
X132600000Y-131550000D03*
X129400000Y-131550000D03*
D12*
X115550000Y-160400000D03*
X115550000Y-163600000D03*
X120450000Y-163600000D03*
X120450000Y-160400000D03*
D10*
X129400000Y-150450000D03*
X132600000Y-150450000D03*
X132600000Y-145550000D03*
X129400000Y-145550000D03*
D12*
X86550000Y-160400000D03*
X86550000Y-163600000D03*
X91450000Y-163600000D03*
X91450000Y-160400000D03*
D10*
X76600000Y-89550000D03*
X73400000Y-89550000D03*
X73400000Y-94450000D03*
X76600000Y-94450000D03*
D12*
X106450000Y-107600000D03*
X106450000Y-104400000D03*
X101550000Y-104400000D03*
X101550000Y-107600000D03*
D13*
X105000000Y-76000000D03*
D14*
X103000000Y-76000000D03*
X101000000Y-76000000D03*
D13*
X106000000Y-133450000D03*
D14*
X104000000Y-133450000D03*
X102000000Y-133450000D03*
M02*
