M48
; DRILL file {KiCad 6.0.2+dfsg-1} date Tue 08 Nov 2022 12:19:25 AM PST
; FORMAT={-:-/ absolute / metric / decimal}
; #@! TF.CreationDate,2022-11-08T00:19:25-08:00
; #@! TF.GenerationSoftware,Kicad,Pcbnew,6.0.2+dfsg-1
; #@! TF.FileFunction,Plated,1,2,PTH
FMAT,2
METRIC
; #@! TA.AperFunction,Plated,PTH,ViaDrill
T1C0.400
; #@! TA.AperFunction,Plated,PTH,ComponentDrill
T2C0.750
%
G90
G05
T1
X83.0Y-58.0
X83.0Y-74.0
X83.0Y-88.0
X83.0Y-116.0
X83.0Y-129.0
X83.0Y-144.0
X88.0Y-155.0
X90.0Y-58.0
X96.0Y-114.0
X97.0Y-154.0
X108.0Y-114.0
X112.0Y-58.0
X115.0Y-154.0
X118.0Y-58.0
X120.0Y-114.0
X123.0Y-67.0
X123.0Y-80.0
X123.0Y-95.0
X123.0Y-124.0
X123.0Y-138.0
X123.0Y-152.0
T2
X101.0Y-76.0
X102.0Y-133.45
X103.0Y-76.0
X104.0Y-133.45
X105.0Y-76.0
X106.0Y-133.45
T0
M30
