G04 #@! TF.GenerationSoftware,KiCad,Pcbnew,6.0.2+dfsg-1*
G04 #@! TF.CreationDate,2022-11-12T16:19:10-08:00*
G04 #@! TF.ProjectId,digit,64696769-742e-46b6-9963-61645f706362,rev?*
G04 #@! TF.SameCoordinates,Original*
G04 #@! TF.FileFunction,Legend,Bot*
G04 #@! TF.FilePolarity,Positive*
%FSLAX46Y46*%
G04 Gerber Fmt 4.6, Leading zero omitted, Abs format (unit mm)*
G04 Created by KiCad (PCBNEW 6.0.2+dfsg-1) date 2022-11-12 16:19:10*
%MOMM*%
%LPD*%
G01*
G04 APERTURE LIST*
G04 Aperture macros list*
%AMRoundRect*
0 Rectangle with rounded corners*
0 $1 Rounding radius*
0 $2 $3 $4 $5 $6 $7 $8 $9 X,Y pos of 4 corners*
0 Add a 4 corners polygon primitive as box body*
4,1,4,$2,$3,$4,$5,$6,$7,$8,$9,$2,$3,0*
0 Add four circle primitives for the rounded corners*
1,1,$1+$1,$2,$3*
1,1,$1+$1,$4,$5*
1,1,$1+$1,$6,$7*
1,1,$1+$1,$8,$9*
0 Add four rect primitives between the rounded corners*
20,1,$1+$1,$2,$3,$4,$5,0*
20,1,$1+$1,$4,$5,$6,$7,0*
20,1,$1+$1,$6,$7,$8,$9,0*
20,1,$1+$1,$8,$9,$2,$3,0*%
G04 Aperture macros list end*
%ADD10C,0.150000*%
%ADD11C,0.120000*%
%ADD12C,3.200000*%
%ADD13RoundRect,0.250000X0.350000X0.625000X-0.350000X0.625000X-0.350000X-0.625000X0.350000X-0.625000X0*%
%ADD14O,1.200000X1.750000*%
G04 APERTURE END LIST*
D10*
X125142857Y-44785714D02*
X124904761Y-45452380D01*
X124666666Y-44785714D01*
X123761904Y-45452380D02*
X124333333Y-45452380D01*
X124047619Y-45452380D02*
X124047619Y-44452380D01*
X124142857Y-44595238D01*
X124238095Y-44690476D01*
X124333333Y-44738095D01*
X122619047Y-44547619D02*
X122571428Y-44500000D01*
X122476190Y-44452380D01*
X122238095Y-44452380D01*
X122142857Y-44500000D01*
X122095238Y-44547619D01*
X122047619Y-44642857D01*
X122047619Y-44738095D01*
X122095238Y-44880952D01*
X122666666Y-45452380D01*
X122047619Y-45452380D01*
X121428571Y-44452380D02*
X121333333Y-44452380D01*
X121238095Y-44500000D01*
X121190476Y-44547619D01*
X121142857Y-44642857D01*
X121095238Y-44833333D01*
X121095238Y-45071428D01*
X121142857Y-45261904D01*
X121190476Y-45357142D01*
X121238095Y-45404761D01*
X121333333Y-45452380D01*
X121428571Y-45452380D01*
X121523809Y-45404761D01*
X121571428Y-45357142D01*
X121619047Y-45261904D01*
X121666666Y-45071428D01*
X121666666Y-44833333D01*
X121619047Y-44642857D01*
X121571428Y-44547619D01*
X121523809Y-44500000D01*
X121428571Y-44452380D01*
X120714285Y-44547619D02*
X120666666Y-44500000D01*
X120571428Y-44452380D01*
X120333333Y-44452380D01*
X120238095Y-44500000D01*
X120190476Y-44547619D01*
X120142857Y-44642857D01*
X120142857Y-44738095D01*
X120190476Y-44880952D01*
X120761904Y-45452380D01*
X120142857Y-45452380D01*
X119761904Y-44547619D02*
X119714285Y-44500000D01*
X119619047Y-44452380D01*
X119380952Y-44452380D01*
X119285714Y-44500000D01*
X119238095Y-44547619D01*
X119190476Y-44642857D01*
X119190476Y-44738095D01*
X119238095Y-44880952D01*
X119809523Y-45452380D01*
X119190476Y-45452380D01*
X118761904Y-45071428D02*
X118000000Y-45071428D01*
X117000000Y-45452380D02*
X117571428Y-45452380D01*
X117285714Y-45452380D02*
X117285714Y-44452380D01*
X117380952Y-44595238D01*
X117476190Y-44690476D01*
X117571428Y-44738095D01*
X116047619Y-45452380D02*
X116619047Y-45452380D01*
X116333333Y-45452380D02*
X116333333Y-44452380D01*
X116428571Y-44595238D01*
X116523809Y-44690476D01*
X116619047Y-44738095D01*
X115619047Y-45071428D02*
X114857142Y-45071428D01*
X113857142Y-45452380D02*
X114428571Y-45452380D01*
X114142857Y-45452380D02*
X114142857Y-44452380D01*
X114238095Y-44595238D01*
X114333333Y-44690476D01*
X114428571Y-44738095D01*
X113476190Y-44547619D02*
X113428571Y-44500000D01*
X113333333Y-44452380D01*
X113095238Y-44452380D01*
X113000000Y-44500000D01*
X112952380Y-44547619D01*
X112904761Y-44642857D01*
X112904761Y-44738095D01*
X112952380Y-44880952D01*
X113523809Y-45452380D01*
X112904761Y-45452380D01*
X104095238Y-72552380D02*
X104095238Y-73266666D01*
X104142857Y-73409523D01*
X104238095Y-73504761D01*
X104380952Y-73552380D01*
X104476190Y-73552380D01*
X103619047Y-73552380D02*
X103619047Y-72552380D01*
X103142857Y-73552380D02*
X103142857Y-72552380D01*
X102571428Y-73552380D01*
X102571428Y-72552380D01*
X101571428Y-73552380D02*
X102142857Y-73552380D01*
X101857142Y-73552380D02*
X101857142Y-72552380D01*
X101952380Y-72695238D01*
X102047619Y-72790476D01*
X102142857Y-72838095D01*
X105761904Y-130002380D02*
X105761904Y-130716666D01*
X105809523Y-130859523D01*
X105904761Y-130954761D01*
X106047619Y-131002380D01*
X106142857Y-131002380D01*
X105095238Y-130002380D02*
X104904761Y-130002380D01*
X104809523Y-130050000D01*
X104714285Y-130145238D01*
X104666666Y-130335714D01*
X104666666Y-130669047D01*
X104714285Y-130859523D01*
X104809523Y-130954761D01*
X104904761Y-131002380D01*
X105095238Y-131002380D01*
X105190476Y-130954761D01*
X105285714Y-130859523D01*
X105333333Y-130669047D01*
X105333333Y-130335714D01*
X105285714Y-130145238D01*
X105190476Y-130050000D01*
X105095238Y-130002380D01*
X104238095Y-130002380D02*
X104238095Y-130811904D01*
X104190476Y-130907142D01*
X104142857Y-130954761D01*
X104047619Y-131002380D01*
X103857142Y-131002380D01*
X103761904Y-130954761D01*
X103714285Y-130907142D01*
X103666666Y-130811904D01*
X103666666Y-130002380D01*
X103333333Y-130002380D02*
X102761904Y-130002380D01*
X103047619Y-131002380D02*
X103047619Y-130002380D01*
X101904761Y-131002380D02*
X102476190Y-131002380D01*
X102190476Y-131002380D02*
X102190476Y-130002380D01*
X102285714Y-130145238D01*
X102380952Y-130240476D01*
X102476190Y-130288095D01*
D11*
X98940000Y-74190000D02*
X107060000Y-74190000D01*
X106450000Y-78300000D02*
X99550000Y-78300000D01*
X104100000Y-78300000D02*
X104100000Y-77800000D01*
X98940000Y-75500000D02*
X99550000Y-75500000D01*
X99550000Y-78300000D02*
X99550000Y-74800000D01*
X107060000Y-74190000D02*
X107060000Y-78910000D01*
X107060000Y-78910000D02*
X98940000Y-78910000D01*
X103900000Y-77800000D02*
X103900000Y-78300000D01*
X102100000Y-77800000D02*
X101900000Y-77800000D01*
X104100000Y-77800000D02*
X103900000Y-77800000D01*
X106110000Y-73890000D02*
X107360000Y-73890000D01*
X102000000Y-78300000D02*
X102000000Y-77800000D01*
X99550000Y-74800000D02*
X101500000Y-74800000D01*
X104500000Y-74800000D02*
X106450000Y-74800000D01*
X105600000Y-73990000D02*
X105600000Y-74190000D01*
X104500000Y-74190000D02*
X104500000Y-74800000D01*
X98940000Y-78910000D02*
X98940000Y-74190000D01*
X104000000Y-78300000D02*
X104000000Y-77800000D01*
X105300000Y-73990000D02*
X105600000Y-73990000D01*
X98940000Y-76800000D02*
X99550000Y-76800000D01*
X102100000Y-78300000D02*
X102100000Y-77800000D01*
X105300000Y-74190000D02*
X105300000Y-73990000D01*
X107060000Y-76800000D02*
X106450000Y-76800000D01*
X101500000Y-74800000D02*
X101500000Y-74190000D01*
X107060000Y-75500000D02*
X106450000Y-75500000D01*
X107360000Y-73890000D02*
X107360000Y-75140000D01*
X106450000Y-74800000D02*
X106450000Y-78300000D01*
X105300000Y-74090000D02*
X105600000Y-74090000D01*
X101900000Y-77800000D02*
X101900000Y-78300000D01*
X99940000Y-131640000D02*
X108060000Y-131640000D01*
X105000000Y-135750000D02*
X105000000Y-135250000D01*
X105500000Y-131640000D02*
X105500000Y-132250000D01*
X106300000Y-131540000D02*
X106600000Y-131540000D01*
X105100000Y-135750000D02*
X105100000Y-135250000D01*
X100550000Y-132250000D02*
X102500000Y-132250000D01*
X107450000Y-132250000D02*
X107450000Y-135750000D01*
X107110000Y-131340000D02*
X108360000Y-131340000D01*
X106300000Y-131440000D02*
X106600000Y-131440000D01*
X103000000Y-135750000D02*
X103000000Y-135250000D01*
X108060000Y-134250000D02*
X107450000Y-134250000D01*
X103100000Y-135750000D02*
X103100000Y-135250000D01*
X102500000Y-132250000D02*
X102500000Y-131640000D01*
X105500000Y-132250000D02*
X107450000Y-132250000D01*
X108060000Y-131640000D02*
X108060000Y-136360000D01*
X106600000Y-131440000D02*
X106600000Y-131640000D01*
X104900000Y-135250000D02*
X104900000Y-135750000D01*
X99940000Y-134250000D02*
X100550000Y-134250000D01*
X107450000Y-135750000D02*
X100550000Y-135750000D01*
X100550000Y-135750000D02*
X100550000Y-132250000D01*
X105100000Y-135250000D02*
X104900000Y-135250000D01*
X99940000Y-136360000D02*
X99940000Y-131640000D01*
X99940000Y-132950000D02*
X100550000Y-132950000D01*
X108360000Y-131340000D02*
X108360000Y-132590000D01*
X103100000Y-135250000D02*
X102900000Y-135250000D01*
X108060000Y-132950000D02*
X107450000Y-132950000D01*
X102900000Y-135250000D02*
X102900000Y-135750000D01*
X108060000Y-136360000D02*
X99940000Y-136360000D01*
X106300000Y-131640000D02*
X106300000Y-131440000D01*
%LPC*%
D12*
X103000000Y-59000000D03*
X103000000Y-153000000D03*
D13*
X105000000Y-76000000D03*
D14*
X103000000Y-76000000D03*
X101000000Y-76000000D03*
D13*
X106000000Y-133450000D03*
D14*
X104000000Y-133450000D03*
X102000000Y-133450000D03*
M02*
