G04 #@! TF.GenerationSoftware,KiCad,Pcbnew,6.0.2+dfsg-1*
G04 #@! TF.CreationDate,2022-11-08T00:19:22-08:00*
G04 #@! TF.ProjectId,digit,64696769-742e-46b6-9963-61645f706362,rev?*
G04 #@! TF.SameCoordinates,Original*
G04 #@! TF.FileFunction,Legend,Top*
G04 #@! TF.FilePolarity,Positive*
%FSLAX46Y46*%
G04 Gerber Fmt 4.6, Leading zero omitted, Abs format (unit mm)*
G04 Created by KiCad (PCBNEW 6.0.2+dfsg-1) date 2022-11-08 00:19:22*
%MOMM*%
%LPD*%
G01*
G04 APERTURE LIST*
G04 Aperture macros list*
%AMRoundRect*
0 Rectangle with rounded corners*
0 $1 Rounding radius*
0 $2 $3 $4 $5 $6 $7 $8 $9 X,Y pos of 4 corners*
0 Add a 4 corners polygon primitive as box body*
4,1,4,$2,$3,$4,$5,$6,$7,$8,$9,$2,$3,0*
0 Add four circle primitives for the rounded corners*
1,1,$1+$1,$2,$3*
1,1,$1+$1,$4,$5*
1,1,$1+$1,$6,$7*
1,1,$1+$1,$8,$9*
0 Add four rect primitives between the rounded corners*
20,1,$1+$1,$2,$3,$4,$5,0*
20,1,$1+$1,$4,$5,$6,$7,0*
20,1,$1+$1,$6,$7,$8,$9,0*
20,1,$1+$1,$8,$9,$2,$3,0*%
G04 Aperture macros list end*
%ADD10C,0.150000*%
%ADD11C,0.120000*%
%ADD12R,1.000000X1.500000*%
%ADD13C,3.200000*%
%ADD14R,1.500000X1.000000*%
%ADD15RoundRect,0.250000X0.350000X0.625000X-0.350000X0.625000X-0.350000X-0.625000X0.350000X-0.625000X0*%
%ADD16O,1.200000X1.750000*%
G04 APERTURE END LIST*
D10*
X78952380Y-135214285D02*
X77952380Y-135214285D01*
X77952380Y-134976190D01*
X78000000Y-134833333D01*
X78095238Y-134738095D01*
X78190476Y-134690476D01*
X78380952Y-134642857D01*
X78523809Y-134642857D01*
X78714285Y-134690476D01*
X78809523Y-134738095D01*
X78904761Y-134833333D01*
X78952380Y-134976190D01*
X78952380Y-135214285D01*
X78952380Y-133690476D02*
X78952380Y-134261904D01*
X78952380Y-133976190D02*
X77952380Y-133976190D01*
X78095238Y-134071428D01*
X78190476Y-134166666D01*
X78238095Y-134261904D01*
X78285714Y-132833333D02*
X78952380Y-132833333D01*
X77904761Y-133071428D02*
X78619047Y-133309523D01*
X78619047Y-132690476D01*
X77052380Y-129564285D02*
X77052380Y-130135714D01*
X77052380Y-129850000D02*
X76052380Y-129850000D01*
X76195238Y-129945238D01*
X76290476Y-130040476D01*
X76338095Y-130135714D01*
X127952380Y-120738095D02*
X126952380Y-120738095D01*
X126952380Y-120500000D01*
X127000000Y-120357142D01*
X127095238Y-120261904D01*
X127190476Y-120214285D01*
X127380952Y-120166666D01*
X127523809Y-120166666D01*
X127714285Y-120214285D01*
X127809523Y-120261904D01*
X127904761Y-120357142D01*
X127952380Y-120500000D01*
X127952380Y-120738095D01*
X126952380Y-119833333D02*
X126952380Y-119166666D01*
X127952380Y-119595238D01*
X129852380Y-123864285D02*
X129852380Y-124435714D01*
X129852380Y-124150000D02*
X128852380Y-124150000D01*
X128995238Y-124245238D01*
X129090476Y-124340476D01*
X129138095Y-124435714D01*
X78952380Y-79214285D02*
X77952380Y-79214285D01*
X77952380Y-78976190D01*
X78000000Y-78833333D01*
X78095238Y-78738095D01*
X78190476Y-78690476D01*
X78380952Y-78642857D01*
X78523809Y-78642857D01*
X78714285Y-78690476D01*
X78809523Y-78738095D01*
X78904761Y-78833333D01*
X78952380Y-78976190D01*
X78952380Y-79214285D01*
X78952380Y-77690476D02*
X78952380Y-78261904D01*
X78952380Y-77976190D02*
X77952380Y-77976190D01*
X78095238Y-78071428D01*
X78190476Y-78166666D01*
X78238095Y-78261904D01*
X77952380Y-77357142D02*
X77952380Y-76690476D01*
X78952380Y-77119047D01*
X77052380Y-73564285D02*
X77052380Y-74135714D01*
X77052380Y-73850000D02*
X76052380Y-73850000D01*
X76195238Y-73945238D01*
X76290476Y-74040476D01*
X76338095Y-74135714D01*
X127952380Y-64738095D02*
X126952380Y-64738095D01*
X126952380Y-64500000D01*
X127000000Y-64357142D01*
X127095238Y-64261904D01*
X127190476Y-64214285D01*
X127380952Y-64166666D01*
X127523809Y-64166666D01*
X127714285Y-64214285D01*
X127809523Y-64261904D01*
X127904761Y-64357142D01*
X127952380Y-64500000D01*
X127952380Y-64738095D01*
X127285714Y-63309523D02*
X127952380Y-63309523D01*
X126904761Y-63547619D02*
X127619047Y-63785714D01*
X127619047Y-63166666D01*
X129852380Y-67864285D02*
X129852380Y-68435714D01*
X129852380Y-68150000D02*
X128852380Y-68150000D01*
X128995238Y-68245238D01*
X129090476Y-68340476D01*
X129138095Y-68435714D01*
X78952380Y-64214285D02*
X77952380Y-64214285D01*
X77952380Y-63976190D01*
X78000000Y-63833333D01*
X78095238Y-63738095D01*
X78190476Y-63690476D01*
X78380952Y-63642857D01*
X78523809Y-63642857D01*
X78714285Y-63690476D01*
X78809523Y-63738095D01*
X78904761Y-63833333D01*
X78952380Y-63976190D01*
X78952380Y-64214285D01*
X78952380Y-62690476D02*
X78952380Y-63261904D01*
X78952380Y-62976190D02*
X77952380Y-62976190D01*
X78095238Y-63071428D01*
X78190476Y-63166666D01*
X78238095Y-63261904D01*
X78380952Y-62119047D02*
X78333333Y-62214285D01*
X78285714Y-62261904D01*
X78190476Y-62309523D01*
X78142857Y-62309523D01*
X78047619Y-62261904D01*
X78000000Y-62214285D01*
X77952380Y-62119047D01*
X77952380Y-61928571D01*
X78000000Y-61833333D01*
X78047619Y-61785714D01*
X78142857Y-61738095D01*
X78190476Y-61738095D01*
X78285714Y-61785714D01*
X78333333Y-61833333D01*
X78380952Y-61928571D01*
X78380952Y-62119047D01*
X78428571Y-62214285D01*
X78476190Y-62261904D01*
X78571428Y-62309523D01*
X78761904Y-62309523D01*
X78857142Y-62261904D01*
X78904761Y-62214285D01*
X78952380Y-62119047D01*
X78952380Y-61928571D01*
X78904761Y-61833333D01*
X78857142Y-61785714D01*
X78761904Y-61738095D01*
X78571428Y-61738095D01*
X78476190Y-61785714D01*
X78428571Y-61833333D01*
X78380952Y-61928571D01*
X77052380Y-58564285D02*
X77052380Y-59135714D01*
X77052380Y-58850000D02*
X76052380Y-58850000D01*
X76195238Y-58945238D01*
X76290476Y-59040476D01*
X76338095Y-59135714D01*
X78952380Y-149214285D02*
X77952380Y-149214285D01*
X77952380Y-148976190D01*
X78000000Y-148833333D01*
X78095238Y-148738095D01*
X78190476Y-148690476D01*
X78380952Y-148642857D01*
X78523809Y-148642857D01*
X78714285Y-148690476D01*
X78809523Y-148738095D01*
X78904761Y-148833333D01*
X78952380Y-148976190D01*
X78952380Y-149214285D01*
X78952380Y-147690476D02*
X78952380Y-148261904D01*
X78952380Y-147976190D02*
X77952380Y-147976190D01*
X78095238Y-148071428D01*
X78190476Y-148166666D01*
X78238095Y-148261904D01*
X77952380Y-147357142D02*
X77952380Y-146738095D01*
X78333333Y-147071428D01*
X78333333Y-146928571D01*
X78380952Y-146833333D01*
X78428571Y-146785714D01*
X78523809Y-146738095D01*
X78761904Y-146738095D01*
X78857142Y-146785714D01*
X78904761Y-146833333D01*
X78952380Y-146928571D01*
X78952380Y-147214285D01*
X78904761Y-147309523D01*
X78857142Y-147357142D01*
X77052380Y-143564285D02*
X77052380Y-144135714D01*
X77052380Y-143850000D02*
X76052380Y-143850000D01*
X76195238Y-143945238D01*
X76290476Y-144040476D01*
X76338095Y-144135714D01*
X88261904Y-53952380D02*
X88261904Y-52952380D01*
X88500000Y-52952380D01*
X88642857Y-53000000D01*
X88738095Y-53095238D01*
X88785714Y-53190476D01*
X88833333Y-53380952D01*
X88833333Y-53523809D01*
X88785714Y-53714285D01*
X88738095Y-53809523D01*
X88642857Y-53904761D01*
X88500000Y-53952380D01*
X88261904Y-53952380D01*
X89785714Y-53952380D02*
X89214285Y-53952380D01*
X89500000Y-53952380D02*
X89500000Y-52952380D01*
X89404761Y-53095238D01*
X89309523Y-53190476D01*
X89214285Y-53238095D01*
X93435714Y-52052380D02*
X92864285Y-52052380D01*
X93150000Y-52052380D02*
X93150000Y-51052380D01*
X93054761Y-51195238D01*
X92959523Y-51290476D01*
X92864285Y-51338095D01*
X116261904Y-53952380D02*
X116261904Y-52952380D01*
X116500000Y-52952380D01*
X116642857Y-53000000D01*
X116738095Y-53095238D01*
X116785714Y-53190476D01*
X116833333Y-53380952D01*
X116833333Y-53523809D01*
X116785714Y-53714285D01*
X116738095Y-53809523D01*
X116642857Y-53904761D01*
X116500000Y-53952380D01*
X116261904Y-53952380D01*
X117166666Y-52952380D02*
X117785714Y-52952380D01*
X117452380Y-53333333D01*
X117595238Y-53333333D01*
X117690476Y-53380952D01*
X117738095Y-53428571D01*
X117785714Y-53523809D01*
X117785714Y-53761904D01*
X117738095Y-53857142D01*
X117690476Y-53904761D01*
X117595238Y-53952380D01*
X117309523Y-53952380D01*
X117214285Y-53904761D01*
X117166666Y-53857142D01*
X121435714Y-52052380D02*
X120864285Y-52052380D01*
X121150000Y-52052380D02*
X121150000Y-51052380D01*
X121054761Y-51195238D01*
X120959523Y-51290476D01*
X120864285Y-51338095D01*
X127952380Y-77738095D02*
X126952380Y-77738095D01*
X126952380Y-77500000D01*
X127000000Y-77357142D01*
X127095238Y-77261904D01*
X127190476Y-77214285D01*
X127380952Y-77166666D01*
X127523809Y-77166666D01*
X127714285Y-77214285D01*
X127809523Y-77261904D01*
X127904761Y-77357142D01*
X127952380Y-77500000D01*
X127952380Y-77738095D01*
X126952380Y-76261904D02*
X126952380Y-76738095D01*
X127428571Y-76785714D01*
X127380952Y-76738095D01*
X127333333Y-76642857D01*
X127333333Y-76404761D01*
X127380952Y-76309523D01*
X127428571Y-76261904D01*
X127523809Y-76214285D01*
X127761904Y-76214285D01*
X127857142Y-76261904D01*
X127904761Y-76309523D01*
X127952380Y-76404761D01*
X127952380Y-76642857D01*
X127904761Y-76738095D01*
X127857142Y-76785714D01*
X129852380Y-80864285D02*
X129852380Y-81435714D01*
X129852380Y-81150000D02*
X128852380Y-81150000D01*
X128995238Y-81245238D01*
X129090476Y-81340476D01*
X129138095Y-81435714D01*
X103261904Y-53952380D02*
X103261904Y-52952380D01*
X103500000Y-52952380D01*
X103642857Y-53000000D01*
X103738095Y-53095238D01*
X103785714Y-53190476D01*
X103833333Y-53380952D01*
X103833333Y-53523809D01*
X103785714Y-53714285D01*
X103738095Y-53809523D01*
X103642857Y-53904761D01*
X103500000Y-53952380D01*
X103261904Y-53952380D01*
X104214285Y-53047619D02*
X104261904Y-53000000D01*
X104357142Y-52952380D01*
X104595238Y-52952380D01*
X104690476Y-53000000D01*
X104738095Y-53047619D01*
X104785714Y-53142857D01*
X104785714Y-53238095D01*
X104738095Y-53380952D01*
X104166666Y-53952380D01*
X104785714Y-53952380D01*
X108435714Y-52052380D02*
X107864285Y-52052380D01*
X108150000Y-52052380D02*
X108150000Y-51052380D01*
X108054761Y-51195238D01*
X107959523Y-51290476D01*
X107864285Y-51338095D01*
X114785714Y-109952380D02*
X114785714Y-108952380D01*
X115023809Y-108952380D01*
X115166666Y-109000000D01*
X115261904Y-109095238D01*
X115309523Y-109190476D01*
X115357142Y-109380952D01*
X115357142Y-109523809D01*
X115309523Y-109714285D01*
X115261904Y-109809523D01*
X115166666Y-109904761D01*
X115023809Y-109952380D01*
X114785714Y-109952380D01*
X115738095Y-109047619D02*
X115785714Y-109000000D01*
X115880952Y-108952380D01*
X116119047Y-108952380D01*
X116214285Y-109000000D01*
X116261904Y-109047619D01*
X116309523Y-109142857D01*
X116309523Y-109238095D01*
X116261904Y-109380952D01*
X115690476Y-109952380D01*
X116309523Y-109952380D01*
X117261904Y-109952380D02*
X116690476Y-109952380D01*
X116976190Y-109952380D02*
X116976190Y-108952380D01*
X116880952Y-109095238D01*
X116785714Y-109190476D01*
X116690476Y-109238095D01*
X120435714Y-108052380D02*
X119864285Y-108052380D01*
X120150000Y-108052380D02*
X120150000Y-107052380D01*
X120054761Y-107195238D01*
X119959523Y-107290476D01*
X119864285Y-107338095D01*
X127952380Y-91738095D02*
X126952380Y-91738095D01*
X126952380Y-91500000D01*
X127000000Y-91357142D01*
X127095238Y-91261904D01*
X127190476Y-91214285D01*
X127380952Y-91166666D01*
X127523809Y-91166666D01*
X127714285Y-91214285D01*
X127809523Y-91261904D01*
X127904761Y-91357142D01*
X127952380Y-91500000D01*
X127952380Y-91738095D01*
X126952380Y-90309523D02*
X126952380Y-90500000D01*
X127000000Y-90595238D01*
X127047619Y-90642857D01*
X127190476Y-90738095D01*
X127380952Y-90785714D01*
X127761904Y-90785714D01*
X127857142Y-90738095D01*
X127904761Y-90690476D01*
X127952380Y-90595238D01*
X127952380Y-90404761D01*
X127904761Y-90309523D01*
X127857142Y-90261904D01*
X127761904Y-90214285D01*
X127523809Y-90214285D01*
X127428571Y-90261904D01*
X127380952Y-90309523D01*
X127333333Y-90404761D01*
X127333333Y-90595238D01*
X127380952Y-90690476D01*
X127428571Y-90738095D01*
X127523809Y-90785714D01*
X129852380Y-94864285D02*
X129852380Y-95435714D01*
X129852380Y-95150000D02*
X128852380Y-95150000D01*
X128995238Y-95245238D01*
X129090476Y-95340476D01*
X129138095Y-95435714D01*
X102785714Y-158952380D02*
X102785714Y-157952380D01*
X103023809Y-157952380D01*
X103166666Y-158000000D01*
X103261904Y-158095238D01*
X103309523Y-158190476D01*
X103357142Y-158380952D01*
X103357142Y-158523809D01*
X103309523Y-158714285D01*
X103261904Y-158809523D01*
X103166666Y-158904761D01*
X103023809Y-158952380D01*
X102785714Y-158952380D01*
X104309523Y-158952380D02*
X103738095Y-158952380D01*
X104023809Y-158952380D02*
X104023809Y-157952380D01*
X103928571Y-158095238D01*
X103833333Y-158190476D01*
X103738095Y-158238095D01*
X105261904Y-158952380D02*
X104690476Y-158952380D01*
X104976190Y-158952380D02*
X104976190Y-157952380D01*
X104880952Y-158095238D01*
X104785714Y-158190476D01*
X104690476Y-158238095D01*
X100135714Y-160852380D02*
X99564285Y-160852380D01*
X99850000Y-160852380D02*
X99850000Y-159852380D01*
X99754761Y-159995238D01*
X99659523Y-160090476D01*
X99564285Y-160138095D01*
X78952380Y-120214285D02*
X77952380Y-120214285D01*
X77952380Y-119976190D01*
X78000000Y-119833333D01*
X78095238Y-119738095D01*
X78190476Y-119690476D01*
X78380952Y-119642857D01*
X78523809Y-119642857D01*
X78714285Y-119690476D01*
X78809523Y-119738095D01*
X78904761Y-119833333D01*
X78952380Y-119976190D01*
X78952380Y-120214285D01*
X78952380Y-118690476D02*
X78952380Y-119261904D01*
X78952380Y-118976190D02*
X77952380Y-118976190D01*
X78095238Y-119071428D01*
X78190476Y-119166666D01*
X78238095Y-119261904D01*
X77952380Y-117785714D02*
X77952380Y-118261904D01*
X78428571Y-118309523D01*
X78380952Y-118261904D01*
X78333333Y-118166666D01*
X78333333Y-117928571D01*
X78380952Y-117833333D01*
X78428571Y-117785714D01*
X78523809Y-117738095D01*
X78761904Y-117738095D01*
X78857142Y-117785714D01*
X78904761Y-117833333D01*
X78952380Y-117928571D01*
X78952380Y-118166666D01*
X78904761Y-118261904D01*
X78857142Y-118309523D01*
X77052380Y-114564285D02*
X77052380Y-115135714D01*
X77052380Y-114850000D02*
X76052380Y-114850000D01*
X76195238Y-114945238D01*
X76290476Y-115040476D01*
X76338095Y-115135714D01*
X89785714Y-109952380D02*
X89785714Y-108952380D01*
X90023809Y-108952380D01*
X90166666Y-109000000D01*
X90261904Y-109095238D01*
X90309523Y-109190476D01*
X90357142Y-109380952D01*
X90357142Y-109523809D01*
X90309523Y-109714285D01*
X90261904Y-109809523D01*
X90166666Y-109904761D01*
X90023809Y-109952380D01*
X89785714Y-109952380D01*
X91309523Y-109952380D02*
X90738095Y-109952380D01*
X91023809Y-109952380D02*
X91023809Y-108952380D01*
X90928571Y-109095238D01*
X90833333Y-109190476D01*
X90738095Y-109238095D01*
X91785714Y-109952380D02*
X91976190Y-109952380D01*
X92071428Y-109904761D01*
X92119047Y-109857142D01*
X92214285Y-109714285D01*
X92261904Y-109523809D01*
X92261904Y-109142857D01*
X92214285Y-109047619D01*
X92166666Y-109000000D01*
X92071428Y-108952380D01*
X91880952Y-108952380D01*
X91785714Y-109000000D01*
X91738095Y-109047619D01*
X91690476Y-109142857D01*
X91690476Y-109380952D01*
X91738095Y-109476190D01*
X91785714Y-109523809D01*
X91880952Y-109571428D01*
X92071428Y-109571428D01*
X92166666Y-109523809D01*
X92214285Y-109476190D01*
X92261904Y-109380952D01*
X95435714Y-108052380D02*
X94864285Y-108052380D01*
X95150000Y-108052380D02*
X95150000Y-107052380D01*
X95054761Y-107195238D01*
X94959523Y-107290476D01*
X94864285Y-107338095D01*
X127952380Y-134738095D02*
X126952380Y-134738095D01*
X126952380Y-134500000D01*
X127000000Y-134357142D01*
X127095238Y-134261904D01*
X127190476Y-134214285D01*
X127380952Y-134166666D01*
X127523809Y-134166666D01*
X127714285Y-134214285D01*
X127809523Y-134261904D01*
X127904761Y-134357142D01*
X127952380Y-134500000D01*
X127952380Y-134738095D01*
X127380952Y-133595238D02*
X127333333Y-133690476D01*
X127285714Y-133738095D01*
X127190476Y-133785714D01*
X127142857Y-133785714D01*
X127047619Y-133738095D01*
X127000000Y-133690476D01*
X126952380Y-133595238D01*
X126952380Y-133404761D01*
X127000000Y-133309523D01*
X127047619Y-133261904D01*
X127142857Y-133214285D01*
X127190476Y-133214285D01*
X127285714Y-133261904D01*
X127333333Y-133309523D01*
X127380952Y-133404761D01*
X127380952Y-133595238D01*
X127428571Y-133690476D01*
X127476190Y-133738095D01*
X127571428Y-133785714D01*
X127761904Y-133785714D01*
X127857142Y-133738095D01*
X127904761Y-133690476D01*
X127952380Y-133595238D01*
X127952380Y-133404761D01*
X127904761Y-133309523D01*
X127857142Y-133261904D01*
X127761904Y-133214285D01*
X127571428Y-133214285D01*
X127476190Y-133261904D01*
X127428571Y-133309523D01*
X127380952Y-133404761D01*
X129852380Y-137864285D02*
X129852380Y-138435714D01*
X129852380Y-138150000D02*
X128852380Y-138150000D01*
X128995238Y-138245238D01*
X129090476Y-138340476D01*
X129138095Y-138435714D01*
X116785714Y-158952380D02*
X116785714Y-157952380D01*
X117023809Y-157952380D01*
X117166666Y-158000000D01*
X117261904Y-158095238D01*
X117309523Y-158190476D01*
X117357142Y-158380952D01*
X117357142Y-158523809D01*
X117309523Y-158714285D01*
X117261904Y-158809523D01*
X117166666Y-158904761D01*
X117023809Y-158952380D01*
X116785714Y-158952380D01*
X118309523Y-158952380D02*
X117738095Y-158952380D01*
X118023809Y-158952380D02*
X118023809Y-157952380D01*
X117928571Y-158095238D01*
X117833333Y-158190476D01*
X117738095Y-158238095D01*
X118928571Y-157952380D02*
X119023809Y-157952380D01*
X119119047Y-158000000D01*
X119166666Y-158047619D01*
X119214285Y-158142857D01*
X119261904Y-158333333D01*
X119261904Y-158571428D01*
X119214285Y-158761904D01*
X119166666Y-158857142D01*
X119119047Y-158904761D01*
X119023809Y-158952380D01*
X118928571Y-158952380D01*
X118833333Y-158904761D01*
X118785714Y-158857142D01*
X118738095Y-158761904D01*
X118690476Y-158571428D01*
X118690476Y-158333333D01*
X118738095Y-158142857D01*
X118785714Y-158047619D01*
X118833333Y-158000000D01*
X118928571Y-157952380D01*
X114135714Y-160852380D02*
X113564285Y-160852380D01*
X113850000Y-160852380D02*
X113850000Y-159852380D01*
X113754761Y-159995238D01*
X113659523Y-160090476D01*
X113564285Y-160138095D01*
X127952380Y-148738095D02*
X126952380Y-148738095D01*
X126952380Y-148500000D01*
X127000000Y-148357142D01*
X127095238Y-148261904D01*
X127190476Y-148214285D01*
X127380952Y-148166666D01*
X127523809Y-148166666D01*
X127714285Y-148214285D01*
X127809523Y-148261904D01*
X127904761Y-148357142D01*
X127952380Y-148500000D01*
X127952380Y-148738095D01*
X127952380Y-147690476D02*
X127952380Y-147500000D01*
X127904761Y-147404761D01*
X127857142Y-147357142D01*
X127714285Y-147261904D01*
X127523809Y-147214285D01*
X127142857Y-147214285D01*
X127047619Y-147261904D01*
X127000000Y-147309523D01*
X126952380Y-147404761D01*
X126952380Y-147595238D01*
X127000000Y-147690476D01*
X127047619Y-147738095D01*
X127142857Y-147785714D01*
X127380952Y-147785714D01*
X127476190Y-147738095D01*
X127523809Y-147690476D01*
X127571428Y-147595238D01*
X127571428Y-147404761D01*
X127523809Y-147309523D01*
X127476190Y-147261904D01*
X127380952Y-147214285D01*
X129852380Y-151864285D02*
X129852380Y-152435714D01*
X129852380Y-152150000D02*
X128852380Y-152150000D01*
X128995238Y-152245238D01*
X129090476Y-152340476D01*
X129138095Y-152435714D01*
X87785714Y-158952380D02*
X87785714Y-157952380D01*
X88023809Y-157952380D01*
X88166666Y-158000000D01*
X88261904Y-158095238D01*
X88309523Y-158190476D01*
X88357142Y-158380952D01*
X88357142Y-158523809D01*
X88309523Y-158714285D01*
X88261904Y-158809523D01*
X88166666Y-158904761D01*
X88023809Y-158952380D01*
X87785714Y-158952380D01*
X89309523Y-158952380D02*
X88738095Y-158952380D01*
X89023809Y-158952380D02*
X89023809Y-157952380D01*
X88928571Y-158095238D01*
X88833333Y-158190476D01*
X88738095Y-158238095D01*
X89690476Y-158047619D02*
X89738095Y-158000000D01*
X89833333Y-157952380D01*
X90071428Y-157952380D01*
X90166666Y-158000000D01*
X90214285Y-158047619D01*
X90261904Y-158142857D01*
X90261904Y-158238095D01*
X90214285Y-158380952D01*
X89642857Y-158952380D01*
X90261904Y-158952380D01*
X85135714Y-160852380D02*
X84564285Y-160852380D01*
X84850000Y-160852380D02*
X84850000Y-159852380D01*
X84754761Y-159995238D01*
X84659523Y-160090476D01*
X84564285Y-160138095D01*
X78952380Y-93214285D02*
X77952380Y-93214285D01*
X77952380Y-92976190D01*
X78000000Y-92833333D01*
X78095238Y-92738095D01*
X78190476Y-92690476D01*
X78380952Y-92642857D01*
X78523809Y-92642857D01*
X78714285Y-92690476D01*
X78809523Y-92738095D01*
X78904761Y-92833333D01*
X78952380Y-92976190D01*
X78952380Y-93214285D01*
X78952380Y-91690476D02*
X78952380Y-92261904D01*
X78952380Y-91976190D02*
X77952380Y-91976190D01*
X78095238Y-92071428D01*
X78190476Y-92166666D01*
X78238095Y-92261904D01*
X77952380Y-90833333D02*
X77952380Y-91023809D01*
X78000000Y-91119047D01*
X78047619Y-91166666D01*
X78190476Y-91261904D01*
X78380952Y-91309523D01*
X78761904Y-91309523D01*
X78857142Y-91261904D01*
X78904761Y-91214285D01*
X78952380Y-91119047D01*
X78952380Y-90928571D01*
X78904761Y-90833333D01*
X78857142Y-90785714D01*
X78761904Y-90738095D01*
X78523809Y-90738095D01*
X78428571Y-90785714D01*
X78380952Y-90833333D01*
X78333333Y-90928571D01*
X78333333Y-91119047D01*
X78380952Y-91214285D01*
X78428571Y-91261904D01*
X78523809Y-91309523D01*
X77052380Y-87564285D02*
X77052380Y-88135714D01*
X77052380Y-87850000D02*
X76052380Y-87850000D01*
X76195238Y-87945238D01*
X76290476Y-88040476D01*
X76338095Y-88135714D01*
X102785714Y-109952380D02*
X102785714Y-108952380D01*
X103023809Y-108952380D01*
X103166666Y-109000000D01*
X103261904Y-109095238D01*
X103309523Y-109190476D01*
X103357142Y-109380952D01*
X103357142Y-109523809D01*
X103309523Y-109714285D01*
X103261904Y-109809523D01*
X103166666Y-109904761D01*
X103023809Y-109952380D01*
X102785714Y-109952380D01*
X103738095Y-109047619D02*
X103785714Y-109000000D01*
X103880952Y-108952380D01*
X104119047Y-108952380D01*
X104214285Y-109000000D01*
X104261904Y-109047619D01*
X104309523Y-109142857D01*
X104309523Y-109238095D01*
X104261904Y-109380952D01*
X103690476Y-109952380D01*
X104309523Y-109952380D01*
X104928571Y-108952380D02*
X105023809Y-108952380D01*
X105119047Y-109000000D01*
X105166666Y-109047619D01*
X105214285Y-109142857D01*
X105261904Y-109333333D01*
X105261904Y-109571428D01*
X105214285Y-109761904D01*
X105166666Y-109857142D01*
X105119047Y-109904761D01*
X105023809Y-109952380D01*
X104928571Y-109952380D01*
X104833333Y-109904761D01*
X104785714Y-109857142D01*
X104738095Y-109761904D01*
X104690476Y-109571428D01*
X104690476Y-109333333D01*
X104738095Y-109142857D01*
X104785714Y-109047619D01*
X104833333Y-109000000D01*
X104928571Y-108952380D01*
X108435714Y-108052380D02*
X107864285Y-108052380D01*
X108150000Y-108052380D02*
X108150000Y-107052380D01*
X108054761Y-107195238D01*
X107959523Y-107290476D01*
X107864285Y-107338095D01*
D11*
X77750000Y-130350000D02*
X77750000Y-137650000D01*
X72250000Y-130350000D02*
X72250000Y-137650000D01*
X72250000Y-137650000D02*
X73400000Y-137650000D01*
X128250000Y-123650000D02*
X128250000Y-116350000D01*
X133750000Y-116350000D02*
X132600000Y-116350000D01*
X133750000Y-123650000D02*
X133750000Y-116350000D01*
X72250000Y-81650000D02*
X73400000Y-81650000D01*
X72250000Y-74350000D02*
X72250000Y-81650000D01*
X77750000Y-74350000D02*
X77750000Y-81650000D01*
X128250000Y-67650000D02*
X128250000Y-60350000D01*
X133750000Y-60350000D02*
X132600000Y-60350000D01*
X133750000Y-67650000D02*
X133750000Y-60350000D01*
X72250000Y-66650000D02*
X73400000Y-66650000D01*
X77750000Y-59350000D02*
X77750000Y-66650000D01*
X72250000Y-59350000D02*
X72250000Y-66650000D01*
X72250000Y-144350000D02*
X72250000Y-151650000D01*
X72250000Y-151650000D02*
X73400000Y-151650000D01*
X77750000Y-144350000D02*
X77750000Y-151650000D01*
X92650000Y-52750000D02*
X85350000Y-52750000D01*
X85350000Y-47250000D02*
X85350000Y-48400000D01*
X92650000Y-47250000D02*
X85350000Y-47250000D01*
X120650000Y-52750000D02*
X113350000Y-52750000D01*
X120650000Y-47250000D02*
X113350000Y-47250000D01*
X113350000Y-47250000D02*
X113350000Y-48400000D01*
X128250000Y-80650000D02*
X128250000Y-73350000D01*
X133750000Y-73350000D02*
X132600000Y-73350000D01*
X133750000Y-80650000D02*
X133750000Y-73350000D01*
X107650000Y-47250000D02*
X100350000Y-47250000D01*
X107650000Y-52750000D02*
X100350000Y-52750000D01*
X100350000Y-47250000D02*
X100350000Y-48400000D01*
X119650000Y-103250000D02*
X112350000Y-103250000D01*
X119650000Y-108750000D02*
X112350000Y-108750000D01*
X112350000Y-103250000D02*
X112350000Y-104400000D01*
X133750000Y-87350000D02*
X132600000Y-87350000D01*
X128250000Y-94650000D02*
X128250000Y-87350000D01*
X133750000Y-94650000D02*
X133750000Y-87350000D01*
X100350000Y-164750000D02*
X107650000Y-164750000D01*
X100350000Y-159250000D02*
X107650000Y-159250000D01*
X107650000Y-164750000D02*
X107650000Y-163600000D01*
X72250000Y-115350000D02*
X72250000Y-122650000D01*
X72250000Y-122650000D02*
X73400000Y-122650000D01*
X77750000Y-115350000D02*
X77750000Y-122650000D01*
X87350000Y-103250000D02*
X87350000Y-104400000D01*
X94650000Y-108750000D02*
X87350000Y-108750000D01*
X94650000Y-103250000D02*
X87350000Y-103250000D01*
X133750000Y-130350000D02*
X132600000Y-130350000D01*
X133750000Y-137650000D02*
X133750000Y-130350000D01*
X128250000Y-137650000D02*
X128250000Y-130350000D01*
X121650000Y-164750000D02*
X121650000Y-163600000D01*
X114350000Y-164750000D02*
X121650000Y-164750000D01*
X114350000Y-159250000D02*
X121650000Y-159250000D01*
X128250000Y-151650000D02*
X128250000Y-144350000D01*
X133750000Y-144350000D02*
X132600000Y-144350000D01*
X133750000Y-151650000D02*
X133750000Y-144350000D01*
X85350000Y-159250000D02*
X92650000Y-159250000D01*
X85350000Y-164750000D02*
X92650000Y-164750000D01*
X92650000Y-164750000D02*
X92650000Y-163600000D01*
X72250000Y-88350000D02*
X72250000Y-95650000D01*
X72250000Y-95650000D02*
X73400000Y-95650000D01*
X77750000Y-88350000D02*
X77750000Y-95650000D01*
X100350000Y-103250000D02*
X100350000Y-104400000D01*
X107650000Y-108750000D02*
X100350000Y-108750000D01*
X107650000Y-103250000D02*
X100350000Y-103250000D01*
%LPC*%
D12*
X76600000Y-131550000D03*
X73400000Y-131550000D03*
X73400000Y-136450000D03*
X76600000Y-136450000D03*
X129400000Y-122450000D03*
X132600000Y-122450000D03*
X132600000Y-117550000D03*
X129400000Y-117550000D03*
X76600000Y-75550000D03*
X73400000Y-75550000D03*
X73400000Y-80450000D03*
X76600000Y-80450000D03*
X129400000Y-66450000D03*
X132600000Y-66450000D03*
X132600000Y-61550000D03*
X129400000Y-61550000D03*
X76600000Y-60550000D03*
X73400000Y-60550000D03*
X73400000Y-65450000D03*
X76600000Y-65450000D03*
D13*
X103000000Y-59000000D03*
D12*
X76600000Y-145550000D03*
X73400000Y-145550000D03*
X73400000Y-150450000D03*
X76600000Y-150450000D03*
D14*
X91450000Y-51600000D03*
X91450000Y-48400000D03*
X86550000Y-48400000D03*
X86550000Y-51600000D03*
X119450000Y-51600000D03*
X119450000Y-48400000D03*
X114550000Y-48400000D03*
X114550000Y-51600000D03*
D12*
X129400000Y-79450000D03*
X132600000Y-79450000D03*
X132600000Y-74550000D03*
X129400000Y-74550000D03*
D14*
X106450000Y-51600000D03*
X106450000Y-48400000D03*
X101550000Y-48400000D03*
X101550000Y-51600000D03*
X118450000Y-107600000D03*
X118450000Y-104400000D03*
X113550000Y-104400000D03*
X113550000Y-107600000D03*
D13*
X103000000Y-153000000D03*
D12*
X129400000Y-93450000D03*
X132600000Y-93450000D03*
X132600000Y-88550000D03*
X129400000Y-88550000D03*
D14*
X101550000Y-160400000D03*
X101550000Y-163600000D03*
X106450000Y-163600000D03*
X106450000Y-160400000D03*
D12*
X76600000Y-116550000D03*
X73400000Y-116550000D03*
X73400000Y-121450000D03*
X76600000Y-121450000D03*
D14*
X93450000Y-107600000D03*
X93450000Y-104400000D03*
X88550000Y-104400000D03*
X88550000Y-107600000D03*
D12*
X129400000Y-136450000D03*
X132600000Y-136450000D03*
X132600000Y-131550000D03*
X129400000Y-131550000D03*
D14*
X115550000Y-160400000D03*
X115550000Y-163600000D03*
X120450000Y-163600000D03*
X120450000Y-160400000D03*
D12*
X129400000Y-150450000D03*
X132600000Y-150450000D03*
X132600000Y-145550000D03*
X129400000Y-145550000D03*
D14*
X86550000Y-160400000D03*
X86550000Y-163600000D03*
X91450000Y-163600000D03*
X91450000Y-160400000D03*
D12*
X76600000Y-89550000D03*
X73400000Y-89550000D03*
X73400000Y-94450000D03*
X76600000Y-94450000D03*
D14*
X106450000Y-107600000D03*
X106450000Y-104400000D03*
X101550000Y-104400000D03*
X101550000Y-107600000D03*
D15*
X105000000Y-76000000D03*
D16*
X103000000Y-76000000D03*
X101000000Y-76000000D03*
D15*
X106000000Y-133450000D03*
D16*
X104000000Y-133450000D03*
X102000000Y-133450000D03*
M02*
