<?xml version="1.0" encoding="UTF-8" standalone="no"?>
<svg
   id="svg8"
   version="1.1"
   viewBox="0 0 210 297"
   height="297mm"
   width="210mm"
   sodipodi:docname="capy.svg"
   inkscape:version="1.1.2 (0a00cf5339, 2022-02-04)"
   xmlns:inkscape="http://www.inkscape.org/namespaces/inkscape"
   xmlns:sodipodi="http://sodipodi.sourceforge.net/DTD/sodipodi-0.dtd"
   xmlns="http://www.w3.org/2000/svg"
   xmlns:svg="http://www.w3.org/2000/svg"
   xmlns:rdf="http://www.w3.org/1999/02/22-rdf-syntax-ns#"
   xmlns:cc="http://creativecommons.org/ns#"
   xmlns:dc="http://purl.org/dc/elements/1.1/">
  <sodipodi:namedview
     id="namedview9"
     pagecolor="#ffffff"
     bordercolor="#666666"
     borderopacity="1.0"
     inkscape:pageshadow="2"
     inkscape:pageopacity="0.0"
     inkscape:pagecheckerboard="0"
     inkscape:document-units="mm"
     showgrid="false"
     inkscape:zoom="7.2466938"
     inkscape:cx="350.29768"
     inkscape:cy="489.87857"
     inkscape:window-width="2560"
     inkscape:window-height="1403"
     inkscape:window-x="2560"
     inkscape:window-y="0"
     inkscape:window-maximized="1"
     inkscape:current-layer="svg8" />
  <defs
     id="defs2" />
  <metadata
     id="metadata5">
    <rdf:RDF>
      <cc:Work
         rdf:about="">
        <dc:format>image/svg+xml</dc:format>
        <dc:type
           rdf:resource="http://purl.org/dc/dcmitype/StillImage" />
      </cc:Work>
    </rdf:RDF>
  </metadata>
  <g
     id="layer1"
     style="fill:none;stroke:#000000;stroke-opacity:1;stroke-width:0.3;stroke-miterlimit:4;stroke-dasharray:none">
    <g
       style="fill:none;fill-opacity:1;stroke:#000000;stroke-opacity:1;stroke-width:13.43853619;stroke-miterlimit:4;stroke-dasharray:none"
       id="g1241"
       transform="matrix(0.02232386,0,0,-0.02232386,61.373736,149.42764)">
      <path
         d="m 2805.21,43.7266 c 19.54,52.4179 45.36,21.1718 87.46,33.8984 6.34,12.4063 5.99,63.543 5.09,104.863 -24.54,59.203 -14.62,127.094 25.82,176.805 -59.59,-26.27 -69.27,-127.258 -45.68,-178.207 -100.72,-7.637 -198.19,-3.953 -285.25,28.883 -40.24,15.183 -73.27,34.523 -95.44,48.961 V 158.336 c 0,-134.4415 4.09,-114.4727 -163.48,-114.8399 v 1.3906 c 3.12,46.1367 73.66,24.4805 100.49,32.711 11.35,21.7109 -2.8,89.1953 -9.33,114.7153 -7.88,30.839 -18.92,59.921 -32.83,87.335 -143.77,283.497 -167.71,181.043 -388.42,268.008 -23.33,30.707 -62.18,138.985 -48.6,165.453 29.25,57.012 134.46,66.278 189.44,97.246 43.88,24.723 81.2,26.45 131.97,16.461 11.28,8.758 26.41,14.223 48.4,14.707 10.7,-31.351 10.47,-57.07 5.64,-77.343 l 19.44,-12.352 v -0.004 c 40.73,-24.109 55.43,-40.855 109.93,-47.601 171.55,-21.215 445.67,158.586 656.83,-5.149 44.32,-34.375 85.92,-86.136 104.08,-154.859 26.1,-98.797 16.87,-289.254 12.12,-417.965 -2.15,-58.3086 16,-82.2266 -34.3,-82.3984 l -106.42,-0.3594 c 6.9,46.4375 105.84,15.1875 73.2,56.5778 l -62.96,82.629 c 58.8,47.207 77.96,72.223 92.58,122.813 -11.57,-21.914 -25.93,-41.547 -43.13,-57.574 -24.19,-22.536 -42.62,-34.098 -78.93,-50.629 -44.52,-20.278 -76.98,-56.075 -92.82,-100.4223 -19.7,-55.1758 13.69,-53.4804 -56.55,-53.3554 z M 2215.6,119.109 C 2198.14,95.7539 2179.07,78.5 2148.36,62.9922 2121.25,49.2969 2058.3,77.6758 2060.23,5.05078 l 25.07,0.16406 V 5.10938 l 210.61,-0.01172 h 37.82 c 233.2,0.5039 208.32,-15.23046 233.29,52.66404 38.39,104.4533 103.9,104.7463 257.24,96.0003 v -38.196 c -30.11,1.481 -59.49,-9.546 -81.19,-30.4683 -21.68,-20.9024 -33.76,-49.8243 -33.4,-79.93364 l 60.65,-0.15625 c 165.11,-0.17187 199.84,-0.32812 364.95,0.22657 101.39,0 137.16,-10.34376 150.09,82.33592 47.18,338.0427 76.14,456.3357 159.34,786.3207 266.95,1058.849 -909.26,1187.239 -1821.12,985.179 -264.26,-58.56 -353.92,-63.35 -577.3,63.17 l -32.21,17.4 c 13.68,54.45 14.98,124.03 -14.132,209.25 -58.446,-1.28 -98.637,-15.83 -128.633,-39.09 -134.973,26.55 -234.157,21.95 -350.778,-43.74 C 374.383,1983.72 94.75,1959.1 17.0117,1807.58 -19.0781,1737.23 84.168,1449.43 146.172,1367.8 c 368.637,-7.23 451.672,16.24 677.105,-235.49 195.823,-218.677 317.993,-352.228 409.843,-711.439 18.23,-71.308 57.75,-259.781 26.07,-320.437 -75.7,-23.227 -237.65,38.777 -242.61,-95.2465 l 457.23,1 -0.36,319.7615 v 280.973 c 61.93,-40.336 154.16,-94.359 266.59,-136.762 185.76,-70.062 365.82,-37.765 445.435,-127.2515 C 2265.09,253.422 2251.09,166.559 2215.6,119.109 Z M 2144.96,6.11719 c 4.16,0.42187 8.42,0.83594 0,0 z m 4.02,737.21081 c 24.31,-10.805 8.27,-46.539 -16,-35.988 -21.49,9.336 -9.25,47.207 16,35.988 z M 532.508,1887.88 c 64.601,-28.7 21.969,-123.69 -42.551,-95.64 -57.105,24.82 -24.594,125.47 42.551,95.64 z M 1117.41,376.695 C 1095.55,301.668 1072.04,261.41 1032.68,215.523 952.043,121.539 823.797,18.8789 635.941,6.5 L 418.059,5.08984 C 413.914,160.52 594.949,94.3477 664.227,129.324 750,172.648 803.266,220.852 852.055,286.086 951.16,418.617 1000.55,598.594 1007.13,803.324 1115.51,722.965 1153.49,500.598 1117.41,376.695"
         style="fill:none;fill-opacity:1;fill-rule:evenodd;stroke:#000000;stroke-opacity:1;stroke-width:13.43853619;stroke-miterlimit:4;stroke-dasharray:none"
         id="path1243" />
    </g>
  </g>
  <style
     type="text/css"
     id="style914">
	.st0{fill:none;stroke:#7F7F7F;stroke-miterlimit:10;}
</style>
</svg>
