G04 #@! TF.GenerationSoftware,KiCad,Pcbnew,6.0.2+dfsg-1*
G04 #@! TF.CreationDate,2022-11-12T16:15:39-08:00*
G04 #@! TF.ProjectId,controller,636f6e74-726f-46c6-9c65-722e6b696361,rev?*
G04 #@! TF.SameCoordinates,Original*
G04 #@! TF.FileFunction,Soldermask,Bot*
G04 #@! TF.FilePolarity,Negative*
%FSLAX46Y46*%
G04 Gerber Fmt 4.6, Leading zero omitted, Abs format (unit mm)*
G04 Created by KiCad (PCBNEW 6.0.2+dfsg-1) date 2022-11-12 16:15:39*
%MOMM*%
%LPD*%
G01*
G04 APERTURE LIST*
G04 Aperture macros list*
%AMRoundRect*
0 Rectangle with rounded corners*
0 $1 Rounding radius*
0 $2 $3 $4 $5 $6 $7 $8 $9 X,Y pos of 4 corners*
0 Add a 4 corners polygon primitive as box body*
4,1,4,$2,$3,$4,$5,$6,$7,$8,$9,$2,$3,0*
0 Add four circle primitives for the rounded corners*
1,1,$1+$1,$2,$3*
1,1,$1+$1,$4,$5*
1,1,$1+$1,$6,$7*
1,1,$1+$1,$8,$9*
0 Add four rect primitives between the rounded corners*
20,1,$1+$1,$2,$3,$4,$5,0*
20,1,$1+$1,$4,$5,$6,$7,0*
20,1,$1+$1,$6,$7,$8,$9,0*
20,1,$1+$1,$8,$9,$2,$3,0*%
G04 Aperture macros list end*
%ADD10RoundRect,0.250000X-0.350000X-0.625000X0.350000X-0.625000X0.350000X0.625000X-0.350000X0.625000X0*%
%ADD11O,1.200000X1.750000*%
%ADD12RoundRect,0.250000X-0.600000X-0.600000X0.600000X-0.600000X0.600000X0.600000X-0.600000X0.600000X0*%
%ADD13C,1.700000*%
%ADD14R,1.700000X1.700000*%
%ADD15O,1.700000X1.700000*%
%ADD16C,3.200000*%
%ADD17R,3.500000X3.500000*%
%ADD18RoundRect,0.750000X-0.750000X-1.000000X0.750000X-1.000000X0.750000X1.000000X-0.750000X1.000000X0*%
%ADD19RoundRect,0.875000X-0.875000X-0.875000X0.875000X-0.875000X0.875000X0.875000X-0.875000X0.875000X0*%
%ADD20C,1.440000*%
G04 APERTURE END LIST*
D10*
X189000000Y-79000000D03*
D11*
X191000000Y-79000000D03*
D12*
X188247500Y-105455000D03*
D13*
X190787500Y-105455000D03*
X188247500Y-107995000D03*
X190787500Y-107995000D03*
X188247500Y-110535000D03*
X190787500Y-110535000D03*
D14*
X161000000Y-125000000D03*
D15*
X163540000Y-125000000D03*
X166080000Y-125000000D03*
X168620000Y-125000000D03*
X171160000Y-125000000D03*
X173700000Y-125000000D03*
X176240000Y-125000000D03*
D16*
X144000000Y-91000000D03*
D10*
X115000000Y-78000000D03*
D11*
X117000000Y-78000000D03*
X119000000Y-78000000D03*
D17*
X122000000Y-117042500D03*
D18*
X116000000Y-117042500D03*
D19*
X119000000Y-121742500D03*
D10*
X129000000Y-100450000D03*
D11*
X131000000Y-100450000D03*
X133000000Y-100450000D03*
D10*
X115000000Y-88000000D03*
D11*
X117000000Y-88000000D03*
X119000000Y-88000000D03*
D14*
X190000000Y-125000000D03*
D10*
X128500000Y-88000000D03*
D11*
X130500000Y-88000000D03*
X132500000Y-88000000D03*
D16*
X174000000Y-109000000D03*
D10*
X115000000Y-100450000D03*
D11*
X117000000Y-100450000D03*
X119000000Y-100450000D03*
D16*
X117000000Y-69000000D03*
D14*
X153000000Y-73000000D03*
D15*
X155540000Y-73000000D03*
X158080000Y-73000000D03*
D20*
X151015000Y-122540000D03*
X153555000Y-120000000D03*
X151015000Y-117460000D03*
D10*
X179000000Y-118000000D03*
D11*
X181000000Y-118000000D03*
D16*
X179000000Y-72000000D03*
D10*
X128500000Y-78000000D03*
D11*
X130500000Y-78000000D03*
X132500000Y-78000000D03*
D10*
X189000000Y-70000000D03*
D11*
X191000000Y-70000000D03*
D16*
X138000000Y-124000000D03*
D10*
X189000000Y-88000000D03*
D11*
X191000000Y-88000000D03*
D20*
X168015000Y-77540000D03*
X170555000Y-75000000D03*
X168015000Y-72460000D03*
M02*
