M48
; DRILL file {KiCad 6.0.2+dfsg-1} date Sat 12 Nov 2022 04:15:41 PM PST
; FORMAT={-:-/ absolute / metric / decimal}
; #@! TF.CreationDate,2022-11-12T16:15:41-08:00
; #@! TF.GenerationSoftware,Kicad,Pcbnew,6.0.2+dfsg-1
; #@! TF.FileFunction,Plated,1,2,PTH
FMAT,2
METRIC
; #@! TA.AperFunction,Plated,PTH,ViaDrill
T1C0.400
; #@! TA.AperFunction,Plated,PTH,ComponentDrill
T2C0.750
; #@! TA.AperFunction,Plated,PTH,ComponentDrill
T3C0.800
; #@! TA.AperFunction,Plated,PTH,ComponentDrill
T4C1.000
%
G90
G05
T1
X147.0Y-67.0
X147.0Y-72.0
X157.0Y-110.0
X158.0Y-105.0
X158.0Y-107.0
X158.0Y-108.0
X159.0Y-82.0
X159.0Y-84.0
X159.0Y-96.0
X160.0Y-88.0
X160.0Y-90.0
X160.0Y-92.0
X161.0Y-91.0
X161.0Y-93.0
X161.0Y-96.0
X163.0Y-120.0
X164.0Y-85.0
X164.175Y-107.175
X166.0Y-108.0
X166.0Y-120.0
X166.012Y-90.988
X166.8Y-109.2
X168.0Y-94.0
X168.0Y-99.0
X169.0Y-83.0
X169.0Y-92.0
X169.026Y-89.15
X170.0Y-120.0
X171.0Y-83.0
X172.0Y-88.0
X172.0Y-99.0
X173.0Y-87.0
X174.0Y-94.0
X174.0Y-120.0
X175.0Y-83.0
X175.0Y-89.0
X175.0Y-115.0
X181.05Y-92.0
T2
X115.0Y-78.0
X115.0Y-88.0
X115.0Y-100.45
X117.0Y-78.0
X117.0Y-88.0
X117.0Y-100.45
X119.0Y-78.0
X119.0Y-88.0
X119.0Y-100.45
X128.5Y-78.0
X128.5Y-88.0
X129.0Y-100.45
X130.5Y-78.0
X130.5Y-88.0
X131.0Y-100.45
X132.5Y-78.0
X132.5Y-88.0
X133.0Y-100.45
X179.0Y-118.0
X181.0Y-118.0
X189.0Y-70.0
X189.0Y-79.0
X189.0Y-88.0
X191.0Y-70.0
X191.0Y-79.0
X191.0Y-88.0
T3
X151.015Y-117.46
X151.015Y-122.54
X153.555Y-120.0
X168.015Y-72.46
X168.015Y-77.54
X170.555Y-75.0
T4
X153.0Y-73.0
X155.54Y-73.0
X158.08Y-73.0
X161.0Y-125.0
X163.54Y-125.0
X166.08Y-125.0
X168.62Y-125.0
X171.16Y-125.0
X173.7Y-125.0
X176.24Y-125.0
X188.248Y-105.455
X188.248Y-107.995
X188.248Y-110.535
X190.0Y-125.0
X190.787Y-105.455
X190.787Y-107.995
X190.787Y-110.535
T4
X116.0Y-116.042G85X116.0Y-118.042
G05
X118.0Y-121.742G85X120.0Y-121.742
G05
X122.0Y-116.042G85X122.0Y-118.042
G05
T0
M30
