G04 #@! TF.GenerationSoftware,KiCad,Pcbnew,6.0.2+dfsg-1*
G04 #@! TF.CreationDate,2022-11-21T10:33:26-05:00*
G04 #@! TF.ProjectId,controller,636f6e74-726f-46c6-9c65-722e6b696361,rev?*
G04 #@! TF.SameCoordinates,Original*
G04 #@! TF.FileFunction,Paste,Top*
G04 #@! TF.FilePolarity,Positive*
%FSLAX46Y46*%
G04 Gerber Fmt 4.6, Leading zero omitted, Abs format (unit mm)*
G04 Created by KiCad (PCBNEW 6.0.2+dfsg-1) date 2022-11-21 10:33:26*
%MOMM*%
%LPD*%
G01*
G04 APERTURE LIST*
G04 Aperture macros list*
%AMRoundRect*
0 Rectangle with rounded corners*
0 $1 Rounding radius*
0 $2 $3 $4 $5 $6 $7 $8 $9 X,Y pos of 4 corners*
0 Add a 4 corners polygon primitive as box body*
4,1,4,$2,$3,$4,$5,$6,$7,$8,$9,$2,$3,0*
0 Add four circle primitives for the rounded corners*
1,1,$1+$1,$2,$3*
1,1,$1+$1,$4,$5*
1,1,$1+$1,$6,$7*
1,1,$1+$1,$8,$9*
0 Add four rect primitives between the rounded corners*
20,1,$1+$1,$2,$3,$4,$5,0*
20,1,$1+$1,$4,$5,$6,$7,0*
20,1,$1+$1,$6,$7,$8,$9,0*
20,1,$1+$1,$8,$9,$2,$3,0*%
G04 Aperture macros list end*
%ADD10RoundRect,0.200000X-0.200000X-0.275000X0.200000X-0.275000X0.200000X0.275000X-0.200000X0.275000X0*%
%ADD11RoundRect,0.140000X0.170000X-0.140000X0.170000X0.140000X-0.170000X0.140000X-0.170000X-0.140000X0*%
%ADD12R,1.200000X1.400000*%
%ADD13R,1.600000X0.550000*%
%ADD14R,0.550000X1.600000*%
%ADD15RoundRect,0.243750X-0.243750X-0.456250X0.243750X-0.456250X0.243750X0.456250X-0.243750X0.456250X0*%
%ADD16RoundRect,0.150000X-0.587500X-0.150000X0.587500X-0.150000X0.587500X0.150000X-0.587500X0.150000X0*%
%ADD17RoundRect,0.140000X0.140000X0.170000X-0.140000X0.170000X-0.140000X-0.170000X0.140000X-0.170000X0*%
%ADD18RoundRect,0.250000X0.250000X0.475000X-0.250000X0.475000X-0.250000X-0.475000X0.250000X-0.475000X0*%
%ADD19RoundRect,0.225000X0.225000X0.250000X-0.225000X0.250000X-0.225000X-0.250000X0.225000X-0.250000X0*%
G04 APERTURE END LIST*
D10*
X141175000Y-114000000D03*
X142825000Y-114000000D03*
X136175000Y-114000000D03*
X137825000Y-114000000D03*
X131175000Y-114000000D03*
X132825000Y-114000000D03*
X126175000Y-114000000D03*
X127825000Y-114000000D03*
X145575240Y-77512260D03*
X147225240Y-77512260D03*
D11*
X152000000Y-89480000D03*
X152000000Y-88520000D03*
D12*
X155850000Y-89100000D03*
X155850000Y-86900000D03*
X154150000Y-86900000D03*
X154150000Y-89100000D03*
D13*
X163750000Y-89200000D03*
X163750000Y-90000000D03*
X163750000Y-90800000D03*
X163750000Y-91600000D03*
X163750000Y-92400000D03*
X163750000Y-93200000D03*
X163750000Y-94000000D03*
X163750000Y-94800000D03*
D14*
X165200000Y-96250000D03*
X166000000Y-96250000D03*
X166800000Y-96250000D03*
X167600000Y-96250000D03*
X168400000Y-96250000D03*
X169200000Y-96250000D03*
X170000000Y-96250000D03*
X170800000Y-96250000D03*
D13*
X172250000Y-94800000D03*
X172250000Y-94000000D03*
X172250000Y-93200000D03*
X172250000Y-92400000D03*
X172250000Y-91600000D03*
X172250000Y-90800000D03*
X172250000Y-90000000D03*
X172250000Y-89200000D03*
D14*
X170800000Y-87750000D03*
X170000000Y-87750000D03*
X169200000Y-87750000D03*
X168400000Y-87750000D03*
X167600000Y-87750000D03*
X166800000Y-87750000D03*
X166000000Y-87750000D03*
X165200000Y-87750000D03*
D15*
X141187500Y-109000000D03*
X143062500Y-109000000D03*
D10*
X164175000Y-118000000D03*
X165825000Y-118000000D03*
D15*
X152062500Y-80000000D03*
X153937500Y-80000000D03*
D10*
X172175000Y-118000000D03*
X173825000Y-118000000D03*
D15*
X136125000Y-109000000D03*
X138000000Y-109000000D03*
X131187500Y-109000000D03*
X133062500Y-109000000D03*
D16*
X179062500Y-111050000D03*
X179062500Y-112950000D03*
X180937500Y-112000000D03*
D17*
X158480000Y-87000000D03*
X157520000Y-87000000D03*
D15*
X126125000Y-109000000D03*
X128000000Y-109000000D03*
D18*
X179000000Y-89000000D03*
X177100000Y-89000000D03*
D10*
X168175000Y-118000000D03*
X169825000Y-118000000D03*
X160175000Y-118000000D03*
X161825000Y-118000000D03*
D19*
X178825000Y-94000000D03*
X177275000Y-94000000D03*
M02*
