G04 #@! TF.GenerationSoftware,KiCad,Pcbnew,6.0.2+dfsg-1*
G04 #@! TF.CreationDate,2022-11-12T16:15:39-08:00*
G04 #@! TF.ProjectId,controller,636f6e74-726f-46c6-9c65-722e6b696361,rev?*
G04 #@! TF.SameCoordinates,Original*
G04 #@! TF.FileFunction,Legend,Top*
G04 #@! TF.FilePolarity,Positive*
%FSLAX46Y46*%
G04 Gerber Fmt 4.6, Leading zero omitted, Abs format (unit mm)*
G04 Created by KiCad (PCBNEW 6.0.2+dfsg-1) date 2022-11-12 16:15:39*
%MOMM*%
%LPD*%
G01*
G04 APERTURE LIST*
G04 Aperture macros list*
%AMRoundRect*
0 Rectangle with rounded corners*
0 $1 Rounding radius*
0 $2 $3 $4 $5 $6 $7 $8 $9 X,Y pos of 4 corners*
0 Add a 4 corners polygon primitive as box body*
4,1,4,$2,$3,$4,$5,$6,$7,$8,$9,$2,$3,0*
0 Add four circle primitives for the rounded corners*
1,1,$1+$1,$2,$3*
1,1,$1+$1,$4,$5*
1,1,$1+$1,$6,$7*
1,1,$1+$1,$8,$9*
0 Add four rect primitives between the rounded corners*
20,1,$1+$1,$2,$3,$4,$5,0*
20,1,$1+$1,$4,$5,$6,$7,0*
20,1,$1+$1,$6,$7,$8,$9,0*
20,1,$1+$1,$8,$9,$2,$3,0*%
G04 Aperture macros list end*
%ADD10C,0.150000*%
%ADD11C,0.060000*%
%ADD12C,0.120000*%
%ADD13RoundRect,0.140000X0.170000X-0.140000X0.170000X0.140000X-0.170000X0.140000X-0.170000X-0.140000X0*%
%ADD14RoundRect,0.250000X-0.350000X-0.625000X0.350000X-0.625000X0.350000X0.625000X-0.350000X0.625000X0*%
%ADD15O,1.200000X1.750000*%
%ADD16RoundRect,0.250000X-0.600000X-0.600000X0.600000X-0.600000X0.600000X0.600000X-0.600000X0.600000X0*%
%ADD17C,1.700000*%
%ADD18R,1.700000X1.700000*%
%ADD19O,1.700000X1.700000*%
%ADD20R,1.200000X1.400000*%
%ADD21C,3.200000*%
%ADD22R,3.500000X3.500000*%
%ADD23RoundRect,0.750000X-0.750000X-1.000000X0.750000X-1.000000X0.750000X1.000000X-0.750000X1.000000X0*%
%ADD24RoundRect,0.875000X-0.875000X-0.875000X0.875000X-0.875000X0.875000X0.875000X-0.875000X0.875000X0*%
%ADD25R,1.600000X0.550000*%
%ADD26R,0.550000X1.600000*%
%ADD27RoundRect,0.243750X-0.243750X-0.456250X0.243750X-0.456250X0.243750X0.456250X-0.243750X0.456250X0*%
%ADD28RoundRect,0.250000X-0.262500X-0.450000X0.262500X-0.450000X0.262500X0.450000X-0.262500X0.450000X0*%
%ADD29RoundRect,0.200000X-0.200000X-0.275000X0.200000X-0.275000X0.200000X0.275000X-0.200000X0.275000X0*%
%ADD30C,1.440000*%
%ADD31RoundRect,0.150000X-0.587500X-0.150000X0.587500X-0.150000X0.587500X0.150000X-0.587500X0.150000X0*%
%ADD32RoundRect,0.140000X0.140000X0.170000X-0.140000X0.170000X-0.140000X-0.170000X0.140000X-0.170000X0*%
%ADD33RoundRect,0.250000X0.250000X0.475000X-0.250000X0.475000X-0.250000X-0.475000X0.250000X-0.475000X0*%
%ADD34RoundRect,0.225000X0.225000X0.250000X-0.225000X0.250000X-0.225000X-0.250000X0.225000X-0.250000X0*%
G04 APERTURE END LIST*
D10*
X121142857Y-66547619D02*
X121190476Y-66500000D01*
X121285714Y-66452380D01*
X121523809Y-66452380D01*
X121619047Y-66500000D01*
X121666666Y-66547619D01*
X121714285Y-66642857D01*
X121714285Y-66738095D01*
X121666666Y-66880952D01*
X121095238Y-67452380D01*
X121714285Y-67452380D01*
X122333333Y-66452380D02*
X122428571Y-66452380D01*
X122523809Y-66500000D01*
X122571428Y-66547619D01*
X122619047Y-66642857D01*
X122666666Y-66833333D01*
X122666666Y-67071428D01*
X122619047Y-67261904D01*
X122571428Y-67357142D01*
X122523809Y-67404761D01*
X122428571Y-67452380D01*
X122333333Y-67452380D01*
X122238095Y-67404761D01*
X122190476Y-67357142D01*
X122142857Y-67261904D01*
X122095238Y-67071428D01*
X122095238Y-66833333D01*
X122142857Y-66642857D01*
X122190476Y-66547619D01*
X122238095Y-66500000D01*
X122333333Y-66452380D01*
X123047619Y-66547619D02*
X123095238Y-66500000D01*
X123190476Y-66452380D01*
X123428571Y-66452380D01*
X123523809Y-66500000D01*
X123571428Y-66547619D01*
X123619047Y-66642857D01*
X123619047Y-66738095D01*
X123571428Y-66880952D01*
X123000000Y-67452380D01*
X123619047Y-67452380D01*
X124000000Y-66547619D02*
X124047619Y-66500000D01*
X124142857Y-66452380D01*
X124380952Y-66452380D01*
X124476190Y-66500000D01*
X124523809Y-66547619D01*
X124571428Y-66642857D01*
X124571428Y-66738095D01*
X124523809Y-66880952D01*
X123952380Y-67452380D01*
X124571428Y-67452380D01*
X125000000Y-67071428D02*
X125761904Y-67071428D01*
X126761904Y-67452380D02*
X126190476Y-67452380D01*
X126476190Y-67452380D02*
X126476190Y-66452380D01*
X126380952Y-66595238D01*
X126285714Y-66690476D01*
X126190476Y-66738095D01*
X127714285Y-67452380D02*
X127142857Y-67452380D01*
X127428571Y-67452380D02*
X127428571Y-66452380D01*
X127333333Y-66595238D01*
X127238095Y-66690476D01*
X127142857Y-66738095D01*
X128142857Y-67071428D02*
X128904761Y-67071428D01*
X129904761Y-67452380D02*
X129333333Y-67452380D01*
X129619047Y-67452380D02*
X129619047Y-66452380D01*
X129523809Y-66595238D01*
X129428571Y-66690476D01*
X129333333Y-66738095D01*
X130285714Y-66547619D02*
X130333333Y-66500000D01*
X130428571Y-66452380D01*
X130666666Y-66452380D01*
X130761904Y-66500000D01*
X130809523Y-66547619D01*
X130857142Y-66642857D01*
X130857142Y-66738095D01*
X130809523Y-66880952D01*
X130238095Y-67452380D01*
X130857142Y-67452380D01*
X110285714Y-66785714D02*
X110523809Y-67452380D01*
X110761904Y-66785714D01*
X111666666Y-67452380D02*
X111095238Y-67452380D01*
X111380952Y-67452380D02*
X111380952Y-66452380D01*
X111285714Y-66595238D01*
X111190476Y-66690476D01*
X111095238Y-66738095D01*
D11*
X147985023Y-102768299D02*
X147984346Y-102962601D01*
X147250121Y-99864931D02*
X147252520Y-99887372D01*
X148866353Y-102651989D02*
X148788190Y-102639509D01*
X147512858Y-103136822D02*
X147585106Y-103138132D01*
X146415684Y-103199187D02*
X146403026Y-103203405D01*
X140614551Y-94034893D02*
X140506771Y-94017785D01*
X151070077Y-102165114D02*
X151059367Y-102182571D01*
X139355670Y-95270720D02*
X139353098Y-95292312D01*
X139674880Y-103446210D02*
X139674880Y-103446210D01*
X147538237Y-102272917D02*
X147515551Y-102226667D01*
X136918092Y-95925979D02*
X136950161Y-96068003D01*
X138707982Y-103333632D02*
X138717589Y-103282231D01*
X151269663Y-102911555D02*
X151269663Y-102911555D01*
X147900633Y-103249144D02*
X147882834Y-103258219D01*
X138960154Y-103013217D02*
X139000000Y-103000000D01*
X147717305Y-102917002D02*
X147712895Y-102879065D01*
X139238724Y-95059133D02*
X139261637Y-95073567D01*
X145672649Y-100821792D02*
X145650926Y-100767251D01*
X147840086Y-103271678D02*
X147814849Y-103276348D01*
X150099437Y-103254355D02*
X150096662Y-103259407D01*
X146481273Y-100257046D02*
X146478904Y-100264903D01*
X150994799Y-103102611D02*
X150997296Y-103093874D01*
X147089494Y-99737004D02*
X147103073Y-99733000D01*
X149321096Y-102969062D02*
X149296999Y-102974762D01*
X150076387Y-103273338D02*
X150068384Y-103275490D01*
X146035676Y-103397014D02*
X146034034Y-103423586D01*
X141413385Y-103266251D02*
X141398161Y-103305819D01*
X141404826Y-94457123D02*
X141403240Y-94399572D01*
X150982951Y-103116719D02*
X150989956Y-103110185D01*
X141119054Y-93896005D02*
X141078187Y-93903022D01*
X139299537Y-95106554D02*
X139314663Y-95124797D01*
X150853263Y-102516692D02*
X150886154Y-102484446D01*
X141785406Y-100633645D02*
X141820210Y-100768069D01*
X149659073Y-102597315D02*
X149666728Y-102621591D01*
X145630246Y-100710846D02*
X145611052Y-100653621D01*
X150099540Y-100069017D02*
X150195768Y-100088559D01*
X145558033Y-100437362D02*
X145552940Y-100391670D01*
X148467028Y-100271787D02*
X148834159Y-100187182D01*
X147240653Y-100063343D02*
X147327448Y-100118491D01*
X145904557Y-101648253D02*
X146026411Y-101671360D01*
X150963107Y-102311653D02*
X150949746Y-102326337D01*
X148945325Y-102662117D02*
X148866353Y-102651989D01*
X149647424Y-102227578D02*
X149637996Y-102286520D01*
X140511292Y-98419727D02*
X140511292Y-98419727D01*
X145559349Y-100303491D02*
X145564356Y-100291364D01*
X150020795Y-103280209D02*
X149985858Y-103280904D01*
X147103073Y-99733000D02*
X147117233Y-99729440D01*
X148788190Y-102639509D02*
X148710883Y-102624563D01*
X139194121Y-95485463D02*
X139172314Y-95491368D01*
X139021064Y-95041229D02*
X139041108Y-95032865D01*
X146350976Y-100158479D02*
X146358039Y-100154555D01*
X150916046Y-102452961D02*
X150943167Y-102421924D01*
X151059367Y-102182571D02*
X151048365Y-102199754D01*
X141363142Y-94815182D02*
X141363142Y-94815182D01*
X141664679Y-102201963D02*
X141641553Y-102243401D01*
X147215473Y-99718024D02*
X147215473Y-99718024D01*
X151273267Y-103078759D02*
X151276206Y-103142161D01*
X150860275Y-100448532D02*
X150895545Y-100483660D01*
X151045245Y-102262519D02*
X151060562Y-102227608D01*
X147701484Y-102803168D02*
X147688065Y-102731064D01*
X142148822Y-103052865D02*
X141972125Y-103049166D01*
X145694970Y-100873428D02*
X145672649Y-100821792D01*
X146462792Y-100179130D02*
X146468484Y-100185995D01*
X151171954Y-103276396D02*
X151155147Y-103278049D01*
X146403026Y-103203405D02*
X146389595Y-103206757D01*
X139695638Y-97684346D02*
X139845762Y-97785831D01*
X145577576Y-100268115D02*
X145592679Y-100246059D01*
X150791666Y-102464525D02*
X150772060Y-102478134D01*
X146368864Y-100320942D02*
X146358817Y-100317121D01*
X143414167Y-102019944D02*
X143414167Y-102019944D01*
X146473252Y-100193222D02*
X146477122Y-100200751D01*
X139871305Y-102861294D02*
X139938221Y-102824166D01*
X146313648Y-100267385D02*
X146311541Y-100259428D01*
X149763613Y-103080688D02*
X149766718Y-103058075D01*
X148163058Y-103438137D02*
X148192683Y-103424357D01*
X151010200Y-102328374D02*
X151028534Y-102296004D01*
X141240516Y-99266046D02*
X141366357Y-99430945D01*
X146499427Y-103154089D02*
X146476555Y-103167618D01*
X136881163Y-95671408D02*
X136894699Y-95792858D01*
X146316279Y-100202366D02*
X146319537Y-100194782D01*
X140506771Y-94017785D02*
X140402039Y-94004328D01*
X141300047Y-93880927D02*
X141300047Y-93880927D01*
X151187188Y-103274096D02*
X151171954Y-103276396D01*
X140230941Y-102626897D02*
X140282397Y-102584561D01*
X145593790Y-100596617D02*
X145578903Y-100540878D01*
X146728867Y-99759406D02*
X146764991Y-99758238D01*
X151284010Y-101557967D02*
X151289475Y-101678211D01*
X146056746Y-103313641D02*
X146049468Y-103331281D01*
X146313729Y-103214606D02*
X146247523Y-103217214D01*
X139002286Y-95051657D02*
X139021064Y-95041229D01*
X146445264Y-100310445D02*
X146438336Y-100314902D01*
X151579746Y-102560498D02*
X151651722Y-102106152D01*
X143324226Y-95320579D02*
X143164719Y-95339126D01*
X141363142Y-94815182D02*
X141373926Y-94768807D01*
X149350668Y-102681576D02*
X149268357Y-102681453D01*
X150645444Y-103262608D02*
X150651730Y-103246076D01*
X147603982Y-100278939D02*
X147633229Y-100290080D01*
X147244449Y-100046086D02*
X147240653Y-100063343D01*
X137258620Y-96951931D02*
X137318349Y-97078692D01*
X149413931Y-100071682D02*
X149610612Y-100050470D01*
X149652329Y-102572037D02*
X149659073Y-102597315D01*
X141001339Y-93920745D02*
X140965253Y-93931391D01*
X139281885Y-95089425D02*
X139299537Y-95106554D01*
X149445226Y-102959257D02*
X149420066Y-102958668D01*
X146382017Y-100147693D02*
X146390882Y-100147256D01*
X136989724Y-96216157D02*
X137035600Y-96367673D01*
X147841442Y-103457412D02*
X148012843Y-103457014D01*
X146427486Y-103193986D02*
X146415684Y-103199187D01*
X151239932Y-95866369D02*
X150988858Y-95689091D01*
X141446229Y-102512971D02*
X141376220Y-102591995D01*
X148935585Y-103402072D02*
X148933956Y-103427040D01*
X149268357Y-102681453D02*
X149186621Y-102679562D01*
X147261140Y-103239641D02*
X147266568Y-103224510D01*
X147029609Y-99763294D02*
X147040583Y-99757236D01*
X146316502Y-100275105D02*
X146313648Y-100267385D01*
X151268829Y-102958580D02*
X151269539Y-103002076D01*
X146587978Y-99782241D02*
X146622921Y-99773660D01*
X146985833Y-101427873D02*
X146944580Y-101394199D01*
X152375159Y-97990189D02*
X152331195Y-97651534D01*
X141592182Y-102322760D02*
X141565751Y-102361209D01*
X137318349Y-97078692D02*
X137377304Y-97192191D01*
X145776530Y-101627627D02*
X145904557Y-101648253D01*
X149483373Y-103141513D02*
X149494515Y-103139607D01*
X149699674Y-103139928D02*
X149716257Y-103137146D01*
X142413563Y-101915915D02*
X142451040Y-102117320D01*
X139354840Y-95227322D02*
X139356274Y-95249005D01*
X149719784Y-102456820D02*
X149715206Y-102404954D01*
X141376220Y-102591995D02*
X141301151Y-102671280D01*
X147112355Y-101560314D02*
X147069462Y-101510460D01*
X151025478Y-102233265D02*
X151013593Y-102249576D01*
X147291435Y-103188003D02*
X147302282Y-103178529D01*
X150833814Y-103451862D02*
X150990210Y-103453038D01*
X149610612Y-100050470D02*
X149708985Y-100045109D01*
X151087935Y-102152257D02*
X151100449Y-102111191D01*
X147401120Y-102008906D02*
X147297157Y-101827768D01*
X149802450Y-95154720D02*
X149467300Y-95062360D01*
X146313633Y-100210219D02*
X146316279Y-100202366D01*
X146345489Y-103212780D02*
X146313729Y-103214606D01*
X138049338Y-97376665D02*
X138513351Y-97388167D01*
X151400492Y-103368477D02*
X151414108Y-103352870D01*
X150093097Y-103263784D02*
X150088615Y-103267532D01*
X149472502Y-103144251D02*
X149483373Y-103141513D01*
X151491868Y-103156570D02*
X151503935Y-103084251D01*
X138822514Y-103095035D02*
X138853177Y-103069710D01*
X146764991Y-99758238D02*
X146801736Y-99758738D01*
X141867119Y-101042181D02*
X141879176Y-101178722D01*
X138897460Y-95319938D02*
X138893799Y-95298321D01*
X151977101Y-100531371D02*
X152215351Y-99573508D01*
X146034034Y-103423586D02*
X146034007Y-103452683D01*
X149774145Y-102942970D02*
X149775425Y-102875071D01*
X151799335Y-101315389D02*
X151882553Y-100933824D01*
X147341228Y-103157075D02*
X147356041Y-103151980D01*
X149743955Y-102148680D02*
X149759853Y-102099266D01*
X141714953Y-103064102D02*
X141675562Y-103071932D01*
X149345497Y-102964586D02*
X149321096Y-102969062D01*
X146657963Y-99767043D02*
X146693235Y-99762316D01*
X139084514Y-102980402D02*
X139128697Y-102973495D01*
X150796753Y-103158737D02*
X150834177Y-103151894D01*
X146467932Y-100286912D02*
X146463073Y-100293534D01*
X148933610Y-103452177D02*
X148933610Y-103452177D01*
X142180641Y-101039234D02*
X142262622Y-101306896D01*
X147009026Y-99776531D02*
X147019096Y-99769729D01*
X141366357Y-99430945D02*
X141486190Y-99599132D01*
X146861902Y-101339736D02*
X146819959Y-101318007D01*
X150777560Y-102584712D02*
X150817141Y-102550010D01*
X145692847Y-100151675D02*
X145717088Y-100135580D01*
X148933610Y-103452177D02*
X149204397Y-103452872D01*
X140511292Y-98419727D02*
X140824120Y-98770750D01*
X141535203Y-103126941D02*
X141505409Y-103147766D01*
X147967059Y-100338873D02*
X148125508Y-100329236D01*
X147576315Y-100266855D02*
X147603982Y-100278939D01*
X142014063Y-95151065D02*
X141855658Y-95077895D01*
X140514316Y-102354092D02*
X140556912Y-102303685D01*
X139801171Y-102897831D02*
X139871305Y-102861294D01*
X148713041Y-102804153D02*
X148749128Y-102796207D01*
X146249121Y-101730885D02*
X146348737Y-101770235D01*
X148248410Y-103351411D02*
X148262649Y-103314384D01*
X147252535Y-99990885D02*
X147250432Y-100009858D01*
X147201592Y-101679492D02*
X147156312Y-101616501D01*
X147052039Y-99751568D02*
X147063997Y-99746298D01*
X150929989Y-100520595D02*
X150963470Y-100559337D01*
X140509002Y-103237281D02*
X140447655Y-103264271D01*
X146593853Y-101245571D02*
X146377771Y-101202850D01*
X150936960Y-103134913D02*
X150963184Y-103127159D01*
X148296708Y-103217341D02*
X148313140Y-103174969D01*
X147684800Y-103284635D02*
X147255122Y-103281031D01*
X138717589Y-103282231D02*
X138731313Y-103235836D01*
X146319537Y-100194782D02*
X146323390Y-100187531D01*
X146097069Y-103261316D02*
X146085472Y-103271896D01*
X138953996Y-95093641D02*
X138968707Y-95078032D01*
X150787796Y-100383712D02*
X150824313Y-100415215D01*
X138940730Y-95110639D02*
X138953996Y-95093641D01*
X148223459Y-102455810D02*
X148167827Y-102427222D01*
X147327448Y-100118510D02*
X147360255Y-100138304D01*
X138794753Y-103124046D02*
X138822514Y-103095035D01*
X141161622Y-93890257D02*
X141119054Y-93896005D01*
X140897495Y-93956104D02*
X140865717Y-93970111D01*
X150695470Y-103196584D02*
X150710140Y-103187756D01*
X145564356Y-100291364D02*
X145564356Y-100291364D01*
X149412497Y-103183999D02*
X149421917Y-103174077D01*
X146136776Y-103237945D02*
X146122804Y-103244458D01*
X146456149Y-100172684D02*
X146462792Y-100179130D01*
X146468484Y-100185995D02*
X146473252Y-100193222D01*
X146848500Y-102639527D02*
X146838312Y-102698284D01*
X145781344Y-101030073D02*
X145781344Y-101030073D01*
X147679160Y-103134209D02*
X147692000Y-103131843D01*
X150111972Y-103156165D02*
X150108604Y-103183883D01*
X150195768Y-100088559D02*
X150291160Y-100114416D01*
X146430254Y-100156443D02*
X146430254Y-100156443D01*
X149807200Y-100043838D02*
X149905121Y-100047102D01*
X141312118Y-100225973D02*
X141324398Y-100058643D01*
X145944180Y-100030667D02*
X146069104Y-99988204D01*
X148367189Y-103063425D02*
X148386955Y-103031176D01*
X139356274Y-95249005D02*
X139355670Y-95270720D01*
X146358039Y-100154555D02*
X146365578Y-100151406D01*
X146781992Y-102856066D02*
X146756206Y-102901694D01*
X147662130Y-102616599D02*
X147662130Y-102616599D01*
X149731405Y-102198941D02*
X149743955Y-102148680D01*
X149690273Y-102087659D02*
X149679446Y-102114385D01*
X146412306Y-103447919D02*
X146412306Y-103447919D01*
X145215080Y-101540631D02*
X145504434Y-101587960D01*
X146026411Y-101671360D02*
X146141472Y-101698416D01*
X140402039Y-94004328D02*
X140300009Y-93994717D01*
X140835269Y-93985178D02*
X140806099Y-94001277D01*
X139314663Y-95124797D02*
X139327332Y-95144000D01*
X150068384Y-103275490D02*
X150058952Y-103277205D01*
X150817141Y-102550010D02*
X150853263Y-102516692D01*
X146452597Y-103180907D02*
X146427486Y-103193986D01*
X140121491Y-102708449D02*
X140177367Y-102668167D01*
X150997296Y-103093874D02*
X150997266Y-103083851D01*
X139801171Y-102897831D02*
X139801171Y-102897831D01*
X151111702Y-100780027D02*
X151136564Y-100829543D01*
X149888578Y-103280875D02*
X149888578Y-103280875D01*
X150750858Y-100354026D02*
X150750858Y-100354026D01*
X146667184Y-103016841D02*
X146651142Y-103033808D01*
X148786818Y-102789586D02*
X148826160Y-102784212D01*
X136986778Y-95284395D02*
X136946636Y-95343014D01*
X146310163Y-100251294D02*
X146309499Y-100243049D01*
X149445226Y-102959257D02*
X149445226Y-102959257D01*
X147882834Y-103258219D02*
X147862700Y-103265682D01*
X149905121Y-100047102D02*
X150002613Y-100055347D01*
X150995854Y-100599881D02*
X151027004Y-100642224D01*
X141038966Y-93911279D02*
X141001339Y-93920745D01*
X141301151Y-102671280D02*
X141220943Y-102750178D01*
X142727264Y-95343766D02*
X142588412Y-95326622D01*
X140965253Y-93931391D02*
X140930656Y-93943188D01*
X139041534Y-102989149D02*
X139084514Y-102980402D01*
X141393234Y-94279637D02*
X141384578Y-94217247D01*
X149799196Y-101929604D02*
X149779991Y-101948359D01*
X147086265Y-103452473D02*
X147255122Y-103452473D01*
X150718177Y-95529777D02*
X150429285Y-95387938D01*
X150687298Y-102529427D02*
X150663749Y-102541986D01*
X151275928Y-103169055D02*
X151273711Y-103192839D01*
X151100449Y-102111191D02*
X151100449Y-102111191D01*
X146419858Y-100152378D02*
X146430254Y-100156443D01*
X149771350Y-103004818D02*
X149774145Y-102942970D01*
X146043475Y-103350978D02*
X146038850Y-103372851D01*
X147327448Y-100118510D02*
X147327448Y-100118510D01*
X147720563Y-102954165D02*
X147717305Y-102917002D01*
X139674880Y-103446210D02*
X138702087Y-103452506D01*
X146038850Y-103372851D02*
X146035676Y-103397014D01*
X143164719Y-95339126D02*
X143013401Y-95349511D01*
X146777268Y-101299319D02*
X146688609Y-101269185D01*
X142309058Y-95261253D02*
X142164524Y-95212015D01*
X142341148Y-101596140D02*
X142375319Y-101737915D01*
X139445826Y-94113655D02*
X139351657Y-94153285D01*
X137035600Y-96367673D02*
X137086609Y-96519779D01*
X152215351Y-99573508D02*
X152308445Y-99142392D01*
X150988888Y-103059456D02*
X150980176Y-103044838D01*
X146320120Y-100282521D02*
X146316502Y-100275105D01*
X139219702Y-102964143D02*
X139312606Y-102958982D01*
X137141569Y-96669704D02*
X137199300Y-96814678D01*
X141675562Y-103071932D02*
X141637692Y-103081901D01*
X146414949Y-100323919D02*
X146406373Y-100325280D01*
X149773386Y-102660465D02*
X149773386Y-102660465D01*
X149727866Y-102508480D02*
X149719784Y-102456820D01*
X138920261Y-95381319D02*
X138910646Y-95361606D01*
X141273801Y-100551824D02*
X141295267Y-100390416D01*
X149683492Y-103141872D02*
X149699674Y-103139928D01*
X141384578Y-94217247D02*
X141373329Y-94153236D01*
X147390769Y-100157311D02*
X147446638Y-100192893D01*
X149099695Y-102773812D02*
X149206343Y-102776799D01*
X139632172Y-94051614D02*
X139539216Y-94079830D01*
X146999378Y-99783689D02*
X147009026Y-99776531D01*
X147559707Y-102319869D02*
X147538237Y-102272917D01*
X141972125Y-103049166D02*
X141883760Y-103049574D01*
X138918714Y-95148129D02*
X138928955Y-95128858D01*
X146311541Y-100259428D02*
X146310163Y-100251294D01*
X141095661Y-101308134D02*
X141140881Y-101164130D01*
X151292588Y-102184872D02*
X151286543Y-102439568D01*
X141300047Y-93880927D02*
X141252065Y-93882688D01*
X148484559Y-102563752D02*
X148411140Y-102537769D01*
X149394289Y-103208637D02*
X149403290Y-103195484D01*
X146476555Y-103167618D02*
X146452597Y-103180907D01*
X145628126Y-100205296D02*
X145648263Y-100186476D01*
X146365578Y-100151406D02*
X146373576Y-100149098D01*
X152331195Y-97651534D02*
X152256456Y-97334767D01*
X147814849Y-103276348D02*
X147786846Y-103279836D01*
X145651617Y-94910993D02*
X144859793Y-95023699D01*
X141459948Y-100005316D02*
X141498848Y-100050742D01*
X151242303Y-103252582D02*
X151233846Y-103258249D01*
X149722230Y-102249875D02*
X149731405Y-102198941D01*
X147476051Y-103136906D02*
X147512858Y-103136822D01*
X148452198Y-102948132D02*
X148476093Y-102924760D01*
X149024622Y-100143599D02*
X149218241Y-100103912D01*
X145564356Y-100291364D02*
X145577576Y-100268115D01*
X143013401Y-95349511D02*
X142868255Y-95351227D01*
X150661672Y-100289910D02*
X150750858Y-100354026D01*
X146751184Y-102166645D02*
X146769838Y-102203018D01*
X141373926Y-94768807D02*
X141383298Y-94720845D01*
X151414108Y-103352870D02*
X151426776Y-103335495D01*
X151271694Y-103203585D02*
X151268975Y-103213580D01*
X146145937Y-103451951D02*
X146145937Y-103452421D01*
X140778154Y-94018376D02*
X140751382Y-94036446D01*
X143675870Y-95261026D02*
X143493937Y-95294376D01*
X149105505Y-102675787D02*
X149025058Y-102670011D01*
X149594373Y-103141798D02*
X149622616Y-103143363D01*
X146769838Y-102203018D02*
X146786455Y-102239113D01*
X148834159Y-100187182D02*
X149024622Y-100143599D01*
X149827380Y-101957871D02*
X149856413Y-101913607D01*
X147252520Y-99887372D02*
X147254065Y-99909231D01*
X141506953Y-94892869D02*
X141506953Y-94892869D01*
X145566836Y-100487446D02*
X145558033Y-100437362D01*
X140725729Y-94055457D02*
X140725729Y-94055457D01*
X146358817Y-100317121D02*
X146358817Y-100317121D01*
X139351657Y-94153285D02*
X139256359Y-94198917D01*
X144084464Y-95174909D02*
X143675870Y-95261026D01*
X143779927Y-100987888D02*
X143924747Y-101067309D01*
X150997266Y-103083851D02*
X150994524Y-103072419D01*
X146804587Y-102806794D02*
X146781992Y-102856066D01*
X147916240Y-103238316D02*
X147900633Y-103249144D01*
X147117233Y-99729440D02*
X147131992Y-99726336D01*
X150385529Y-102698521D02*
X150355652Y-102723737D01*
X139076198Y-97446348D02*
X139239498Y-97484658D01*
X149708985Y-100045109D02*
X149807200Y-100043838D01*
X151080494Y-102147393D02*
X151070077Y-102165114D01*
X147818261Y-100331037D02*
X147818261Y-100331037D01*
X149739476Y-102559758D02*
X149727866Y-102508480D01*
X150101552Y-103248579D02*
X150099437Y-103254355D01*
X149715206Y-102404954D02*
X149714104Y-102353057D01*
X141728936Y-102067443D02*
X141708278Y-102114248D01*
X150670247Y-103218248D02*
X150682112Y-103206707D01*
X139158737Y-95027909D02*
X139185430Y-95035472D01*
X147549800Y-100253845D02*
X147576315Y-100266855D01*
X147722453Y-102989982D02*
X147720563Y-102954165D01*
X150002613Y-100055347D02*
X150099540Y-100069017D01*
X146823517Y-102754120D02*
X146804587Y-102806794D01*
X149467300Y-95062360D02*
X149119522Y-94985512D01*
X147585106Y-103138132D02*
X147619093Y-103138248D01*
X137377304Y-97192191D02*
X137434306Y-97289656D01*
X150849151Y-102420146D02*
X150830056Y-102435635D01*
X148125508Y-100329236D02*
X148292525Y-100305687D01*
X148938480Y-103377318D02*
X148935585Y-103402072D01*
X139172314Y-95491368D02*
X139149515Y-95494983D01*
X146112456Y-101141052D02*
X145956160Y-101093591D01*
X141373329Y-94153236D02*
X141359369Y-94087602D01*
X141374346Y-103452073D02*
X143415774Y-103447608D01*
X147297157Y-101827768D02*
X147248454Y-101749758D01*
X150141059Y-103042655D02*
X150141059Y-103042655D01*
X147929799Y-103225591D02*
X147916240Y-103238316D01*
X141044796Y-102904227D02*
X140948700Y-102978083D01*
X147524005Y-100239926D02*
X147549800Y-100253845D01*
X149675281Y-102644761D02*
X149684718Y-102666724D01*
X146373576Y-100149098D02*
X146382017Y-100147693D01*
X138715924Y-97400103D02*
X138902606Y-97418830D01*
X141601543Y-103094239D02*
X141567314Y-103109176D01*
X142375319Y-101737915D02*
X142413563Y-101915915D01*
X146480120Y-100208525D02*
X146482273Y-100216486D01*
X151155147Y-103278049D02*
X151116523Y-103279447D01*
X149032888Y-103151361D02*
X149018369Y-103171521D01*
X146558570Y-101908330D02*
X146593195Y-101944224D01*
X141505409Y-103147766D02*
X141478132Y-103171879D01*
X150105209Y-103226435D02*
X150103133Y-103242033D01*
X147255122Y-103281031D02*
X147255122Y-103274824D01*
X151484852Y-103188919D02*
X151491868Y-103156570D01*
X142314871Y-103050321D02*
X142233973Y-103053293D01*
X141397328Y-94620150D02*
X141401752Y-94567408D01*
X140425887Y-102450355D02*
X140470703Y-102402956D01*
X150963184Y-103127159D02*
X150973966Y-103122336D01*
X146839235Y-99760833D02*
X146877618Y-99764450D01*
X148559020Y-102586801D02*
X148484559Y-102563752D01*
X151085064Y-100732300D02*
X151111702Y-100780027D01*
X150963470Y-100559337D02*
X150995854Y-100599881D01*
X146311615Y-100218277D02*
X146313633Y-100210219D01*
X140824120Y-98770750D02*
X140969681Y-98937981D01*
X148262649Y-103314384D02*
X148296708Y-103217341D01*
X139664380Y-102938037D02*
X139702113Y-102931031D01*
X151276150Y-101442298D02*
X151284010Y-101557967D01*
X148947987Y-103328630D02*
X148942620Y-103352823D01*
X149140642Y-103047483D02*
X149120610Y-103062355D01*
X149715410Y-102036807D02*
X149702257Y-102061765D01*
X149048466Y-103131907D02*
X149032888Y-103151361D01*
X147255122Y-103452473D02*
X147594239Y-103454157D01*
X147240080Y-94816788D02*
X146845852Y-94822712D01*
X147040583Y-99757236D02*
X147052039Y-99751568D01*
X137759265Y-94773206D02*
X137603290Y-94839293D01*
X141617418Y-102283578D02*
X141592182Y-102322760D01*
X139300243Y-95410607D02*
X139285848Y-95427003D01*
X138984819Y-95063981D02*
X139002286Y-95051657D01*
X139125795Y-95496153D02*
X139101223Y-95494724D01*
X151074715Y-102190958D02*
X151087935Y-102152257D01*
X151116523Y-103279447D02*
X151116523Y-103279447D01*
X151269663Y-102911555D02*
X151268829Y-102958580D01*
X148910000Y-102776896D02*
X148954598Y-102774798D01*
X149204397Y-103452872D02*
X149204397Y-103452872D01*
X148024383Y-102344289D02*
X147985023Y-102319169D01*
X146423153Y-100321698D02*
X146414949Y-100323919D01*
X150968205Y-103028443D02*
X150687101Y-102659522D01*
X141686890Y-102159000D02*
X141664679Y-102201963D01*
X150300252Y-102778175D02*
X150274788Y-102807306D01*
X145717444Y-100921117D02*
X145694970Y-100873428D01*
X139133039Y-95023423D02*
X139158737Y-95027909D01*
X149684718Y-102666724D02*
X149516825Y-102676986D01*
X146327820Y-100180675D02*
X146332810Y-100174279D01*
X142469886Y-102999789D02*
X142457545Y-103026816D01*
X139348627Y-95313626D02*
X139342328Y-95334507D01*
X144859793Y-95023699D02*
X144084464Y-95174909D01*
X139725045Y-94028811D02*
X139632172Y-94051614D01*
X149226985Y-102999032D02*
X149204558Y-103009454D01*
X146475873Y-100272538D02*
X146472207Y-100279894D01*
X147619093Y-103138248D02*
X147650687Y-103137153D01*
X150710140Y-103187756D02*
X150725938Y-103180099D01*
X139999590Y-97908110D02*
X140159922Y-98053186D01*
X138910646Y-95361606D02*
X138903060Y-95341089D01*
X141398161Y-103305819D02*
X141386447Y-103349825D01*
X150449485Y-102652323D02*
X150416816Y-102674701D01*
X150682112Y-103206707D02*
X150695470Y-103196584D01*
X141637692Y-103081901D02*
X141601543Y-103094239D01*
X150887911Y-102386556D02*
X150868384Y-102403821D01*
X142094920Y-100791120D02*
X142180641Y-101039234D01*
X146617504Y-103066285D02*
X146599776Y-103081850D01*
X149025058Y-102670011D02*
X148945325Y-102662117D01*
X146446576Y-99837676D02*
X146482432Y-99820502D01*
X142496492Y-102900647D02*
X142480441Y-102969618D01*
X149888667Y-101871070D02*
X149888667Y-101871070D01*
X140254866Y-103336084D02*
X140187654Y-103356701D01*
X151159516Y-100880845D02*
X151180422Y-100933930D01*
X139256359Y-94198917D02*
X139159585Y-94250745D01*
X148215440Y-103405745D02*
X148233345Y-103381647D01*
X141604415Y-100203807D02*
X141635883Y-100259768D01*
X145065481Y-101510428D02*
X145215080Y-101540631D01*
X151289475Y-101678211D02*
X151294260Y-101928411D01*
X139337615Y-95164010D02*
X139345581Y-95184669D01*
X139128697Y-102973495D02*
X139219702Y-102964143D01*
X151215553Y-101045438D02*
X151215553Y-101045438D01*
X146034007Y-103452683D02*
X146145937Y-103451951D01*
X148971269Y-103258318D02*
X148962330Y-103281333D01*
X148749128Y-102796207D02*
X148786818Y-102789586D01*
X146463073Y-100293534D02*
X146457658Y-100299703D01*
X139213075Y-95046279D02*
X139238724Y-95059133D01*
X151090618Y-102129416D02*
X151080494Y-102147393D01*
X146344405Y-100163117D02*
X146350976Y-100158479D01*
X141399415Y-94340411D02*
X141393234Y-94279637D01*
X140300009Y-93994717D02*
X140200330Y-93989150D01*
X150114522Y-103140528D02*
X150111972Y-103156165D01*
X151286543Y-102439568D02*
X151269663Y-102911555D01*
X147722757Y-103023877D02*
X147722453Y-102989982D01*
X150824313Y-100415215D02*
X150860275Y-100448532D01*
X141376598Y-99924036D02*
X141419197Y-99963015D01*
X139075869Y-95490539D02*
X139049803Y-95483446D01*
X141135517Y-102828043D02*
X141044796Y-102904227D01*
X149505936Y-103138429D02*
X149517644Y-103137874D01*
X150250854Y-102837650D02*
X150228481Y-102869163D01*
X141216842Y-100864938D02*
X141247674Y-100710047D01*
X150385582Y-100147035D02*
X150478898Y-100186860D01*
X149888667Y-101871070D02*
X149864374Y-101883026D01*
X146483921Y-100240903D02*
X146482954Y-100249027D01*
X150478898Y-100186860D02*
X150570973Y-100234337D01*
X148233345Y-103381647D02*
X148248410Y-103351411D01*
X140329556Y-98223058D02*
X140511292Y-98419727D01*
X141571085Y-100150184D02*
X141604415Y-100203807D01*
X142457545Y-103026816D02*
X142457545Y-103026816D01*
X142457545Y-103026816D02*
X142424764Y-103035462D01*
X140720152Y-102084517D02*
X140795366Y-101966295D01*
X149385485Y-103223560D02*
X149394289Y-103208637D01*
X136911502Y-95404801D02*
X136898194Y-95437034D01*
X149769284Y-103032679D02*
X149771350Y-103004818D01*
X151180422Y-100933930D02*
X151199146Y-100988795D01*
X141378443Y-103398500D02*
X141374346Y-103452073D01*
X150973966Y-103122336D02*
X150982951Y-103116719D01*
X151723655Y-101698641D02*
X151799335Y-101315389D01*
X141824529Y-101793375D02*
X141806128Y-101854409D01*
X150651730Y-103246076D02*
X150660059Y-103231330D01*
X145578903Y-100540878D02*
X145566836Y-100487446D01*
X147579945Y-102367528D02*
X147559707Y-102319869D01*
X141693219Y-100377921D02*
X141743067Y-100503071D01*
X142480441Y-102969618D02*
X142469886Y-102999789D01*
X150830056Y-102435635D02*
X150810946Y-102450394D01*
X147027374Y-101466470D02*
X146985833Y-101427873D01*
X150019106Y-103453585D02*
X150833814Y-103451862D01*
X146427486Y-103193986D02*
X146427486Y-103193986D01*
X150751976Y-102491324D02*
X150731257Y-102504200D01*
X137603290Y-94839293D02*
X137455282Y-94911415D01*
X138748910Y-103194182D02*
X138770138Y-103157007D01*
X147063997Y-99746298D02*
X147076475Y-99741440D01*
X151269539Y-103002076D02*
X151273267Y-103078759D01*
X151027004Y-100642224D02*
X151056786Y-100686365D01*
X148613901Y-102836720D02*
X148645477Y-102824332D01*
X150734290Y-102621112D02*
X150777560Y-102584712D01*
X151651722Y-102106152D02*
X151723655Y-101698641D01*
X147131992Y-99726336D02*
X147147371Y-99723697D01*
X146439907Y-100161282D02*
X146448529Y-100166715D01*
X148826160Y-102784212D02*
X148867204Y-102780008D01*
X138739565Y-94435791D02*
X138581857Y-94491027D01*
X137086609Y-96519779D02*
X137141569Y-96669704D01*
X140847151Y-103048963D02*
X140740071Y-103116221D01*
X149819653Y-101912395D02*
X149799196Y-101929604D01*
X145609564Y-100225138D02*
X145628126Y-100205296D01*
X144511377Y-101339997D02*
X144604429Y-101376075D01*
X150121995Y-103105460D02*
X150117820Y-103123643D01*
X151470003Y-96062103D02*
X151239932Y-95866369D01*
X150760186Y-103167812D02*
X150796753Y-103158737D01*
X147662130Y-102616599D02*
X147648278Y-102565333D01*
X136898194Y-95437034D02*
X136888383Y-95474610D01*
X149759929Y-103100200D02*
X149763613Y-103080688D01*
X141386447Y-103349825D02*
X141378443Y-103398500D01*
X143414167Y-102019944D02*
X143414167Y-100765464D01*
X152152339Y-97039400D02*
X152020240Y-96764940D01*
X151503935Y-103084251D02*
X151503935Y-103084251D01*
X139845762Y-97785831D02*
X139999590Y-97908110D01*
X141535895Y-100099097D02*
X141571085Y-100150184D01*
X146693235Y-99762316D02*
X146728867Y-99759406D01*
X147711990Y-103108301D02*
X147717742Y-103083611D01*
X149666728Y-102621591D02*
X149675281Y-102644761D01*
X141374346Y-103452073D02*
X141374346Y-103452073D01*
X146581355Y-103097005D02*
X146562176Y-103111778D01*
X137080988Y-95176061D02*
X137031653Y-95228795D01*
X149755624Y-103116295D02*
X149759929Y-103100200D01*
X145553226Y-100333645D02*
X145555657Y-100317628D01*
X150096662Y-103259407D02*
X150093097Y-103263784D01*
X137455282Y-94911415D02*
X137317433Y-94990778D01*
X148867204Y-102780008D02*
X148910000Y-102776896D01*
X146682795Y-102999348D02*
X146667184Y-103016841D01*
X139977035Y-103407453D02*
X139903801Y-103420402D01*
X138731313Y-103235836D02*
X138748910Y-103194182D01*
X141743067Y-100503071D02*
X141785406Y-100633645D01*
X151273711Y-103192839D02*
X151271694Y-103203585D01*
X147253992Y-99971336D02*
X147252535Y-99990885D01*
X139737652Y-102922171D02*
X139770752Y-102911192D01*
X146682414Y-102056149D02*
X146707531Y-102093180D01*
X140990518Y-101584215D02*
X141045555Y-101448212D01*
X141641553Y-102243401D02*
X141617418Y-102283578D01*
X142509618Y-102639119D02*
X142510476Y-102733795D01*
X148330331Y-103135244D02*
X148348331Y-103098089D01*
X147515551Y-102226667D02*
X147401120Y-102008906D01*
X141748958Y-102018321D02*
X141728936Y-102067443D01*
X146400155Y-100147848D02*
X146409820Y-100149535D01*
X150709749Y-102516866D02*
X150687298Y-102529427D01*
X148962330Y-103281333D02*
X148954564Y-103304786D01*
X142482910Y-102329314D02*
X142495231Y-102435276D01*
X150907887Y-102368247D02*
X150907887Y-102368247D01*
X144161627Y-101186837D02*
X144245564Y-101226123D01*
X147818261Y-100331037D02*
X147891386Y-100337362D01*
X137199300Y-96814678D02*
X137258620Y-96951931D01*
X147985023Y-102319169D02*
X147985023Y-102768299D01*
X140002102Y-102786370D02*
X140063131Y-102747824D01*
X152020240Y-96764940D02*
X151861553Y-96510897D01*
X151013593Y-102249576D02*
X151001414Y-102265579D01*
X139818182Y-94011227D02*
X139725045Y-94028811D01*
X144604429Y-101376075D02*
X144604429Y-101376075D01*
X138945761Y-95417662D02*
X138931951Y-95400061D01*
X147446638Y-100192893D02*
X147498500Y-100225117D01*
X148634477Y-102607032D02*
X148559020Y-102586801D01*
X149679446Y-102114385D02*
X149669761Y-102141842D01*
X146412306Y-103447919D02*
X146412306Y-103447919D01*
X147371619Y-103147780D02*
X147387871Y-103144395D01*
X150108604Y-103183883D02*
X150105209Y-103226435D01*
X141140881Y-101164130D02*
X141181260Y-101016349D01*
X146065228Y-103297941D02*
X146056746Y-103313641D01*
X146406373Y-100325280D02*
X146397450Y-100325720D01*
X147273487Y-103210914D02*
X147281806Y-103198771D01*
X146166519Y-103228168D02*
X146151375Y-103232554D01*
X139334271Y-95354800D02*
X139324524Y-95374351D01*
X140639780Y-102197922D02*
X140639780Y-102197922D01*
X146542171Y-103126197D02*
X146521277Y-103140291D01*
X147302282Y-103178529D02*
X147314257Y-103170269D01*
X146310242Y-100226477D02*
X146311615Y-100218277D01*
X141567314Y-103109176D02*
X141535203Y-103126941D01*
X151477133Y-103218850D02*
X151484852Y-103188919D01*
X141205941Y-93885808D02*
X141161622Y-93890257D01*
X142588412Y-95326622D02*
X142449682Y-95299286D01*
X151261139Y-103231349D02*
X151255877Y-103239141D01*
X142005175Y-100560522D02*
X142094920Y-100791120D01*
X150731257Y-102504200D02*
X150709749Y-102516866D01*
X151459447Y-103271833D02*
X151468676Y-103246458D01*
X141879176Y-101178722D02*
X141883602Y-101312824D01*
X146141472Y-101698416D02*
X146249121Y-101730885D01*
X148554912Y-102866483D02*
X148583729Y-102850744D01*
X151048365Y-102199754D02*
X151037068Y-102216655D01*
X146625305Y-101981641D02*
X146655025Y-102018959D01*
X149652300Y-103143667D02*
X149667704Y-103143084D01*
X151252204Y-101228698D02*
X151265635Y-101332207D01*
X149775511Y-102803660D02*
X149774724Y-102731278D01*
X142506302Y-102821506D02*
X142496492Y-102900647D01*
X141383298Y-94720845D02*
X141391138Y-94671294D01*
X143415774Y-103447608D02*
X143415774Y-103447608D01*
X146438336Y-100314902D02*
X146430957Y-100318672D01*
X150990210Y-103453038D02*
X151121378Y-103452613D01*
X147966426Y-103152869D02*
X147959623Y-103174609D01*
X139062372Y-95026734D02*
X139084812Y-95023004D01*
X136878664Y-95564402D02*
X136881163Y-95671408D01*
X138702087Y-103452506D02*
X138702733Y-103390302D01*
X143415774Y-103447608D02*
X143414167Y-102019944D01*
X147327448Y-100118491D02*
X147327448Y-100118510D01*
X147703787Y-103128776D02*
X147703787Y-103128776D01*
X141508936Y-102436969D02*
X141446229Y-102512971D01*
X150990014Y-102359942D02*
X151010200Y-102328374D01*
X147650687Y-103137153D02*
X147679160Y-103134209D01*
X147891386Y-100337362D02*
X147967059Y-100338873D01*
X147246826Y-99841909D02*
X147250121Y-99864931D01*
X148429410Y-102973606D02*
X148452198Y-102948132D01*
X144759535Y-101429616D02*
X144913426Y-101473911D01*
X147360255Y-100138304D02*
X147390769Y-100157311D01*
X151249623Y-103246216D02*
X151242303Y-103252582D01*
X142424764Y-103035462D02*
X142389925Y-103042108D01*
X146309531Y-100234756D02*
X146310242Y-100226477D01*
X149641629Y-102518878D02*
X149652329Y-102572037D01*
X151503935Y-103084251D02*
X151579746Y-102560498D01*
X150274788Y-102807306D02*
X150250854Y-102837650D01*
X137488174Y-97368317D02*
X138049338Y-97376665D01*
X149403290Y-103195484D02*
X149412497Y-103183999D01*
X146457658Y-100299703D02*
X146451713Y-100305359D01*
X150638948Y-102554648D02*
X150612739Y-102567517D01*
X149684718Y-102666724D02*
X149684718Y-102666724D01*
X146388207Y-100325183D02*
X146378669Y-100323609D01*
X139903801Y-103420402D02*
X139829037Y-103431232D01*
X151268975Y-103213580D02*
X151265481Y-103222832D01*
X136894699Y-95792858D02*
X136918092Y-95925979D01*
X141401752Y-94567408D02*
X141404290Y-94513067D01*
X138892033Y-95276408D02*
X138892117Y-95254365D01*
X147981776Y-103038372D02*
X147976186Y-103101413D01*
X147404705Y-103141746D02*
X147439757Y-103138334D01*
X151275723Y-103435995D02*
X151296948Y-103430172D01*
X149101292Y-103078297D02*
X149082731Y-103095292D01*
X145669871Y-100168621D02*
X145692847Y-100151675D01*
X147633229Y-100290080D02*
X147664489Y-100300261D01*
X141847455Y-100904772D02*
X141867119Y-101042181D01*
X139911931Y-93998664D02*
X139818182Y-94011227D01*
X139546418Y-97601657D02*
X139695638Y-97684346D01*
X149206343Y-102776799D02*
X149321388Y-102781976D01*
X148527400Y-102884013D02*
X148554912Y-102866483D01*
X149431558Y-103165612D02*
X149441429Y-103158502D01*
X137317433Y-94990778D02*
X137191937Y-95078591D01*
X147237385Y-99794114D02*
X147242594Y-99818304D01*
X139829037Y-103431232D02*
X139752734Y-103439862D01*
X146247523Y-103217214D02*
X146214393Y-103219868D01*
X142868255Y-95351227D02*
X142727264Y-95343766D01*
X149634737Y-102462931D02*
X149641629Y-102518878D01*
X147255122Y-103281031D02*
X147255122Y-103281031D01*
X142449682Y-95299286D02*
X142309058Y-95261253D01*
X150922136Y-102354643D02*
X150907887Y-102368247D01*
X148981361Y-103235784D02*
X148971269Y-103258318D01*
X139239498Y-97484658D02*
X139395305Y-97535761D01*
X151449411Y-103295069D02*
X151459447Y-103271833D01*
X138910055Y-95168284D02*
X138918714Y-95148129D01*
X146390882Y-100147256D02*
X146400155Y-100147848D01*
X149004929Y-103192341D02*
X148992587Y-103213777D01*
X139041108Y-95032865D02*
X139062372Y-95026734D01*
X151233846Y-103258249D02*
X151224178Y-103263225D01*
X146651142Y-103033808D02*
X146634604Y-103050280D01*
X150188533Y-102935511D02*
X150171019Y-102970255D01*
X151255877Y-103239141D02*
X151249623Y-103246216D01*
X150834177Y-103151894D02*
X150870994Y-103146297D01*
X150083088Y-103270701D02*
X150076387Y-103273338D01*
X147086265Y-103452473D02*
X147086265Y-103452473D01*
X146521394Y-101875438D02*
X146558570Y-101908330D01*
X146853166Y-102514212D02*
X146853608Y-102578089D01*
X148192683Y-103424357D02*
X148215440Y-103405745D01*
X149637996Y-102286520D02*
X149632812Y-102345936D01*
X140969681Y-98937981D02*
X141108386Y-99102402D01*
X150416816Y-102674701D02*
X150385529Y-102698521D01*
X150058952Y-103277205D02*
X150047962Y-103278532D01*
X138897656Y-95210570D02*
X138903020Y-95189154D01*
X142451040Y-102117320D02*
X142482910Y-102329314D01*
X146151375Y-103232554D02*
X146136776Y-103237945D01*
X141506953Y-94892869D02*
X141363142Y-94815182D01*
X149445226Y-102788721D02*
X149445226Y-102959257D01*
X149669761Y-102141842D02*
X149661205Y-102169928D01*
X146342569Y-100307897D02*
X146335727Y-100302324D01*
X138928955Y-95128858D02*
X138940730Y-95110639D01*
X136881922Y-95517181D02*
X136878664Y-95564402D01*
X146756206Y-102901694D02*
X146727699Y-102943439D01*
X146182125Y-103224669D02*
X146166519Y-103228168D01*
X148933956Y-103427040D02*
X148933610Y-103452177D01*
X141404290Y-94513067D02*
X141404826Y-94457123D01*
X148391668Y-94876391D02*
X148014384Y-94843137D01*
X149759853Y-102099266D02*
X149779074Y-102050876D01*
X137921012Y-94711946D02*
X137759265Y-94773206D01*
X140865717Y-93970111D02*
X140835269Y-93985178D01*
X147633118Y-102514797D02*
X147616666Y-102464988D01*
X144084464Y-95174909D02*
X144084464Y-95174909D01*
X147242594Y-99818304D02*
X147246826Y-99841909D01*
X147498500Y-100225117D02*
X147524005Y-100239926D01*
X150555482Y-102594294D02*
X150518848Y-102612074D01*
X141332154Y-99888575D02*
X141332154Y-99888575D01*
X150833814Y-103451862D02*
X150833814Y-103451862D01*
X149729746Y-102012885D02*
X149715410Y-102036807D01*
X146622921Y-99773660D02*
X146657963Y-99767043D01*
X138581857Y-94491027D02*
X137921012Y-94711946D01*
X141431921Y-103230892D02*
X141413385Y-103266251D01*
X146712986Y-102962676D02*
X146698040Y-102981303D01*
X137434306Y-97289656D02*
X137488174Y-97368317D01*
X149801591Y-102003686D02*
X149827380Y-101957871D01*
X150868384Y-102403821D02*
X150849151Y-102420146D01*
X146707531Y-102093180D02*
X146730435Y-102130022D01*
X146553003Y-99792859D02*
X146587978Y-99782241D01*
X146324519Y-100289573D02*
X146320120Y-100282521D01*
X138961735Y-95433954D02*
X138945761Y-95417662D01*
X140930656Y-93943188D02*
X140897495Y-93956104D01*
X139159585Y-94250745D02*
X139159585Y-94250745D01*
X139938221Y-102824166D02*
X140002102Y-102786370D01*
X143414167Y-100765464D02*
X143414167Y-100765464D01*
X140447655Y-103264271D02*
X140384857Y-103289788D01*
X149779991Y-101948359D02*
X149762023Y-101968559D01*
X141687294Y-94991998D02*
X141506953Y-94892869D01*
X141498848Y-100050742D02*
X141535895Y-100099097D01*
X150088615Y-103267532D02*
X150083088Y-103270701D01*
X140063131Y-102747824D02*
X140121491Y-102708449D01*
X150518848Y-102612074D02*
X150483506Y-102631432D01*
X152215351Y-99573508D02*
X152215351Y-99573508D01*
X140187654Y-103356701D02*
X140118952Y-103375522D01*
X145956160Y-101093591D02*
X145871196Y-101064074D01*
X149421917Y-103174077D02*
X149431558Y-103165612D01*
X147971899Y-103128518D02*
X147966426Y-103152869D01*
X147266568Y-103224510D02*
X147273487Y-103210914D01*
X140556912Y-102303685D02*
X140598672Y-102251655D01*
X148954598Y-102774798D02*
X149001046Y-102773637D01*
X150949746Y-102326337D02*
X150936090Y-102340670D01*
X151677676Y-96276782D02*
X151470003Y-96062103D01*
X150207697Y-102901799D02*
X150188533Y-102935511D01*
X143414167Y-100765464D02*
X143524109Y-100835642D01*
X139252898Y-95455555D02*
X139234483Y-95467402D01*
X150742681Y-103173492D02*
X150760186Y-103167812D01*
X146122804Y-103244458D02*
X146109541Y-103252209D01*
X139261637Y-95073567D02*
X139281885Y-95089425D01*
X142510476Y-102733795D02*
X142506302Y-102821506D01*
X146730435Y-102130022D02*
X146751184Y-102166645D01*
X147717742Y-103083611D02*
X147721259Y-103055278D01*
X140159922Y-98053186D02*
X140329556Y-98223058D01*
X138892117Y-95254365D02*
X138894006Y-95232363D01*
X150103133Y-103242033D02*
X150101552Y-103248579D01*
X150123577Y-95263082D02*
X149802450Y-95154720D01*
X149864374Y-101883026D02*
X149841374Y-101896835D01*
X143646205Y-100910224D02*
X143779927Y-100987888D01*
X147985023Y-102319169D02*
X147985023Y-102319169D01*
X147721259Y-103055278D02*
X147722757Y-103023877D01*
X146562176Y-103111778D02*
X146542171Y-103126197D01*
X147250432Y-100009858D02*
X147247723Y-100028258D01*
X139000000Y-103000000D02*
X139041534Y-102989149D01*
X149368435Y-103259139D02*
X149376869Y-103240360D01*
X147281806Y-103198771D02*
X147291435Y-103188003D01*
X147984346Y-102962601D02*
X147981776Y-103038372D01*
X146074831Y-103284065D02*
X146065228Y-103297941D01*
X139351299Y-95205825D02*
X139354840Y-95227322D01*
X145717088Y-100135580D02*
X145768953Y-100105718D01*
X150117820Y-103123643D02*
X150114522Y-103140528D01*
X149120610Y-103062355D02*
X149101292Y-103078297D01*
X138886500Y-103047809D02*
X138922240Y-103029065D01*
X150895545Y-100483660D02*
X150929989Y-100520595D01*
X147254065Y-99909231D02*
X147254798Y-99930511D01*
X149750660Y-103128654D02*
X149750660Y-103128654D01*
X146482432Y-99820502D02*
X146517865Y-99805588D01*
X147327270Y-103163144D02*
X147341228Y-103157075D01*
X148678507Y-102813502D02*
X148713041Y-102804153D01*
X139583297Y-102947540D02*
X139664380Y-102938037D01*
X149001046Y-102773637D02*
X149099695Y-102773812D01*
X150907887Y-102368247D02*
X150887911Y-102386556D01*
X149541953Y-103138219D02*
X149567508Y-103139805D01*
X147248454Y-101749758D02*
X147201592Y-101679492D01*
X146727699Y-102943439D02*
X146727699Y-102943439D01*
X139312606Y-102958982D02*
X139496346Y-102952792D01*
X138770138Y-103157007D02*
X138794753Y-103124046D01*
X139539216Y-94079830D02*
X139445826Y-94113655D01*
X138513351Y-97388167D02*
X138715924Y-97400103D01*
X147197420Y-99718688D02*
X147215473Y-99718024D01*
X139345581Y-95184669D02*
X139351299Y-95205825D01*
X146377771Y-101202850D02*
X146252303Y-101176217D01*
X142504335Y-102539078D02*
X142509618Y-102639119D01*
X138922240Y-103029065D02*
X138960154Y-103013217D01*
X141708971Y-99953499D02*
X141812484Y-100143744D01*
X144331878Y-101264856D02*
X144420505Y-101302869D01*
X146410163Y-99857181D02*
X146410163Y-99857181D01*
X148583729Y-102850744D02*
X148613901Y-102836720D01*
X151353612Y-103405614D02*
X151370279Y-103394756D01*
X147734768Y-100317673D02*
X147774647Y-100324870D01*
X147664489Y-100300261D02*
X147698192Y-100309464D01*
X152308445Y-99142392D02*
X152365180Y-98735127D01*
X146335727Y-100302324D02*
X146329716Y-100296194D01*
X149779074Y-102050876D02*
X149801591Y-102003686D01*
X142164524Y-95212015D02*
X142014063Y-95151065D01*
X146838312Y-102698284D02*
X146823517Y-102754120D01*
X142233973Y-103053293D02*
X142148822Y-103052865D01*
X140865469Y-101843405D02*
X140930504Y-101715996D01*
X151037068Y-102216655D02*
X151025478Y-102233265D01*
X136950161Y-96068003D02*
X136989724Y-96216157D01*
X139023095Y-95473289D02*
X139023095Y-95473289D01*
X149714104Y-102353057D02*
X149716454Y-102301306D01*
X150047962Y-103278532D02*
X150020795Y-103280209D01*
X150988940Y-102281265D02*
X150976171Y-102296626D01*
X148501144Y-102903413D02*
X148527400Y-102884013D01*
X152386953Y-98351223D02*
X152375159Y-97990189D01*
X145781344Y-101030073D02*
X145761075Y-101000481D01*
X149653764Y-102198541D02*
X149647424Y-102227578D01*
X140384857Y-103289788D02*
X140320597Y-103313753D01*
X143924747Y-101067309D02*
X144080135Y-101147162D01*
X141883760Y-103049574D02*
X141797506Y-103053939D01*
X150171019Y-102970255D02*
X150155185Y-103005985D01*
X146688609Y-101269185D02*
X146593853Y-101245571D01*
X138968707Y-95078032D02*
X138984819Y-95063981D01*
X139049803Y-95483446D02*
X139023095Y-95473289D01*
X151116523Y-103279447D02*
X150641383Y-103281049D01*
X148348331Y-103098089D02*
X148367189Y-103063425D01*
X147951347Y-103193880D02*
X147941454Y-103210827D01*
X146439701Y-101817931D02*
X146481745Y-101845366D01*
X146350261Y-100312850D02*
X146342569Y-100307897D01*
X141820210Y-100768069D02*
X141847455Y-100904772D01*
X139159585Y-94250745D02*
X139030622Y-94316857D01*
X147959623Y-103174609D02*
X147951347Y-103193880D01*
X141391138Y-94671294D02*
X141397328Y-94620150D01*
X150725938Y-103180099D02*
X150742681Y-103173492D01*
X150291160Y-100114416D02*
X150385582Y-100147035D01*
X147255122Y-103274824D02*
X147255122Y-103274824D01*
X141419197Y-99963015D02*
X141459948Y-100005316D01*
X146634604Y-103050280D02*
X146617504Y-103066285D01*
X147692000Y-103131843D02*
X147703787Y-103128776D01*
X141324398Y-100058643D02*
X141332154Y-99888575D01*
X139313158Y-95393005D02*
X139300243Y-95410607D01*
X139324524Y-95374351D02*
X139313158Y-95393005D01*
X139270043Y-95442037D02*
X139252898Y-95455555D01*
X141453570Y-103199511D02*
X141431921Y-103230892D01*
X146853608Y-102578089D02*
X146848500Y-102639527D01*
X146448768Y-94840714D02*
X146050225Y-94870305D01*
X151199146Y-100988795D02*
X151215553Y-101045438D01*
X146252303Y-101176217D02*
X146112456Y-101141052D01*
X149461893Y-103147926D02*
X149472502Y-103144251D01*
X146338344Y-100168405D02*
X146344405Y-100163117D01*
X151265635Y-101332207D02*
X151276150Y-101442298D01*
X146348737Y-101770235D02*
X146439701Y-101817931D01*
X141635883Y-100259768D02*
X141693219Y-100377921D01*
X149249898Y-102989764D02*
X149226985Y-102999032D01*
X139185430Y-95035472D02*
X139213075Y-95046279D01*
X147257294Y-103256385D02*
X147261140Y-103239641D01*
X151060562Y-102227608D02*
X151074715Y-102190958D01*
X149667704Y-103143084D02*
X149683492Y-103141872D01*
X146034007Y-103452683D02*
X146034007Y-103452683D01*
X141446229Y-102512971D02*
X141446229Y-102512971D01*
X147247723Y-100028258D02*
X147244449Y-100046086D01*
X149632812Y-102345936D02*
X149631761Y-102405012D01*
X151224178Y-103263225D02*
X151213228Y-103267520D01*
X149733250Y-103133423D02*
X149750660Y-103128654D01*
X138889884Y-94378136D02*
X138739565Y-94435791D01*
X149441429Y-103158502D02*
X149451538Y-103152641D01*
X141295267Y-100390416D02*
X141312118Y-100225973D01*
X138902606Y-97418830D02*
X139076198Y-97446348D01*
X146727699Y-102943439D02*
X146712986Y-102962676D01*
X149773386Y-102660465D02*
X149754641Y-102610478D01*
X149745279Y-101990101D02*
X149729746Y-102012885D01*
X139000357Y-95461936D02*
X138979919Y-95448768D01*
X149775425Y-102875071D02*
X149775511Y-102803660D01*
X140930504Y-101715996D02*
X140990518Y-101584215D01*
X151136564Y-100829543D02*
X151159516Y-100880845D01*
X151426776Y-103335495D02*
X151438532Y-103316259D01*
X147439757Y-103138334D02*
X147476051Y-103136906D01*
X146824680Y-102345421D02*
X146833743Y-102380099D01*
X151121378Y-103452613D02*
X151178200Y-103449945D01*
X146599776Y-103081850D02*
X146581355Y-103097005D01*
X147616666Y-102464988D02*
X147598937Y-102415900D01*
X147163388Y-99721536D02*
X147180065Y-99719862D01*
X151294260Y-101928411D02*
X151292588Y-102184872D01*
X146698040Y-102981303D02*
X146682795Y-102999348D01*
X149762023Y-101968559D02*
X149745279Y-101990101D01*
X141332154Y-99888575D02*
X141376598Y-99924036D01*
X150660059Y-103231330D02*
X150670247Y-103218248D01*
X141220943Y-102750178D02*
X141135517Y-102828043D01*
X139149515Y-95494983D02*
X139125795Y-95496153D01*
X141869470Y-101567416D02*
X141850863Y-101684761D01*
X139752734Y-103439862D02*
X139674880Y-103446210D01*
X151882553Y-100933824D02*
X151977101Y-100531371D01*
X147976186Y-103101413D02*
X147971899Y-103128518D01*
X151468676Y-103246458D02*
X151477133Y-103218850D01*
X147180065Y-99719862D02*
X147197420Y-99718688D01*
X149631761Y-102405012D02*
X149634737Y-102462931D01*
X145555657Y-100317628D02*
X145559349Y-100303491D01*
X147223866Y-99743975D02*
X147231156Y-99769338D01*
X139353098Y-95292312D02*
X139348627Y-95313626D01*
X151229555Y-103444653D02*
X151275723Y-103435995D01*
X147215473Y-99718024D02*
X147223866Y-99743975D01*
X146877618Y-99764450D02*
X146917015Y-99769514D01*
X149766718Y-103058075D02*
X149769284Y-103032679D01*
X146999378Y-99783689D02*
X146999378Y-99783689D01*
X146050225Y-94870305D02*
X145651617Y-94910993D01*
X150355652Y-102723737D02*
X150327217Y-102750304D01*
X141911125Y-100345408D02*
X142005175Y-100560522D01*
X149494515Y-103139607D02*
X149505936Y-103138429D01*
X151385894Y-103382408D02*
X151400492Y-103368477D01*
X149018369Y-103171521D02*
X149004929Y-103192341D01*
X147598937Y-102415900D02*
X147579945Y-102367528D01*
X141600301Y-99772639D02*
X141708971Y-99953499D01*
X147862700Y-103265682D02*
X147840086Y-103271678D01*
X150980176Y-103044838D02*
X150968205Y-103028443D01*
X140795366Y-101966295D02*
X140865469Y-101843405D01*
X141850863Y-101684761D02*
X141824529Y-101793375D01*
X148992587Y-103213777D02*
X148981361Y-103235784D01*
X147240653Y-100063343D02*
X147240653Y-100063343D01*
X146481745Y-101845366D02*
X146521394Y-101875438D01*
X140331918Y-102541078D02*
X140379687Y-102496369D01*
X150989956Y-103110185D02*
X150994799Y-103102611D01*
X147688065Y-102731064D02*
X147674369Y-102667344D01*
X150943167Y-102421924D02*
X150967746Y-102391022D01*
X144080135Y-101147162D02*
X144161627Y-101186837D01*
X142389925Y-103042108D02*
X142314871Y-103050321D01*
X148345307Y-102511557D02*
X148282683Y-102484080D01*
X146786455Y-102239113D02*
X146801096Y-102274899D01*
X149296999Y-102974762D02*
X149273252Y-102981668D01*
X140598672Y-102251655D02*
X140639780Y-102197922D01*
X146412306Y-103447919D02*
X146412306Y-103447919D01*
X146192811Y-99947558D02*
X146252145Y-99926780D01*
X137134507Y-95126043D02*
X137080988Y-95176061D01*
X149204558Y-103009454D02*
X149182661Y-103021015D01*
X137031653Y-95228795D02*
X136986778Y-95284395D01*
X150155185Y-103005985D02*
X150141059Y-103042655D01*
X137191937Y-95078591D02*
X137134507Y-95126043D01*
X150994524Y-103072419D02*
X150988888Y-103059456D01*
X147387871Y-103144395D02*
X147404705Y-103141746D01*
X139030622Y-94316857D02*
X138889884Y-94378136D01*
X148068097Y-102370987D02*
X148024383Y-102344289D01*
X149273252Y-102981668D02*
X149249898Y-102989764D01*
X147069462Y-101510460D02*
X147027374Y-101466470D01*
X150141059Y-103042655D02*
X150133487Y-103065014D01*
X148014384Y-94843137D02*
X147630056Y-94823432D01*
X141181260Y-101016349D02*
X141216842Y-100864938D01*
X151028534Y-102296004D02*
X151045245Y-102262519D01*
X149218241Y-100103912D02*
X149413931Y-100071682D01*
X145883324Y-100053716D02*
X145944180Y-100030667D01*
X137488174Y-97368317D02*
X137488174Y-97368317D01*
X145871196Y-101064074D02*
X145781344Y-101030073D01*
X138702087Y-103452506D02*
X138702087Y-103452506D01*
X147076475Y-99741440D02*
X147089494Y-99737004D01*
X146085472Y-103271896D02*
X146074831Y-103284065D01*
X141708278Y-102114248D02*
X141686890Y-102159000D01*
X150687101Y-102659522D02*
X150687101Y-102659522D01*
X148075152Y-103453812D02*
X148124553Y-103447737D01*
X146483606Y-100224574D02*
X146484147Y-100232733D01*
X150641383Y-103281049D02*
X150641383Y-103281049D01*
X148115975Y-102398789D02*
X148068097Y-102370987D01*
X146049468Y-103331281D02*
X146043475Y-103350978D01*
X139023095Y-95473289D02*
X139000357Y-95461936D01*
X140177367Y-102668167D02*
X140230941Y-102626897D01*
X147254798Y-99930511D02*
X147254760Y-99951212D01*
X148124553Y-103447737D02*
X148163058Y-103438137D01*
X146903356Y-101364976D02*
X146861902Y-101339736D01*
X147708208Y-103119101D02*
X147711990Y-103108301D01*
X150976171Y-102296626D02*
X150963107Y-102311653D01*
X138903060Y-95341089D02*
X138897460Y-95319938D01*
X147786846Y-103279836D02*
X147755933Y-103282285D01*
X149376869Y-103240360D02*
X149385485Y-103223560D01*
X139084812Y-95023004D02*
X139108383Y-95021844D01*
X148167827Y-102427222D02*
X148115975Y-102398789D01*
X140639780Y-102197922D02*
X140720152Y-102084517D01*
X138853177Y-103069710D02*
X138886500Y-103047809D01*
X148411140Y-102537769D02*
X148345307Y-102511557D01*
X145648263Y-100186476D02*
X145669871Y-100168621D01*
X146397450Y-100325720D02*
X146388207Y-100325183D01*
X136911502Y-95404801D02*
X136911502Y-95404801D01*
X146845852Y-94822712D02*
X146448768Y-94840714D01*
X150967746Y-102391022D02*
X150990014Y-102359942D01*
X141045555Y-101448212D02*
X141095661Y-101308134D01*
X151438532Y-103316259D02*
X151449411Y-103295069D01*
X140118952Y-103375522D02*
X140048748Y-103392466D01*
X141787460Y-101912068D02*
X141768435Y-101966617D01*
X139702113Y-102931031D02*
X139737652Y-102922171D01*
X149182661Y-103021015D02*
X149161340Y-103033697D01*
X148282683Y-102484080D02*
X148223459Y-102455810D01*
X148411140Y-102537769D02*
X148411140Y-102537769D01*
X146430957Y-100318672D02*
X146423153Y-100321698D01*
X141812484Y-100143744D02*
X141911125Y-100345408D01*
X145650926Y-100767251D02*
X145630246Y-100710846D01*
X146813818Y-102310345D02*
X146824680Y-102345421D01*
X149516825Y-102676986D02*
X149350668Y-102681576D01*
X146521277Y-103140291D02*
X146499427Y-103154089D01*
X147255122Y-103452473D02*
X147255122Y-103452473D01*
X140102657Y-93987822D02*
X140006640Y-93990928D01*
X140740071Y-103116221D02*
X140627381Y-103179210D01*
X151200922Y-103271140D02*
X151187188Y-103274096D01*
X146308698Y-99905095D02*
X146361646Y-99882046D01*
X146801096Y-102274899D02*
X146813818Y-102310345D01*
X146482273Y-100216486D02*
X146483606Y-100224574D01*
X146332810Y-100174279D02*
X146338344Y-100168405D01*
X146361646Y-99882046D02*
X146410163Y-99857181D01*
X151215553Y-101045438D02*
X151235597Y-101132774D01*
X149161340Y-103033697D02*
X149140642Y-103047483D01*
X150327217Y-102750304D02*
X150300252Y-102778175D01*
X150429285Y-95387938D02*
X150123577Y-95263082D01*
X149065087Y-103113202D02*
X149048466Y-103131907D01*
X147147371Y-99723697D02*
X147163388Y-99721536D01*
X144913426Y-101473911D02*
X145065481Y-101510428D01*
X141565751Y-102361209D02*
X141538033Y-102399191D01*
X143524109Y-100835642D02*
X143646205Y-100910224D01*
X146430254Y-100156443D02*
X146439907Y-100161282D01*
X149370155Y-102961350D02*
X149345497Y-102964586D01*
X136946636Y-95343014D02*
X136911502Y-95404801D01*
X146957559Y-99775952D02*
X146999378Y-99783689D01*
X147648278Y-102565333D02*
X147633118Y-102514797D01*
X141342581Y-94020342D02*
X141322846Y-93951451D01*
X148954564Y-103304786D02*
X148947987Y-103328630D01*
X151056786Y-100686365D02*
X151085064Y-100732300D01*
X140006640Y-93990928D02*
X139911931Y-93998664D01*
X141855658Y-95077895D02*
X141687294Y-94991998D01*
X145592679Y-100246059D02*
X145609564Y-100225138D01*
X139395305Y-97535761D02*
X139546418Y-97601657D01*
X149517644Y-103137874D02*
X149541953Y-103138219D01*
X152256456Y-97334767D02*
X152152339Y-97039400D01*
X148012843Y-103457014D02*
X148075152Y-103453812D01*
X149661205Y-102169928D02*
X149653764Y-102198541D01*
X149716454Y-102301306D02*
X149722230Y-102249875D01*
X145739627Y-100963815D02*
X145717444Y-100921117D01*
X146145937Y-103452421D02*
X146145937Y-103452421D01*
X147019096Y-99769729D02*
X147029609Y-99763294D01*
X149395027Y-102959372D02*
X149370155Y-102961350D01*
X148296708Y-103217341D02*
X148296708Y-103217341D01*
X147630056Y-94823432D02*
X147240080Y-94816788D01*
X146819959Y-101318007D02*
X146777268Y-101299319D01*
X138931951Y-95400061D02*
X138920261Y-95381319D01*
X150772060Y-102478134D02*
X150751976Y-102491324D01*
X140048748Y-103392466D02*
X139977035Y-103407453D01*
X139770752Y-102911192D02*
X139801171Y-102897831D01*
X151265481Y-103222832D02*
X151261139Y-103231349D01*
X141403240Y-94399572D02*
X141399415Y-94340411D01*
X147698192Y-100309464D02*
X147734768Y-100317673D01*
X146358817Y-100317121D02*
X146350261Y-100312850D01*
X148710883Y-102624563D02*
X148634477Y-102607032D01*
X146430254Y-100156443D02*
X146430254Y-100156443D01*
X150133487Y-103065014D02*
X150127175Y-103085933D01*
X146448529Y-100166715D02*
X146456149Y-100172684D01*
X151296948Y-103430172D02*
X151316982Y-103423229D01*
X140282397Y-102584561D02*
X140331918Y-102541078D01*
X147255122Y-103274824D02*
X147257294Y-103256385D01*
X146801736Y-99758738D02*
X146839235Y-99760833D01*
X141880375Y-101442912D02*
X141869470Y-101567416D01*
X149445226Y-102788721D02*
X149445226Y-102788721D01*
X149841374Y-101896835D02*
X149819653Y-101912395D01*
X149750660Y-103128654D02*
X149755624Y-103116295D01*
X141486190Y-99599132D02*
X141600301Y-99772639D01*
X146389595Y-103206757D02*
X146375474Y-103209358D01*
X146069104Y-99988204D02*
X146192811Y-99947558D01*
X146655025Y-102018959D02*
X146682414Y-102056149D01*
X149774724Y-102731278D02*
X149773386Y-102660465D01*
X139214868Y-95477423D02*
X139194121Y-95485463D01*
X148942620Y-103352823D02*
X148938480Y-103377318D01*
X145768953Y-100105718D02*
X145824640Y-100078581D01*
X146472207Y-100279894D02*
X146467932Y-100286912D01*
X147674369Y-102667344D02*
X147662130Y-102616599D01*
X150641383Y-103281049D02*
X150645444Y-103262608D01*
X151100449Y-102111191D02*
X151090618Y-102129416D01*
X152365180Y-98735127D02*
X152386953Y-98351223D01*
X140470703Y-102402956D02*
X140514316Y-102354092D01*
X146478904Y-100264903D02*
X146475873Y-100272538D01*
X151213228Y-103267520D02*
X151200922Y-103271140D01*
X141478132Y-103171879D02*
X141453570Y-103199511D01*
X148476093Y-102924760D02*
X148501144Y-102903413D01*
X150870994Y-103146297D02*
X150905743Y-103140964D01*
X145824640Y-100078581D02*
X145883324Y-100053716D01*
X139342328Y-95334507D02*
X139334271Y-95354800D01*
X151370279Y-103394756D02*
X151385894Y-103382408D01*
X150750858Y-100354026D02*
X150787796Y-100383712D01*
X146482954Y-100249027D02*
X146481273Y-100257046D01*
X146375474Y-103209358D02*
X146345489Y-103212780D01*
X148407679Y-103001262D02*
X148429410Y-102973606D01*
X146451713Y-100305359D02*
X146445264Y-100310445D01*
X145761075Y-101000481D02*
X145739627Y-100963815D01*
X146517865Y-99805588D02*
X146553003Y-99792859D01*
X141252065Y-93882688D02*
X141205941Y-93885808D01*
X150687101Y-102659522D02*
X150734290Y-102621112D01*
X138702733Y-103390302D02*
X138707982Y-103333632D01*
X146323390Y-100187531D02*
X146327820Y-100180675D01*
X147356041Y-103151980D02*
X147371619Y-103147780D01*
X141768435Y-101966617D02*
X141748958Y-102018321D01*
X146727699Y-102943439D02*
X146727699Y-102943439D01*
X145552000Y-100351411D02*
X145553226Y-100333645D01*
X139101223Y-95494724D02*
X139075869Y-95490539D01*
X147985023Y-102768299D02*
X147985023Y-102768299D01*
X148645477Y-102824332D02*
X148678507Y-102813502D01*
X140627381Y-103179210D02*
X140509002Y-103237281D01*
X147231156Y-99769338D02*
X147237385Y-99794114D01*
X149622616Y-103143363D02*
X149652300Y-103143667D01*
X138903020Y-95189154D02*
X138910055Y-95168284D01*
X146410163Y-99857181D02*
X146446576Y-99837676D01*
X144245564Y-101226123D02*
X144331878Y-101264856D01*
X146378669Y-100323609D02*
X146368864Y-100320942D01*
X138979919Y-95448768D02*
X138961735Y-95433954D01*
X149119522Y-94985512D02*
X148760513Y-94923686D01*
X144604429Y-101376075D02*
X144759535Y-101429616D01*
X140320597Y-103313753D02*
X140254866Y-103336084D01*
X150905743Y-103140964D02*
X150936960Y-103134913D01*
X146309499Y-100243049D02*
X146309531Y-100234756D01*
X149451538Y-103152641D02*
X149461893Y-103147926D01*
X141883602Y-101312824D02*
X141880375Y-101442912D01*
X147941454Y-103210827D02*
X147929799Y-103225591D01*
X146409820Y-100149535D02*
X146419858Y-100152378D01*
X149716257Y-103137146D02*
X149733250Y-103133423D01*
X146329716Y-100296194D02*
X146324519Y-100289573D01*
X150555482Y-102594294D02*
X150555482Y-102594294D01*
X150968205Y-103028443D02*
X150968205Y-103028443D01*
X149888578Y-103280875D02*
X149360172Y-103280002D01*
X149186621Y-102679562D02*
X149105505Y-102675787D01*
X146593195Y-101944224D02*
X146625305Y-101981641D01*
X151861553Y-96510897D02*
X151677676Y-96276782D01*
X147156312Y-101616501D02*
X147112355Y-101560314D01*
X146833743Y-102380099D02*
X146846701Y-102448134D01*
X149082731Y-103095292D02*
X149065087Y-103113202D01*
X148386955Y-103031176D02*
X148407679Y-103001262D01*
X146484147Y-100232733D02*
X146483921Y-100240903D01*
X150988858Y-95689091D02*
X150718177Y-95529777D01*
X147314257Y-103170269D02*
X147327270Y-103163144D01*
X149702257Y-102061765D02*
X149690273Y-102087659D01*
X145504434Y-101587960D02*
X145776530Y-101627627D01*
X149856413Y-101913607D02*
X149888667Y-101871070D01*
X150663749Y-102541986D02*
X150638948Y-102554648D01*
X150936090Y-102340670D02*
X150922136Y-102354643D01*
X140200330Y-93989150D02*
X140102657Y-93987822D01*
X149754641Y-102610478D02*
X149739476Y-102559758D01*
X146944580Y-101394199D02*
X146903356Y-101364976D01*
X149360172Y-103280002D02*
X149368435Y-103259139D01*
X150570973Y-100234337D02*
X150661672Y-100289910D01*
X146477122Y-100200751D02*
X146480120Y-100208525D01*
X141108386Y-99102402D02*
X141240516Y-99266046D01*
X140379687Y-102496369D02*
X140425887Y-102450355D01*
X148760513Y-94923686D02*
X148391668Y-94876391D01*
X146214393Y-103219868D02*
X146182125Y-103224669D01*
X143493937Y-95294376D02*
X143324226Y-95320579D01*
X140725729Y-94055457D02*
X140614551Y-94034893D01*
X142495231Y-102435276D02*
X142504335Y-102539078D01*
X138894006Y-95232363D02*
X138897656Y-95210570D01*
X146917015Y-99769514D02*
X146957559Y-99775952D01*
X149985858Y-103280904D02*
X149888578Y-103280875D01*
X141806128Y-101854409D02*
X141787460Y-101912068D01*
X150483506Y-102631432D02*
X150449485Y-102652323D01*
X150886154Y-102484446D02*
X150916046Y-102452961D01*
X151316982Y-103423229D02*
X151335858Y-103415074D01*
X151001414Y-102265579D02*
X150988940Y-102281265D01*
X147515551Y-102226667D02*
X147515551Y-102226667D01*
X147774647Y-100324870D02*
X147818261Y-100331037D01*
X150228481Y-102869163D02*
X150207697Y-102901799D01*
X151178200Y-103449945D02*
X151229555Y-103444653D01*
X147755933Y-103282285D02*
X147684800Y-103284635D01*
X139213075Y-95046279D02*
X139213075Y-95046279D01*
X149321388Y-102781976D02*
X149445226Y-102788721D01*
X142262622Y-101306896D02*
X142341148Y-101596140D01*
X145611052Y-100653621D02*
X145593790Y-100596617D01*
X139108383Y-95021844D02*
X139133039Y-95023423D01*
X150810946Y-102450394D02*
X150791666Y-102464525D01*
X144420505Y-101302869D02*
X144511377Y-101339997D01*
X139496346Y-102952792D02*
X139583297Y-102947540D01*
X149420066Y-102958668D02*
X149395027Y-102959372D01*
X151276206Y-103142161D02*
X151275928Y-103169055D01*
X136888383Y-95474610D02*
X136881922Y-95517181D01*
X141322846Y-93951451D02*
X141300047Y-93880927D01*
X148292525Y-100305687D02*
X148467028Y-100271787D01*
X141538033Y-102399191D02*
X141508936Y-102436969D01*
X147327448Y-100118491D02*
X147327448Y-100118491D01*
X147254760Y-99951212D02*
X147253992Y-99971336D01*
X150127175Y-103085933D02*
X150121995Y-103105460D01*
X141359369Y-94087602D02*
X141342581Y-94020342D01*
X151235597Y-101132774D02*
X151252204Y-101228698D01*
X149204397Y-103452872D02*
X150019106Y-103453585D01*
X139234483Y-95467402D02*
X139214868Y-95477423D01*
X140751382Y-94036446D02*
X140725729Y-94055457D01*
X140806099Y-94001277D02*
X140778154Y-94018376D01*
X146109541Y-103252209D02*
X146097069Y-103261316D01*
X141247674Y-100710047D02*
X141273801Y-100551824D01*
X150612739Y-102567517D02*
X150555482Y-102594294D01*
X146593195Y-101944224D02*
X146593195Y-101944224D01*
X140948700Y-102978083D02*
X140847151Y-103048963D01*
X141078187Y-93903022D02*
X141038966Y-93911279D01*
X146145937Y-103451951D02*
X146145937Y-103451951D01*
X147703787Y-103128776D02*
X147708208Y-103119101D01*
X139285848Y-95427003D02*
X139270043Y-95442037D01*
X146252145Y-99926780D02*
X146308698Y-99905095D01*
X151335858Y-103415074D02*
X151353612Y-103405614D01*
X138893799Y-95298321D02*
X138892033Y-95276408D01*
X146846701Y-102448134D02*
X146853166Y-102514212D01*
X141797506Y-103053939D02*
X141714953Y-103064102D01*
X149567508Y-103139805D02*
X149594373Y-103141798D01*
X149082731Y-103095292D02*
X149082731Y-103095292D01*
X142341148Y-101596140D02*
X142341148Y-101596140D01*
X145552940Y-100391670D02*
X145552000Y-100351411D01*
X146145937Y-103452421D02*
X147086265Y-103452473D01*
X147712895Y-102879065D02*
X147701484Y-102803168D01*
X139327332Y-95144000D02*
X139337615Y-95164010D01*
X147594239Y-103454157D02*
X147841442Y-103457412D01*
X139213075Y-95046279D02*
X139213075Y-95046279D01*
X148313140Y-103174969D02*
X148330331Y-103135244D01*
D10*
X151197142Y-89166666D02*
X151244761Y-89214285D01*
X151292380Y-89357142D01*
X151292380Y-89452380D01*
X151244761Y-89595238D01*
X151149523Y-89690476D01*
X151054285Y-89738095D01*
X150863809Y-89785714D01*
X150720952Y-89785714D01*
X150530476Y-89738095D01*
X150435238Y-89690476D01*
X150340000Y-89595238D01*
X150292380Y-89452380D01*
X150292380Y-89357142D01*
X150340000Y-89214285D01*
X150387619Y-89166666D01*
X150625714Y-88309523D02*
X151292380Y-88309523D01*
X150244761Y-88547619D02*
X150959047Y-88785714D01*
X150959047Y-88166666D01*
X187785714Y-75552380D02*
X187785714Y-76266666D01*
X187738095Y-76409523D01*
X187642857Y-76504761D01*
X187500000Y-76552380D01*
X187404761Y-76552380D01*
X188214285Y-76504761D02*
X188357142Y-76552380D01*
X188595238Y-76552380D01*
X188690476Y-76504761D01*
X188738095Y-76457142D01*
X188785714Y-76361904D01*
X188785714Y-76266666D01*
X188738095Y-76171428D01*
X188690476Y-76123809D01*
X188595238Y-76076190D01*
X188404761Y-76028571D01*
X188309523Y-75980952D01*
X188261904Y-75933333D01*
X188214285Y-75838095D01*
X188214285Y-75742857D01*
X188261904Y-75647619D01*
X188309523Y-75600000D01*
X188404761Y-75552380D01*
X188642857Y-75552380D01*
X188785714Y-75600000D01*
X189071428Y-75552380D02*
X189642857Y-75552380D01*
X189357142Y-76552380D02*
X189357142Y-75552380D01*
X190166666Y-75552380D02*
X190357142Y-75552380D01*
X190452380Y-75600000D01*
X190547619Y-75695238D01*
X190595238Y-75885714D01*
X190595238Y-76219047D01*
X190547619Y-76409523D01*
X190452380Y-76504761D01*
X190357142Y-76552380D01*
X190166666Y-76552380D01*
X190071428Y-76504761D01*
X189976190Y-76409523D01*
X189928571Y-76219047D01*
X189928571Y-75885714D01*
X189976190Y-75695238D01*
X190071428Y-75600000D01*
X190166666Y-75552380D01*
X191023809Y-76552380D02*
X191023809Y-75552380D01*
X191404761Y-75552380D01*
X191500000Y-75600000D01*
X191547619Y-75647619D01*
X191595238Y-75742857D01*
X191595238Y-75885714D01*
X191547619Y-75980952D01*
X191500000Y-76028571D01*
X191404761Y-76076190D01*
X191023809Y-76076190D01*
X192547619Y-76552380D02*
X191976190Y-76552380D01*
X192261904Y-76552380D02*
X192261904Y-75552380D01*
X192166666Y-75695238D01*
X192071428Y-75790476D01*
X191976190Y-75838095D01*
X189184166Y-98807380D02*
X189184166Y-99521666D01*
X189136547Y-99664523D01*
X189041309Y-99759761D01*
X188898452Y-99807380D01*
X188803214Y-99807380D01*
X189612738Y-98902619D02*
X189660357Y-98855000D01*
X189755595Y-98807380D01*
X189993690Y-98807380D01*
X190088928Y-98855000D01*
X190136547Y-98902619D01*
X190184166Y-98997857D01*
X190184166Y-99093095D01*
X190136547Y-99235952D01*
X189565119Y-99807380D01*
X190184166Y-99807380D01*
X158122380Y-126261904D02*
X158836666Y-126261904D01*
X158979523Y-126309523D01*
X159074761Y-126404761D01*
X159122380Y-126547619D01*
X159122380Y-126642857D01*
X159122380Y-125214285D02*
X158646190Y-125547619D01*
X159122380Y-125785714D02*
X158122380Y-125785714D01*
X158122380Y-125404761D01*
X158170000Y-125309523D01*
X158217619Y-125261904D01*
X158312857Y-125214285D01*
X158455714Y-125214285D01*
X158550952Y-125261904D01*
X158598571Y-125309523D01*
X158646190Y-125404761D01*
X158646190Y-125785714D01*
X158598571Y-124452380D02*
X158598571Y-124785714D01*
X159122380Y-124785714D02*
X158122380Y-124785714D01*
X158122380Y-124309523D01*
X159122380Y-123404761D02*
X159122380Y-123976190D01*
X159122380Y-123690476D02*
X158122380Y-123690476D01*
X158265238Y-123785714D01*
X158360476Y-123880952D01*
X158408095Y-123976190D01*
X155976190Y-91476190D02*
X156452380Y-91476190D01*
X155452380Y-91809523D02*
X155976190Y-91476190D01*
X155452380Y-91142857D01*
X156452380Y-90285714D02*
X156452380Y-90857142D01*
X156452380Y-90571428D02*
X155452380Y-90571428D01*
X155595238Y-90666666D01*
X155690476Y-90761904D01*
X155738095Y-90857142D01*
X115595238Y-74552380D02*
X115595238Y-75266666D01*
X115547619Y-75409523D01*
X115452380Y-75504761D01*
X115309523Y-75552380D01*
X115214285Y-75552380D01*
X116642857Y-75552380D02*
X116309523Y-75076190D01*
X116071428Y-75552380D02*
X116071428Y-74552380D01*
X116452380Y-74552380D01*
X116547619Y-74600000D01*
X116595238Y-74647619D01*
X116642857Y-74742857D01*
X116642857Y-74885714D01*
X116595238Y-74980952D01*
X116547619Y-75028571D01*
X116452380Y-75076190D01*
X116071428Y-75076190D01*
X117071428Y-75552380D02*
X117071428Y-74552380D01*
X117404761Y-75266666D01*
X117738095Y-74552380D01*
X117738095Y-75552380D01*
X118738095Y-75552380D02*
X118166666Y-75552380D01*
X118452380Y-75552380D02*
X118452380Y-74552380D01*
X118357142Y-74695238D01*
X118261904Y-74790476D01*
X118166666Y-74838095D01*
X113216666Y-122244880D02*
X113216666Y-122959166D01*
X113169047Y-123102023D01*
X113073809Y-123197261D01*
X112930952Y-123244880D01*
X112835714Y-123244880D01*
X114216666Y-123244880D02*
X113645238Y-123244880D01*
X113930952Y-123244880D02*
X113930952Y-122244880D01*
X113835714Y-122387738D01*
X113740476Y-122482976D01*
X113645238Y-122530595D01*
X167238095Y-85402380D02*
X167238095Y-86211904D01*
X167285714Y-86307142D01*
X167333333Y-86354761D01*
X167428571Y-86402380D01*
X167619047Y-86402380D01*
X167714285Y-86354761D01*
X167761904Y-86307142D01*
X167809523Y-86211904D01*
X167809523Y-85402380D01*
X168809523Y-86402380D02*
X168238095Y-86402380D01*
X168523809Y-86402380D02*
X168523809Y-85402380D01*
X168428571Y-85545238D01*
X168333333Y-85640476D01*
X168238095Y-85688095D01*
X129238095Y-97002380D02*
X129238095Y-97716666D01*
X129190476Y-97859523D01*
X129095238Y-97954761D01*
X128952380Y-98002380D01*
X128857142Y-98002380D01*
X129904761Y-97002380D02*
X130095238Y-97002380D01*
X130190476Y-97050000D01*
X130285714Y-97145238D01*
X130333333Y-97335714D01*
X130333333Y-97669047D01*
X130285714Y-97859523D01*
X130190476Y-97954761D01*
X130095238Y-98002380D01*
X129904761Y-98002380D01*
X129809523Y-97954761D01*
X129714285Y-97859523D01*
X129666666Y-97669047D01*
X129666666Y-97335714D01*
X129714285Y-97145238D01*
X129809523Y-97050000D01*
X129904761Y-97002380D01*
X130761904Y-97002380D02*
X130761904Y-97811904D01*
X130809523Y-97907142D01*
X130857142Y-97954761D01*
X130952380Y-98002380D01*
X131142857Y-98002380D01*
X131238095Y-97954761D01*
X131285714Y-97907142D01*
X131333333Y-97811904D01*
X131333333Y-97002380D01*
X131666666Y-97002380D02*
X132238095Y-97002380D01*
X131952380Y-98002380D02*
X131952380Y-97002380D01*
X132523809Y-97097619D02*
X132571428Y-97050000D01*
X132666666Y-97002380D01*
X132904761Y-97002380D01*
X133000000Y-97050000D01*
X133047619Y-97097619D01*
X133095238Y-97192857D01*
X133095238Y-97288095D01*
X133047619Y-97430952D01*
X132476190Y-98002380D01*
X133095238Y-98002380D01*
X115523809Y-84552380D02*
X115523809Y-85266666D01*
X115476190Y-85409523D01*
X115380952Y-85504761D01*
X115238095Y-85552380D01*
X115142857Y-85552380D01*
X115904761Y-84552380D02*
X116142857Y-85552380D01*
X116333333Y-84838095D01*
X116523809Y-85552380D01*
X116761904Y-84552380D01*
X117142857Y-85552380D02*
X117142857Y-84552380D01*
X117476190Y-85266666D01*
X117809523Y-84552380D01*
X117809523Y-85552380D01*
X118809523Y-85552380D02*
X118238095Y-85552380D01*
X118523809Y-85552380D02*
X118523809Y-84552380D01*
X118428571Y-84695238D01*
X118333333Y-84790476D01*
X118238095Y-84838095D01*
X141386904Y-107802380D02*
X141386904Y-106802380D01*
X141625000Y-106802380D01*
X141767857Y-106850000D01*
X141863095Y-106945238D01*
X141910714Y-107040476D01*
X141958333Y-107230952D01*
X141958333Y-107373809D01*
X141910714Y-107564285D01*
X141863095Y-107659523D01*
X141767857Y-107754761D01*
X141625000Y-107802380D01*
X141386904Y-107802380D01*
X142863095Y-106802380D02*
X142386904Y-106802380D01*
X142339285Y-107278571D01*
X142386904Y-107230952D01*
X142482142Y-107183333D01*
X142720238Y-107183333D01*
X142815476Y-107230952D01*
X142863095Y-107278571D01*
X142910714Y-107373809D01*
X142910714Y-107611904D01*
X142863095Y-107707142D01*
X142815476Y-107754761D01*
X142720238Y-107802380D01*
X142482142Y-107802380D01*
X142386904Y-107754761D01*
X142339285Y-107707142D01*
X188333333Y-122122380D02*
X188333333Y-122836666D01*
X188285714Y-122979523D01*
X188190476Y-123074761D01*
X188047619Y-123122380D01*
X187952380Y-123122380D01*
X188761904Y-122836666D02*
X189238095Y-122836666D01*
X188666666Y-123122380D02*
X189000000Y-122122380D01*
X189333333Y-123122380D01*
X189666666Y-123122380D02*
X189666666Y-122122380D01*
X190238095Y-123122380D01*
X190238095Y-122122380D01*
X190571428Y-122122380D02*
X191142857Y-122122380D01*
X190857142Y-123122380D02*
X190857142Y-122122380D01*
X192000000Y-123122380D02*
X191428571Y-123122380D01*
X191714285Y-123122380D02*
X191714285Y-122122380D01*
X191619047Y-122265238D01*
X191523809Y-122360476D01*
X191428571Y-122408095D01*
X141958333Y-112802380D02*
X141625000Y-112326190D01*
X141386904Y-112802380D02*
X141386904Y-111802380D01*
X141767857Y-111802380D01*
X141863095Y-111850000D01*
X141910714Y-111897619D01*
X141958333Y-111992857D01*
X141958333Y-112135714D01*
X141910714Y-112230952D01*
X141863095Y-112278571D01*
X141767857Y-112326190D01*
X141386904Y-112326190D01*
X142434523Y-112802380D02*
X142625000Y-112802380D01*
X142720238Y-112754761D01*
X142767857Y-112707142D01*
X142863095Y-112564285D01*
X142910714Y-112373809D01*
X142910714Y-111992857D01*
X142863095Y-111897619D01*
X142815476Y-111850000D01*
X142720238Y-111802380D01*
X142529761Y-111802380D01*
X142434523Y-111850000D01*
X142386904Y-111897619D01*
X142339285Y-111992857D01*
X142339285Y-112230952D01*
X142386904Y-112326190D01*
X142434523Y-112373809D01*
X142529761Y-112421428D01*
X142720238Y-112421428D01*
X142815476Y-112373809D01*
X142863095Y-112326190D01*
X142910714Y-112230952D01*
X129190476Y-84552380D02*
X129190476Y-85266666D01*
X129142857Y-85409523D01*
X129047619Y-85504761D01*
X128904761Y-85552380D01*
X128809523Y-85552380D01*
X130238095Y-85552380D02*
X129904761Y-85076190D01*
X129666666Y-85552380D02*
X129666666Y-84552380D01*
X130047619Y-84552380D01*
X130142857Y-84600000D01*
X130190476Y-84647619D01*
X130238095Y-84742857D01*
X130238095Y-84885714D01*
X130190476Y-84980952D01*
X130142857Y-85028571D01*
X130047619Y-85076190D01*
X129666666Y-85076190D01*
X130619047Y-85504761D02*
X130761904Y-85552380D01*
X131000000Y-85552380D01*
X131095238Y-85504761D01*
X131142857Y-85457142D01*
X131190476Y-85361904D01*
X131190476Y-85266666D01*
X131142857Y-85171428D01*
X131095238Y-85123809D01*
X131000000Y-85076190D01*
X130809523Y-85028571D01*
X130714285Y-84980952D01*
X130666666Y-84933333D01*
X130619047Y-84838095D01*
X130619047Y-84742857D01*
X130666666Y-84647619D01*
X130714285Y-84600000D01*
X130809523Y-84552380D01*
X131047619Y-84552380D01*
X131190476Y-84600000D01*
X132142857Y-85552380D02*
X131571428Y-85552380D01*
X131857142Y-85552380D02*
X131857142Y-84552380D01*
X131761904Y-84695238D01*
X131666666Y-84790476D01*
X131571428Y-84838095D01*
X115238095Y-97002380D02*
X115238095Y-97716666D01*
X115190476Y-97859523D01*
X115095238Y-97954761D01*
X114952380Y-98002380D01*
X114857142Y-98002380D01*
X115904761Y-97002380D02*
X116095238Y-97002380D01*
X116190476Y-97050000D01*
X116285714Y-97145238D01*
X116333333Y-97335714D01*
X116333333Y-97669047D01*
X116285714Y-97859523D01*
X116190476Y-97954761D01*
X116095238Y-98002380D01*
X115904761Y-98002380D01*
X115809523Y-97954761D01*
X115714285Y-97859523D01*
X115666666Y-97669047D01*
X115666666Y-97335714D01*
X115714285Y-97145238D01*
X115809523Y-97050000D01*
X115904761Y-97002380D01*
X116761904Y-97002380D02*
X116761904Y-97811904D01*
X116809523Y-97907142D01*
X116857142Y-97954761D01*
X116952380Y-98002380D01*
X117142857Y-98002380D01*
X117238095Y-97954761D01*
X117285714Y-97907142D01*
X117333333Y-97811904D01*
X117333333Y-97002380D01*
X117666666Y-97002380D02*
X118238095Y-97002380D01*
X117952380Y-98002380D02*
X117952380Y-97002380D01*
X119095238Y-98002380D02*
X118523809Y-98002380D01*
X118809523Y-98002380D02*
X118809523Y-97002380D01*
X118714285Y-97145238D01*
X118619047Y-97240476D01*
X118523809Y-97288095D01*
X164833333Y-117022380D02*
X164500000Y-116546190D01*
X164261904Y-117022380D02*
X164261904Y-116022380D01*
X164642857Y-116022380D01*
X164738095Y-116070000D01*
X164785714Y-116117619D01*
X164833333Y-116212857D01*
X164833333Y-116355714D01*
X164785714Y-116450952D01*
X164738095Y-116498571D01*
X164642857Y-116546190D01*
X164261904Y-116546190D01*
X165166666Y-116022380D02*
X165785714Y-116022380D01*
X165452380Y-116403333D01*
X165595238Y-116403333D01*
X165690476Y-116450952D01*
X165738095Y-116498571D01*
X165785714Y-116593809D01*
X165785714Y-116831904D01*
X165738095Y-116927142D01*
X165690476Y-116974761D01*
X165595238Y-117022380D01*
X165309523Y-117022380D01*
X165214285Y-116974761D01*
X165166666Y-116927142D01*
X150122380Y-75000000D02*
X150836666Y-75000000D01*
X150979523Y-75047619D01*
X151074761Y-75142857D01*
X151122380Y-75285714D01*
X151122380Y-75380952D01*
X151122380Y-74523809D02*
X150122380Y-74523809D01*
X150122380Y-74285714D01*
X150170000Y-74142857D01*
X150265238Y-74047619D01*
X150360476Y-74000000D01*
X150550952Y-73952380D01*
X150693809Y-73952380D01*
X150884285Y-74000000D01*
X150979523Y-74047619D01*
X151074761Y-74142857D01*
X151122380Y-74285714D01*
X151122380Y-74523809D01*
X151122380Y-73523809D02*
X150122380Y-73523809D01*
X150836666Y-73095238D02*
X150836666Y-72619047D01*
X151122380Y-73190476D02*
X150122380Y-72857142D01*
X151122380Y-72523809D01*
X150170000Y-71666666D02*
X150122380Y-71761904D01*
X150122380Y-71904761D01*
X150170000Y-72047619D01*
X150265238Y-72142857D01*
X150360476Y-72190476D01*
X150550952Y-72238095D01*
X150693809Y-72238095D01*
X150884285Y-72190476D01*
X150979523Y-72142857D01*
X151074761Y-72047619D01*
X151122380Y-71904761D01*
X151122380Y-71809523D01*
X151074761Y-71666666D01*
X151027142Y-71619047D01*
X150693809Y-71619047D01*
X150693809Y-71809523D01*
X151122380Y-70666666D02*
X151122380Y-71238095D01*
X151122380Y-70952380D02*
X150122380Y-70952380D01*
X150265238Y-71047619D01*
X150360476Y-71142857D01*
X150408095Y-71238095D01*
X131958333Y-112802380D02*
X131625000Y-112326190D01*
X131386904Y-112802380D02*
X131386904Y-111802380D01*
X131767857Y-111802380D01*
X131863095Y-111850000D01*
X131910714Y-111897619D01*
X131958333Y-111992857D01*
X131958333Y-112135714D01*
X131910714Y-112230952D01*
X131863095Y-112278571D01*
X131767857Y-112326190D01*
X131386904Y-112326190D01*
X132291666Y-111802380D02*
X132958333Y-111802380D01*
X132529761Y-112802380D01*
X152261904Y-78802380D02*
X152261904Y-77802380D01*
X152500000Y-77802380D01*
X152642857Y-77850000D01*
X152738095Y-77945238D01*
X152785714Y-78040476D01*
X152833333Y-78230952D01*
X152833333Y-78373809D01*
X152785714Y-78564285D01*
X152738095Y-78659523D01*
X152642857Y-78754761D01*
X152500000Y-78802380D01*
X152261904Y-78802380D01*
X153785714Y-78802380D02*
X153214285Y-78802380D01*
X153500000Y-78802380D02*
X153500000Y-77802380D01*
X153404761Y-77945238D01*
X153309523Y-78040476D01*
X153214285Y-78088095D01*
X149047619Y-114437380D02*
X148714285Y-113961190D01*
X148476190Y-114437380D02*
X148476190Y-113437380D01*
X148857142Y-113437380D01*
X148952380Y-113485000D01*
X149000000Y-113532619D01*
X149047619Y-113627857D01*
X149047619Y-113770714D01*
X149000000Y-113865952D01*
X148952380Y-113913571D01*
X148857142Y-113961190D01*
X148476190Y-113961190D01*
X149333333Y-113437380D02*
X149666666Y-114437380D01*
X150000000Y-113437380D01*
X150190476Y-113437380D02*
X150523809Y-114437380D01*
X150857142Y-113437380D01*
X151380952Y-113437380D02*
X151571428Y-113437380D01*
X151666666Y-113485000D01*
X151761904Y-113580238D01*
X151809523Y-113770714D01*
X151809523Y-114104047D01*
X151761904Y-114294523D01*
X151666666Y-114389761D01*
X151571428Y-114437380D01*
X151380952Y-114437380D01*
X151285714Y-114389761D01*
X151190476Y-114294523D01*
X151142857Y-114104047D01*
X151142857Y-113770714D01*
X151190476Y-113580238D01*
X151285714Y-113485000D01*
X151380952Y-113437380D01*
X152714285Y-114437380D02*
X152238095Y-114437380D01*
X152238095Y-113437380D01*
X153571428Y-114437380D02*
X153000000Y-114437380D01*
X153285714Y-114437380D02*
X153285714Y-113437380D01*
X153190476Y-113580238D01*
X153095238Y-113675476D01*
X153000000Y-113723095D01*
X177690476Y-114552380D02*
X177690476Y-115266666D01*
X177642857Y-115409523D01*
X177547619Y-115504761D01*
X177404761Y-115552380D01*
X177309523Y-115552380D01*
X178500000Y-115028571D02*
X178642857Y-115076190D01*
X178690476Y-115123809D01*
X178738095Y-115219047D01*
X178738095Y-115361904D01*
X178690476Y-115457142D01*
X178642857Y-115504761D01*
X178547619Y-115552380D01*
X178166666Y-115552380D01*
X178166666Y-114552380D01*
X178500000Y-114552380D01*
X178595238Y-114600000D01*
X178642857Y-114647619D01*
X178690476Y-114742857D01*
X178690476Y-114838095D01*
X178642857Y-114933333D01*
X178595238Y-114980952D01*
X178500000Y-115028571D01*
X178166666Y-115028571D01*
X179166666Y-114552380D02*
X179166666Y-115361904D01*
X179214285Y-115457142D01*
X179261904Y-115504761D01*
X179357142Y-115552380D01*
X179547619Y-115552380D01*
X179642857Y-115504761D01*
X179690476Y-115457142D01*
X179738095Y-115361904D01*
X179738095Y-114552380D01*
X180119047Y-114552380D02*
X180785714Y-114552380D01*
X180119047Y-115552380D01*
X180785714Y-115552380D01*
X181071428Y-114552380D02*
X181738095Y-114552380D01*
X181071428Y-115552380D01*
X181738095Y-115552380D01*
X182642857Y-115552380D02*
X182071428Y-115552380D01*
X182357142Y-115552380D02*
X182357142Y-114552380D01*
X182261904Y-114695238D01*
X182166666Y-114790476D01*
X182071428Y-114838095D01*
X172833333Y-117022380D02*
X172500000Y-116546190D01*
X172261904Y-117022380D02*
X172261904Y-116022380D01*
X172642857Y-116022380D01*
X172738095Y-116070000D01*
X172785714Y-116117619D01*
X172833333Y-116212857D01*
X172833333Y-116355714D01*
X172785714Y-116450952D01*
X172738095Y-116498571D01*
X172642857Y-116546190D01*
X172261904Y-116546190D01*
X173738095Y-116022380D02*
X173261904Y-116022380D01*
X173214285Y-116498571D01*
X173261904Y-116450952D01*
X173357142Y-116403333D01*
X173595238Y-116403333D01*
X173690476Y-116450952D01*
X173738095Y-116498571D01*
X173785714Y-116593809D01*
X173785714Y-116831904D01*
X173738095Y-116927142D01*
X173690476Y-116974761D01*
X173595238Y-117022380D01*
X173357142Y-117022380D01*
X173261904Y-116974761D01*
X173214285Y-116927142D01*
X136324404Y-107802380D02*
X136324404Y-106802380D01*
X136562500Y-106802380D01*
X136705357Y-106850000D01*
X136800595Y-106945238D01*
X136848214Y-107040476D01*
X136895833Y-107230952D01*
X136895833Y-107373809D01*
X136848214Y-107564285D01*
X136800595Y-107659523D01*
X136705357Y-107754761D01*
X136562500Y-107802380D01*
X136324404Y-107802380D01*
X137752976Y-107135714D02*
X137752976Y-107802380D01*
X137514880Y-106754761D02*
X137276785Y-107469047D01*
X137895833Y-107469047D01*
X129119047Y-74552380D02*
X129119047Y-75266666D01*
X129071428Y-75409523D01*
X128976190Y-75504761D01*
X128833333Y-75552380D01*
X128738095Y-75552380D01*
X129500000Y-74552380D02*
X129738095Y-75552380D01*
X129928571Y-74838095D01*
X130119047Y-75552380D01*
X130357142Y-74552380D01*
X130690476Y-75504761D02*
X130833333Y-75552380D01*
X131071428Y-75552380D01*
X131166666Y-75504761D01*
X131214285Y-75457142D01*
X131261904Y-75361904D01*
X131261904Y-75266666D01*
X131214285Y-75171428D01*
X131166666Y-75123809D01*
X131071428Y-75076190D01*
X130880952Y-75028571D01*
X130785714Y-74980952D01*
X130738095Y-74933333D01*
X130690476Y-74838095D01*
X130690476Y-74742857D01*
X130738095Y-74647619D01*
X130785714Y-74600000D01*
X130880952Y-74552380D01*
X131119047Y-74552380D01*
X131261904Y-74600000D01*
X132214285Y-75552380D02*
X131642857Y-75552380D01*
X131928571Y-75552380D02*
X131928571Y-74552380D01*
X131833333Y-74695238D01*
X131738095Y-74790476D01*
X131642857Y-74838095D01*
X126958333Y-112802380D02*
X126625000Y-112326190D01*
X126386904Y-112802380D02*
X126386904Y-111802380D01*
X126767857Y-111802380D01*
X126863095Y-111850000D01*
X126910714Y-111897619D01*
X126958333Y-111992857D01*
X126958333Y-112135714D01*
X126910714Y-112230952D01*
X126863095Y-112278571D01*
X126767857Y-112326190D01*
X126386904Y-112326190D01*
X127815476Y-111802380D02*
X127625000Y-111802380D01*
X127529761Y-111850000D01*
X127482142Y-111897619D01*
X127386904Y-112040476D01*
X127339285Y-112230952D01*
X127339285Y-112611904D01*
X127386904Y-112707142D01*
X127434523Y-112754761D01*
X127529761Y-112802380D01*
X127720238Y-112802380D01*
X127815476Y-112754761D01*
X127863095Y-112707142D01*
X127910714Y-112611904D01*
X127910714Y-112373809D01*
X127863095Y-112278571D01*
X127815476Y-112230952D01*
X127720238Y-112183333D01*
X127529761Y-112183333D01*
X127434523Y-112230952D01*
X127386904Y-112278571D01*
X127339285Y-112373809D01*
X187404761Y-66552380D02*
X187404761Y-67266666D01*
X187357142Y-67409523D01*
X187261904Y-67504761D01*
X187119047Y-67552380D01*
X187023809Y-67552380D01*
X188452380Y-67552380D02*
X188119047Y-67076190D01*
X187880952Y-67552380D02*
X187880952Y-66552380D01*
X188261904Y-66552380D01*
X188357142Y-66600000D01*
X188404761Y-66647619D01*
X188452380Y-66742857D01*
X188452380Y-66885714D01*
X188404761Y-66980952D01*
X188357142Y-67028571D01*
X188261904Y-67076190D01*
X187880952Y-67076190D01*
X188880952Y-67028571D02*
X189214285Y-67028571D01*
X189357142Y-67552380D02*
X188880952Y-67552380D01*
X188880952Y-66552380D01*
X189357142Y-66552380D01*
X189738095Y-67504761D02*
X189880952Y-67552380D01*
X190119047Y-67552380D01*
X190214285Y-67504761D01*
X190261904Y-67457142D01*
X190309523Y-67361904D01*
X190309523Y-67266666D01*
X190261904Y-67171428D01*
X190214285Y-67123809D01*
X190119047Y-67076190D01*
X189928571Y-67028571D01*
X189833333Y-66980952D01*
X189785714Y-66933333D01*
X189738095Y-66838095D01*
X189738095Y-66742857D01*
X189785714Y-66647619D01*
X189833333Y-66600000D01*
X189928571Y-66552380D01*
X190166666Y-66552380D01*
X190309523Y-66600000D01*
X190738095Y-67028571D02*
X191071428Y-67028571D01*
X191214285Y-67552380D02*
X190738095Y-67552380D01*
X190738095Y-66552380D01*
X191214285Y-66552380D01*
X191500000Y-66552380D02*
X192071428Y-66552380D01*
X191785714Y-67552380D02*
X191785714Y-66552380D01*
X192928571Y-67552380D02*
X192357142Y-67552380D01*
X192642857Y-67552380D02*
X192642857Y-66552380D01*
X192547619Y-66695238D01*
X192452380Y-66790476D01*
X192357142Y-66838095D01*
X131386904Y-107802380D02*
X131386904Y-106802380D01*
X131625000Y-106802380D01*
X131767857Y-106850000D01*
X131863095Y-106945238D01*
X131910714Y-107040476D01*
X131958333Y-107230952D01*
X131958333Y-107373809D01*
X131910714Y-107564285D01*
X131863095Y-107659523D01*
X131767857Y-107754761D01*
X131625000Y-107802380D01*
X131386904Y-107802380D01*
X132291666Y-106802380D02*
X132910714Y-106802380D01*
X132577380Y-107183333D01*
X132720238Y-107183333D01*
X132815476Y-107230952D01*
X132863095Y-107278571D01*
X132910714Y-107373809D01*
X132910714Y-107611904D01*
X132863095Y-107707142D01*
X132815476Y-107754761D01*
X132720238Y-107802380D01*
X132434523Y-107802380D01*
X132339285Y-107754761D01*
X132291666Y-107707142D01*
X146233573Y-76314640D02*
X145900240Y-75838450D01*
X145662144Y-76314640D02*
X145662144Y-75314640D01*
X146043097Y-75314640D01*
X146138335Y-75362260D01*
X146185954Y-75409879D01*
X146233573Y-75505117D01*
X146233573Y-75647974D01*
X146185954Y-75743212D01*
X146138335Y-75790831D01*
X146043097Y-75838450D01*
X145662144Y-75838450D01*
X147185954Y-76314640D02*
X146614525Y-76314640D01*
X146900240Y-76314640D02*
X146900240Y-75314640D01*
X146805001Y-75457498D01*
X146709763Y-75552736D01*
X146614525Y-75600355D01*
X179904761Y-110147619D02*
X179809523Y-110100000D01*
X179714285Y-110004761D01*
X179571428Y-109861904D01*
X179476190Y-109814285D01*
X179380952Y-109814285D01*
X179428571Y-110052380D02*
X179333333Y-110004761D01*
X179238095Y-109909523D01*
X179190476Y-109719047D01*
X179190476Y-109385714D01*
X179238095Y-109195238D01*
X179333333Y-109100000D01*
X179428571Y-109052380D01*
X179619047Y-109052380D01*
X179714285Y-109100000D01*
X179809523Y-109195238D01*
X179857142Y-109385714D01*
X179857142Y-109719047D01*
X179809523Y-109909523D01*
X179714285Y-110004761D01*
X179619047Y-110052380D01*
X179428571Y-110052380D01*
X180809523Y-110052380D02*
X180238095Y-110052380D01*
X180523809Y-110052380D02*
X180523809Y-109052380D01*
X180428571Y-109195238D01*
X180333333Y-109290476D01*
X180238095Y-109338095D01*
X157833333Y-88517142D02*
X157785714Y-88564761D01*
X157642857Y-88612380D01*
X157547619Y-88612380D01*
X157404761Y-88564761D01*
X157309523Y-88469523D01*
X157261904Y-88374285D01*
X157214285Y-88183809D01*
X157214285Y-88040952D01*
X157261904Y-87850476D01*
X157309523Y-87755238D01*
X157404761Y-87660000D01*
X157547619Y-87612380D01*
X157642857Y-87612380D01*
X157785714Y-87660000D01*
X157833333Y-87707619D01*
X158166666Y-87612380D02*
X158785714Y-87612380D01*
X158452380Y-87993333D01*
X158595238Y-87993333D01*
X158690476Y-88040952D01*
X158738095Y-88088571D01*
X158785714Y-88183809D01*
X158785714Y-88421904D01*
X158738095Y-88517142D01*
X158690476Y-88564761D01*
X158595238Y-88612380D01*
X158309523Y-88612380D01*
X158214285Y-88564761D01*
X158166666Y-88517142D01*
X126324404Y-107802380D02*
X126324404Y-106802380D01*
X126562500Y-106802380D01*
X126705357Y-106850000D01*
X126800595Y-106945238D01*
X126848214Y-107040476D01*
X126895833Y-107230952D01*
X126895833Y-107373809D01*
X126848214Y-107564285D01*
X126800595Y-107659523D01*
X126705357Y-107754761D01*
X126562500Y-107802380D01*
X126324404Y-107802380D01*
X127276785Y-106897619D02*
X127324404Y-106850000D01*
X127419642Y-106802380D01*
X127657738Y-106802380D01*
X127752976Y-106850000D01*
X127800595Y-106897619D01*
X127848214Y-106992857D01*
X127848214Y-107088095D01*
X127800595Y-107230952D01*
X127229166Y-107802380D01*
X127848214Y-107802380D01*
X177883333Y-91037142D02*
X177835714Y-91084761D01*
X177692857Y-91132380D01*
X177597619Y-91132380D01*
X177454761Y-91084761D01*
X177359523Y-90989523D01*
X177311904Y-90894285D01*
X177264285Y-90703809D01*
X177264285Y-90560952D01*
X177311904Y-90370476D01*
X177359523Y-90275238D01*
X177454761Y-90180000D01*
X177597619Y-90132380D01*
X177692857Y-90132380D01*
X177835714Y-90180000D01*
X177883333Y-90227619D01*
X178264285Y-90227619D02*
X178311904Y-90180000D01*
X178407142Y-90132380D01*
X178645238Y-90132380D01*
X178740476Y-90180000D01*
X178788095Y-90227619D01*
X178835714Y-90322857D01*
X178835714Y-90418095D01*
X178788095Y-90560952D01*
X178216666Y-91132380D01*
X178835714Y-91132380D01*
X136870833Y-112802380D02*
X136537500Y-112326190D01*
X136299404Y-112802380D02*
X136299404Y-111802380D01*
X136680357Y-111802380D01*
X136775595Y-111850000D01*
X136823214Y-111897619D01*
X136870833Y-111992857D01*
X136870833Y-112135714D01*
X136823214Y-112230952D01*
X136775595Y-112278571D01*
X136680357Y-112326190D01*
X136299404Y-112326190D01*
X137442261Y-112230952D02*
X137347023Y-112183333D01*
X137299404Y-112135714D01*
X137251785Y-112040476D01*
X137251785Y-111992857D01*
X137299404Y-111897619D01*
X137347023Y-111850000D01*
X137442261Y-111802380D01*
X137632738Y-111802380D01*
X137727976Y-111850000D01*
X137775595Y-111897619D01*
X137823214Y-111992857D01*
X137823214Y-112040476D01*
X137775595Y-112135714D01*
X137727976Y-112183333D01*
X137632738Y-112230952D01*
X137442261Y-112230952D01*
X137347023Y-112278571D01*
X137299404Y-112326190D01*
X137251785Y-112421428D01*
X137251785Y-112611904D01*
X137299404Y-112707142D01*
X137347023Y-112754761D01*
X137442261Y-112802380D01*
X137632738Y-112802380D01*
X137727976Y-112754761D01*
X137775595Y-112707142D01*
X137823214Y-112611904D01*
X137823214Y-112421428D01*
X137775595Y-112326190D01*
X137727976Y-112278571D01*
X137632738Y-112230952D01*
X168833333Y-117022380D02*
X168500000Y-116546190D01*
X168261904Y-117022380D02*
X168261904Y-116022380D01*
X168642857Y-116022380D01*
X168738095Y-116070000D01*
X168785714Y-116117619D01*
X168833333Y-116212857D01*
X168833333Y-116355714D01*
X168785714Y-116450952D01*
X168738095Y-116498571D01*
X168642857Y-116546190D01*
X168261904Y-116546190D01*
X169690476Y-116355714D02*
X169690476Y-117022380D01*
X169452380Y-115974761D02*
X169214285Y-116689047D01*
X169833333Y-116689047D01*
X187500000Y-84552380D02*
X187500000Y-85266666D01*
X187452380Y-85409523D01*
X187357142Y-85504761D01*
X187214285Y-85552380D01*
X187119047Y-85552380D01*
X187928571Y-85504761D02*
X188071428Y-85552380D01*
X188309523Y-85552380D01*
X188404761Y-85504761D01*
X188452380Y-85457142D01*
X188500000Y-85361904D01*
X188500000Y-85266666D01*
X188452380Y-85171428D01*
X188404761Y-85123809D01*
X188309523Y-85076190D01*
X188119047Y-85028571D01*
X188023809Y-84980952D01*
X187976190Y-84933333D01*
X187928571Y-84838095D01*
X187928571Y-84742857D01*
X187976190Y-84647619D01*
X188023809Y-84600000D01*
X188119047Y-84552380D01*
X188357142Y-84552380D01*
X188500000Y-84600000D01*
X188785714Y-84552380D02*
X189357142Y-84552380D01*
X189071428Y-85552380D02*
X189071428Y-84552380D01*
X189642857Y-85266666D02*
X190119047Y-85266666D01*
X189547619Y-85552380D02*
X189880952Y-84552380D01*
X190214285Y-85552380D01*
X191119047Y-85552380D02*
X190785714Y-85076190D01*
X190547619Y-85552380D02*
X190547619Y-84552380D01*
X190928571Y-84552380D01*
X191023809Y-84600000D01*
X191071428Y-84647619D01*
X191119047Y-84742857D01*
X191119047Y-84885714D01*
X191071428Y-84980952D01*
X191023809Y-85028571D01*
X190928571Y-85076190D01*
X190547619Y-85076190D01*
X191404761Y-84552380D02*
X191976190Y-84552380D01*
X191690476Y-85552380D02*
X191690476Y-84552380D01*
X192833333Y-85552380D02*
X192261904Y-85552380D01*
X192547619Y-85552380D02*
X192547619Y-84552380D01*
X192452380Y-84695238D01*
X192357142Y-84790476D01*
X192261904Y-84838095D01*
X160833333Y-117022380D02*
X160500000Y-116546190D01*
X160261904Y-117022380D02*
X160261904Y-116022380D01*
X160642857Y-116022380D01*
X160738095Y-116070000D01*
X160785714Y-116117619D01*
X160833333Y-116212857D01*
X160833333Y-116355714D01*
X160785714Y-116450952D01*
X160738095Y-116498571D01*
X160642857Y-116546190D01*
X160261904Y-116546190D01*
X161214285Y-116117619D02*
X161261904Y-116070000D01*
X161357142Y-116022380D01*
X161595238Y-116022380D01*
X161690476Y-116070000D01*
X161738095Y-116117619D01*
X161785714Y-116212857D01*
X161785714Y-116308095D01*
X161738095Y-116450952D01*
X161166666Y-117022380D01*
X161785714Y-117022380D01*
X177883333Y-95787142D02*
X177835714Y-95834761D01*
X177692857Y-95882380D01*
X177597619Y-95882380D01*
X177454761Y-95834761D01*
X177359523Y-95739523D01*
X177311904Y-95644285D01*
X177264285Y-95453809D01*
X177264285Y-95310952D01*
X177311904Y-95120476D01*
X177359523Y-95025238D01*
X177454761Y-94930000D01*
X177597619Y-94882380D01*
X177692857Y-94882380D01*
X177835714Y-94930000D01*
X177883333Y-94977619D01*
X178835714Y-95882380D02*
X178264285Y-95882380D01*
X178550000Y-95882380D02*
X178550000Y-94882380D01*
X178454761Y-95025238D01*
X178359523Y-95120476D01*
X178264285Y-95168095D01*
X164761904Y-69437380D02*
X164428571Y-68961190D01*
X164190476Y-69437380D02*
X164190476Y-68437380D01*
X164571428Y-68437380D01*
X164666666Y-68485000D01*
X164714285Y-68532619D01*
X164761904Y-68627857D01*
X164761904Y-68770714D01*
X164714285Y-68865952D01*
X164666666Y-68913571D01*
X164571428Y-68961190D01*
X164190476Y-68961190D01*
X165047619Y-68437380D02*
X165380952Y-69437380D01*
X165714285Y-68437380D01*
X166380952Y-68913571D02*
X166523809Y-68961190D01*
X166571428Y-69008809D01*
X166619047Y-69104047D01*
X166619047Y-69246904D01*
X166571428Y-69342142D01*
X166523809Y-69389761D01*
X166428571Y-69437380D01*
X166047619Y-69437380D01*
X166047619Y-68437380D01*
X166380952Y-68437380D01*
X166476190Y-68485000D01*
X166523809Y-68532619D01*
X166571428Y-68627857D01*
X166571428Y-68723095D01*
X166523809Y-68818333D01*
X166476190Y-68865952D01*
X166380952Y-68913571D01*
X166047619Y-68913571D01*
X167619047Y-69437380D02*
X167285714Y-68961190D01*
X167047619Y-69437380D02*
X167047619Y-68437380D01*
X167428571Y-68437380D01*
X167523809Y-68485000D01*
X167571428Y-68532619D01*
X167619047Y-68627857D01*
X167619047Y-68770714D01*
X167571428Y-68865952D01*
X167523809Y-68913571D01*
X167428571Y-68961190D01*
X167047619Y-68961190D01*
X168047619Y-69437380D02*
X168047619Y-68437380D01*
X169047619Y-68485000D02*
X168952380Y-68437380D01*
X168809523Y-68437380D01*
X168666666Y-68485000D01*
X168571428Y-68580238D01*
X168523809Y-68675476D01*
X168476190Y-68865952D01*
X168476190Y-69008809D01*
X168523809Y-69199285D01*
X168571428Y-69294523D01*
X168666666Y-69389761D01*
X168809523Y-69437380D01*
X168904761Y-69437380D01*
X169047619Y-69389761D01*
X169095238Y-69342142D01*
X169095238Y-69008809D01*
X168904761Y-69008809D01*
X169523809Y-69437380D02*
X169523809Y-68437380D01*
X169523809Y-68913571D02*
X170095238Y-68913571D01*
X170095238Y-69437380D02*
X170095238Y-68437380D01*
X170428571Y-68437380D02*
X171000000Y-68437380D01*
X170714285Y-69437380D02*
X170714285Y-68437380D01*
X171857142Y-69437380D02*
X171285714Y-69437380D01*
X171571428Y-69437380D02*
X171571428Y-68437380D01*
X171476190Y-68580238D01*
X171380952Y-68675476D01*
X171285714Y-68723095D01*
D12*
X151640000Y-89107836D02*
X151640000Y-88892164D01*
X152360000Y-89107836D02*
X152360000Y-88892164D01*
X186940000Y-79800000D02*
X187550000Y-79800000D01*
X187890000Y-76890000D02*
X186640000Y-76890000D01*
X189500000Y-77800000D02*
X187550000Y-77800000D01*
X188400000Y-76990000D02*
X188400000Y-77190000D01*
X188700000Y-77090000D02*
X188400000Y-77090000D01*
X187550000Y-77800000D02*
X187550000Y-81300000D01*
X193060000Y-79800000D02*
X192450000Y-79800000D01*
X189900000Y-80800000D02*
X190100000Y-80800000D01*
X189900000Y-81300000D02*
X189900000Y-80800000D01*
X192450000Y-77800000D02*
X190500000Y-77800000D01*
X187550000Y-81300000D02*
X192450000Y-81300000D01*
X189500000Y-77190000D02*
X189500000Y-77800000D01*
X188700000Y-76990000D02*
X188400000Y-76990000D01*
X190100000Y-80800000D02*
X190100000Y-81300000D01*
X192450000Y-81300000D02*
X192450000Y-77800000D01*
X193060000Y-81910000D02*
X193060000Y-77190000D01*
X193060000Y-78500000D02*
X192450000Y-78500000D01*
X186940000Y-81910000D02*
X193060000Y-81910000D01*
X186940000Y-77190000D02*
X186940000Y-81910000D01*
X186640000Y-76890000D02*
X186640000Y-78140000D01*
X186940000Y-78500000D02*
X187550000Y-78500000D01*
X190500000Y-77800000D02*
X190500000Y-77190000D01*
X193060000Y-77190000D02*
X186940000Y-77190000D01*
X190000000Y-81300000D02*
X190000000Y-80800000D01*
X188700000Y-77190000D02*
X188700000Y-76990000D01*
X186267500Y-105945000D02*
X186267500Y-101545000D01*
X184957500Y-100245000D02*
X194077500Y-100245000D01*
X183567500Y-104955000D02*
X183567500Y-105955000D01*
X183567500Y-105955000D02*
X184567500Y-105455000D01*
X184957500Y-115745000D02*
X184957500Y-100245000D01*
X194077500Y-115745000D02*
X184957500Y-115745000D01*
X192767500Y-114445000D02*
X186267500Y-114445000D01*
X184957500Y-105945000D02*
X186267500Y-105945000D01*
X186267500Y-110045000D02*
X184957500Y-110045000D01*
X186267500Y-101545000D02*
X192767500Y-101545000D01*
X186267500Y-114445000D02*
X186267500Y-110045000D01*
X186267500Y-110045000D02*
X186267500Y-110045000D01*
X192767500Y-101545000D02*
X192767500Y-114445000D01*
X184567500Y-105455000D02*
X183567500Y-104955000D01*
X194077500Y-100245000D02*
X194077500Y-115745000D01*
X161000000Y-126330000D02*
X159670000Y-126330000D01*
X162270000Y-123670000D02*
X177570000Y-123670000D01*
X162270000Y-126330000D02*
X162270000Y-123670000D01*
X162270000Y-126330000D02*
X177570000Y-126330000D01*
X159670000Y-126330000D02*
X159670000Y-125000000D01*
X177570000Y-126330000D02*
X177570000Y-123670000D01*
X153350000Y-90000000D02*
X156650000Y-90000000D01*
X156650000Y-90000000D02*
X156650000Y-86000000D01*
X112940000Y-76190000D02*
X112940000Y-80910000D01*
X112940000Y-78800000D02*
X113550000Y-78800000D01*
X115900000Y-79800000D02*
X116100000Y-79800000D01*
X116000000Y-80300000D02*
X116000000Y-79800000D01*
X117900000Y-79800000D02*
X118100000Y-79800000D01*
X112640000Y-75890000D02*
X112640000Y-77140000D01*
X113550000Y-76800000D02*
X113550000Y-80300000D01*
X115500000Y-76190000D02*
X115500000Y-76800000D01*
X116100000Y-79800000D02*
X116100000Y-80300000D01*
X114700000Y-76090000D02*
X114400000Y-76090000D01*
X118000000Y-80300000D02*
X118000000Y-79800000D01*
X121060000Y-80910000D02*
X121060000Y-76190000D01*
X114700000Y-75990000D02*
X114400000Y-75990000D01*
X113550000Y-80300000D02*
X120450000Y-80300000D01*
X120450000Y-80300000D02*
X120450000Y-76800000D01*
X112940000Y-80910000D02*
X121060000Y-80910000D01*
X121060000Y-76190000D02*
X112940000Y-76190000D01*
X115900000Y-80300000D02*
X115900000Y-79800000D01*
X114400000Y-75990000D02*
X114400000Y-76190000D01*
X115500000Y-76800000D02*
X113550000Y-76800000D01*
X112940000Y-77500000D02*
X113550000Y-77500000D01*
X117900000Y-80300000D02*
X117900000Y-79800000D01*
X113890000Y-75890000D02*
X112640000Y-75890000D01*
X114700000Y-76190000D02*
X114700000Y-75990000D01*
X118100000Y-79800000D02*
X118100000Y-80300000D01*
X121060000Y-78800000D02*
X120450000Y-78800000D01*
X121060000Y-77500000D02*
X120450000Y-77500000D01*
X120450000Y-76800000D02*
X118500000Y-76800000D01*
X118500000Y-76800000D02*
X118500000Y-76190000D01*
X108200000Y-112442500D02*
X122900000Y-112442500D01*
X122900000Y-112442500D02*
X122900000Y-115042500D01*
X123100000Y-113292500D02*
X123100000Y-112242500D01*
X117000000Y-121642500D02*
X108200000Y-121642500D01*
X108200000Y-121642500D02*
X108200000Y-112442500D01*
X122050000Y-112242500D02*
X123100000Y-112242500D01*
X122900000Y-118942500D02*
X122900000Y-121642500D01*
X122900000Y-121642500D02*
X121000000Y-121642500D01*
D10*
X171625000Y-88375000D02*
X171300000Y-88375000D01*
X164375000Y-95625000D02*
X164375000Y-95300000D01*
X164375000Y-88375000D02*
X164700000Y-88375000D01*
X171625000Y-95625000D02*
X171300000Y-95625000D01*
X171625000Y-88375000D02*
X171625000Y-88700000D01*
X164375000Y-95625000D02*
X164700000Y-95625000D01*
X164375000Y-88375000D02*
X164375000Y-88600000D01*
X164375000Y-88600000D02*
X162950000Y-88600000D01*
X171625000Y-95625000D02*
X171625000Y-95300000D01*
D12*
X128700000Y-98440000D02*
X128400000Y-98440000D01*
X132100000Y-102250000D02*
X132100000Y-102750000D01*
X135060000Y-98640000D02*
X126940000Y-98640000D01*
X126940000Y-103360000D02*
X135060000Y-103360000D01*
X126940000Y-98640000D02*
X126940000Y-103360000D01*
X135060000Y-99950000D02*
X134450000Y-99950000D01*
X132500000Y-99250000D02*
X132500000Y-98640000D01*
X127550000Y-102750000D02*
X134450000Y-102750000D01*
X130000000Y-102750000D02*
X130000000Y-102250000D01*
X126940000Y-99950000D02*
X127550000Y-99950000D01*
X129900000Y-102250000D02*
X130100000Y-102250000D01*
X134450000Y-102750000D02*
X134450000Y-99250000D01*
X128700000Y-98540000D02*
X128400000Y-98540000D01*
X131900000Y-102750000D02*
X131900000Y-102250000D01*
X135060000Y-103360000D02*
X135060000Y-98640000D01*
X128400000Y-98440000D02*
X128400000Y-98640000D01*
X126940000Y-101250000D02*
X127550000Y-101250000D01*
X135060000Y-101250000D02*
X134450000Y-101250000D01*
X128700000Y-98640000D02*
X128700000Y-98440000D01*
X127890000Y-98340000D02*
X126640000Y-98340000D01*
X131900000Y-102250000D02*
X132100000Y-102250000D01*
X129500000Y-98640000D02*
X129500000Y-99250000D01*
X129900000Y-102750000D02*
X129900000Y-102250000D01*
X134450000Y-99250000D02*
X132500000Y-99250000D01*
X126640000Y-98340000D02*
X126640000Y-99590000D01*
X129500000Y-99250000D02*
X127550000Y-99250000D01*
X130100000Y-102250000D02*
X130100000Y-102750000D01*
X127550000Y-99250000D02*
X127550000Y-102750000D01*
X132000000Y-102750000D02*
X132000000Y-102250000D01*
X112940000Y-90910000D02*
X121060000Y-90910000D01*
X112940000Y-88800000D02*
X113550000Y-88800000D01*
X114700000Y-85990000D02*
X114400000Y-85990000D01*
X121060000Y-88800000D02*
X120450000Y-88800000D01*
X116000000Y-90300000D02*
X116000000Y-89800000D01*
X115500000Y-86190000D02*
X115500000Y-86800000D01*
X112940000Y-86190000D02*
X112940000Y-90910000D01*
X121060000Y-90910000D02*
X121060000Y-86190000D01*
X118500000Y-86800000D02*
X118500000Y-86190000D01*
X112940000Y-87500000D02*
X113550000Y-87500000D01*
X117900000Y-89800000D02*
X118100000Y-89800000D01*
X121060000Y-86190000D02*
X112940000Y-86190000D01*
X114400000Y-85990000D02*
X114400000Y-86190000D01*
X120450000Y-90300000D02*
X120450000Y-86800000D01*
X115900000Y-89800000D02*
X116100000Y-89800000D01*
X112640000Y-85890000D02*
X112640000Y-87140000D01*
X113550000Y-90300000D02*
X120450000Y-90300000D01*
X114700000Y-86190000D02*
X114700000Y-85990000D01*
X114700000Y-86090000D02*
X114400000Y-86090000D01*
X117900000Y-90300000D02*
X117900000Y-89800000D01*
X120450000Y-86800000D02*
X118500000Y-86800000D01*
X118100000Y-89800000D02*
X118100000Y-90300000D01*
X115900000Y-90300000D02*
X115900000Y-89800000D01*
X116100000Y-89800000D02*
X116100000Y-90300000D01*
X118000000Y-90300000D02*
X118000000Y-89800000D01*
X113890000Y-85890000D02*
X112640000Y-85890000D01*
X113550000Y-86800000D02*
X113550000Y-90300000D01*
X115500000Y-86800000D02*
X113550000Y-86800000D01*
X121060000Y-87500000D02*
X120450000Y-87500000D01*
X140440000Y-109960000D02*
X143125000Y-109960000D01*
X143125000Y-108040000D02*
X140440000Y-108040000D01*
X140440000Y-108040000D02*
X140440000Y-109960000D01*
X188670000Y-126270000D02*
X188670000Y-126330000D01*
X188670000Y-123670000D02*
X190000000Y-123670000D01*
X188670000Y-126270000D02*
X191330000Y-126270000D01*
X188670000Y-126330000D02*
X191330000Y-126330000D01*
X191330000Y-126270000D02*
X191330000Y-126330000D01*
X188670000Y-125000000D02*
X188670000Y-123670000D01*
X141897936Y-114735000D02*
X142352064Y-114735000D01*
X141897936Y-113265000D02*
X142352064Y-113265000D01*
X129000000Y-86800000D02*
X127050000Y-86800000D01*
X131400000Y-90300000D02*
X131400000Y-89800000D01*
X129500000Y-90300000D02*
X129500000Y-89800000D01*
X129400000Y-90300000D02*
X129400000Y-89800000D01*
X134560000Y-88800000D02*
X133950000Y-88800000D01*
X129400000Y-89800000D02*
X129600000Y-89800000D01*
X131500000Y-90300000D02*
X131500000Y-89800000D01*
X127390000Y-85890000D02*
X126140000Y-85890000D01*
X128200000Y-86090000D02*
X127900000Y-86090000D01*
X132000000Y-86800000D02*
X132000000Y-86190000D01*
X129000000Y-86190000D02*
X129000000Y-86800000D01*
X127900000Y-85990000D02*
X127900000Y-86190000D01*
X128200000Y-86190000D02*
X128200000Y-85990000D01*
X134560000Y-86190000D02*
X126440000Y-86190000D01*
X126140000Y-85890000D02*
X126140000Y-87140000D01*
X127050000Y-90300000D02*
X133950000Y-90300000D01*
X133950000Y-86800000D02*
X132000000Y-86800000D01*
X126440000Y-90910000D02*
X134560000Y-90910000D01*
X134560000Y-90910000D02*
X134560000Y-86190000D01*
X126440000Y-86190000D02*
X126440000Y-90910000D01*
X129600000Y-89800000D02*
X129600000Y-90300000D01*
X131600000Y-89800000D02*
X131600000Y-90300000D01*
X131400000Y-89800000D02*
X131600000Y-89800000D01*
X133950000Y-90300000D02*
X133950000Y-86800000D01*
X127050000Y-86800000D02*
X127050000Y-90300000D01*
X126440000Y-87500000D02*
X127050000Y-87500000D01*
X126440000Y-88800000D02*
X127050000Y-88800000D01*
X134560000Y-87500000D02*
X133950000Y-87500000D01*
X128200000Y-85990000D02*
X127900000Y-85990000D01*
X120450000Y-102750000D02*
X120450000Y-99250000D01*
X121060000Y-103360000D02*
X121060000Y-98640000D01*
X116000000Y-102750000D02*
X116000000Y-102250000D01*
X121060000Y-99950000D02*
X120450000Y-99950000D01*
X113890000Y-98340000D02*
X112640000Y-98340000D01*
X115900000Y-102750000D02*
X115900000Y-102250000D01*
X117900000Y-102750000D02*
X117900000Y-102250000D01*
X121060000Y-98640000D02*
X112940000Y-98640000D01*
X112940000Y-98640000D02*
X112940000Y-103360000D01*
X112940000Y-101250000D02*
X113550000Y-101250000D01*
X114700000Y-98640000D02*
X114700000Y-98440000D01*
X118500000Y-99250000D02*
X118500000Y-98640000D01*
X114400000Y-98440000D02*
X114400000Y-98640000D01*
X118100000Y-102250000D02*
X118100000Y-102750000D01*
X116100000Y-102250000D02*
X116100000Y-102750000D01*
X120450000Y-99250000D02*
X118500000Y-99250000D01*
X115500000Y-98640000D02*
X115500000Y-99250000D01*
X117900000Y-102250000D02*
X118100000Y-102250000D01*
X118000000Y-102750000D02*
X118000000Y-102250000D01*
X114700000Y-98440000D02*
X114400000Y-98440000D01*
X112940000Y-99950000D02*
X113550000Y-99950000D01*
X115900000Y-102250000D02*
X116100000Y-102250000D01*
X115500000Y-99250000D02*
X113550000Y-99250000D01*
X121060000Y-101250000D02*
X120450000Y-101250000D01*
X113550000Y-102750000D02*
X120450000Y-102750000D01*
X114700000Y-98540000D02*
X114400000Y-98540000D01*
X113550000Y-99250000D02*
X113550000Y-102750000D01*
X112940000Y-103360000D02*
X121060000Y-103360000D01*
X112640000Y-98340000D02*
X112640000Y-99590000D01*
X164762742Y-117477500D02*
X165237258Y-117477500D01*
X164762742Y-118522500D02*
X165237258Y-118522500D01*
X154270000Y-71670000D02*
X159410000Y-71670000D01*
X154270000Y-74330000D02*
X159410000Y-74330000D01*
X159410000Y-74330000D02*
X159410000Y-71670000D01*
X154270000Y-74330000D02*
X154270000Y-71670000D01*
X151670000Y-74330000D02*
X151670000Y-73000000D01*
X153000000Y-74330000D02*
X151670000Y-74330000D01*
X131897936Y-114735000D02*
X132352064Y-114735000D01*
X131897936Y-113265000D02*
X132352064Y-113265000D01*
X151315000Y-80960000D02*
X154000000Y-80960000D01*
X151315000Y-79040000D02*
X151315000Y-80960000D01*
X154000000Y-79040000D02*
X151315000Y-79040000D01*
X146115000Y-124885000D02*
X155885000Y-124885000D01*
X146115000Y-115115000D02*
X155885000Y-115115000D01*
X155885000Y-115115000D02*
X155885000Y-124885000D01*
X146115000Y-115115000D02*
X146115000Y-124885000D01*
X178700000Y-116090000D02*
X178400000Y-116090000D01*
X182450000Y-116800000D02*
X180500000Y-116800000D01*
X183060000Y-118800000D02*
X182450000Y-118800000D01*
X183060000Y-117500000D02*
X182450000Y-117500000D01*
X177550000Y-120300000D02*
X182450000Y-120300000D01*
X178700000Y-115990000D02*
X178400000Y-115990000D01*
X179900000Y-120300000D02*
X179900000Y-119800000D01*
X176940000Y-116190000D02*
X176940000Y-120910000D01*
X180500000Y-116800000D02*
X180500000Y-116190000D01*
X182450000Y-120300000D02*
X182450000Y-116800000D01*
X179900000Y-119800000D02*
X180100000Y-119800000D01*
X176940000Y-120910000D02*
X183060000Y-120910000D01*
X180100000Y-119800000D02*
X180100000Y-120300000D01*
X179500000Y-116800000D02*
X177550000Y-116800000D01*
X180000000Y-120300000D02*
X180000000Y-119800000D01*
X183060000Y-116190000D02*
X176940000Y-116190000D01*
X176940000Y-118800000D02*
X177550000Y-118800000D01*
X179500000Y-116190000D02*
X179500000Y-116800000D01*
X177890000Y-115890000D02*
X176640000Y-115890000D01*
X178400000Y-115990000D02*
X178400000Y-116190000D01*
X178700000Y-116190000D02*
X178700000Y-115990000D01*
X176640000Y-115890000D02*
X176640000Y-117140000D01*
X176940000Y-117500000D02*
X177550000Y-117500000D01*
X177550000Y-116800000D02*
X177550000Y-120300000D01*
X183060000Y-120910000D02*
X183060000Y-116190000D01*
X172762742Y-117477500D02*
X173237258Y-117477500D01*
X172762742Y-118522500D02*
X173237258Y-118522500D01*
X135377500Y-108040000D02*
X135377500Y-109960000D01*
X135377500Y-109960000D02*
X138062500Y-109960000D01*
X138062500Y-108040000D02*
X135377500Y-108040000D01*
X127050000Y-80300000D02*
X133950000Y-80300000D01*
X126140000Y-75890000D02*
X126140000Y-77140000D01*
X129000000Y-76190000D02*
X129000000Y-76800000D01*
X133950000Y-76800000D02*
X132000000Y-76800000D01*
X134560000Y-77500000D02*
X133950000Y-77500000D01*
X127900000Y-75990000D02*
X127900000Y-76190000D01*
X126440000Y-76190000D02*
X126440000Y-80910000D01*
X129400000Y-79800000D02*
X129600000Y-79800000D01*
X131400000Y-80300000D02*
X131400000Y-79800000D01*
X126440000Y-80910000D02*
X134560000Y-80910000D01*
X126440000Y-78800000D02*
X127050000Y-78800000D01*
X131500000Y-80300000D02*
X131500000Y-79800000D01*
X133950000Y-80300000D02*
X133950000Y-76800000D01*
X128200000Y-76190000D02*
X128200000Y-75990000D01*
X128200000Y-75990000D02*
X127900000Y-75990000D01*
X129000000Y-76800000D02*
X127050000Y-76800000D01*
X128200000Y-76090000D02*
X127900000Y-76090000D01*
X134560000Y-76190000D02*
X126440000Y-76190000D01*
X129600000Y-79800000D02*
X129600000Y-80300000D01*
X127050000Y-76800000D02*
X127050000Y-80300000D01*
X126440000Y-77500000D02*
X127050000Y-77500000D01*
X129500000Y-80300000D02*
X129500000Y-79800000D01*
X134560000Y-80910000D02*
X134560000Y-76190000D01*
X131400000Y-79800000D02*
X131600000Y-79800000D01*
X127390000Y-75890000D02*
X126140000Y-75890000D01*
X134560000Y-78800000D02*
X133950000Y-78800000D01*
X131600000Y-79800000D02*
X131600000Y-80300000D01*
X132000000Y-76800000D02*
X132000000Y-76190000D01*
X129400000Y-80300000D02*
X129400000Y-79800000D01*
X126897936Y-113265000D02*
X127352064Y-113265000D01*
X126897936Y-114735000D02*
X127352064Y-114735000D01*
X187550000Y-68800000D02*
X187550000Y-72300000D01*
X193060000Y-72910000D02*
X193060000Y-68190000D01*
X189900000Y-72300000D02*
X189900000Y-71800000D01*
X186940000Y-68190000D02*
X186940000Y-72910000D01*
X186640000Y-67890000D02*
X186640000Y-69140000D01*
X189500000Y-68190000D02*
X189500000Y-68800000D01*
X189500000Y-68800000D02*
X187550000Y-68800000D01*
X193060000Y-68190000D02*
X186940000Y-68190000D01*
X188700000Y-68090000D02*
X188400000Y-68090000D01*
X190500000Y-68800000D02*
X190500000Y-68190000D01*
X188400000Y-67990000D02*
X188400000Y-68190000D01*
X190000000Y-72300000D02*
X190000000Y-71800000D01*
X193060000Y-69500000D02*
X192450000Y-69500000D01*
X187890000Y-67890000D02*
X186640000Y-67890000D01*
X192450000Y-72300000D02*
X192450000Y-68800000D01*
X192450000Y-68800000D02*
X190500000Y-68800000D01*
X189900000Y-71800000D02*
X190100000Y-71800000D01*
X186940000Y-72910000D02*
X193060000Y-72910000D01*
X187550000Y-72300000D02*
X192450000Y-72300000D01*
X193060000Y-70800000D02*
X192450000Y-70800000D01*
X188700000Y-68190000D02*
X188700000Y-67990000D01*
X186940000Y-69500000D02*
X187550000Y-69500000D01*
X190100000Y-71800000D02*
X190100000Y-72300000D01*
X188700000Y-67990000D02*
X188400000Y-67990000D01*
X186940000Y-70800000D02*
X187550000Y-70800000D01*
X130440000Y-108040000D02*
X130440000Y-109960000D01*
X133125000Y-108040000D02*
X130440000Y-108040000D01*
X130440000Y-109960000D02*
X133125000Y-109960000D01*
X146173176Y-78247260D02*
X146627304Y-78247260D01*
X146173176Y-76777260D02*
X146627304Y-76777260D01*
X180000000Y-113560000D02*
X180650000Y-113560000D01*
X180000000Y-113560000D02*
X179350000Y-113560000D01*
X180000000Y-110440000D02*
X180650000Y-110440000D01*
X180000000Y-110440000D02*
X178325000Y-110440000D01*
X158107836Y-87360000D02*
X157892164Y-87360000D01*
X158107836Y-86640000D02*
X157892164Y-86640000D01*
X125377500Y-109960000D02*
X128062500Y-109960000D01*
X128062500Y-108040000D02*
X125377500Y-108040000D01*
X125377500Y-108040000D02*
X125377500Y-109960000D01*
X178311252Y-88265000D02*
X177788748Y-88265000D01*
X178311252Y-89735000D02*
X177788748Y-89735000D01*
X136810436Y-113265000D02*
X137264564Y-113265000D01*
X136810436Y-114735000D02*
X137264564Y-114735000D01*
X168762742Y-118522500D02*
X169237258Y-118522500D01*
X168762742Y-117477500D02*
X169237258Y-117477500D01*
X188700000Y-86190000D02*
X188700000Y-85990000D01*
X193060000Y-86190000D02*
X186940000Y-86190000D01*
X190100000Y-89800000D02*
X190100000Y-90300000D01*
X188700000Y-85990000D02*
X188400000Y-85990000D01*
X193060000Y-88800000D02*
X192450000Y-88800000D01*
X186640000Y-85890000D02*
X186640000Y-87140000D01*
X189500000Y-86800000D02*
X187550000Y-86800000D01*
X187550000Y-86800000D02*
X187550000Y-90300000D01*
X193060000Y-87500000D02*
X192450000Y-87500000D01*
X186940000Y-90910000D02*
X193060000Y-90910000D01*
X189900000Y-90300000D02*
X189900000Y-89800000D01*
X186940000Y-87500000D02*
X187550000Y-87500000D01*
X186940000Y-86190000D02*
X186940000Y-90910000D01*
X189500000Y-86190000D02*
X189500000Y-86800000D01*
X188700000Y-86090000D02*
X188400000Y-86090000D01*
X186940000Y-88800000D02*
X187550000Y-88800000D01*
X192450000Y-90300000D02*
X192450000Y-86800000D01*
X190500000Y-86800000D02*
X190500000Y-86190000D01*
X193060000Y-90910000D02*
X193060000Y-86190000D01*
X189900000Y-89800000D02*
X190100000Y-89800000D01*
X192450000Y-86800000D02*
X190500000Y-86800000D01*
X190000000Y-90300000D02*
X190000000Y-89800000D01*
X187890000Y-85890000D02*
X186640000Y-85890000D01*
X188400000Y-85990000D02*
X188400000Y-86190000D01*
X187550000Y-90300000D02*
X192450000Y-90300000D01*
X160762742Y-118522500D02*
X161237258Y-118522500D01*
X160762742Y-117477500D02*
X161237258Y-117477500D01*
X178190580Y-94510000D02*
X177909420Y-94510000D01*
X178190580Y-93490000D02*
X177909420Y-93490000D01*
X163115000Y-70115000D02*
X163115000Y-79885000D01*
X163115000Y-79885000D02*
X172885000Y-79885000D01*
X163115000Y-70115000D02*
X172885000Y-70115000D01*
X172885000Y-70115000D02*
X172885000Y-79885000D01*
%LPC*%
D13*
X152000000Y-89480000D03*
X152000000Y-88520000D03*
D14*
X189000000Y-79000000D03*
D15*
X191000000Y-79000000D03*
D16*
X188247500Y-105455000D03*
D17*
X190787500Y-105455000D03*
X188247500Y-107995000D03*
X190787500Y-107995000D03*
X188247500Y-110535000D03*
X190787500Y-110535000D03*
D18*
X161000000Y-125000000D03*
D19*
X163540000Y-125000000D03*
X166080000Y-125000000D03*
X168620000Y-125000000D03*
X171160000Y-125000000D03*
X173700000Y-125000000D03*
X176240000Y-125000000D03*
D20*
X155850000Y-89100000D03*
X155850000Y-86900000D03*
X154150000Y-86900000D03*
X154150000Y-89100000D03*
D21*
X144000000Y-91000000D03*
D14*
X115000000Y-78000000D03*
D15*
X117000000Y-78000000D03*
X119000000Y-78000000D03*
D22*
X122000000Y-117042500D03*
D23*
X116000000Y-117042500D03*
D24*
X119000000Y-121742500D03*
D25*
X163750000Y-89200000D03*
X163750000Y-90000000D03*
X163750000Y-90800000D03*
X163750000Y-91600000D03*
X163750000Y-92400000D03*
X163750000Y-93200000D03*
X163750000Y-94000000D03*
X163750000Y-94800000D03*
D26*
X165200000Y-96250000D03*
X166000000Y-96250000D03*
X166800000Y-96250000D03*
X167600000Y-96250000D03*
X168400000Y-96250000D03*
X169200000Y-96250000D03*
X170000000Y-96250000D03*
X170800000Y-96250000D03*
D25*
X172250000Y-94800000D03*
X172250000Y-94000000D03*
X172250000Y-93200000D03*
X172250000Y-92400000D03*
X172250000Y-91600000D03*
X172250000Y-90800000D03*
X172250000Y-90000000D03*
X172250000Y-89200000D03*
D26*
X170800000Y-87750000D03*
X170000000Y-87750000D03*
X169200000Y-87750000D03*
X168400000Y-87750000D03*
X167600000Y-87750000D03*
X166800000Y-87750000D03*
X166000000Y-87750000D03*
X165200000Y-87750000D03*
D14*
X129000000Y-100450000D03*
D15*
X131000000Y-100450000D03*
X133000000Y-100450000D03*
D14*
X115000000Y-88000000D03*
D15*
X117000000Y-88000000D03*
X119000000Y-88000000D03*
D27*
X141187500Y-109000000D03*
X143062500Y-109000000D03*
D18*
X190000000Y-125000000D03*
D28*
X141212500Y-114000000D03*
X143037500Y-114000000D03*
D14*
X128500000Y-88000000D03*
D15*
X130500000Y-88000000D03*
X132500000Y-88000000D03*
D21*
X174000000Y-109000000D03*
D14*
X115000000Y-100450000D03*
D15*
X117000000Y-100450000D03*
X119000000Y-100450000D03*
D29*
X164175000Y-118000000D03*
X165825000Y-118000000D03*
D21*
X117000000Y-69000000D03*
D18*
X153000000Y-73000000D03*
D19*
X155540000Y-73000000D03*
X158080000Y-73000000D03*
D28*
X131212500Y-114000000D03*
X133037500Y-114000000D03*
D27*
X152062500Y-80000000D03*
X153937500Y-80000000D03*
D30*
X151015000Y-122540000D03*
X153555000Y-120000000D03*
X151015000Y-117460000D03*
D14*
X179000000Y-118000000D03*
D15*
X181000000Y-118000000D03*
D21*
X179000000Y-72000000D03*
D29*
X172175000Y-118000000D03*
X173825000Y-118000000D03*
D27*
X136125000Y-109000000D03*
X138000000Y-109000000D03*
D14*
X128500000Y-78000000D03*
D15*
X130500000Y-78000000D03*
X132500000Y-78000000D03*
D28*
X126212500Y-114000000D03*
X128037500Y-114000000D03*
D14*
X189000000Y-70000000D03*
D15*
X191000000Y-70000000D03*
D21*
X138000000Y-124000000D03*
D27*
X131187500Y-109000000D03*
X133062500Y-109000000D03*
D28*
X145487740Y-77512260D03*
X147312740Y-77512260D03*
D31*
X179062500Y-111050000D03*
X179062500Y-112950000D03*
X180937500Y-112000000D03*
D32*
X158480000Y-87000000D03*
X157520000Y-87000000D03*
D27*
X126125000Y-109000000D03*
X128000000Y-109000000D03*
D33*
X179000000Y-89000000D03*
X177100000Y-89000000D03*
D28*
X136125000Y-114000000D03*
X137950000Y-114000000D03*
D29*
X168175000Y-118000000D03*
X169825000Y-118000000D03*
D14*
X189000000Y-88000000D03*
D15*
X191000000Y-88000000D03*
D29*
X160175000Y-118000000D03*
X161825000Y-118000000D03*
D34*
X178825000Y-94000000D03*
X177275000Y-94000000D03*
D30*
X168015000Y-77540000D03*
X170555000Y-75000000D03*
X168015000Y-72460000D03*
M02*
