G04 #@! TF.GenerationSoftware,KiCad,Pcbnew,6.0.2+dfsg-1*
G04 #@! TF.CreationDate,2022-11-07T23:46:17-08:00*
G04 #@! TF.ProjectId,controller,636f6e74-726f-46c6-9c65-722e6b696361,rev?*
G04 #@! TF.SameCoordinates,Original*
G04 #@! TF.FileFunction,Soldermask,Top*
G04 #@! TF.FilePolarity,Negative*
%FSLAX46Y46*%
G04 Gerber Fmt 4.6, Leading zero omitted, Abs format (unit mm)*
G04 Created by KiCad (PCBNEW 6.0.2+dfsg-1) date 2022-11-07 23:46:17*
%MOMM*%
%LPD*%
G01*
G04 APERTURE LIST*
G04 Aperture macros list*
%AMRoundRect*
0 Rectangle with rounded corners*
0 $1 Rounding radius*
0 $2 $3 $4 $5 $6 $7 $8 $9 X,Y pos of 4 corners*
0 Add a 4 corners polygon primitive as box body*
4,1,4,$2,$3,$4,$5,$6,$7,$8,$9,$2,$3,0*
0 Add four circle primitives for the rounded corners*
1,1,$1+$1,$2,$3*
1,1,$1+$1,$4,$5*
1,1,$1+$1,$6,$7*
1,1,$1+$1,$8,$9*
0 Add four rect primitives between the rounded corners*
20,1,$1+$1,$2,$3,$4,$5,0*
20,1,$1+$1,$4,$5,$6,$7,0*
20,1,$1+$1,$6,$7,$8,$9,0*
20,1,$1+$1,$8,$9,$2,$3,0*%
G04 Aperture macros list end*
%ADD10RoundRect,0.150000X-0.587500X-0.150000X0.587500X-0.150000X0.587500X0.150000X-0.587500X0.150000X0*%
%ADD11C,3.200000*%
%ADD12RoundRect,0.140000X0.170000X-0.140000X0.170000X0.140000X-0.170000X0.140000X-0.170000X-0.140000X0*%
%ADD13RoundRect,0.250000X-0.350000X-0.625000X0.350000X-0.625000X0.350000X0.625000X-0.350000X0.625000X0*%
%ADD14O,1.200000X1.750000*%
%ADD15RoundRect,0.250000X-0.600000X-0.600000X0.600000X-0.600000X0.600000X0.600000X-0.600000X0.600000X0*%
%ADD16C,1.700000*%
%ADD17R,1.700000X1.700000*%
%ADD18O,1.700000X1.700000*%
%ADD19R,1.200000X1.400000*%
%ADD20RoundRect,0.875000X-0.875000X-0.875000X0.875000X-0.875000X0.875000X0.875000X-0.875000X0.875000X0*%
%ADD21RoundRect,0.750000X-0.750000X-1.000000X0.750000X-1.000000X0.750000X1.000000X-0.750000X1.000000X0*%
%ADD22R,3.500000X3.500000*%
%ADD23R,1.600000X0.550000*%
%ADD24R,0.550000X1.600000*%
%ADD25RoundRect,0.243750X-0.243750X-0.456250X0.243750X-0.456250X0.243750X0.456250X-0.243750X0.456250X0*%
%ADD26RoundRect,0.250000X-0.262500X-0.450000X0.262500X-0.450000X0.262500X0.450000X-0.262500X0.450000X0*%
%ADD27RoundRect,0.200000X-0.200000X-0.275000X0.200000X-0.275000X0.200000X0.275000X-0.200000X0.275000X0*%
%ADD28C,1.440000*%
%ADD29RoundRect,0.140000X0.140000X0.170000X-0.140000X0.170000X-0.140000X-0.170000X0.140000X-0.170000X0*%
%ADD30RoundRect,0.250000X0.250000X0.475000X-0.250000X0.475000X-0.250000X-0.475000X0.250000X-0.475000X0*%
%ADD31RoundRect,0.225000X0.225000X0.250000X-0.225000X0.250000X-0.225000X-0.250000X0.225000X-0.250000X0*%
G04 APERTURE END LIST*
D10*
X179062500Y-111050000D03*
X179062500Y-112950000D03*
X180937500Y-112000000D03*
D11*
X144000000Y-91000000D03*
X174000000Y-109000000D03*
X117000000Y-69000000D03*
X179000000Y-72000000D03*
X138000000Y-124000000D03*
D12*
X152000000Y-89480000D03*
X152000000Y-88520000D03*
D13*
X189000000Y-79000000D03*
D14*
X191000000Y-79000000D03*
D15*
X188247500Y-105455000D03*
D16*
X190787500Y-105455000D03*
X188247500Y-107995000D03*
X190787500Y-107995000D03*
X188247500Y-110535000D03*
X190787500Y-110535000D03*
D17*
X161000000Y-125000000D03*
D18*
X163540000Y-125000000D03*
X166080000Y-125000000D03*
X168620000Y-125000000D03*
X171160000Y-125000000D03*
X173700000Y-125000000D03*
X176240000Y-125000000D03*
D19*
X155850000Y-89100000D03*
X155850000Y-86900000D03*
X154150000Y-86900000D03*
X154150000Y-89100000D03*
D13*
X115000000Y-78000000D03*
D14*
X117000000Y-78000000D03*
X119000000Y-78000000D03*
D20*
X119000000Y-121742500D03*
D21*
X116000000Y-117042500D03*
D22*
X122000000Y-117042500D03*
D23*
X163750000Y-89200000D03*
X163750000Y-90000000D03*
X163750000Y-90800000D03*
X163750000Y-91600000D03*
X163750000Y-92400000D03*
X163750000Y-93200000D03*
X163750000Y-94000000D03*
X163750000Y-94800000D03*
D24*
X165200000Y-96250000D03*
X166000000Y-96250000D03*
X166800000Y-96250000D03*
X167600000Y-96250000D03*
X168400000Y-96250000D03*
X169200000Y-96250000D03*
X170000000Y-96250000D03*
X170800000Y-96250000D03*
D23*
X172250000Y-94800000D03*
X172250000Y-94000000D03*
X172250000Y-93200000D03*
X172250000Y-92400000D03*
X172250000Y-91600000D03*
X172250000Y-90800000D03*
X172250000Y-90000000D03*
X172250000Y-89200000D03*
D24*
X170800000Y-87750000D03*
X170000000Y-87750000D03*
X169200000Y-87750000D03*
X168400000Y-87750000D03*
X167600000Y-87750000D03*
X166800000Y-87750000D03*
X166000000Y-87750000D03*
X165200000Y-87750000D03*
D13*
X129000000Y-100450000D03*
D14*
X131000000Y-100450000D03*
X133000000Y-100450000D03*
D13*
X115000000Y-88000000D03*
D14*
X117000000Y-88000000D03*
X119000000Y-88000000D03*
D25*
X141187500Y-109000000D03*
X143062500Y-109000000D03*
D17*
X190000000Y-125000000D03*
D26*
X141212500Y-114000000D03*
X143037500Y-114000000D03*
D13*
X128500000Y-88000000D03*
D14*
X130500000Y-88000000D03*
X132500000Y-88000000D03*
D13*
X115000000Y-100450000D03*
D14*
X117000000Y-100450000D03*
X119000000Y-100450000D03*
D27*
X164175000Y-118000000D03*
X165825000Y-118000000D03*
D17*
X153000000Y-73000000D03*
D18*
X155540000Y-73000000D03*
X158080000Y-73000000D03*
D26*
X131212500Y-114000000D03*
X133037500Y-114000000D03*
D25*
X152062500Y-80000000D03*
X153937500Y-80000000D03*
D28*
X151015000Y-117460000D03*
X153555000Y-120000000D03*
X151015000Y-122540000D03*
D13*
X179000000Y-118000000D03*
D14*
X181000000Y-118000000D03*
D27*
X172175000Y-118000000D03*
X173825000Y-118000000D03*
D25*
X136125000Y-109000000D03*
X138000000Y-109000000D03*
D13*
X128500000Y-78000000D03*
D14*
X130500000Y-78000000D03*
X132500000Y-78000000D03*
D26*
X126212500Y-114000000D03*
X128037500Y-114000000D03*
D13*
X189000000Y-70000000D03*
D14*
X191000000Y-70000000D03*
D25*
X131187500Y-109000000D03*
X133062500Y-109000000D03*
D26*
X145487740Y-77512260D03*
X147312740Y-77512260D03*
D29*
X158480000Y-87000000D03*
X157520000Y-87000000D03*
D25*
X126125000Y-109000000D03*
X128000000Y-109000000D03*
D30*
X179000000Y-89000000D03*
X177100000Y-89000000D03*
D26*
X136125000Y-114000000D03*
X137950000Y-114000000D03*
D27*
X168175000Y-118000000D03*
X169825000Y-118000000D03*
D13*
X189000000Y-88000000D03*
D14*
X191000000Y-88000000D03*
D27*
X160175000Y-118000000D03*
X161825000Y-118000000D03*
D31*
X178825000Y-94000000D03*
X177275000Y-94000000D03*
D28*
X168015000Y-77540000D03*
X170555000Y-75000000D03*
X168015000Y-72460000D03*
M02*
