%FSLAX45Y45*%
G04 Gerber Fmt 4.5, Leading zero omitted, Abs format (unit mm)*
G04 Created by KiCad (PCBNEW 6.0.2+dfsg-1) date 2022-11-27 01:25:38*
%MOMM*%
%LPD*%
G01*
G04 APERTURE LIST*
%TA.AperFunction,Profile*%
%ADD10C,0.100000*%
%TD*%
%ADD11C,0.200000*%
%ADD12C,0.075000*%
%ADD13C,0.080000*%
%ADD14C,0.100000*%
G04 APERTURE END LIST*
D10*
X13200000Y-6400000D02*
X15900000Y-6400000D01*
X15900000Y-6400000D02*
X15900000Y-9300000D01*
X15900000Y-9300000D02*
X13200000Y-9300000D01*
X13200000Y-9300000D02*
X13200000Y-6400000D01*
D11*
D12*
X14062500Y-7762500D02*
X14137500Y-7837500D01*
X14137500Y-7762500D02*
X14062500Y-7837500D01*
X14262500Y-7762500D02*
X14337500Y-7837500D01*
X14337500Y-7762500D02*
X14262500Y-7837500D01*
X15462500Y-7062500D02*
X15537500Y-7137500D01*
X15537500Y-7062500D02*
X15462500Y-7137500D01*
X15462500Y-7262500D02*
X15537500Y-7337500D01*
X15537500Y-7262500D02*
X15462500Y-7337500D01*
X15462500Y-8362500D02*
X15537500Y-8437500D01*
X15537500Y-8362500D02*
X15462500Y-8437500D01*
X15462500Y-8562500D02*
X15537500Y-8637500D01*
X15537500Y-8562500D02*
X15462500Y-8637500D01*
D13*
X14940000Y-6684000D02*
G75*
G03*
X14940000Y-6684000I-40000J0D01*
G01*
X14940000Y-7700000D02*
G75*
G03*
X14940000Y-7700000I-40000J0D01*
G01*
X14940000Y-7992000D02*
G75*
G03*
X14940000Y-7992000I-40000J0D01*
G01*
X14940000Y-9008000D02*
G75*
G03*
X14940000Y-9008000I-40000J0D01*
G01*
D14*
X13500000Y-6787500D02*
X13500000Y-6887500D01*
X13450000Y-6837500D02*
X13550000Y-6837500D01*
X13500000Y-7041500D02*
X13500000Y-7141500D01*
X13450000Y-7091500D02*
X13550000Y-7091500D01*
X13500000Y-7295500D02*
X13500000Y-7395500D01*
X13450000Y-7345500D02*
X13550000Y-7345500D01*
X13500000Y-7549500D02*
X13500000Y-7649500D01*
X13450000Y-7599500D02*
X13550000Y-7599500D01*
X13500000Y-7803500D02*
X13500000Y-7903500D01*
X13450000Y-7853500D02*
X13550000Y-7853500D01*
X13500000Y-8057500D02*
X13500000Y-8157500D01*
X13450000Y-8107500D02*
X13550000Y-8107500D01*
X13500000Y-8311500D02*
X13500000Y-8411500D01*
X13450000Y-8361500D02*
X13550000Y-8361500D01*
X13500000Y-8950000D02*
X13500000Y-9050000D01*
X13450000Y-9000000D02*
X13550000Y-9000000D01*
D11*
X13452619Y-9615476D02*
X13452619Y-9415476D01*
X13500238Y-9415476D01*
X13528809Y-9425000D01*
X13547857Y-9444048D01*
X13557381Y-9463095D01*
X13566905Y-9501190D01*
X13566905Y-9529762D01*
X13557381Y-9567857D01*
X13547857Y-9586905D01*
X13528809Y-9605952D01*
X13500238Y-9615476D01*
X13452619Y-9615476D01*
X13652619Y-9615476D02*
X13652619Y-9482143D01*
X13652619Y-9520238D02*
X13662143Y-9501190D01*
X13671667Y-9491667D01*
X13690714Y-9482143D01*
X13709762Y-9482143D01*
X13776428Y-9615476D02*
X13776428Y-9482143D01*
X13776428Y-9415476D02*
X13766905Y-9425000D01*
X13776428Y-9434524D01*
X13785952Y-9425000D01*
X13776428Y-9415476D01*
X13776428Y-9434524D01*
X13900238Y-9615476D02*
X13881190Y-9605952D01*
X13871667Y-9586905D01*
X13871667Y-9415476D01*
X14005000Y-9615476D02*
X13985952Y-9605952D01*
X13976428Y-9586905D01*
X13976428Y-9415476D01*
X14233571Y-9615476D02*
X14233571Y-9415476D01*
X14300238Y-9558333D01*
X14366905Y-9415476D01*
X14366905Y-9615476D01*
X14547857Y-9615476D02*
X14547857Y-9510714D01*
X14538333Y-9491667D01*
X14519286Y-9482143D01*
X14481190Y-9482143D01*
X14462143Y-9491667D01*
X14547857Y-9605952D02*
X14528809Y-9615476D01*
X14481190Y-9615476D01*
X14462143Y-9605952D01*
X14452619Y-9586905D01*
X14452619Y-9567857D01*
X14462143Y-9548810D01*
X14481190Y-9539286D01*
X14528809Y-9539286D01*
X14547857Y-9529762D01*
X14643095Y-9482143D02*
X14643095Y-9682143D01*
X14643095Y-9491667D02*
X14662143Y-9482143D01*
X14700238Y-9482143D01*
X14719286Y-9491667D01*
X14728809Y-9501190D01*
X14738333Y-9520238D01*
X14738333Y-9577381D01*
X14728809Y-9596429D01*
X14719286Y-9605952D01*
X14700238Y-9615476D01*
X14662143Y-9615476D01*
X14643095Y-9605952D01*
X14824048Y-9596429D02*
X14833571Y-9605952D01*
X14824048Y-9615476D01*
X14814524Y-9605952D01*
X14824048Y-9596429D01*
X14824048Y-9615476D01*
X14824048Y-9491667D02*
X14833571Y-9501190D01*
X14824048Y-9510714D01*
X14814524Y-9501190D01*
X14824048Y-9491667D01*
X14824048Y-9510714D01*
D12*
X13120000Y-9907500D02*
X13195000Y-9982500D01*
X13195000Y-9907500D02*
X13120000Y-9982500D01*
D11*
X13490714Y-9835476D02*
X13509762Y-9835476D01*
X13528809Y-9845000D01*
X13538333Y-9854524D01*
X13547857Y-9873571D01*
X13557381Y-9911667D01*
X13557381Y-9959286D01*
X13547857Y-9997381D01*
X13538333Y-10016429D01*
X13528809Y-10025952D01*
X13509762Y-10035476D01*
X13490714Y-10035476D01*
X13471667Y-10025952D01*
X13462143Y-10016429D01*
X13452619Y-9997381D01*
X13443095Y-9959286D01*
X13443095Y-9911667D01*
X13452619Y-9873571D01*
X13462143Y-9854524D01*
X13471667Y-9845000D01*
X13490714Y-9835476D01*
X13643095Y-10016429D02*
X13652619Y-10025952D01*
X13643095Y-10035476D01*
X13633571Y-10025952D01*
X13643095Y-10016429D01*
X13643095Y-10035476D01*
X13719286Y-9835476D02*
X13852619Y-9835476D01*
X13766905Y-10035476D01*
X14024048Y-9835476D02*
X13928809Y-9835476D01*
X13919286Y-9930714D01*
X13928809Y-9921190D01*
X13947857Y-9911667D01*
X13995476Y-9911667D01*
X14014524Y-9921190D01*
X14024048Y-9930714D01*
X14033571Y-9949762D01*
X14033571Y-9997381D01*
X14024048Y-10016429D01*
X14014524Y-10025952D01*
X13995476Y-10035476D01*
X13947857Y-10035476D01*
X13928809Y-10025952D01*
X13919286Y-10016429D01*
X14157381Y-9835476D02*
X14176428Y-9835476D01*
X14195476Y-9845000D01*
X14205000Y-9854524D01*
X14214524Y-9873571D01*
X14224048Y-9911667D01*
X14224048Y-9959286D01*
X14214524Y-9997381D01*
X14205000Y-10016429D01*
X14195476Y-10025952D01*
X14176428Y-10035476D01*
X14157381Y-10035476D01*
X14138333Y-10025952D01*
X14128809Y-10016429D01*
X14119286Y-9997381D01*
X14109762Y-9959286D01*
X14109762Y-9911667D01*
X14119286Y-9873571D01*
X14128809Y-9854524D01*
X14138333Y-9845000D01*
X14157381Y-9835476D01*
X14309762Y-10035476D02*
X14309762Y-9902143D01*
X14309762Y-9921190D02*
X14319286Y-9911667D01*
X14338333Y-9902143D01*
X14366905Y-9902143D01*
X14385952Y-9911667D01*
X14395476Y-9930714D01*
X14395476Y-10035476D01*
X14395476Y-9930714D02*
X14405000Y-9911667D01*
X14424048Y-9902143D01*
X14452619Y-9902143D01*
X14471667Y-9911667D01*
X14481190Y-9930714D01*
X14481190Y-10035476D01*
X14576428Y-10035476D02*
X14576428Y-9902143D01*
X14576428Y-9921190D02*
X14585952Y-9911667D01*
X14605000Y-9902143D01*
X14633571Y-9902143D01*
X14652619Y-9911667D01*
X14662143Y-9930714D01*
X14662143Y-10035476D01*
X14662143Y-9930714D02*
X14671667Y-9911667D01*
X14690714Y-9902143D01*
X14719286Y-9902143D01*
X14738333Y-9911667D01*
X14747857Y-9930714D01*
X14747857Y-10035476D01*
X15138333Y-9825952D02*
X14966905Y-10083095D01*
X15395476Y-9835476D02*
X15414524Y-9835476D01*
X15433571Y-9845000D01*
X15443095Y-9854524D01*
X15452619Y-9873571D01*
X15462143Y-9911667D01*
X15462143Y-9959286D01*
X15452619Y-9997381D01*
X15443095Y-10016429D01*
X15433571Y-10025952D01*
X15414524Y-10035476D01*
X15395476Y-10035476D01*
X15376428Y-10025952D01*
X15366905Y-10016429D01*
X15357381Y-9997381D01*
X15347857Y-9959286D01*
X15347857Y-9911667D01*
X15357381Y-9873571D01*
X15366905Y-9854524D01*
X15376428Y-9845000D01*
X15395476Y-9835476D01*
X15547857Y-10016429D02*
X15557381Y-10025952D01*
X15547857Y-10035476D01*
X15538333Y-10025952D01*
X15547857Y-10016429D01*
X15547857Y-10035476D01*
X15681190Y-9835476D02*
X15700238Y-9835476D01*
X15719286Y-9845000D01*
X15728809Y-9854524D01*
X15738333Y-9873571D01*
X15747857Y-9911667D01*
X15747857Y-9959286D01*
X15738333Y-9997381D01*
X15728809Y-10016429D01*
X15719286Y-10025952D01*
X15700238Y-10035476D01*
X15681190Y-10035476D01*
X15662143Y-10025952D01*
X15652619Y-10016429D01*
X15643095Y-9997381D01*
X15633571Y-9959286D01*
X15633571Y-9911667D01*
X15643095Y-9873571D01*
X15652619Y-9854524D01*
X15662143Y-9845000D01*
X15681190Y-9835476D01*
X15824048Y-9854524D02*
X15833571Y-9845000D01*
X15852619Y-9835476D01*
X15900238Y-9835476D01*
X15919286Y-9845000D01*
X15928809Y-9854524D01*
X15938333Y-9873571D01*
X15938333Y-9892619D01*
X15928809Y-9921190D01*
X15814524Y-10035476D01*
X15938333Y-10035476D01*
X16033571Y-10035476D02*
X16071667Y-10035476D01*
X16090714Y-10025952D01*
X16100238Y-10016429D01*
X16119286Y-9987857D01*
X16128809Y-9949762D01*
X16128809Y-9873571D01*
X16119286Y-9854524D01*
X16109762Y-9845000D01*
X16090714Y-9835476D01*
X16052619Y-9835476D01*
X16033571Y-9845000D01*
X16024048Y-9854524D01*
X16014524Y-9873571D01*
X16014524Y-9921190D01*
X16024048Y-9940238D01*
X16033571Y-9949762D01*
X16052619Y-9959286D01*
X16090714Y-9959286D01*
X16109762Y-9949762D01*
X16119286Y-9940238D01*
X16128809Y-9921190D01*
X16309762Y-9835476D02*
X16214524Y-9835476D01*
X16205000Y-9930714D01*
X16214524Y-9921190D01*
X16233571Y-9911667D01*
X16281190Y-9911667D01*
X16300238Y-9921190D01*
X16309762Y-9930714D01*
X16319286Y-9949762D01*
X16319286Y-9997381D01*
X16309762Y-10016429D01*
X16300238Y-10025952D01*
X16281190Y-10035476D01*
X16233571Y-10035476D01*
X16214524Y-10025952D01*
X16205000Y-10016429D01*
X16395476Y-9835476D02*
X16395476Y-9873571D01*
X16471667Y-9835476D02*
X16471667Y-9873571D01*
X16766905Y-10111667D02*
X16757381Y-10102143D01*
X16738333Y-10073571D01*
X16728809Y-10054524D01*
X16719286Y-10025952D01*
X16709762Y-9978333D01*
X16709762Y-9940238D01*
X16719286Y-9892619D01*
X16728809Y-9864048D01*
X16738333Y-9845000D01*
X16757381Y-9816429D01*
X16766905Y-9806905D01*
X16928810Y-9835476D02*
X16890714Y-9835476D01*
X16871667Y-9845000D01*
X16862143Y-9854524D01*
X16843095Y-9883095D01*
X16833571Y-9921190D01*
X16833571Y-9997381D01*
X16843095Y-10016429D01*
X16852619Y-10025952D01*
X16871667Y-10035476D01*
X16909762Y-10035476D01*
X16928810Y-10025952D01*
X16938333Y-10016429D01*
X16947857Y-9997381D01*
X16947857Y-9949762D01*
X16938333Y-9930714D01*
X16928810Y-9921190D01*
X16909762Y-9911667D01*
X16871667Y-9911667D01*
X16852619Y-9921190D01*
X16843095Y-9930714D01*
X16833571Y-9949762D01*
X17185952Y-10035476D02*
X17185952Y-9835476D01*
X17271667Y-10035476D02*
X17271667Y-9930714D01*
X17262143Y-9911667D01*
X17243095Y-9902143D01*
X17214524Y-9902143D01*
X17195476Y-9911667D01*
X17185952Y-9921190D01*
X17395476Y-10035476D02*
X17376429Y-10025952D01*
X17366905Y-10016429D01*
X17357381Y-9997381D01*
X17357381Y-9940238D01*
X17366905Y-9921190D01*
X17376429Y-9911667D01*
X17395476Y-9902143D01*
X17424048Y-9902143D01*
X17443095Y-9911667D01*
X17452619Y-9921190D01*
X17462143Y-9940238D01*
X17462143Y-9997381D01*
X17452619Y-10016429D01*
X17443095Y-10025952D01*
X17424048Y-10035476D01*
X17395476Y-10035476D01*
X17576429Y-10035476D02*
X17557381Y-10025952D01*
X17547857Y-10006905D01*
X17547857Y-9835476D01*
X17728810Y-10025952D02*
X17709762Y-10035476D01*
X17671667Y-10035476D01*
X17652619Y-10025952D01*
X17643095Y-10006905D01*
X17643095Y-9930714D01*
X17652619Y-9911667D01*
X17671667Y-9902143D01*
X17709762Y-9902143D01*
X17728810Y-9911667D01*
X17738333Y-9930714D01*
X17738333Y-9949762D01*
X17643095Y-9968810D01*
X17814524Y-10025952D02*
X17833571Y-10035476D01*
X17871667Y-10035476D01*
X17890714Y-10025952D01*
X17900238Y-10006905D01*
X17900238Y-9997381D01*
X17890714Y-9978333D01*
X17871667Y-9968810D01*
X17843095Y-9968810D01*
X17824048Y-9959286D01*
X17814524Y-9940238D01*
X17814524Y-9930714D01*
X17824048Y-9911667D01*
X17843095Y-9902143D01*
X17871667Y-9902143D01*
X17890714Y-9911667D01*
X17966905Y-10111667D02*
X17976429Y-10102143D01*
X17995476Y-10073571D01*
X18005000Y-10054524D01*
X18014524Y-10025952D01*
X18024048Y-9978333D01*
X18024048Y-9940238D01*
X18014524Y-9892619D01*
X18005000Y-9864048D01*
X17995476Y-9845000D01*
X17976429Y-9816429D01*
X17966905Y-9806905D01*
D13*
X13195000Y-10209000D02*
G75*
G03*
X13195000Y-10209000I-40000J0D01*
G01*
D11*
X13490714Y-10099476D02*
X13509762Y-10099476D01*
X13528809Y-10109000D01*
X13538333Y-10118524D01*
X13547857Y-10137571D01*
X13557381Y-10175667D01*
X13557381Y-10223286D01*
X13547857Y-10261381D01*
X13538333Y-10280429D01*
X13528809Y-10289952D01*
X13509762Y-10299476D01*
X13490714Y-10299476D01*
X13471667Y-10289952D01*
X13462143Y-10280429D01*
X13452619Y-10261381D01*
X13443095Y-10223286D01*
X13443095Y-10175667D01*
X13452619Y-10137571D01*
X13462143Y-10118524D01*
X13471667Y-10109000D01*
X13490714Y-10099476D01*
X13643095Y-10280429D02*
X13652619Y-10289952D01*
X13643095Y-10299476D01*
X13633571Y-10289952D01*
X13643095Y-10280429D01*
X13643095Y-10299476D01*
X13766905Y-10185190D02*
X13747857Y-10175667D01*
X13738333Y-10166143D01*
X13728809Y-10147095D01*
X13728809Y-10137571D01*
X13738333Y-10118524D01*
X13747857Y-10109000D01*
X13766905Y-10099476D01*
X13805000Y-10099476D01*
X13824048Y-10109000D01*
X13833571Y-10118524D01*
X13843095Y-10137571D01*
X13843095Y-10147095D01*
X13833571Y-10166143D01*
X13824048Y-10175667D01*
X13805000Y-10185190D01*
X13766905Y-10185190D01*
X13747857Y-10194714D01*
X13738333Y-10204238D01*
X13728809Y-10223286D01*
X13728809Y-10261381D01*
X13738333Y-10280429D01*
X13747857Y-10289952D01*
X13766905Y-10299476D01*
X13805000Y-10299476D01*
X13824048Y-10289952D01*
X13833571Y-10280429D01*
X13843095Y-10261381D01*
X13843095Y-10223286D01*
X13833571Y-10204238D01*
X13824048Y-10194714D01*
X13805000Y-10185190D01*
X13966905Y-10099476D02*
X13985952Y-10099476D01*
X14005000Y-10109000D01*
X14014524Y-10118524D01*
X14024048Y-10137571D01*
X14033571Y-10175667D01*
X14033571Y-10223286D01*
X14024048Y-10261381D01*
X14014524Y-10280429D01*
X14005000Y-10289952D01*
X13985952Y-10299476D01*
X13966905Y-10299476D01*
X13947857Y-10289952D01*
X13938333Y-10280429D01*
X13928809Y-10261381D01*
X13919286Y-10223286D01*
X13919286Y-10175667D01*
X13928809Y-10137571D01*
X13938333Y-10118524D01*
X13947857Y-10109000D01*
X13966905Y-10099476D01*
X14157381Y-10099476D02*
X14176428Y-10099476D01*
X14195476Y-10109000D01*
X14205000Y-10118524D01*
X14214524Y-10137571D01*
X14224048Y-10175667D01*
X14224048Y-10223286D01*
X14214524Y-10261381D01*
X14205000Y-10280429D01*
X14195476Y-10289952D01*
X14176428Y-10299476D01*
X14157381Y-10299476D01*
X14138333Y-10289952D01*
X14128809Y-10280429D01*
X14119286Y-10261381D01*
X14109762Y-10223286D01*
X14109762Y-10175667D01*
X14119286Y-10137571D01*
X14128809Y-10118524D01*
X14138333Y-10109000D01*
X14157381Y-10099476D01*
X14309762Y-10299476D02*
X14309762Y-10166143D01*
X14309762Y-10185190D02*
X14319286Y-10175667D01*
X14338333Y-10166143D01*
X14366905Y-10166143D01*
X14385952Y-10175667D01*
X14395476Y-10194714D01*
X14395476Y-10299476D01*
X14395476Y-10194714D02*
X14405000Y-10175667D01*
X14424048Y-10166143D01*
X14452619Y-10166143D01*
X14471667Y-10175667D01*
X14481190Y-10194714D01*
X14481190Y-10299476D01*
X14576428Y-10299476D02*
X14576428Y-10166143D01*
X14576428Y-10185190D02*
X14585952Y-10175667D01*
X14605000Y-10166143D01*
X14633571Y-10166143D01*
X14652619Y-10175667D01*
X14662143Y-10194714D01*
X14662143Y-10299476D01*
X14662143Y-10194714D02*
X14671667Y-10175667D01*
X14690714Y-10166143D01*
X14719286Y-10166143D01*
X14738333Y-10175667D01*
X14747857Y-10194714D01*
X14747857Y-10299476D01*
X15138333Y-10089952D02*
X14966905Y-10347095D01*
X15395476Y-10099476D02*
X15414524Y-10099476D01*
X15433571Y-10109000D01*
X15443095Y-10118524D01*
X15452619Y-10137571D01*
X15462143Y-10175667D01*
X15462143Y-10223286D01*
X15452619Y-10261381D01*
X15443095Y-10280429D01*
X15433571Y-10289952D01*
X15414524Y-10299476D01*
X15395476Y-10299476D01*
X15376428Y-10289952D01*
X15366905Y-10280429D01*
X15357381Y-10261381D01*
X15347857Y-10223286D01*
X15347857Y-10175667D01*
X15357381Y-10137571D01*
X15366905Y-10118524D01*
X15376428Y-10109000D01*
X15395476Y-10099476D01*
X15547857Y-10280429D02*
X15557381Y-10289952D01*
X15547857Y-10299476D01*
X15538333Y-10289952D01*
X15547857Y-10280429D01*
X15547857Y-10299476D01*
X15681190Y-10099476D02*
X15700238Y-10099476D01*
X15719286Y-10109000D01*
X15728809Y-10118524D01*
X15738333Y-10137571D01*
X15747857Y-10175667D01*
X15747857Y-10223286D01*
X15738333Y-10261381D01*
X15728809Y-10280429D01*
X15719286Y-10289952D01*
X15700238Y-10299476D01*
X15681190Y-10299476D01*
X15662143Y-10289952D01*
X15652619Y-10280429D01*
X15643095Y-10261381D01*
X15633571Y-10223286D01*
X15633571Y-10175667D01*
X15643095Y-10137571D01*
X15652619Y-10118524D01*
X15662143Y-10109000D01*
X15681190Y-10099476D01*
X15814524Y-10099476D02*
X15938333Y-10099476D01*
X15871667Y-10175667D01*
X15900238Y-10175667D01*
X15919286Y-10185190D01*
X15928809Y-10194714D01*
X15938333Y-10213762D01*
X15938333Y-10261381D01*
X15928809Y-10280429D01*
X15919286Y-10289952D01*
X15900238Y-10299476D01*
X15843095Y-10299476D01*
X15824048Y-10289952D01*
X15814524Y-10280429D01*
X16128809Y-10299476D02*
X16014524Y-10299476D01*
X16071667Y-10299476D02*
X16071667Y-10099476D01*
X16052619Y-10128048D01*
X16033571Y-10147095D01*
X16014524Y-10156619D01*
X16309762Y-10099476D02*
X16214524Y-10099476D01*
X16205000Y-10194714D01*
X16214524Y-10185190D01*
X16233571Y-10175667D01*
X16281190Y-10175667D01*
X16300238Y-10185190D01*
X16309762Y-10194714D01*
X16319286Y-10213762D01*
X16319286Y-10261381D01*
X16309762Y-10280429D01*
X16300238Y-10289952D01*
X16281190Y-10299476D01*
X16233571Y-10299476D01*
X16214524Y-10289952D01*
X16205000Y-10280429D01*
X16395476Y-10099476D02*
X16395476Y-10137571D01*
X16471667Y-10099476D02*
X16471667Y-10137571D01*
X16766905Y-10375667D02*
X16757381Y-10366143D01*
X16738333Y-10337571D01*
X16728809Y-10318524D01*
X16719286Y-10289952D01*
X16709762Y-10242333D01*
X16709762Y-10204238D01*
X16719286Y-10156619D01*
X16728809Y-10128048D01*
X16738333Y-10109000D01*
X16757381Y-10080429D01*
X16766905Y-10070905D01*
X16928810Y-10166143D02*
X16928810Y-10299476D01*
X16881190Y-10089952D02*
X16833571Y-10232810D01*
X16957381Y-10232810D01*
X17185952Y-10299476D02*
X17185952Y-10099476D01*
X17271667Y-10299476D02*
X17271667Y-10194714D01*
X17262143Y-10175667D01*
X17243095Y-10166143D01*
X17214524Y-10166143D01*
X17195476Y-10175667D01*
X17185952Y-10185190D01*
X17395476Y-10299476D02*
X17376429Y-10289952D01*
X17366905Y-10280429D01*
X17357381Y-10261381D01*
X17357381Y-10204238D01*
X17366905Y-10185190D01*
X17376429Y-10175667D01*
X17395476Y-10166143D01*
X17424048Y-10166143D01*
X17443095Y-10175667D01*
X17452619Y-10185190D01*
X17462143Y-10204238D01*
X17462143Y-10261381D01*
X17452619Y-10280429D01*
X17443095Y-10289952D01*
X17424048Y-10299476D01*
X17395476Y-10299476D01*
X17576429Y-10299476D02*
X17557381Y-10289952D01*
X17547857Y-10270905D01*
X17547857Y-10099476D01*
X17728810Y-10289952D02*
X17709762Y-10299476D01*
X17671667Y-10299476D01*
X17652619Y-10289952D01*
X17643095Y-10270905D01*
X17643095Y-10194714D01*
X17652619Y-10175667D01*
X17671667Y-10166143D01*
X17709762Y-10166143D01*
X17728810Y-10175667D01*
X17738333Y-10194714D01*
X17738333Y-10213762D01*
X17643095Y-10232810D01*
X17814524Y-10289952D02*
X17833571Y-10299476D01*
X17871667Y-10299476D01*
X17890714Y-10289952D01*
X17900238Y-10270905D01*
X17900238Y-10261381D01*
X17890714Y-10242333D01*
X17871667Y-10232810D01*
X17843095Y-10232810D01*
X17824048Y-10223286D01*
X17814524Y-10204238D01*
X17814524Y-10194714D01*
X17824048Y-10175667D01*
X17843095Y-10166143D01*
X17871667Y-10166143D01*
X17890714Y-10175667D01*
X17966905Y-10375667D02*
X17976429Y-10366143D01*
X17995476Y-10337571D01*
X18005000Y-10318524D01*
X18014524Y-10289952D01*
X18024048Y-10242333D01*
X18024048Y-10204238D01*
X18014524Y-10156619D01*
X18005000Y-10128048D01*
X17995476Y-10109000D01*
X17976429Y-10080429D01*
X17966905Y-10070905D01*
D14*
X13145000Y-10423000D02*
X13145000Y-10523000D01*
X13095000Y-10473000D02*
X13195000Y-10473000D01*
D11*
X13557381Y-10563476D02*
X13443095Y-10563476D01*
X13500238Y-10563476D02*
X13500238Y-10363476D01*
X13481190Y-10392048D01*
X13462143Y-10411095D01*
X13443095Y-10420619D01*
X13643095Y-10544429D02*
X13652619Y-10553952D01*
X13643095Y-10563476D01*
X13633571Y-10553952D01*
X13643095Y-10544429D01*
X13643095Y-10563476D01*
X13776428Y-10363476D02*
X13795476Y-10363476D01*
X13814524Y-10373000D01*
X13824048Y-10382524D01*
X13833571Y-10401571D01*
X13843095Y-10439667D01*
X13843095Y-10487286D01*
X13833571Y-10525381D01*
X13824048Y-10544429D01*
X13814524Y-10553952D01*
X13795476Y-10563476D01*
X13776428Y-10563476D01*
X13757381Y-10553952D01*
X13747857Y-10544429D01*
X13738333Y-10525381D01*
X13728809Y-10487286D01*
X13728809Y-10439667D01*
X13738333Y-10401571D01*
X13747857Y-10382524D01*
X13757381Y-10373000D01*
X13776428Y-10363476D01*
X13966905Y-10363476D02*
X13985952Y-10363476D01*
X14005000Y-10373000D01*
X14014524Y-10382524D01*
X14024048Y-10401571D01*
X14033571Y-10439667D01*
X14033571Y-10487286D01*
X14024048Y-10525381D01*
X14014524Y-10544429D01*
X14005000Y-10553952D01*
X13985952Y-10563476D01*
X13966905Y-10563476D01*
X13947857Y-10553952D01*
X13938333Y-10544429D01*
X13928809Y-10525381D01*
X13919286Y-10487286D01*
X13919286Y-10439667D01*
X13928809Y-10401571D01*
X13938333Y-10382524D01*
X13947857Y-10373000D01*
X13966905Y-10363476D01*
X14157381Y-10363476D02*
X14176428Y-10363476D01*
X14195476Y-10373000D01*
X14205000Y-10382524D01*
X14214524Y-10401571D01*
X14224048Y-10439667D01*
X14224048Y-10487286D01*
X14214524Y-10525381D01*
X14205000Y-10544429D01*
X14195476Y-10553952D01*
X14176428Y-10563476D01*
X14157381Y-10563476D01*
X14138333Y-10553952D01*
X14128809Y-10544429D01*
X14119286Y-10525381D01*
X14109762Y-10487286D01*
X14109762Y-10439667D01*
X14119286Y-10401571D01*
X14128809Y-10382524D01*
X14138333Y-10373000D01*
X14157381Y-10363476D01*
X14309762Y-10563476D02*
X14309762Y-10430143D01*
X14309762Y-10449190D02*
X14319286Y-10439667D01*
X14338333Y-10430143D01*
X14366905Y-10430143D01*
X14385952Y-10439667D01*
X14395476Y-10458714D01*
X14395476Y-10563476D01*
X14395476Y-10458714D02*
X14405000Y-10439667D01*
X14424048Y-10430143D01*
X14452619Y-10430143D01*
X14471667Y-10439667D01*
X14481190Y-10458714D01*
X14481190Y-10563476D01*
X14576428Y-10563476D02*
X14576428Y-10430143D01*
X14576428Y-10449190D02*
X14585952Y-10439667D01*
X14605000Y-10430143D01*
X14633571Y-10430143D01*
X14652619Y-10439667D01*
X14662143Y-10458714D01*
X14662143Y-10563476D01*
X14662143Y-10458714D02*
X14671667Y-10439667D01*
X14690714Y-10430143D01*
X14719286Y-10430143D01*
X14738333Y-10439667D01*
X14747857Y-10458714D01*
X14747857Y-10563476D01*
X15138333Y-10353952D02*
X14966905Y-10611095D01*
X15395476Y-10363476D02*
X15414524Y-10363476D01*
X15433571Y-10373000D01*
X15443095Y-10382524D01*
X15452619Y-10401571D01*
X15462143Y-10439667D01*
X15462143Y-10487286D01*
X15452619Y-10525381D01*
X15443095Y-10544429D01*
X15433571Y-10553952D01*
X15414524Y-10563476D01*
X15395476Y-10563476D01*
X15376428Y-10553952D01*
X15366905Y-10544429D01*
X15357381Y-10525381D01*
X15347857Y-10487286D01*
X15347857Y-10439667D01*
X15357381Y-10401571D01*
X15366905Y-10382524D01*
X15376428Y-10373000D01*
X15395476Y-10363476D01*
X15547857Y-10544429D02*
X15557381Y-10553952D01*
X15547857Y-10563476D01*
X15538333Y-10553952D01*
X15547857Y-10544429D01*
X15547857Y-10563476D01*
X15681190Y-10363476D02*
X15700238Y-10363476D01*
X15719286Y-10373000D01*
X15728809Y-10382524D01*
X15738333Y-10401571D01*
X15747857Y-10439667D01*
X15747857Y-10487286D01*
X15738333Y-10525381D01*
X15728809Y-10544429D01*
X15719286Y-10553952D01*
X15700238Y-10563476D01*
X15681190Y-10563476D01*
X15662143Y-10553952D01*
X15652619Y-10544429D01*
X15643095Y-10525381D01*
X15633571Y-10487286D01*
X15633571Y-10439667D01*
X15643095Y-10401571D01*
X15652619Y-10382524D01*
X15662143Y-10373000D01*
X15681190Y-10363476D01*
X15814524Y-10363476D02*
X15938333Y-10363476D01*
X15871667Y-10439667D01*
X15900238Y-10439667D01*
X15919286Y-10449190D01*
X15928809Y-10458714D01*
X15938333Y-10477762D01*
X15938333Y-10525381D01*
X15928809Y-10544429D01*
X15919286Y-10553952D01*
X15900238Y-10563476D01*
X15843095Y-10563476D01*
X15824048Y-10553952D01*
X15814524Y-10544429D01*
X16033571Y-10563476D02*
X16071667Y-10563476D01*
X16090714Y-10553952D01*
X16100238Y-10544429D01*
X16119286Y-10515857D01*
X16128809Y-10477762D01*
X16128809Y-10401571D01*
X16119286Y-10382524D01*
X16109762Y-10373000D01*
X16090714Y-10363476D01*
X16052619Y-10363476D01*
X16033571Y-10373000D01*
X16024048Y-10382524D01*
X16014524Y-10401571D01*
X16014524Y-10449190D01*
X16024048Y-10468238D01*
X16033571Y-10477762D01*
X16052619Y-10487286D01*
X16090714Y-10487286D01*
X16109762Y-10477762D01*
X16119286Y-10468238D01*
X16128809Y-10449190D01*
X16300238Y-10430143D02*
X16300238Y-10563476D01*
X16252619Y-10353952D02*
X16205000Y-10496810D01*
X16328809Y-10496810D01*
X16395476Y-10363476D02*
X16395476Y-10401571D01*
X16471667Y-10363476D02*
X16471667Y-10401571D01*
X16766905Y-10639667D02*
X16757381Y-10630143D01*
X16738333Y-10601571D01*
X16728809Y-10582524D01*
X16719286Y-10553952D01*
X16709762Y-10506333D01*
X16709762Y-10468238D01*
X16719286Y-10420619D01*
X16728809Y-10392048D01*
X16738333Y-10373000D01*
X16757381Y-10344429D01*
X16766905Y-10334905D01*
X16871667Y-10449190D02*
X16852619Y-10439667D01*
X16843095Y-10430143D01*
X16833571Y-10411095D01*
X16833571Y-10401571D01*
X16843095Y-10382524D01*
X16852619Y-10373000D01*
X16871667Y-10363476D01*
X16909762Y-10363476D01*
X16928810Y-10373000D01*
X16938333Y-10382524D01*
X16947857Y-10401571D01*
X16947857Y-10411095D01*
X16938333Y-10430143D01*
X16928810Y-10439667D01*
X16909762Y-10449190D01*
X16871667Y-10449190D01*
X16852619Y-10458714D01*
X16843095Y-10468238D01*
X16833571Y-10487286D01*
X16833571Y-10525381D01*
X16843095Y-10544429D01*
X16852619Y-10553952D01*
X16871667Y-10563476D01*
X16909762Y-10563476D01*
X16928810Y-10553952D01*
X16938333Y-10544429D01*
X16947857Y-10525381D01*
X16947857Y-10487286D01*
X16938333Y-10468238D01*
X16928810Y-10458714D01*
X16909762Y-10449190D01*
X17185952Y-10563476D02*
X17185952Y-10363476D01*
X17271667Y-10563476D02*
X17271667Y-10458714D01*
X17262143Y-10439667D01*
X17243095Y-10430143D01*
X17214524Y-10430143D01*
X17195476Y-10439667D01*
X17185952Y-10449190D01*
X17395476Y-10563476D02*
X17376429Y-10553952D01*
X17366905Y-10544429D01*
X17357381Y-10525381D01*
X17357381Y-10468238D01*
X17366905Y-10449190D01*
X17376429Y-10439667D01*
X17395476Y-10430143D01*
X17424048Y-10430143D01*
X17443095Y-10439667D01*
X17452619Y-10449190D01*
X17462143Y-10468238D01*
X17462143Y-10525381D01*
X17452619Y-10544429D01*
X17443095Y-10553952D01*
X17424048Y-10563476D01*
X17395476Y-10563476D01*
X17576429Y-10563476D02*
X17557381Y-10553952D01*
X17547857Y-10534905D01*
X17547857Y-10363476D01*
X17728810Y-10553952D02*
X17709762Y-10563476D01*
X17671667Y-10563476D01*
X17652619Y-10553952D01*
X17643095Y-10534905D01*
X17643095Y-10458714D01*
X17652619Y-10439667D01*
X17671667Y-10430143D01*
X17709762Y-10430143D01*
X17728810Y-10439667D01*
X17738333Y-10458714D01*
X17738333Y-10477762D01*
X17643095Y-10496810D01*
X17814524Y-10553952D02*
X17833571Y-10563476D01*
X17871667Y-10563476D01*
X17890714Y-10553952D01*
X17900238Y-10534905D01*
X17900238Y-10525381D01*
X17890714Y-10506333D01*
X17871667Y-10496810D01*
X17843095Y-10496810D01*
X17824048Y-10487286D01*
X17814524Y-10468238D01*
X17814524Y-10458714D01*
X17824048Y-10439667D01*
X17843095Y-10430143D01*
X17871667Y-10430143D01*
X17890714Y-10439667D01*
X17966905Y-10639667D02*
X17976429Y-10630143D01*
X17995476Y-10601571D01*
X18005000Y-10582524D01*
X18014524Y-10553952D01*
X18024048Y-10506333D01*
X18024048Y-10468238D01*
X18014524Y-10420619D01*
X18005000Y-10392048D01*
X17995476Y-10373000D01*
X17976429Y-10344429D01*
X17966905Y-10334905D01*
M02*
