G04 #@! TF.GenerationSoftware,KiCad,Pcbnew,6.0.2+dfsg-1*
G04 #@! TF.CreationDate,2022-11-27T01:25:19-05:00*
G04 #@! TF.ProjectId,remote,72656d6f-7465-42e6-9b69-6361645f7063,rev?*
G04 #@! TF.SameCoordinates,Original*
G04 #@! TF.FileFunction,Copper,L2,Bot*
G04 #@! TF.FilePolarity,Positive*
%FSLAX46Y46*%
G04 Gerber Fmt 4.6, Leading zero omitted, Abs format (unit mm)*
G04 Created by KiCad (PCBNEW 6.0.2+dfsg-1) date 2022-11-27 01:25:19*
%MOMM*%
%LPD*%
G01*
G04 APERTURE LIST*
G04 Aperture macros list*
%AMRoundRect*
0 Rectangle with rounded corners*
0 $1 Rounding radius*
0 $2 $3 $4 $5 $6 $7 $8 $9 X,Y pos of 4 corners*
0 Add a 4 corners polygon primitive as box body*
4,1,4,$2,$3,$4,$5,$6,$7,$8,$9,$2,$3,0*
0 Add four circle primitives for the rounded corners*
1,1,$1+$1,$2,$3*
1,1,$1+$1,$4,$5*
1,1,$1+$1,$6,$7*
1,1,$1+$1,$8,$9*
0 Add four rect primitives between the rounded corners*
20,1,$1+$1,$2,$3,$4,$5,0*
20,1,$1+$1,$4,$5,$6,$7,0*
20,1,$1+$1,$6,$7,$8,$9,0*
20,1,$1+$1,$8,$9,$2,$3,0*%
G04 Aperture macros list end*
G04 #@! TA.AperFunction,ComponentPad*
%ADD10C,1.600000*%
G04 #@! TD*
G04 #@! TA.AperFunction,ComponentPad*
%ADD11O,1.600000X1.600000*%
G04 #@! TD*
G04 #@! TA.AperFunction,ComponentPad*
%ADD12RoundRect,0.250000X-0.625000X0.350000X-0.625000X-0.350000X0.625000X-0.350000X0.625000X0.350000X0*%
G04 #@! TD*
G04 #@! TA.AperFunction,ComponentPad*
%ADD13O,1.750000X1.200000*%
G04 #@! TD*
G04 #@! TA.AperFunction,ComponentPad*
%ADD14RoundRect,0.250000X-0.350000X-0.625000X0.350000X-0.625000X0.350000X0.625000X-0.350000X0.625000X0*%
G04 #@! TD*
G04 #@! TA.AperFunction,ComponentPad*
%ADD15O,1.200000X1.750000*%
G04 #@! TD*
G04 #@! TA.AperFunction,ComponentPad*
%ADD16R,1.700000X1.700000*%
G04 #@! TD*
G04 #@! TA.AperFunction,ComponentPad*
%ADD17O,1.700000X1.700000*%
G04 #@! TD*
G04 #@! TA.AperFunction,Conductor*
%ADD18C,0.250000*%
G04 #@! TD*
G04 APERTURE END LIST*
D10*
X149000000Y-90080000D03*
D11*
X149000000Y-79920000D03*
D10*
X149000000Y-77000000D03*
D11*
X149000000Y-66840000D03*
D12*
X155000000Y-84000000D03*
D13*
X155000000Y-86000000D03*
D12*
X155000000Y-71000000D03*
D13*
X155000000Y-73000000D03*
D14*
X141000000Y-78000000D03*
D15*
X143000000Y-78000000D03*
D16*
X135000000Y-90000000D03*
X135000000Y-68375000D03*
D17*
X135000000Y-70915000D03*
X135000000Y-73455000D03*
X135000000Y-75995000D03*
X135000000Y-78535000D03*
X135000000Y-81075000D03*
X135000000Y-83615000D03*
D18*
X149000000Y-66840000D02*
X150840000Y-66840000D01*
X150840000Y-66840000D02*
X155000000Y-71000000D01*
X135000000Y-75995000D02*
X139845000Y-75995000D01*
X139845000Y-75995000D02*
X149000000Y-66840000D01*
G04 #@! TA.AperFunction,Conductor*
G36*
X157942121Y-65020002D02*
G01*
X157988614Y-65073658D01*
X158000000Y-65126000D01*
X158000000Y-91874000D01*
X157979998Y-91942121D01*
X157926342Y-91988614D01*
X157874000Y-92000000D01*
X133126000Y-92000000D01*
X133057879Y-91979998D01*
X133011386Y-91926342D01*
X133000000Y-91874000D01*
X133000000Y-90898134D01*
X133641500Y-90898134D01*
X133648255Y-90960316D01*
X133699385Y-91096705D01*
X133786739Y-91213261D01*
X133903295Y-91300615D01*
X134039684Y-91351745D01*
X134101866Y-91358500D01*
X135898134Y-91358500D01*
X135960316Y-91351745D01*
X136096705Y-91300615D01*
X136213261Y-91213261D01*
X136248635Y-91166062D01*
X148278493Y-91166062D01*
X148287789Y-91178077D01*
X148338994Y-91213931D01*
X148348489Y-91219414D01*
X148545947Y-91311490D01*
X148556239Y-91315236D01*
X148766688Y-91371625D01*
X148777481Y-91373528D01*
X148994525Y-91392517D01*
X149005475Y-91392517D01*
X149222519Y-91373528D01*
X149233312Y-91371625D01*
X149443761Y-91315236D01*
X149454053Y-91311490D01*
X149651511Y-91219414D01*
X149661006Y-91213931D01*
X149713048Y-91177491D01*
X149721424Y-91167012D01*
X149714356Y-91153566D01*
X149012812Y-90452022D01*
X148998868Y-90444408D01*
X148997035Y-90444539D01*
X148990420Y-90448790D01*
X148284923Y-91154287D01*
X148278493Y-91166062D01*
X136248635Y-91166062D01*
X136300615Y-91096705D01*
X136351745Y-90960316D01*
X136358500Y-90898134D01*
X136358500Y-89101866D01*
X136351745Y-89039684D01*
X136300615Y-88903295D01*
X136213261Y-88786739D01*
X136096705Y-88699385D01*
X135960316Y-88648255D01*
X135898134Y-88641500D01*
X134101866Y-88641500D01*
X134039684Y-88648255D01*
X133903295Y-88699385D01*
X133786739Y-88786739D01*
X133699385Y-88903295D01*
X133648255Y-89039684D01*
X133641500Y-89101866D01*
X133641500Y-90898134D01*
X133000000Y-90898134D01*
X133000000Y-88132703D01*
X139890743Y-88132703D01*
X139928268Y-88417734D01*
X140004129Y-88695036D01*
X140005813Y-88698984D01*
X140108866Y-88940586D01*
X140116923Y-88959476D01*
X140264561Y-89206161D01*
X140444313Y-89430528D01*
X140652851Y-89628423D01*
X140886317Y-89796186D01*
X140890112Y-89798195D01*
X140890113Y-89798196D01*
X140911869Y-89809715D01*
X141140392Y-89930712D01*
X141410373Y-90029511D01*
X141691264Y-90090755D01*
X141717401Y-90092812D01*
X141914282Y-90108307D01*
X141914291Y-90108307D01*
X141916739Y-90108500D01*
X142072271Y-90108500D01*
X142074407Y-90108354D01*
X142074418Y-90108354D01*
X142282548Y-90094165D01*
X142282554Y-90094164D01*
X142286825Y-90093873D01*
X142291020Y-90093004D01*
X142291022Y-90093004D01*
X142327378Y-90085475D01*
X147687483Y-90085475D01*
X147706472Y-90302519D01*
X147708375Y-90313312D01*
X147764764Y-90523761D01*
X147768510Y-90534053D01*
X147860586Y-90731511D01*
X147866069Y-90741006D01*
X147902509Y-90793048D01*
X147912988Y-90801424D01*
X147926434Y-90794356D01*
X148627978Y-90092812D01*
X148634356Y-90081132D01*
X149364408Y-90081132D01*
X149364539Y-90082965D01*
X149368790Y-90089580D01*
X150074287Y-90795077D01*
X150086062Y-90801507D01*
X150098077Y-90792211D01*
X150133931Y-90741006D01*
X150139414Y-90731511D01*
X150231490Y-90534053D01*
X150235236Y-90523761D01*
X150291625Y-90313312D01*
X150293528Y-90302519D01*
X150312517Y-90085475D01*
X150312517Y-90074525D01*
X150293528Y-89857481D01*
X150291625Y-89846688D01*
X150235236Y-89636239D01*
X150231490Y-89625947D01*
X150139414Y-89428489D01*
X150133931Y-89418994D01*
X150097491Y-89366952D01*
X150087012Y-89358576D01*
X150073566Y-89365644D01*
X149372022Y-90067188D01*
X149364408Y-90081132D01*
X148634356Y-90081132D01*
X148635592Y-90078868D01*
X148635461Y-90077035D01*
X148631210Y-90070420D01*
X147925713Y-89364923D01*
X147913938Y-89358493D01*
X147901923Y-89367789D01*
X147866069Y-89418994D01*
X147860586Y-89428489D01*
X147768510Y-89625947D01*
X147764764Y-89636239D01*
X147708375Y-89846688D01*
X147706472Y-89857481D01*
X147687483Y-90074525D01*
X147687483Y-90085475D01*
X142327378Y-90085475D01*
X142427584Y-90064723D01*
X142568342Y-90035574D01*
X142839343Y-89939607D01*
X143094812Y-89807750D01*
X143098313Y-89805289D01*
X143098317Y-89805287D01*
X143226126Y-89715461D01*
X143330023Y-89642441D01*
X143540622Y-89446740D01*
X143722713Y-89224268D01*
X143864442Y-88992988D01*
X148278576Y-88992988D01*
X148285644Y-89006434D01*
X148987188Y-89707978D01*
X149001132Y-89715592D01*
X149002965Y-89715461D01*
X149009580Y-89711210D01*
X149715077Y-89005713D01*
X149721507Y-88993938D01*
X149712211Y-88981923D01*
X149661006Y-88946069D01*
X149651511Y-88940586D01*
X149454053Y-88848510D01*
X149443761Y-88844764D01*
X149233312Y-88788375D01*
X149222519Y-88786472D01*
X149005475Y-88767483D01*
X148994525Y-88767483D01*
X148777481Y-88786472D01*
X148766688Y-88788375D01*
X148556239Y-88844764D01*
X148545947Y-88848510D01*
X148348489Y-88940586D01*
X148338994Y-88946069D01*
X148286952Y-88982509D01*
X148278576Y-88992988D01*
X143864442Y-88992988D01*
X143872927Y-88979142D01*
X143906222Y-88903295D01*
X143986757Y-88719830D01*
X143988483Y-88715898D01*
X144006962Y-88651029D01*
X144066068Y-88443534D01*
X144067244Y-88439406D01*
X144107751Y-88154784D01*
X144107845Y-88136951D01*
X144109235Y-87871583D01*
X144109235Y-87871576D01*
X144109257Y-87867297D01*
X144071732Y-87582266D01*
X143995871Y-87304964D01*
X143985295Y-87280170D01*
X143884763Y-87044476D01*
X143884761Y-87044472D01*
X143883077Y-87040524D01*
X143783343Y-86873881D01*
X143737643Y-86797521D01*
X143737640Y-86797517D01*
X143735439Y-86793839D01*
X143555687Y-86569472D01*
X143347149Y-86371577D01*
X143113683Y-86203814D01*
X143091843Y-86192250D01*
X143068654Y-86179972D01*
X142859608Y-86069288D01*
X142589627Y-85970489D01*
X142475494Y-85945604D01*
X153612787Y-85945604D01*
X153622567Y-86156899D01*
X153623971Y-86162724D01*
X153623971Y-86162725D01*
X153633874Y-86203814D01*
X153672125Y-86362534D01*
X153674607Y-86367992D01*
X153674608Y-86367996D01*
X153718053Y-86463546D01*
X153759674Y-86555087D01*
X153882054Y-86727611D01*
X154034850Y-86873881D01*
X154212548Y-86988620D01*
X154218114Y-86990863D01*
X154403168Y-87065442D01*
X154403171Y-87065443D01*
X154408737Y-87067686D01*
X154616337Y-87108228D01*
X154621899Y-87108500D01*
X155327846Y-87108500D01*
X155485566Y-87093452D01*
X155688534Y-87033908D01*
X155772111Y-86990863D01*
X155871249Y-86939804D01*
X155871252Y-86939802D01*
X155876580Y-86937058D01*
X156042920Y-86806396D01*
X156046852Y-86801865D01*
X156046855Y-86801862D01*
X156177621Y-86651167D01*
X156181552Y-86646637D01*
X156184552Y-86641451D01*
X156184555Y-86641447D01*
X156284467Y-86468742D01*
X156287473Y-86463546D01*
X156356861Y-86263729D01*
X156365185Y-86206321D01*
X156386352Y-86060336D01*
X156386352Y-86060333D01*
X156387213Y-86054396D01*
X156377433Y-85843101D01*
X156327875Y-85637466D01*
X156284525Y-85542122D01*
X156242806Y-85450368D01*
X156240326Y-85444913D01*
X156117946Y-85272389D01*
X156113619Y-85268247D01*
X156113614Y-85268241D01*
X156022683Y-85181194D01*
X155987306Y-85119639D01*
X155990825Y-85048730D01*
X156032121Y-84990979D01*
X156043504Y-84983035D01*
X156099348Y-84948478D01*
X156224305Y-84823303D01*
X156280812Y-84731632D01*
X156313275Y-84678968D01*
X156313276Y-84678966D01*
X156317115Y-84672738D01*
X156372797Y-84504861D01*
X156383500Y-84400400D01*
X156383500Y-83599600D01*
X156372526Y-83493834D01*
X156316550Y-83326054D01*
X156223478Y-83175652D01*
X156098303Y-83050695D01*
X155961701Y-82966492D01*
X155953968Y-82961725D01*
X155953966Y-82961724D01*
X155947738Y-82957885D01*
X155787254Y-82904655D01*
X155786389Y-82904368D01*
X155786387Y-82904368D01*
X155779861Y-82902203D01*
X155773025Y-82901503D01*
X155773022Y-82901502D01*
X155729969Y-82897091D01*
X155675400Y-82891500D01*
X154324600Y-82891500D01*
X154321354Y-82891837D01*
X154321350Y-82891837D01*
X154225692Y-82901762D01*
X154225688Y-82901763D01*
X154218834Y-82902474D01*
X154212298Y-82904655D01*
X154212296Y-82904655D01*
X154114145Y-82937401D01*
X154051054Y-82958450D01*
X153900652Y-83051522D01*
X153775695Y-83176697D01*
X153682885Y-83327262D01*
X153627203Y-83495139D01*
X153616500Y-83599600D01*
X153616500Y-84400400D01*
X153616837Y-84403646D01*
X153616837Y-84403650D01*
X153618948Y-84423990D01*
X153627474Y-84506166D01*
X153629655Y-84512702D01*
X153629655Y-84512704D01*
X153655089Y-84588938D01*
X153683450Y-84673946D01*
X153776522Y-84824348D01*
X153901697Y-84949305D01*
X153945162Y-84976097D01*
X153953236Y-84981074D01*
X154000729Y-85033846D01*
X154012153Y-85103918D01*
X153983879Y-85169042D01*
X153964955Y-85187418D01*
X153957080Y-85193604D01*
X153953148Y-85198135D01*
X153953145Y-85198138D01*
X153884474Y-85277275D01*
X153818448Y-85353363D01*
X153815448Y-85358549D01*
X153815445Y-85358553D01*
X153768312Y-85440026D01*
X153712527Y-85536454D01*
X153643139Y-85736271D01*
X153642278Y-85742206D01*
X153642278Y-85742208D01*
X153618108Y-85908909D01*
X153612787Y-85945604D01*
X142475494Y-85945604D01*
X142308736Y-85909245D01*
X142277685Y-85906801D01*
X142085718Y-85891693D01*
X142085709Y-85891693D01*
X142083261Y-85891500D01*
X141927729Y-85891500D01*
X141925593Y-85891646D01*
X141925582Y-85891646D01*
X141717452Y-85905835D01*
X141717446Y-85905836D01*
X141713175Y-85906127D01*
X141708980Y-85906996D01*
X141708978Y-85906996D01*
X141572417Y-85935276D01*
X141431658Y-85964426D01*
X141160657Y-86060393D01*
X141156848Y-86062359D01*
X140973680Y-86156899D01*
X140905188Y-86192250D01*
X140901687Y-86194711D01*
X140901683Y-86194713D01*
X140891594Y-86201804D01*
X140669977Y-86357559D01*
X140654892Y-86371577D01*
X140555922Y-86463546D01*
X140459378Y-86553260D01*
X140277287Y-86775732D01*
X140127073Y-87020858D01*
X140011517Y-87284102D01*
X139932756Y-87560594D01*
X139892249Y-87845216D01*
X139892227Y-87849505D01*
X139892226Y-87849512D01*
X139890765Y-88128417D01*
X139890743Y-88132703D01*
X133000000Y-88132703D01*
X133000000Y-83581695D01*
X133637251Y-83581695D01*
X133637548Y-83586848D01*
X133637548Y-83586851D01*
X133643011Y-83681590D01*
X133650110Y-83804715D01*
X133651247Y-83809761D01*
X133651248Y-83809767D01*
X133671119Y-83897939D01*
X133699222Y-84022639D01*
X133783266Y-84229616D01*
X133899987Y-84420088D01*
X134046250Y-84588938D01*
X134218126Y-84731632D01*
X134411000Y-84844338D01*
X134619692Y-84924030D01*
X134624760Y-84925061D01*
X134624763Y-84925062D01*
X134714387Y-84943296D01*
X134838597Y-84968567D01*
X134843772Y-84968757D01*
X134843774Y-84968757D01*
X135056673Y-84976564D01*
X135056677Y-84976564D01*
X135061837Y-84976753D01*
X135066957Y-84976097D01*
X135066959Y-84976097D01*
X135278288Y-84949025D01*
X135278289Y-84949025D01*
X135283416Y-84948368D01*
X135300322Y-84943296D01*
X135492429Y-84885661D01*
X135492434Y-84885659D01*
X135497384Y-84884174D01*
X135697994Y-84785896D01*
X135879860Y-84656173D01*
X136038096Y-84498489D01*
X136097594Y-84415689D01*
X136165435Y-84321277D01*
X136168453Y-84317077D01*
X136267430Y-84116811D01*
X136332370Y-83903069D01*
X136361529Y-83681590D01*
X136363156Y-83615000D01*
X136344852Y-83392361D01*
X136290431Y-83175702D01*
X136201354Y-82970840D01*
X136080014Y-82783277D01*
X135929670Y-82618051D01*
X135925619Y-82614852D01*
X135925615Y-82614848D01*
X135758414Y-82482800D01*
X135758410Y-82482798D01*
X135754359Y-82479598D01*
X135712569Y-82456529D01*
X135662598Y-82406097D01*
X135647826Y-82336654D01*
X135672942Y-82270248D01*
X135700294Y-82243641D01*
X135875328Y-82118792D01*
X135883200Y-82112139D01*
X136034052Y-81961812D01*
X136040730Y-81953965D01*
X136165003Y-81781020D01*
X136170313Y-81772183D01*
X136264670Y-81581267D01*
X136268469Y-81571672D01*
X136330377Y-81367910D01*
X136332555Y-81357837D01*
X136333986Y-81346962D01*
X136331775Y-81332778D01*
X136318617Y-81329000D01*
X133683225Y-81329000D01*
X133669694Y-81332973D01*
X133668257Y-81342966D01*
X133698565Y-81477446D01*
X133701645Y-81487275D01*
X133781770Y-81684603D01*
X133786413Y-81693794D01*
X133897694Y-81875388D01*
X133903777Y-81883699D01*
X134043213Y-82044667D01*
X134050580Y-82051883D01*
X134214434Y-82187916D01*
X134222881Y-82193831D01*
X134291969Y-82234203D01*
X134340693Y-82285842D01*
X134353764Y-82355625D01*
X134327033Y-82421396D01*
X134286584Y-82454752D01*
X134273607Y-82461507D01*
X134269474Y-82464610D01*
X134269471Y-82464612D01*
X134245247Y-82482800D01*
X134094965Y-82595635D01*
X133940629Y-82757138D01*
X133814743Y-82941680D01*
X133720688Y-83144305D01*
X133660989Y-83359570D01*
X133637251Y-83581695D01*
X133000000Y-83581695D01*
X133000000Y-80809183D01*
X133664389Y-80809183D01*
X133665912Y-80817607D01*
X133678292Y-80821000D01*
X134727885Y-80821000D01*
X134743124Y-80816525D01*
X134744329Y-80815135D01*
X134746000Y-80807452D01*
X134746000Y-80802885D01*
X135254000Y-80802885D01*
X135258475Y-80818124D01*
X135259865Y-80819329D01*
X135267548Y-80821000D01*
X136318344Y-80821000D01*
X136331875Y-80817027D01*
X136333180Y-80807947D01*
X136291214Y-80640875D01*
X136287894Y-80631124D01*
X136202972Y-80435814D01*
X136198105Y-80426739D01*
X136082426Y-80247926D01*
X136076136Y-80239757D01*
X135932806Y-80082240D01*
X135925273Y-80075215D01*
X135758139Y-79943222D01*
X135749552Y-79937517D01*
X135717820Y-79920000D01*
X147686502Y-79920000D01*
X147706457Y-80148087D01*
X147707881Y-80153400D01*
X147707881Y-80153402D01*
X147724043Y-80213717D01*
X147765716Y-80369243D01*
X147768039Y-80374224D01*
X147768039Y-80374225D01*
X147860151Y-80571762D01*
X147860154Y-80571767D01*
X147862477Y-80576749D01*
X147993802Y-80764300D01*
X148155700Y-80926198D01*
X148160208Y-80929355D01*
X148160211Y-80929357D01*
X148238389Y-80984098D01*
X148343251Y-81057523D01*
X148348233Y-81059846D01*
X148348238Y-81059849D01*
X148545775Y-81151961D01*
X148550757Y-81154284D01*
X148556065Y-81155706D01*
X148556067Y-81155707D01*
X148766598Y-81212119D01*
X148766600Y-81212119D01*
X148771913Y-81213543D01*
X149000000Y-81233498D01*
X149228087Y-81213543D01*
X149233400Y-81212119D01*
X149233402Y-81212119D01*
X149443933Y-81155707D01*
X149443935Y-81155706D01*
X149449243Y-81154284D01*
X149454225Y-81151961D01*
X149651762Y-81059849D01*
X149651767Y-81059846D01*
X149656749Y-81057523D01*
X149761611Y-80984098D01*
X149839789Y-80929357D01*
X149839792Y-80929355D01*
X149844300Y-80926198D01*
X150006198Y-80764300D01*
X150137523Y-80576749D01*
X150139846Y-80571767D01*
X150139849Y-80571762D01*
X150231961Y-80374225D01*
X150231961Y-80374224D01*
X150234284Y-80369243D01*
X150275958Y-80213717D01*
X150292119Y-80153402D01*
X150292119Y-80153400D01*
X150293543Y-80148087D01*
X150313498Y-79920000D01*
X150293543Y-79691913D01*
X150263232Y-79578792D01*
X150235707Y-79476067D01*
X150235706Y-79476065D01*
X150234284Y-79470757D01*
X150188932Y-79373498D01*
X150139849Y-79268238D01*
X150139846Y-79268233D01*
X150137523Y-79263251D01*
X150006198Y-79075700D01*
X149844300Y-78913802D01*
X149839792Y-78910645D01*
X149839789Y-78910643D01*
X149707248Y-78817837D01*
X149656749Y-78782477D01*
X149651767Y-78780154D01*
X149651762Y-78780151D01*
X149454225Y-78688039D01*
X149454224Y-78688039D01*
X149449243Y-78685716D01*
X149443935Y-78684294D01*
X149443933Y-78684293D01*
X149233402Y-78627881D01*
X149233400Y-78627881D01*
X149228087Y-78626457D01*
X149000000Y-78606502D01*
X148771913Y-78626457D01*
X148766600Y-78627881D01*
X148766598Y-78627881D01*
X148556067Y-78684293D01*
X148556065Y-78684294D01*
X148550757Y-78685716D01*
X148545776Y-78688039D01*
X148545775Y-78688039D01*
X148348238Y-78780151D01*
X148348233Y-78780154D01*
X148343251Y-78782477D01*
X148292752Y-78817837D01*
X148160211Y-78910643D01*
X148160208Y-78910645D01*
X148155700Y-78913802D01*
X147993802Y-79075700D01*
X147862477Y-79263251D01*
X147860154Y-79268233D01*
X147860151Y-79268238D01*
X147811068Y-79373498D01*
X147765716Y-79470757D01*
X147764294Y-79476065D01*
X147764293Y-79476067D01*
X147736768Y-79578792D01*
X147706457Y-79691913D01*
X147686502Y-79920000D01*
X135717820Y-79920000D01*
X135712116Y-79916851D01*
X135662146Y-79866419D01*
X135647374Y-79796976D01*
X135672490Y-79730571D01*
X135699842Y-79703964D01*
X135875327Y-79578792D01*
X135883200Y-79572139D01*
X136034052Y-79421812D01*
X136040730Y-79413965D01*
X136165003Y-79241020D01*
X136170313Y-79232183D01*
X136264670Y-79041267D01*
X136268469Y-79031672D01*
X136330377Y-78827910D01*
X136332555Y-78817837D01*
X136333986Y-78806962D01*
X136331775Y-78792778D01*
X136318617Y-78789000D01*
X135272115Y-78789000D01*
X135256876Y-78793475D01*
X135255671Y-78794865D01*
X135254000Y-78802548D01*
X135254000Y-80802885D01*
X134746000Y-80802885D01*
X134746000Y-78807115D01*
X134741525Y-78791876D01*
X134740135Y-78790671D01*
X134732452Y-78789000D01*
X133683225Y-78789000D01*
X133669694Y-78792973D01*
X133668257Y-78802966D01*
X133698565Y-78937446D01*
X133701645Y-78947275D01*
X133781770Y-79144603D01*
X133786413Y-79153794D01*
X133897694Y-79335388D01*
X133903777Y-79343699D01*
X134043213Y-79504667D01*
X134050580Y-79511883D01*
X134214434Y-79647916D01*
X134222881Y-79653831D01*
X134292479Y-79694501D01*
X134341203Y-79746140D01*
X134354274Y-79815923D01*
X134327543Y-79881694D01*
X134287087Y-79915053D01*
X134278462Y-79919542D01*
X134269738Y-79925036D01*
X134099433Y-80052905D01*
X134091726Y-80059748D01*
X133944590Y-80213717D01*
X133938104Y-80221727D01*
X133818098Y-80397649D01*
X133813000Y-80406623D01*
X133723338Y-80599783D01*
X133719775Y-80609470D01*
X133664389Y-80809183D01*
X133000000Y-80809183D01*
X133000000Y-75961695D01*
X133637251Y-75961695D01*
X133650110Y-76184715D01*
X133651247Y-76189761D01*
X133651248Y-76189767D01*
X133671244Y-76278493D01*
X133699222Y-76402639D01*
X133783266Y-76609616D01*
X133807837Y-76649712D01*
X133879520Y-76766688D01*
X133899987Y-76800088D01*
X134046250Y-76968938D01*
X134218126Y-77111632D01*
X134230694Y-77118976D01*
X134291955Y-77154774D01*
X134340679Y-77206412D01*
X134353750Y-77276195D01*
X134327019Y-77341967D01*
X134286562Y-77375327D01*
X134278457Y-77379546D01*
X134269738Y-77385036D01*
X134099433Y-77512905D01*
X134091726Y-77519748D01*
X133944590Y-77673717D01*
X133938104Y-77681727D01*
X133818098Y-77857649D01*
X133813000Y-77866623D01*
X133723338Y-78059783D01*
X133719775Y-78069470D01*
X133664389Y-78269183D01*
X133665912Y-78277607D01*
X133678292Y-78281000D01*
X136318344Y-78281000D01*
X136331875Y-78277027D01*
X136333180Y-78267947D01*
X136291214Y-78100875D01*
X136287894Y-78091124D01*
X136202972Y-77895814D01*
X136198105Y-77886739D01*
X136082426Y-77707926D01*
X136076136Y-77699757D01*
X135932806Y-77542240D01*
X135925273Y-77535215D01*
X135758139Y-77403222D01*
X135749556Y-77397520D01*
X135712602Y-77377120D01*
X135662631Y-77326687D01*
X135647859Y-77257245D01*
X135672975Y-77190839D01*
X135700327Y-77164232D01*
X135763774Y-77118976D01*
X135879860Y-77036173D01*
X135910666Y-77005475D01*
X136008554Y-76907928D01*
X136038096Y-76878489D01*
X136097594Y-76795689D01*
X136165435Y-76701277D01*
X136168453Y-76697077D01*
X136170746Y-76692437D01*
X136172446Y-76689608D01*
X136224674Y-76641518D01*
X136280451Y-76628500D01*
X139766233Y-76628500D01*
X139777416Y-76629027D01*
X139784909Y-76630702D01*
X139792835Y-76630453D01*
X139792836Y-76630453D01*
X139852986Y-76628562D01*
X139856945Y-76628500D01*
X139884856Y-76628500D01*
X139888791Y-76628003D01*
X139888856Y-76627995D01*
X139900693Y-76627062D01*
X139932951Y-76626048D01*
X139936970Y-76625922D01*
X139944889Y-76625673D01*
X139964343Y-76620021D01*
X139983700Y-76616013D01*
X139995931Y-76614468D01*
X139995933Y-76614468D01*
X140003797Y-76613474D01*
X140010224Y-76610929D01*
X140080728Y-76613348D01*
X140139103Y-76653756D01*
X140166365Y-76719310D01*
X140153858Y-76789197D01*
X140130279Y-76821974D01*
X140078052Y-76874292D01*
X140050695Y-76901697D01*
X140046855Y-76907927D01*
X140046854Y-76907928D01*
X139970049Y-77032529D01*
X139957885Y-77052262D01*
X139902203Y-77220139D01*
X139891500Y-77324600D01*
X139891500Y-78675400D01*
X139891837Y-78678646D01*
X139891837Y-78678650D01*
X139892423Y-78684293D01*
X139902474Y-78781166D01*
X139904655Y-78787702D01*
X139904655Y-78787704D01*
X139909747Y-78802966D01*
X139958450Y-78948946D01*
X140051522Y-79099348D01*
X140176697Y-79224305D01*
X140182927Y-79228145D01*
X140182928Y-79228146D01*
X140320090Y-79312694D01*
X140327262Y-79317115D01*
X140382354Y-79335388D01*
X140488611Y-79370632D01*
X140488613Y-79370632D01*
X140495139Y-79372797D01*
X140501975Y-79373497D01*
X140501978Y-79373498D01*
X140545031Y-79377909D01*
X140599600Y-79383500D01*
X141400400Y-79383500D01*
X141403646Y-79383163D01*
X141403650Y-79383163D01*
X141499308Y-79373238D01*
X141499312Y-79373237D01*
X141506166Y-79372526D01*
X141512702Y-79370345D01*
X141512704Y-79370345D01*
X141648867Y-79324917D01*
X141673946Y-79316550D01*
X141824348Y-79223478D01*
X141949305Y-79098303D01*
X141953148Y-79092069D01*
X141981355Y-79046310D01*
X142034127Y-78998817D01*
X142104199Y-78987395D01*
X142169323Y-79015669D01*
X142187702Y-79034597D01*
X142190262Y-79037856D01*
X142198499Y-79046506D01*
X142349123Y-79177212D01*
X142358847Y-79184147D01*
X142531467Y-79284010D01*
X142542331Y-79288984D01*
X142730727Y-79354407D01*
X142731716Y-79354648D01*
X142742008Y-79353180D01*
X142746000Y-79339615D01*
X142746000Y-79335402D01*
X143254000Y-79335402D01*
X143257973Y-79348933D01*
X143267399Y-79350288D01*
X143356537Y-79328806D01*
X143367832Y-79324917D01*
X143549382Y-79242371D01*
X143559724Y-79236424D01*
X143722397Y-79121032D01*
X143731425Y-79113239D01*
X143869342Y-78969169D01*
X143876738Y-78959804D01*
X143984921Y-78792259D01*
X143990417Y-78781655D01*
X144064961Y-78596688D01*
X144068355Y-78585230D01*
X144106857Y-78388072D01*
X144107934Y-78379209D01*
X144108000Y-78376500D01*
X144108000Y-78272115D01*
X144103525Y-78256876D01*
X144102135Y-78255671D01*
X144094452Y-78254000D01*
X143272115Y-78254000D01*
X143256876Y-78258475D01*
X143255671Y-78259865D01*
X143254000Y-78267548D01*
X143254000Y-79335402D01*
X142746000Y-79335402D01*
X142746000Y-78086062D01*
X148278493Y-78086062D01*
X148287789Y-78098077D01*
X148338994Y-78133931D01*
X148348489Y-78139414D01*
X148545947Y-78231490D01*
X148556239Y-78235236D01*
X148766688Y-78291625D01*
X148777481Y-78293528D01*
X148994525Y-78312517D01*
X149005475Y-78312517D01*
X149222519Y-78293528D01*
X149233312Y-78291625D01*
X149443761Y-78235236D01*
X149454053Y-78231490D01*
X149651511Y-78139414D01*
X149661006Y-78133931D01*
X149713048Y-78097491D01*
X149721424Y-78087012D01*
X149714356Y-78073566D01*
X149012812Y-77372022D01*
X148998868Y-77364408D01*
X148997035Y-77364539D01*
X148990420Y-77368790D01*
X148284923Y-78074287D01*
X148278493Y-78086062D01*
X142746000Y-78086062D01*
X142746000Y-77727885D01*
X143254000Y-77727885D01*
X143258475Y-77743124D01*
X143259865Y-77744329D01*
X143267548Y-77746000D01*
X144089885Y-77746000D01*
X144105124Y-77741525D01*
X144106329Y-77740135D01*
X144108000Y-77732452D01*
X144108000Y-77675168D01*
X144107715Y-77669192D01*
X144093529Y-77520506D01*
X144091270Y-77508772D01*
X144035128Y-77317401D01*
X144030698Y-77306325D01*
X143939381Y-77129022D01*
X143932931Y-77118976D01*
X143843775Y-77005475D01*
X147687483Y-77005475D01*
X147706472Y-77222519D01*
X147708375Y-77233312D01*
X147764764Y-77443761D01*
X147768510Y-77454053D01*
X147860586Y-77651511D01*
X147866069Y-77661006D01*
X147902509Y-77713048D01*
X147912988Y-77721424D01*
X147926434Y-77714356D01*
X148627978Y-77012812D01*
X148634356Y-77001132D01*
X149364408Y-77001132D01*
X149364539Y-77002965D01*
X149368790Y-77009580D01*
X150074287Y-77715077D01*
X150086062Y-77721507D01*
X150098077Y-77712211D01*
X150133931Y-77661006D01*
X150139414Y-77651511D01*
X150231490Y-77454053D01*
X150235236Y-77443761D01*
X150291625Y-77233312D01*
X150293528Y-77222519D01*
X150312517Y-77005475D01*
X150312517Y-76994525D01*
X150293528Y-76777481D01*
X150291625Y-76766688D01*
X150235236Y-76556239D01*
X150231490Y-76545947D01*
X150139414Y-76348489D01*
X150133931Y-76338994D01*
X150097491Y-76286952D01*
X150087012Y-76278576D01*
X150073566Y-76285644D01*
X149372022Y-76987188D01*
X149364408Y-77001132D01*
X148634356Y-77001132D01*
X148635592Y-76998868D01*
X148635461Y-76997035D01*
X148631210Y-76990420D01*
X147925713Y-76284923D01*
X147913938Y-76278493D01*
X147901923Y-76287789D01*
X147866069Y-76338994D01*
X147860586Y-76348489D01*
X147768510Y-76545947D01*
X147764764Y-76556239D01*
X147708375Y-76766688D01*
X147706472Y-76777481D01*
X147687483Y-76994525D01*
X147687483Y-77005475D01*
X143843775Y-77005475D01*
X143809738Y-76962143D01*
X143801501Y-76953494D01*
X143650877Y-76822788D01*
X143641153Y-76815853D01*
X143468533Y-76715990D01*
X143457669Y-76711016D01*
X143269273Y-76645593D01*
X143268284Y-76645352D01*
X143257992Y-76646820D01*
X143254000Y-76660385D01*
X143254000Y-77727885D01*
X142746000Y-77727885D01*
X142746000Y-76664598D01*
X142742027Y-76651067D01*
X142732601Y-76649712D01*
X142643463Y-76671194D01*
X142632168Y-76675083D01*
X142450618Y-76757629D01*
X142440276Y-76763576D01*
X142277603Y-76878968D01*
X142268575Y-76886761D01*
X142181465Y-76977757D01*
X142119910Y-77013133D01*
X142049000Y-77009614D01*
X141991250Y-76968317D01*
X141983315Y-76956947D01*
X141948478Y-76900652D01*
X141823303Y-76775695D01*
X141808691Y-76766688D01*
X141678968Y-76686725D01*
X141678966Y-76686724D01*
X141672738Y-76682885D01*
X141572724Y-76649712D01*
X141511389Y-76629368D01*
X141511387Y-76629368D01*
X141504861Y-76627203D01*
X141498025Y-76626503D01*
X141498022Y-76626502D01*
X141454969Y-76622091D01*
X141400400Y-76616500D01*
X140599600Y-76616500D01*
X140596354Y-76616837D01*
X140596350Y-76616837D01*
X140500692Y-76626762D01*
X140500688Y-76626763D01*
X140493834Y-76627474D01*
X140487301Y-76629654D01*
X140487290Y-76629656D01*
X140428089Y-76649408D01*
X140357139Y-76651994D01*
X140296055Y-76615810D01*
X140264230Y-76552346D01*
X140271768Y-76481751D01*
X140291127Y-76449570D01*
X140310298Y-76426396D01*
X140318288Y-76417616D01*
X140822916Y-75912988D01*
X148278576Y-75912988D01*
X148285644Y-75926434D01*
X148987188Y-76627978D01*
X149001132Y-76635592D01*
X149002965Y-76635461D01*
X149009580Y-76631210D01*
X149715077Y-75925713D01*
X149721507Y-75913938D01*
X149712211Y-75901923D01*
X149661006Y-75866069D01*
X149651511Y-75860586D01*
X149454053Y-75768510D01*
X149443761Y-75764764D01*
X149233312Y-75708375D01*
X149222519Y-75706472D01*
X149005475Y-75687483D01*
X148994525Y-75687483D01*
X148777481Y-75706472D01*
X148766688Y-75708375D01*
X148556239Y-75764764D01*
X148545947Y-75768510D01*
X148348489Y-75860586D01*
X148338994Y-75866069D01*
X148286952Y-75902509D01*
X148278576Y-75912988D01*
X140822916Y-75912988D01*
X148586752Y-68149152D01*
X148649064Y-68115126D01*
X148708459Y-68116541D01*
X148766591Y-68132118D01*
X148766602Y-68132120D01*
X148771913Y-68133543D01*
X149000000Y-68153498D01*
X149228087Y-68133543D01*
X149233400Y-68132119D01*
X149233402Y-68132119D01*
X149443933Y-68075707D01*
X149443935Y-68075706D01*
X149449243Y-68074284D01*
X149454225Y-68071961D01*
X149651762Y-67979849D01*
X149651767Y-67979846D01*
X149656749Y-67977523D01*
X149814168Y-67867297D01*
X149839789Y-67849357D01*
X149839792Y-67849355D01*
X149844300Y-67846198D01*
X150006198Y-67684300D01*
X150074663Y-67586522D01*
X150116181Y-67527229D01*
X150171638Y-67482901D01*
X150219394Y-67473500D01*
X150525406Y-67473500D01*
X150593527Y-67493502D01*
X150614501Y-67510405D01*
X153582250Y-70478154D01*
X153616276Y-70540466D01*
X153618499Y-70580091D01*
X153616500Y-70599600D01*
X153616500Y-71400400D01*
X153616837Y-71403646D01*
X153616837Y-71403650D01*
X153617670Y-71411672D01*
X153627474Y-71506166D01*
X153683450Y-71673946D01*
X153776522Y-71824348D01*
X153901697Y-71949305D01*
X153907927Y-71953145D01*
X153907928Y-71953146D01*
X153953236Y-71981074D01*
X154000729Y-72033846D01*
X154012153Y-72103918D01*
X153983879Y-72169042D01*
X153964955Y-72187418D01*
X153957080Y-72193604D01*
X153953148Y-72198135D01*
X153953145Y-72198138D01*
X153884474Y-72277275D01*
X153818448Y-72353363D01*
X153815448Y-72358549D01*
X153815445Y-72358553D01*
X153770852Y-72435635D01*
X153712527Y-72536454D01*
X153643139Y-72736271D01*
X153612787Y-72945604D01*
X153622567Y-73156899D01*
X153672125Y-73362534D01*
X153674607Y-73367992D01*
X153674608Y-73367996D01*
X153715697Y-73458365D01*
X153759674Y-73555087D01*
X153882054Y-73727611D01*
X154034850Y-73873881D01*
X154212548Y-73988620D01*
X154218114Y-73990863D01*
X154403168Y-74065442D01*
X154403171Y-74065443D01*
X154408737Y-74067686D01*
X154616337Y-74108228D01*
X154621899Y-74108500D01*
X155327846Y-74108500D01*
X155485566Y-74093452D01*
X155688534Y-74033908D01*
X155772111Y-73990863D01*
X155871249Y-73939804D01*
X155871252Y-73939802D01*
X155876580Y-73937058D01*
X156042920Y-73806396D01*
X156046852Y-73801865D01*
X156046855Y-73801862D01*
X156177621Y-73651167D01*
X156181552Y-73646637D01*
X156184552Y-73641451D01*
X156184555Y-73641447D01*
X156284467Y-73468742D01*
X156287473Y-73463546D01*
X156356861Y-73263729D01*
X156387213Y-73054396D01*
X156377433Y-72843101D01*
X156327875Y-72637466D01*
X156284525Y-72542122D01*
X156248036Y-72461870D01*
X156240326Y-72444913D01*
X156138601Y-72301507D01*
X156121412Y-72277275D01*
X156121411Y-72277274D01*
X156117946Y-72272389D01*
X156113619Y-72268247D01*
X156113614Y-72268241D01*
X156022683Y-72181194D01*
X155987306Y-72119639D01*
X155990825Y-72048730D01*
X156032121Y-71990979D01*
X156043504Y-71983035D01*
X156099348Y-71948478D01*
X156224305Y-71823303D01*
X156317115Y-71672738D01*
X156343564Y-71592995D01*
X156370632Y-71511389D01*
X156370632Y-71511387D01*
X156372797Y-71504861D01*
X156383500Y-71400400D01*
X156383500Y-70599600D01*
X156381476Y-70580093D01*
X156373238Y-70500692D01*
X156373237Y-70500688D01*
X156372526Y-70493834D01*
X156364950Y-70471124D01*
X156318868Y-70333002D01*
X156316550Y-70326054D01*
X156223478Y-70175652D01*
X156098303Y-70050695D01*
X156075182Y-70036443D01*
X155953968Y-69961725D01*
X155953966Y-69961724D01*
X155947738Y-69957885D01*
X155865813Y-69930712D01*
X155786389Y-69904368D01*
X155786387Y-69904368D01*
X155779861Y-69902203D01*
X155773025Y-69901503D01*
X155773022Y-69901502D01*
X155729969Y-69897091D01*
X155675400Y-69891500D01*
X154839595Y-69891500D01*
X154771474Y-69871498D01*
X154750500Y-69854595D01*
X151343652Y-66447747D01*
X151336112Y-66439461D01*
X151332000Y-66432982D01*
X151282348Y-66386356D01*
X151279507Y-66383602D01*
X151259770Y-66363865D01*
X151256573Y-66361385D01*
X151247551Y-66353680D01*
X151221100Y-66328841D01*
X151215321Y-66323414D01*
X151208375Y-66319595D01*
X151208372Y-66319593D01*
X151197566Y-66313652D01*
X151181047Y-66302801D01*
X151180583Y-66302441D01*
X151165041Y-66290386D01*
X151157772Y-66287241D01*
X151157768Y-66287238D01*
X151124463Y-66272826D01*
X151113813Y-66267609D01*
X151075060Y-66246305D01*
X151055437Y-66241267D01*
X151036734Y-66234863D01*
X151025420Y-66229967D01*
X151025419Y-66229967D01*
X151018145Y-66226819D01*
X151010322Y-66225580D01*
X151010312Y-66225577D01*
X150974476Y-66219901D01*
X150962856Y-66217495D01*
X150927711Y-66208472D01*
X150927710Y-66208472D01*
X150920030Y-66206500D01*
X150899776Y-66206500D01*
X150880065Y-66204949D01*
X150867886Y-66203020D01*
X150860057Y-66201780D01*
X150852165Y-66202526D01*
X150816039Y-66205941D01*
X150804181Y-66206500D01*
X150219394Y-66206500D01*
X150151273Y-66186498D01*
X150116181Y-66152771D01*
X150009357Y-66000211D01*
X150009355Y-66000208D01*
X150006198Y-65995700D01*
X149844300Y-65833802D01*
X149839792Y-65830645D01*
X149839789Y-65830643D01*
X149761611Y-65775902D01*
X149656749Y-65702477D01*
X149651767Y-65700154D01*
X149651762Y-65700151D01*
X149454225Y-65608039D01*
X149454224Y-65608039D01*
X149449243Y-65605716D01*
X149443935Y-65604294D01*
X149443933Y-65604293D01*
X149233402Y-65547881D01*
X149233400Y-65547881D01*
X149228087Y-65546457D01*
X149000000Y-65526502D01*
X148771913Y-65546457D01*
X148766600Y-65547881D01*
X148766598Y-65547881D01*
X148556067Y-65604293D01*
X148556065Y-65604294D01*
X148550757Y-65605716D01*
X148545776Y-65608039D01*
X148545775Y-65608039D01*
X148348238Y-65700151D01*
X148348233Y-65700154D01*
X148343251Y-65702477D01*
X148238389Y-65775902D01*
X148160211Y-65830643D01*
X148160208Y-65830645D01*
X148155700Y-65833802D01*
X147993802Y-65995700D01*
X147862477Y-66183251D01*
X147860154Y-66188233D01*
X147860151Y-66188238D01*
X147779835Y-66360478D01*
X147765716Y-66390757D01*
X147764294Y-66396065D01*
X147764293Y-66396067D01*
X147707881Y-66606598D01*
X147706457Y-66611913D01*
X147686502Y-66840000D01*
X147706457Y-67068087D01*
X147723460Y-67131541D01*
X147721770Y-67202518D01*
X147690848Y-67253247D01*
X139619500Y-75324595D01*
X139557188Y-75358621D01*
X139530405Y-75361500D01*
X136276805Y-75361500D01*
X136208684Y-75341498D01*
X136171013Y-75303940D01*
X136082822Y-75167617D01*
X136082820Y-75167614D01*
X136080014Y-75163277D01*
X135929670Y-74998051D01*
X135925619Y-74994852D01*
X135925615Y-74994848D01*
X135758414Y-74862800D01*
X135758410Y-74862798D01*
X135754359Y-74859598D01*
X135713053Y-74836796D01*
X135663084Y-74786364D01*
X135648312Y-74716921D01*
X135673428Y-74650516D01*
X135700780Y-74623909D01*
X135744603Y-74592650D01*
X135879860Y-74496173D01*
X136038096Y-74338489D01*
X136097594Y-74255689D01*
X136165435Y-74161277D01*
X136168453Y-74157077D01*
X136267430Y-73956811D01*
X136332370Y-73743069D01*
X136361529Y-73521590D01*
X136363156Y-73455000D01*
X136344852Y-73232361D01*
X136290431Y-73015702D01*
X136201354Y-72810840D01*
X136092967Y-72643299D01*
X136082822Y-72627617D01*
X136082820Y-72627614D01*
X136080014Y-72623277D01*
X135929670Y-72458051D01*
X135925619Y-72454852D01*
X135925615Y-72454848D01*
X135758414Y-72322800D01*
X135758410Y-72322798D01*
X135754359Y-72319598D01*
X135712569Y-72296529D01*
X135662598Y-72246097D01*
X135647826Y-72176654D01*
X135672942Y-72110248D01*
X135700294Y-72083641D01*
X135875328Y-71958792D01*
X135883200Y-71952139D01*
X136034052Y-71801812D01*
X136040730Y-71793965D01*
X136165003Y-71621020D01*
X136170313Y-71612183D01*
X136264670Y-71421267D01*
X136268469Y-71411672D01*
X136330377Y-71207910D01*
X136332555Y-71197837D01*
X136333986Y-71186962D01*
X136331775Y-71172778D01*
X136318617Y-71169000D01*
X133683225Y-71169000D01*
X133669694Y-71172973D01*
X133668257Y-71182966D01*
X133698565Y-71317446D01*
X133701645Y-71327275D01*
X133781770Y-71524603D01*
X133786413Y-71533794D01*
X133897694Y-71715388D01*
X133903777Y-71723699D01*
X134043213Y-71884667D01*
X134050580Y-71891883D01*
X134214434Y-72027916D01*
X134222881Y-72033831D01*
X134291969Y-72074203D01*
X134340693Y-72125842D01*
X134353764Y-72195625D01*
X134327033Y-72261396D01*
X134286584Y-72294752D01*
X134273607Y-72301507D01*
X134269474Y-72304610D01*
X134269471Y-72304612D01*
X134099100Y-72432530D01*
X134094965Y-72435635D01*
X134091393Y-72439373D01*
X133993204Y-72542122D01*
X133940629Y-72597138D01*
X133814743Y-72781680D01*
X133783452Y-72849091D01*
X133735869Y-72951601D01*
X133720688Y-72984305D01*
X133660989Y-73199570D01*
X133637251Y-73421695D01*
X133637548Y-73426848D01*
X133637548Y-73426851D01*
X133643011Y-73521590D01*
X133650110Y-73644715D01*
X133651247Y-73649761D01*
X133651248Y-73649767D01*
X133668792Y-73727611D01*
X133699222Y-73862639D01*
X133783266Y-74069616D01*
X133899987Y-74260088D01*
X134046250Y-74428938D01*
X134218126Y-74571632D01*
X134288595Y-74612811D01*
X134291445Y-74614476D01*
X134340169Y-74666114D01*
X134353240Y-74735897D01*
X134326509Y-74801669D01*
X134286055Y-74835027D01*
X134273607Y-74841507D01*
X134269474Y-74844610D01*
X134269471Y-74844612D01*
X134245247Y-74862800D01*
X134094965Y-74975635D01*
X133940629Y-75137138D01*
X133814743Y-75321680D01*
X133720688Y-75524305D01*
X133660989Y-75739570D01*
X133637251Y-75961695D01*
X133000000Y-75961695D01*
X133000000Y-69273134D01*
X133641500Y-69273134D01*
X133648255Y-69335316D01*
X133699385Y-69471705D01*
X133786739Y-69588261D01*
X133903295Y-69675615D01*
X133911704Y-69678767D01*
X133911705Y-69678768D01*
X134020960Y-69719726D01*
X134077725Y-69762367D01*
X134102425Y-69828929D01*
X134087218Y-69898278D01*
X134067825Y-69924759D01*
X133944590Y-70053717D01*
X133938104Y-70061727D01*
X133818098Y-70237649D01*
X133813000Y-70246623D01*
X133723338Y-70439783D01*
X133719775Y-70449470D01*
X133664389Y-70649183D01*
X133665912Y-70657607D01*
X133678292Y-70661000D01*
X136318344Y-70661000D01*
X136331875Y-70657027D01*
X136333180Y-70647947D01*
X136291214Y-70480875D01*
X136287894Y-70471124D01*
X136202972Y-70275814D01*
X136198105Y-70266739D01*
X136082426Y-70087926D01*
X136076136Y-70079757D01*
X135932293Y-69921677D01*
X135901241Y-69857831D01*
X135909635Y-69787333D01*
X135954812Y-69732564D01*
X135981256Y-69718895D01*
X136088297Y-69678767D01*
X136096705Y-69675615D01*
X136213261Y-69588261D01*
X136300615Y-69471705D01*
X136351745Y-69335316D01*
X136358500Y-69273134D01*
X136358500Y-68132703D01*
X139890743Y-68132703D01*
X139891302Y-68136947D01*
X139891302Y-68136951D01*
X139893650Y-68154784D01*
X139928268Y-68417734D01*
X140004129Y-68695036D01*
X140116923Y-68959476D01*
X140264561Y-69206161D01*
X140444313Y-69430528D01*
X140652851Y-69628423D01*
X140886317Y-69796186D01*
X140890112Y-69798195D01*
X140890113Y-69798196D01*
X140911869Y-69809715D01*
X141140392Y-69930712D01*
X141410373Y-70029511D01*
X141691264Y-70090755D01*
X141719841Y-70093004D01*
X141914282Y-70108307D01*
X141914291Y-70108307D01*
X141916739Y-70108500D01*
X142072271Y-70108500D01*
X142074407Y-70108354D01*
X142074418Y-70108354D01*
X142282548Y-70094165D01*
X142282554Y-70094164D01*
X142286825Y-70093873D01*
X142291020Y-70093004D01*
X142291022Y-70093004D01*
X142495325Y-70050695D01*
X142568342Y-70035574D01*
X142839343Y-69939607D01*
X143094812Y-69807750D01*
X143098313Y-69805289D01*
X143098317Y-69805287D01*
X143212417Y-69725096D01*
X143330023Y-69642441D01*
X143408403Y-69569606D01*
X143537479Y-69449661D01*
X143537481Y-69449658D01*
X143540622Y-69446740D01*
X143722713Y-69224268D01*
X143872927Y-68979142D01*
X143988483Y-68715898D01*
X144067244Y-68439406D01*
X144107751Y-68154784D01*
X144107845Y-68136951D01*
X144109235Y-67871583D01*
X144109235Y-67871576D01*
X144109257Y-67867297D01*
X144071732Y-67582266D01*
X143995871Y-67304964D01*
X143951871Y-67201807D01*
X143884763Y-67044476D01*
X143884761Y-67044472D01*
X143883077Y-67040524D01*
X143735439Y-66793839D01*
X143555687Y-66569472D01*
X143418164Y-66438968D01*
X143350258Y-66374527D01*
X143350255Y-66374525D01*
X143347149Y-66371577D01*
X143113683Y-66203814D01*
X143109842Y-66201780D01*
X143066332Y-66178743D01*
X142859608Y-66069288D01*
X142589627Y-65970489D01*
X142308736Y-65909245D01*
X142277685Y-65906801D01*
X142085718Y-65891693D01*
X142085709Y-65891693D01*
X142083261Y-65891500D01*
X141927729Y-65891500D01*
X141925593Y-65891646D01*
X141925582Y-65891646D01*
X141717452Y-65905835D01*
X141717446Y-65905836D01*
X141713175Y-65906127D01*
X141708980Y-65906996D01*
X141708978Y-65906996D01*
X141572417Y-65935276D01*
X141431658Y-65964426D01*
X141160657Y-66060393D01*
X140905188Y-66192250D01*
X140901687Y-66194711D01*
X140901683Y-66194713D01*
X140835444Y-66241267D01*
X140669977Y-66357559D01*
X140459378Y-66553260D01*
X140277287Y-66775732D01*
X140127073Y-67020858D01*
X140125347Y-67024791D01*
X140125346Y-67024792D01*
X140014066Y-67278295D01*
X140011517Y-67284102D01*
X139932756Y-67560594D01*
X139892249Y-67845216D01*
X139892227Y-67849505D01*
X139892226Y-67849512D01*
X139890765Y-68128417D01*
X139890743Y-68132703D01*
X136358500Y-68132703D01*
X136358500Y-67476866D01*
X136351745Y-67414684D01*
X136300615Y-67278295D01*
X136213261Y-67161739D01*
X136096705Y-67074385D01*
X135960316Y-67023255D01*
X135898134Y-67016500D01*
X134101866Y-67016500D01*
X134039684Y-67023255D01*
X133903295Y-67074385D01*
X133786739Y-67161739D01*
X133699385Y-67278295D01*
X133648255Y-67414684D01*
X133641500Y-67476866D01*
X133641500Y-69273134D01*
X133000000Y-69273134D01*
X133000000Y-65126000D01*
X133020002Y-65057879D01*
X133073658Y-65011386D01*
X133126000Y-65000000D01*
X157874000Y-65000000D01*
X157942121Y-65020002D01*
G37*
G04 #@! TD.AperFunction*
M02*
