%FSLAX45Y45*%
G04 Gerber Fmt 4.5, Leading zero omitted, Abs format (unit mm)*
G04 Created by KiCad (PCBNEW 6.0.2+dfsg-1) date 2022-12-03 12:38:54*
%MOMM*%
%LPD*%
G01*
G04 APERTURE LIST*
%TA.AperFunction,Profile*%
%ADD10C,0.100000*%
%TD*%
%ADD11C,0.200000*%
%ADD12C,0.075000*%
%ADD13C,0.080000*%
%ADD14C,0.100000*%
%ADD15C,0.110000*%
G04 APERTURE END LIST*
D10*
X13200000Y-6300000D02*
X16400000Y-6300000D01*
X16400000Y-6300000D02*
X16400000Y-9400000D01*
X16400000Y-9400000D02*
X13200000Y-9400000D01*
X13200000Y-9400000D02*
X13200000Y-6300000D01*
D11*
D12*
X14062500Y-7762500D02*
X14137500Y-7837500D01*
X14137500Y-7762500D02*
X14062500Y-7837500D01*
X14262500Y-7762500D02*
X14337500Y-7837500D01*
X14337500Y-7762500D02*
X14262500Y-7837500D01*
D13*
X14940000Y-6684000D02*
G75*
G03*
X14940000Y-6684000I-40000J0D01*
G01*
X14940000Y-7700000D02*
G75*
G03*
X14940000Y-7700000I-40000J0D01*
G01*
X14940000Y-7992000D02*
G75*
G03*
X14940000Y-7992000I-40000J0D01*
G01*
X14940000Y-9008000D02*
G75*
G03*
X14940000Y-9008000I-40000J0D01*
G01*
D14*
X13500000Y-6787500D02*
X13500000Y-6887500D01*
X13450000Y-6837500D02*
X13550000Y-6837500D01*
X13500000Y-7041500D02*
X13500000Y-7141500D01*
X13450000Y-7091500D02*
X13550000Y-7091500D01*
X13500000Y-7295500D02*
X13500000Y-7395500D01*
X13450000Y-7345500D02*
X13550000Y-7345500D01*
X13500000Y-7549500D02*
X13500000Y-7649500D01*
X13450000Y-7599500D02*
X13550000Y-7599500D01*
X13500000Y-7803500D02*
X13500000Y-7903500D01*
X13450000Y-7853500D02*
X13550000Y-7853500D01*
X13500000Y-8057500D02*
X13500000Y-8157500D01*
X13450000Y-8107500D02*
X13550000Y-8107500D01*
X13500000Y-8311500D02*
X13500000Y-8411500D01*
X13450000Y-8361500D02*
X13550000Y-8361500D01*
X13500000Y-8950000D02*
X13500000Y-9050000D01*
X13450000Y-9000000D02*
X13550000Y-9000000D01*
D15*
X15713891Y-6613891D02*
X15713891Y-6536109D01*
X15636109Y-6536109D01*
X15636109Y-6613891D01*
X15713891Y-6613891D01*
X15713891Y-7263891D02*
X15713891Y-7186109D01*
X15636109Y-7186109D01*
X15636109Y-7263891D01*
X15713891Y-7263891D01*
X15713891Y-8513891D02*
X15713891Y-8436109D01*
X15636109Y-8436109D01*
X15636109Y-8513891D01*
X15713891Y-8513891D01*
X15713891Y-9163891D02*
X15713891Y-9086109D01*
X15636109Y-9086109D01*
X15636109Y-9163891D01*
X15713891Y-9163891D01*
X16163891Y-6613891D02*
X16163891Y-6536109D01*
X16086109Y-6536109D01*
X16086109Y-6613891D01*
X16163891Y-6613891D01*
X16163891Y-7263891D02*
X16163891Y-7186109D01*
X16086109Y-7186109D01*
X16086109Y-7263891D01*
X16163891Y-7263891D01*
X16163891Y-8513891D02*
X16163891Y-8436109D01*
X16086109Y-8436109D01*
X16086109Y-8513891D01*
X16163891Y-8513891D01*
X16163891Y-9163891D02*
X16163891Y-9086109D01*
X16086109Y-9086109D01*
X16086109Y-9163891D01*
X16163891Y-9163891D01*
D11*
X13452619Y-9715476D02*
X13452619Y-9515476D01*
X13500238Y-9515476D01*
X13528809Y-9525000D01*
X13547857Y-9544048D01*
X13557381Y-9563095D01*
X13566905Y-9601190D01*
X13566905Y-9629762D01*
X13557381Y-9667857D01*
X13547857Y-9686905D01*
X13528809Y-9705952D01*
X13500238Y-9715476D01*
X13452619Y-9715476D01*
X13652619Y-9715476D02*
X13652619Y-9582143D01*
X13652619Y-9620238D02*
X13662143Y-9601190D01*
X13671667Y-9591667D01*
X13690714Y-9582143D01*
X13709762Y-9582143D01*
X13776428Y-9715476D02*
X13776428Y-9582143D01*
X13776428Y-9515476D02*
X13766905Y-9525000D01*
X13776428Y-9534524D01*
X13785952Y-9525000D01*
X13776428Y-9515476D01*
X13776428Y-9534524D01*
X13900238Y-9715476D02*
X13881190Y-9705952D01*
X13871667Y-9686905D01*
X13871667Y-9515476D01*
X14005000Y-9715476D02*
X13985952Y-9705952D01*
X13976428Y-9686905D01*
X13976428Y-9515476D01*
X14233571Y-9715476D02*
X14233571Y-9515476D01*
X14300238Y-9658333D01*
X14366905Y-9515476D01*
X14366905Y-9715476D01*
X14547857Y-9715476D02*
X14547857Y-9610714D01*
X14538333Y-9591667D01*
X14519286Y-9582143D01*
X14481190Y-9582143D01*
X14462143Y-9591667D01*
X14547857Y-9705952D02*
X14528809Y-9715476D01*
X14481190Y-9715476D01*
X14462143Y-9705952D01*
X14452619Y-9686905D01*
X14452619Y-9667857D01*
X14462143Y-9648810D01*
X14481190Y-9639286D01*
X14528809Y-9639286D01*
X14547857Y-9629762D01*
X14643095Y-9582143D02*
X14643095Y-9782143D01*
X14643095Y-9591667D02*
X14662143Y-9582143D01*
X14700238Y-9582143D01*
X14719286Y-9591667D01*
X14728809Y-9601190D01*
X14738333Y-9620238D01*
X14738333Y-9677381D01*
X14728809Y-9696429D01*
X14719286Y-9705952D01*
X14700238Y-9715476D01*
X14662143Y-9715476D01*
X14643095Y-9705952D01*
X14824048Y-9696429D02*
X14833571Y-9705952D01*
X14824048Y-9715476D01*
X14814524Y-9705952D01*
X14824048Y-9696429D01*
X14824048Y-9715476D01*
X14824048Y-9591667D02*
X14833571Y-9601190D01*
X14824048Y-9610714D01*
X14814524Y-9601190D01*
X14824048Y-9591667D01*
X14824048Y-9610714D01*
D12*
X13120000Y-10007500D02*
X13195000Y-10082500D01*
X13195000Y-10007500D02*
X13120000Y-10082500D01*
D11*
X13490714Y-9935476D02*
X13509762Y-9935476D01*
X13528809Y-9945000D01*
X13538333Y-9954524D01*
X13547857Y-9973571D01*
X13557381Y-10011667D01*
X13557381Y-10059286D01*
X13547857Y-10097381D01*
X13538333Y-10116429D01*
X13528809Y-10125952D01*
X13509762Y-10135476D01*
X13490714Y-10135476D01*
X13471667Y-10125952D01*
X13462143Y-10116429D01*
X13452619Y-10097381D01*
X13443095Y-10059286D01*
X13443095Y-10011667D01*
X13452619Y-9973571D01*
X13462143Y-9954524D01*
X13471667Y-9945000D01*
X13490714Y-9935476D01*
X13643095Y-10116429D02*
X13652619Y-10125952D01*
X13643095Y-10135476D01*
X13633571Y-10125952D01*
X13643095Y-10116429D01*
X13643095Y-10135476D01*
X13719286Y-9935476D02*
X13852619Y-9935476D01*
X13766905Y-10135476D01*
X14024048Y-9935476D02*
X13928809Y-9935476D01*
X13919286Y-10030714D01*
X13928809Y-10021190D01*
X13947857Y-10011667D01*
X13995476Y-10011667D01*
X14014524Y-10021190D01*
X14024048Y-10030714D01*
X14033571Y-10049762D01*
X14033571Y-10097381D01*
X14024048Y-10116429D01*
X14014524Y-10125952D01*
X13995476Y-10135476D01*
X13947857Y-10135476D01*
X13928809Y-10125952D01*
X13919286Y-10116429D01*
X14157381Y-9935476D02*
X14176428Y-9935476D01*
X14195476Y-9945000D01*
X14205000Y-9954524D01*
X14214524Y-9973571D01*
X14224048Y-10011667D01*
X14224048Y-10059286D01*
X14214524Y-10097381D01*
X14205000Y-10116429D01*
X14195476Y-10125952D01*
X14176428Y-10135476D01*
X14157381Y-10135476D01*
X14138333Y-10125952D01*
X14128809Y-10116429D01*
X14119286Y-10097381D01*
X14109762Y-10059286D01*
X14109762Y-10011667D01*
X14119286Y-9973571D01*
X14128809Y-9954524D01*
X14138333Y-9945000D01*
X14157381Y-9935476D01*
X14309762Y-10135476D02*
X14309762Y-10002143D01*
X14309762Y-10021190D02*
X14319286Y-10011667D01*
X14338333Y-10002143D01*
X14366905Y-10002143D01*
X14385952Y-10011667D01*
X14395476Y-10030714D01*
X14395476Y-10135476D01*
X14395476Y-10030714D02*
X14405000Y-10011667D01*
X14424048Y-10002143D01*
X14452619Y-10002143D01*
X14471667Y-10011667D01*
X14481190Y-10030714D01*
X14481190Y-10135476D01*
X14576428Y-10135476D02*
X14576428Y-10002143D01*
X14576428Y-10021190D02*
X14585952Y-10011667D01*
X14605000Y-10002143D01*
X14633571Y-10002143D01*
X14652619Y-10011667D01*
X14662143Y-10030714D01*
X14662143Y-10135476D01*
X14662143Y-10030714D02*
X14671667Y-10011667D01*
X14690714Y-10002143D01*
X14719286Y-10002143D01*
X14738333Y-10011667D01*
X14747857Y-10030714D01*
X14747857Y-10135476D01*
X15138333Y-9925952D02*
X14966905Y-10183095D01*
X15395476Y-9935476D02*
X15414524Y-9935476D01*
X15433571Y-9945000D01*
X15443095Y-9954524D01*
X15452619Y-9973571D01*
X15462143Y-10011667D01*
X15462143Y-10059286D01*
X15452619Y-10097381D01*
X15443095Y-10116429D01*
X15433571Y-10125952D01*
X15414524Y-10135476D01*
X15395476Y-10135476D01*
X15376428Y-10125952D01*
X15366905Y-10116429D01*
X15357381Y-10097381D01*
X15347857Y-10059286D01*
X15347857Y-10011667D01*
X15357381Y-9973571D01*
X15366905Y-9954524D01*
X15376428Y-9945000D01*
X15395476Y-9935476D01*
X15547857Y-10116429D02*
X15557381Y-10125952D01*
X15547857Y-10135476D01*
X15538333Y-10125952D01*
X15547857Y-10116429D01*
X15547857Y-10135476D01*
X15681190Y-9935476D02*
X15700238Y-9935476D01*
X15719286Y-9945000D01*
X15728809Y-9954524D01*
X15738333Y-9973571D01*
X15747857Y-10011667D01*
X15747857Y-10059286D01*
X15738333Y-10097381D01*
X15728809Y-10116429D01*
X15719286Y-10125952D01*
X15700238Y-10135476D01*
X15681190Y-10135476D01*
X15662143Y-10125952D01*
X15652619Y-10116429D01*
X15643095Y-10097381D01*
X15633571Y-10059286D01*
X15633571Y-10011667D01*
X15643095Y-9973571D01*
X15652619Y-9954524D01*
X15662143Y-9945000D01*
X15681190Y-9935476D01*
X15824048Y-9954524D02*
X15833571Y-9945000D01*
X15852619Y-9935476D01*
X15900238Y-9935476D01*
X15919286Y-9945000D01*
X15928809Y-9954524D01*
X15938333Y-9973571D01*
X15938333Y-9992619D01*
X15928809Y-10021190D01*
X15814524Y-10135476D01*
X15938333Y-10135476D01*
X16033571Y-10135476D02*
X16071667Y-10135476D01*
X16090714Y-10125952D01*
X16100238Y-10116429D01*
X16119286Y-10087857D01*
X16128809Y-10049762D01*
X16128809Y-9973571D01*
X16119286Y-9954524D01*
X16109762Y-9945000D01*
X16090714Y-9935476D01*
X16052619Y-9935476D01*
X16033571Y-9945000D01*
X16024048Y-9954524D01*
X16014524Y-9973571D01*
X16014524Y-10021190D01*
X16024048Y-10040238D01*
X16033571Y-10049762D01*
X16052619Y-10059286D01*
X16090714Y-10059286D01*
X16109762Y-10049762D01*
X16119286Y-10040238D01*
X16128809Y-10021190D01*
X16309762Y-9935476D02*
X16214524Y-9935476D01*
X16205000Y-10030714D01*
X16214524Y-10021190D01*
X16233571Y-10011667D01*
X16281190Y-10011667D01*
X16300238Y-10021190D01*
X16309762Y-10030714D01*
X16319286Y-10049762D01*
X16319286Y-10097381D01*
X16309762Y-10116429D01*
X16300238Y-10125952D01*
X16281190Y-10135476D01*
X16233571Y-10135476D01*
X16214524Y-10125952D01*
X16205000Y-10116429D01*
X16395476Y-9935476D02*
X16395476Y-9973571D01*
X16471667Y-9935476D02*
X16471667Y-9973571D01*
X16766905Y-10211667D02*
X16757381Y-10202143D01*
X16738333Y-10173571D01*
X16728809Y-10154524D01*
X16719286Y-10125952D01*
X16709762Y-10078333D01*
X16709762Y-10040238D01*
X16719286Y-9992619D01*
X16728809Y-9964048D01*
X16738333Y-9945000D01*
X16757381Y-9916429D01*
X16766905Y-9906905D01*
X16833571Y-9954524D02*
X16843095Y-9945000D01*
X16862143Y-9935476D01*
X16909762Y-9935476D01*
X16928810Y-9945000D01*
X16938333Y-9954524D01*
X16947857Y-9973571D01*
X16947857Y-9992619D01*
X16938333Y-10021190D01*
X16824048Y-10135476D01*
X16947857Y-10135476D01*
X17185952Y-10135476D02*
X17185952Y-9935476D01*
X17271667Y-10135476D02*
X17271667Y-10030714D01*
X17262143Y-10011667D01*
X17243095Y-10002143D01*
X17214524Y-10002143D01*
X17195476Y-10011667D01*
X17185952Y-10021190D01*
X17395476Y-10135476D02*
X17376429Y-10125952D01*
X17366905Y-10116429D01*
X17357381Y-10097381D01*
X17357381Y-10040238D01*
X17366905Y-10021190D01*
X17376429Y-10011667D01*
X17395476Y-10002143D01*
X17424048Y-10002143D01*
X17443095Y-10011667D01*
X17452619Y-10021190D01*
X17462143Y-10040238D01*
X17462143Y-10097381D01*
X17452619Y-10116429D01*
X17443095Y-10125952D01*
X17424048Y-10135476D01*
X17395476Y-10135476D01*
X17576429Y-10135476D02*
X17557381Y-10125952D01*
X17547857Y-10106905D01*
X17547857Y-9935476D01*
X17728810Y-10125952D02*
X17709762Y-10135476D01*
X17671667Y-10135476D01*
X17652619Y-10125952D01*
X17643095Y-10106905D01*
X17643095Y-10030714D01*
X17652619Y-10011667D01*
X17671667Y-10002143D01*
X17709762Y-10002143D01*
X17728810Y-10011667D01*
X17738333Y-10030714D01*
X17738333Y-10049762D01*
X17643095Y-10068810D01*
X17814524Y-10125952D02*
X17833571Y-10135476D01*
X17871667Y-10135476D01*
X17890714Y-10125952D01*
X17900238Y-10106905D01*
X17900238Y-10097381D01*
X17890714Y-10078333D01*
X17871667Y-10068810D01*
X17843095Y-10068810D01*
X17824048Y-10059286D01*
X17814524Y-10040238D01*
X17814524Y-10030714D01*
X17824048Y-10011667D01*
X17843095Y-10002143D01*
X17871667Y-10002143D01*
X17890714Y-10011667D01*
X17966905Y-10211667D02*
X17976429Y-10202143D01*
X17995476Y-10173571D01*
X18005000Y-10154524D01*
X18014524Y-10125952D01*
X18024048Y-10078333D01*
X18024048Y-10040238D01*
X18014524Y-9992619D01*
X18005000Y-9964048D01*
X17995476Y-9945000D01*
X17976429Y-9916429D01*
X17966905Y-9906905D01*
D13*
X13195000Y-10309000D02*
G75*
G03*
X13195000Y-10309000I-40000J0D01*
G01*
D11*
X13490714Y-10199476D02*
X13509762Y-10199476D01*
X13528809Y-10209000D01*
X13538333Y-10218524D01*
X13547857Y-10237571D01*
X13557381Y-10275667D01*
X13557381Y-10323286D01*
X13547857Y-10361381D01*
X13538333Y-10380429D01*
X13528809Y-10389952D01*
X13509762Y-10399476D01*
X13490714Y-10399476D01*
X13471667Y-10389952D01*
X13462143Y-10380429D01*
X13452619Y-10361381D01*
X13443095Y-10323286D01*
X13443095Y-10275667D01*
X13452619Y-10237571D01*
X13462143Y-10218524D01*
X13471667Y-10209000D01*
X13490714Y-10199476D01*
X13643095Y-10380429D02*
X13652619Y-10389952D01*
X13643095Y-10399476D01*
X13633571Y-10389952D01*
X13643095Y-10380429D01*
X13643095Y-10399476D01*
X13766905Y-10285190D02*
X13747857Y-10275667D01*
X13738333Y-10266143D01*
X13728809Y-10247095D01*
X13728809Y-10237571D01*
X13738333Y-10218524D01*
X13747857Y-10209000D01*
X13766905Y-10199476D01*
X13805000Y-10199476D01*
X13824048Y-10209000D01*
X13833571Y-10218524D01*
X13843095Y-10237571D01*
X13843095Y-10247095D01*
X13833571Y-10266143D01*
X13824048Y-10275667D01*
X13805000Y-10285190D01*
X13766905Y-10285190D01*
X13747857Y-10294714D01*
X13738333Y-10304238D01*
X13728809Y-10323286D01*
X13728809Y-10361381D01*
X13738333Y-10380429D01*
X13747857Y-10389952D01*
X13766905Y-10399476D01*
X13805000Y-10399476D01*
X13824048Y-10389952D01*
X13833571Y-10380429D01*
X13843095Y-10361381D01*
X13843095Y-10323286D01*
X13833571Y-10304238D01*
X13824048Y-10294714D01*
X13805000Y-10285190D01*
X13966905Y-10199476D02*
X13985952Y-10199476D01*
X14005000Y-10209000D01*
X14014524Y-10218524D01*
X14024048Y-10237571D01*
X14033571Y-10275667D01*
X14033571Y-10323286D01*
X14024048Y-10361381D01*
X14014524Y-10380429D01*
X14005000Y-10389952D01*
X13985952Y-10399476D01*
X13966905Y-10399476D01*
X13947857Y-10389952D01*
X13938333Y-10380429D01*
X13928809Y-10361381D01*
X13919286Y-10323286D01*
X13919286Y-10275667D01*
X13928809Y-10237571D01*
X13938333Y-10218524D01*
X13947857Y-10209000D01*
X13966905Y-10199476D01*
X14157381Y-10199476D02*
X14176428Y-10199476D01*
X14195476Y-10209000D01*
X14205000Y-10218524D01*
X14214524Y-10237571D01*
X14224048Y-10275667D01*
X14224048Y-10323286D01*
X14214524Y-10361381D01*
X14205000Y-10380429D01*
X14195476Y-10389952D01*
X14176428Y-10399476D01*
X14157381Y-10399476D01*
X14138333Y-10389952D01*
X14128809Y-10380429D01*
X14119286Y-10361381D01*
X14109762Y-10323286D01*
X14109762Y-10275667D01*
X14119286Y-10237571D01*
X14128809Y-10218524D01*
X14138333Y-10209000D01*
X14157381Y-10199476D01*
X14309762Y-10399476D02*
X14309762Y-10266143D01*
X14309762Y-10285190D02*
X14319286Y-10275667D01*
X14338333Y-10266143D01*
X14366905Y-10266143D01*
X14385952Y-10275667D01*
X14395476Y-10294714D01*
X14395476Y-10399476D01*
X14395476Y-10294714D02*
X14405000Y-10275667D01*
X14424048Y-10266143D01*
X14452619Y-10266143D01*
X14471667Y-10275667D01*
X14481190Y-10294714D01*
X14481190Y-10399476D01*
X14576428Y-10399476D02*
X14576428Y-10266143D01*
X14576428Y-10285190D02*
X14585952Y-10275667D01*
X14605000Y-10266143D01*
X14633571Y-10266143D01*
X14652619Y-10275667D01*
X14662143Y-10294714D01*
X14662143Y-10399476D01*
X14662143Y-10294714D02*
X14671667Y-10275667D01*
X14690714Y-10266143D01*
X14719286Y-10266143D01*
X14738333Y-10275667D01*
X14747857Y-10294714D01*
X14747857Y-10399476D01*
X15138333Y-10189952D02*
X14966905Y-10447095D01*
X15395476Y-10199476D02*
X15414524Y-10199476D01*
X15433571Y-10209000D01*
X15443095Y-10218524D01*
X15452619Y-10237571D01*
X15462143Y-10275667D01*
X15462143Y-10323286D01*
X15452619Y-10361381D01*
X15443095Y-10380429D01*
X15433571Y-10389952D01*
X15414524Y-10399476D01*
X15395476Y-10399476D01*
X15376428Y-10389952D01*
X15366905Y-10380429D01*
X15357381Y-10361381D01*
X15347857Y-10323286D01*
X15347857Y-10275667D01*
X15357381Y-10237571D01*
X15366905Y-10218524D01*
X15376428Y-10209000D01*
X15395476Y-10199476D01*
X15547857Y-10380429D02*
X15557381Y-10389952D01*
X15547857Y-10399476D01*
X15538333Y-10389952D01*
X15547857Y-10380429D01*
X15547857Y-10399476D01*
X15681190Y-10199476D02*
X15700238Y-10199476D01*
X15719286Y-10209000D01*
X15728809Y-10218524D01*
X15738333Y-10237571D01*
X15747857Y-10275667D01*
X15747857Y-10323286D01*
X15738333Y-10361381D01*
X15728809Y-10380429D01*
X15719286Y-10389952D01*
X15700238Y-10399476D01*
X15681190Y-10399476D01*
X15662143Y-10389952D01*
X15652619Y-10380429D01*
X15643095Y-10361381D01*
X15633571Y-10323286D01*
X15633571Y-10275667D01*
X15643095Y-10237571D01*
X15652619Y-10218524D01*
X15662143Y-10209000D01*
X15681190Y-10199476D01*
X15814524Y-10199476D02*
X15938333Y-10199476D01*
X15871667Y-10275667D01*
X15900238Y-10275667D01*
X15919286Y-10285190D01*
X15928809Y-10294714D01*
X15938333Y-10313762D01*
X15938333Y-10361381D01*
X15928809Y-10380429D01*
X15919286Y-10389952D01*
X15900238Y-10399476D01*
X15843095Y-10399476D01*
X15824048Y-10389952D01*
X15814524Y-10380429D01*
X16128809Y-10399476D02*
X16014524Y-10399476D01*
X16071667Y-10399476D02*
X16071667Y-10199476D01*
X16052619Y-10228048D01*
X16033571Y-10247095D01*
X16014524Y-10256619D01*
X16309762Y-10199476D02*
X16214524Y-10199476D01*
X16205000Y-10294714D01*
X16214524Y-10285190D01*
X16233571Y-10275667D01*
X16281190Y-10275667D01*
X16300238Y-10285190D01*
X16309762Y-10294714D01*
X16319286Y-10313762D01*
X16319286Y-10361381D01*
X16309762Y-10380429D01*
X16300238Y-10389952D01*
X16281190Y-10399476D01*
X16233571Y-10399476D01*
X16214524Y-10389952D01*
X16205000Y-10380429D01*
X16395476Y-10199476D02*
X16395476Y-10237571D01*
X16471667Y-10199476D02*
X16471667Y-10237571D01*
X16766905Y-10475667D02*
X16757381Y-10466143D01*
X16738333Y-10437571D01*
X16728809Y-10418524D01*
X16719286Y-10389952D01*
X16709762Y-10342333D01*
X16709762Y-10304238D01*
X16719286Y-10256619D01*
X16728809Y-10228048D01*
X16738333Y-10209000D01*
X16757381Y-10180429D01*
X16766905Y-10170905D01*
X16928810Y-10266143D02*
X16928810Y-10399476D01*
X16881190Y-10189952D02*
X16833571Y-10332810D01*
X16957381Y-10332810D01*
X17185952Y-10399476D02*
X17185952Y-10199476D01*
X17271667Y-10399476D02*
X17271667Y-10294714D01*
X17262143Y-10275667D01*
X17243095Y-10266143D01*
X17214524Y-10266143D01*
X17195476Y-10275667D01*
X17185952Y-10285190D01*
X17395476Y-10399476D02*
X17376429Y-10389952D01*
X17366905Y-10380429D01*
X17357381Y-10361381D01*
X17357381Y-10304238D01*
X17366905Y-10285190D01*
X17376429Y-10275667D01*
X17395476Y-10266143D01*
X17424048Y-10266143D01*
X17443095Y-10275667D01*
X17452619Y-10285190D01*
X17462143Y-10304238D01*
X17462143Y-10361381D01*
X17452619Y-10380429D01*
X17443095Y-10389952D01*
X17424048Y-10399476D01*
X17395476Y-10399476D01*
X17576429Y-10399476D02*
X17557381Y-10389952D01*
X17547857Y-10370905D01*
X17547857Y-10199476D01*
X17728810Y-10389952D02*
X17709762Y-10399476D01*
X17671667Y-10399476D01*
X17652619Y-10389952D01*
X17643095Y-10370905D01*
X17643095Y-10294714D01*
X17652619Y-10275667D01*
X17671667Y-10266143D01*
X17709762Y-10266143D01*
X17728810Y-10275667D01*
X17738333Y-10294714D01*
X17738333Y-10313762D01*
X17643095Y-10332810D01*
X17814524Y-10389952D02*
X17833571Y-10399476D01*
X17871667Y-10399476D01*
X17890714Y-10389952D01*
X17900238Y-10370905D01*
X17900238Y-10361381D01*
X17890714Y-10342333D01*
X17871667Y-10332810D01*
X17843095Y-10332810D01*
X17824048Y-10323286D01*
X17814524Y-10304238D01*
X17814524Y-10294714D01*
X17824048Y-10275667D01*
X17843095Y-10266143D01*
X17871667Y-10266143D01*
X17890714Y-10275667D01*
X17966905Y-10475667D02*
X17976429Y-10466143D01*
X17995476Y-10437571D01*
X18005000Y-10418524D01*
X18014524Y-10389952D01*
X18024048Y-10342333D01*
X18024048Y-10304238D01*
X18014524Y-10256619D01*
X18005000Y-10228048D01*
X17995476Y-10209000D01*
X17976429Y-10180429D01*
X17966905Y-10170905D01*
D14*
X13145000Y-10523000D02*
X13145000Y-10623000D01*
X13095000Y-10573000D02*
X13195000Y-10573000D01*
D11*
X13557381Y-10663476D02*
X13443095Y-10663476D01*
X13500238Y-10663476D02*
X13500238Y-10463476D01*
X13481190Y-10492048D01*
X13462143Y-10511095D01*
X13443095Y-10520619D01*
X13643095Y-10644429D02*
X13652619Y-10653952D01*
X13643095Y-10663476D01*
X13633571Y-10653952D01*
X13643095Y-10644429D01*
X13643095Y-10663476D01*
X13776428Y-10463476D02*
X13795476Y-10463476D01*
X13814524Y-10473000D01*
X13824048Y-10482524D01*
X13833571Y-10501571D01*
X13843095Y-10539667D01*
X13843095Y-10587286D01*
X13833571Y-10625381D01*
X13824048Y-10644429D01*
X13814524Y-10653952D01*
X13795476Y-10663476D01*
X13776428Y-10663476D01*
X13757381Y-10653952D01*
X13747857Y-10644429D01*
X13738333Y-10625381D01*
X13728809Y-10587286D01*
X13728809Y-10539667D01*
X13738333Y-10501571D01*
X13747857Y-10482524D01*
X13757381Y-10473000D01*
X13776428Y-10463476D01*
X13966905Y-10463476D02*
X13985952Y-10463476D01*
X14005000Y-10473000D01*
X14014524Y-10482524D01*
X14024048Y-10501571D01*
X14033571Y-10539667D01*
X14033571Y-10587286D01*
X14024048Y-10625381D01*
X14014524Y-10644429D01*
X14005000Y-10653952D01*
X13985952Y-10663476D01*
X13966905Y-10663476D01*
X13947857Y-10653952D01*
X13938333Y-10644429D01*
X13928809Y-10625381D01*
X13919286Y-10587286D01*
X13919286Y-10539667D01*
X13928809Y-10501571D01*
X13938333Y-10482524D01*
X13947857Y-10473000D01*
X13966905Y-10463476D01*
X14157381Y-10463476D02*
X14176428Y-10463476D01*
X14195476Y-10473000D01*
X14205000Y-10482524D01*
X14214524Y-10501571D01*
X14224048Y-10539667D01*
X14224048Y-10587286D01*
X14214524Y-10625381D01*
X14205000Y-10644429D01*
X14195476Y-10653952D01*
X14176428Y-10663476D01*
X14157381Y-10663476D01*
X14138333Y-10653952D01*
X14128809Y-10644429D01*
X14119286Y-10625381D01*
X14109762Y-10587286D01*
X14109762Y-10539667D01*
X14119286Y-10501571D01*
X14128809Y-10482524D01*
X14138333Y-10473000D01*
X14157381Y-10463476D01*
X14309762Y-10663476D02*
X14309762Y-10530143D01*
X14309762Y-10549190D02*
X14319286Y-10539667D01*
X14338333Y-10530143D01*
X14366905Y-10530143D01*
X14385952Y-10539667D01*
X14395476Y-10558714D01*
X14395476Y-10663476D01*
X14395476Y-10558714D02*
X14405000Y-10539667D01*
X14424048Y-10530143D01*
X14452619Y-10530143D01*
X14471667Y-10539667D01*
X14481190Y-10558714D01*
X14481190Y-10663476D01*
X14576428Y-10663476D02*
X14576428Y-10530143D01*
X14576428Y-10549190D02*
X14585952Y-10539667D01*
X14605000Y-10530143D01*
X14633571Y-10530143D01*
X14652619Y-10539667D01*
X14662143Y-10558714D01*
X14662143Y-10663476D01*
X14662143Y-10558714D02*
X14671667Y-10539667D01*
X14690714Y-10530143D01*
X14719286Y-10530143D01*
X14738333Y-10539667D01*
X14747857Y-10558714D01*
X14747857Y-10663476D01*
X15138333Y-10453952D02*
X14966905Y-10711095D01*
X15395476Y-10463476D02*
X15414524Y-10463476D01*
X15433571Y-10473000D01*
X15443095Y-10482524D01*
X15452619Y-10501571D01*
X15462143Y-10539667D01*
X15462143Y-10587286D01*
X15452619Y-10625381D01*
X15443095Y-10644429D01*
X15433571Y-10653952D01*
X15414524Y-10663476D01*
X15395476Y-10663476D01*
X15376428Y-10653952D01*
X15366905Y-10644429D01*
X15357381Y-10625381D01*
X15347857Y-10587286D01*
X15347857Y-10539667D01*
X15357381Y-10501571D01*
X15366905Y-10482524D01*
X15376428Y-10473000D01*
X15395476Y-10463476D01*
X15547857Y-10644429D02*
X15557381Y-10653952D01*
X15547857Y-10663476D01*
X15538333Y-10653952D01*
X15547857Y-10644429D01*
X15547857Y-10663476D01*
X15681190Y-10463476D02*
X15700238Y-10463476D01*
X15719286Y-10473000D01*
X15728809Y-10482524D01*
X15738333Y-10501571D01*
X15747857Y-10539667D01*
X15747857Y-10587286D01*
X15738333Y-10625381D01*
X15728809Y-10644429D01*
X15719286Y-10653952D01*
X15700238Y-10663476D01*
X15681190Y-10663476D01*
X15662143Y-10653952D01*
X15652619Y-10644429D01*
X15643095Y-10625381D01*
X15633571Y-10587286D01*
X15633571Y-10539667D01*
X15643095Y-10501571D01*
X15652619Y-10482524D01*
X15662143Y-10473000D01*
X15681190Y-10463476D01*
X15814524Y-10463476D02*
X15938333Y-10463476D01*
X15871667Y-10539667D01*
X15900238Y-10539667D01*
X15919286Y-10549190D01*
X15928809Y-10558714D01*
X15938333Y-10577762D01*
X15938333Y-10625381D01*
X15928809Y-10644429D01*
X15919286Y-10653952D01*
X15900238Y-10663476D01*
X15843095Y-10663476D01*
X15824048Y-10653952D01*
X15814524Y-10644429D01*
X16033571Y-10663476D02*
X16071667Y-10663476D01*
X16090714Y-10653952D01*
X16100238Y-10644429D01*
X16119286Y-10615857D01*
X16128809Y-10577762D01*
X16128809Y-10501571D01*
X16119286Y-10482524D01*
X16109762Y-10473000D01*
X16090714Y-10463476D01*
X16052619Y-10463476D01*
X16033571Y-10473000D01*
X16024048Y-10482524D01*
X16014524Y-10501571D01*
X16014524Y-10549190D01*
X16024048Y-10568238D01*
X16033571Y-10577762D01*
X16052619Y-10587286D01*
X16090714Y-10587286D01*
X16109762Y-10577762D01*
X16119286Y-10568238D01*
X16128809Y-10549190D01*
X16300238Y-10530143D02*
X16300238Y-10663476D01*
X16252619Y-10453952D02*
X16205000Y-10596810D01*
X16328809Y-10596810D01*
X16395476Y-10463476D02*
X16395476Y-10501571D01*
X16471667Y-10463476D02*
X16471667Y-10501571D01*
X16766905Y-10739667D02*
X16757381Y-10730143D01*
X16738333Y-10701571D01*
X16728809Y-10682524D01*
X16719286Y-10653952D01*
X16709762Y-10606333D01*
X16709762Y-10568238D01*
X16719286Y-10520619D01*
X16728809Y-10492048D01*
X16738333Y-10473000D01*
X16757381Y-10444429D01*
X16766905Y-10434905D01*
X16871667Y-10549190D02*
X16852619Y-10539667D01*
X16843095Y-10530143D01*
X16833571Y-10511095D01*
X16833571Y-10501571D01*
X16843095Y-10482524D01*
X16852619Y-10473000D01*
X16871667Y-10463476D01*
X16909762Y-10463476D01*
X16928810Y-10473000D01*
X16938333Y-10482524D01*
X16947857Y-10501571D01*
X16947857Y-10511095D01*
X16938333Y-10530143D01*
X16928810Y-10539667D01*
X16909762Y-10549190D01*
X16871667Y-10549190D01*
X16852619Y-10558714D01*
X16843095Y-10568238D01*
X16833571Y-10587286D01*
X16833571Y-10625381D01*
X16843095Y-10644429D01*
X16852619Y-10653952D01*
X16871667Y-10663476D01*
X16909762Y-10663476D01*
X16928810Y-10653952D01*
X16938333Y-10644429D01*
X16947857Y-10625381D01*
X16947857Y-10587286D01*
X16938333Y-10568238D01*
X16928810Y-10558714D01*
X16909762Y-10549190D01*
X17185952Y-10663476D02*
X17185952Y-10463476D01*
X17271667Y-10663476D02*
X17271667Y-10558714D01*
X17262143Y-10539667D01*
X17243095Y-10530143D01*
X17214524Y-10530143D01*
X17195476Y-10539667D01*
X17185952Y-10549190D01*
X17395476Y-10663476D02*
X17376429Y-10653952D01*
X17366905Y-10644429D01*
X17357381Y-10625381D01*
X17357381Y-10568238D01*
X17366905Y-10549190D01*
X17376429Y-10539667D01*
X17395476Y-10530143D01*
X17424048Y-10530143D01*
X17443095Y-10539667D01*
X17452619Y-10549190D01*
X17462143Y-10568238D01*
X17462143Y-10625381D01*
X17452619Y-10644429D01*
X17443095Y-10653952D01*
X17424048Y-10663476D01*
X17395476Y-10663476D01*
X17576429Y-10663476D02*
X17557381Y-10653952D01*
X17547857Y-10634905D01*
X17547857Y-10463476D01*
X17728810Y-10653952D02*
X17709762Y-10663476D01*
X17671667Y-10663476D01*
X17652619Y-10653952D01*
X17643095Y-10634905D01*
X17643095Y-10558714D01*
X17652619Y-10539667D01*
X17671667Y-10530143D01*
X17709762Y-10530143D01*
X17728810Y-10539667D01*
X17738333Y-10558714D01*
X17738333Y-10577762D01*
X17643095Y-10596810D01*
X17814524Y-10653952D02*
X17833571Y-10663476D01*
X17871667Y-10663476D01*
X17890714Y-10653952D01*
X17900238Y-10634905D01*
X17900238Y-10625381D01*
X17890714Y-10606333D01*
X17871667Y-10596810D01*
X17843095Y-10596810D01*
X17824048Y-10587286D01*
X17814524Y-10568238D01*
X17814524Y-10558714D01*
X17824048Y-10539667D01*
X17843095Y-10530143D01*
X17871667Y-10530143D01*
X17890714Y-10539667D01*
X17966905Y-10739667D02*
X17976429Y-10730143D01*
X17995476Y-10701571D01*
X18005000Y-10682524D01*
X18014524Y-10653952D01*
X18024048Y-10606333D01*
X18024048Y-10568238D01*
X18014524Y-10520619D01*
X18005000Y-10492048D01*
X17995476Y-10473000D01*
X17976429Y-10444429D01*
X17966905Y-10434905D01*
D15*
X13178891Y-10875891D02*
X13178891Y-10798109D01*
X13101109Y-10798109D01*
X13101109Y-10875891D01*
X13178891Y-10875891D01*
D11*
X13557381Y-10927476D02*
X13443095Y-10927476D01*
X13500238Y-10927476D02*
X13500238Y-10727476D01*
X13481190Y-10756048D01*
X13462143Y-10775095D01*
X13443095Y-10784619D01*
X13643095Y-10908429D02*
X13652619Y-10917952D01*
X13643095Y-10927476D01*
X13633571Y-10917952D01*
X13643095Y-10908429D01*
X13643095Y-10927476D01*
X13843095Y-10927476D02*
X13728809Y-10927476D01*
X13785952Y-10927476D02*
X13785952Y-10727476D01*
X13766905Y-10756048D01*
X13747857Y-10775095D01*
X13728809Y-10784619D01*
X13966905Y-10727476D02*
X13985952Y-10727476D01*
X14005000Y-10737000D01*
X14014524Y-10746524D01*
X14024048Y-10765571D01*
X14033571Y-10803667D01*
X14033571Y-10851286D01*
X14024048Y-10889381D01*
X14014524Y-10908429D01*
X14005000Y-10917952D01*
X13985952Y-10927476D01*
X13966905Y-10927476D01*
X13947857Y-10917952D01*
X13938333Y-10908429D01*
X13928809Y-10889381D01*
X13919286Y-10851286D01*
X13919286Y-10803667D01*
X13928809Y-10765571D01*
X13938333Y-10746524D01*
X13947857Y-10737000D01*
X13966905Y-10727476D01*
X14157381Y-10727476D02*
X14176428Y-10727476D01*
X14195476Y-10737000D01*
X14205000Y-10746524D01*
X14214524Y-10765571D01*
X14224048Y-10803667D01*
X14224048Y-10851286D01*
X14214524Y-10889381D01*
X14205000Y-10908429D01*
X14195476Y-10917952D01*
X14176428Y-10927476D01*
X14157381Y-10927476D01*
X14138333Y-10917952D01*
X14128809Y-10908429D01*
X14119286Y-10889381D01*
X14109762Y-10851286D01*
X14109762Y-10803667D01*
X14119286Y-10765571D01*
X14128809Y-10746524D01*
X14138333Y-10737000D01*
X14157381Y-10727476D01*
X14309762Y-10927476D02*
X14309762Y-10794143D01*
X14309762Y-10813190D02*
X14319286Y-10803667D01*
X14338333Y-10794143D01*
X14366905Y-10794143D01*
X14385952Y-10803667D01*
X14395476Y-10822714D01*
X14395476Y-10927476D01*
X14395476Y-10822714D02*
X14405000Y-10803667D01*
X14424048Y-10794143D01*
X14452619Y-10794143D01*
X14471667Y-10803667D01*
X14481190Y-10822714D01*
X14481190Y-10927476D01*
X14576428Y-10927476D02*
X14576428Y-10794143D01*
X14576428Y-10813190D02*
X14585952Y-10803667D01*
X14605000Y-10794143D01*
X14633571Y-10794143D01*
X14652619Y-10803667D01*
X14662143Y-10822714D01*
X14662143Y-10927476D01*
X14662143Y-10822714D02*
X14671667Y-10803667D01*
X14690714Y-10794143D01*
X14719286Y-10794143D01*
X14738333Y-10803667D01*
X14747857Y-10822714D01*
X14747857Y-10927476D01*
X15138333Y-10717952D02*
X14966905Y-10975095D01*
X15395476Y-10727476D02*
X15414524Y-10727476D01*
X15433571Y-10737000D01*
X15443095Y-10746524D01*
X15452619Y-10765571D01*
X15462143Y-10803667D01*
X15462143Y-10851286D01*
X15452619Y-10889381D01*
X15443095Y-10908429D01*
X15433571Y-10917952D01*
X15414524Y-10927476D01*
X15395476Y-10927476D01*
X15376428Y-10917952D01*
X15366905Y-10908429D01*
X15357381Y-10889381D01*
X15347857Y-10851286D01*
X15347857Y-10803667D01*
X15357381Y-10765571D01*
X15366905Y-10746524D01*
X15376428Y-10737000D01*
X15395476Y-10727476D01*
X15547857Y-10908429D02*
X15557381Y-10917952D01*
X15547857Y-10927476D01*
X15538333Y-10917952D01*
X15547857Y-10908429D01*
X15547857Y-10927476D01*
X15681190Y-10727476D02*
X15700238Y-10727476D01*
X15719286Y-10737000D01*
X15728809Y-10746524D01*
X15738333Y-10765571D01*
X15747857Y-10803667D01*
X15747857Y-10851286D01*
X15738333Y-10889381D01*
X15728809Y-10908429D01*
X15719286Y-10917952D01*
X15700238Y-10927476D01*
X15681190Y-10927476D01*
X15662143Y-10917952D01*
X15652619Y-10908429D01*
X15643095Y-10889381D01*
X15633571Y-10851286D01*
X15633571Y-10803667D01*
X15643095Y-10765571D01*
X15652619Y-10746524D01*
X15662143Y-10737000D01*
X15681190Y-10727476D01*
X15919286Y-10794143D02*
X15919286Y-10927476D01*
X15871667Y-10717952D02*
X15824048Y-10860810D01*
X15947857Y-10860810D01*
X16005000Y-10727476D02*
X16128809Y-10727476D01*
X16062143Y-10803667D01*
X16090714Y-10803667D01*
X16109762Y-10813190D01*
X16119286Y-10822714D01*
X16128809Y-10841762D01*
X16128809Y-10889381D01*
X16119286Y-10908429D01*
X16109762Y-10917952D01*
X16090714Y-10927476D01*
X16033571Y-10927476D01*
X16014524Y-10917952D01*
X16005000Y-10908429D01*
X16195476Y-10727476D02*
X16319286Y-10727476D01*
X16252619Y-10803667D01*
X16281190Y-10803667D01*
X16300238Y-10813190D01*
X16309762Y-10822714D01*
X16319286Y-10841762D01*
X16319286Y-10889381D01*
X16309762Y-10908429D01*
X16300238Y-10917952D01*
X16281190Y-10927476D01*
X16224048Y-10927476D01*
X16205000Y-10917952D01*
X16195476Y-10908429D01*
X16395476Y-10727476D02*
X16395476Y-10765571D01*
X16471667Y-10727476D02*
X16471667Y-10765571D01*
X16766905Y-11003667D02*
X16757381Y-10994143D01*
X16738333Y-10965571D01*
X16728809Y-10946524D01*
X16719286Y-10917952D01*
X16709762Y-10870333D01*
X16709762Y-10832238D01*
X16719286Y-10784619D01*
X16728809Y-10756048D01*
X16738333Y-10737000D01*
X16757381Y-10708429D01*
X16766905Y-10698905D01*
X16871667Y-10813190D02*
X16852619Y-10803667D01*
X16843095Y-10794143D01*
X16833571Y-10775095D01*
X16833571Y-10765571D01*
X16843095Y-10746524D01*
X16852619Y-10737000D01*
X16871667Y-10727476D01*
X16909762Y-10727476D01*
X16928810Y-10737000D01*
X16938333Y-10746524D01*
X16947857Y-10765571D01*
X16947857Y-10775095D01*
X16938333Y-10794143D01*
X16928810Y-10803667D01*
X16909762Y-10813190D01*
X16871667Y-10813190D01*
X16852619Y-10822714D01*
X16843095Y-10832238D01*
X16833571Y-10851286D01*
X16833571Y-10889381D01*
X16843095Y-10908429D01*
X16852619Y-10917952D01*
X16871667Y-10927476D01*
X16909762Y-10927476D01*
X16928810Y-10917952D01*
X16938333Y-10908429D01*
X16947857Y-10889381D01*
X16947857Y-10851286D01*
X16938333Y-10832238D01*
X16928810Y-10822714D01*
X16909762Y-10813190D01*
X17185952Y-10927476D02*
X17185952Y-10727476D01*
X17271667Y-10927476D02*
X17271667Y-10822714D01*
X17262143Y-10803667D01*
X17243095Y-10794143D01*
X17214524Y-10794143D01*
X17195476Y-10803667D01*
X17185952Y-10813190D01*
X17395476Y-10927476D02*
X17376429Y-10917952D01*
X17366905Y-10908429D01*
X17357381Y-10889381D01*
X17357381Y-10832238D01*
X17366905Y-10813190D01*
X17376429Y-10803667D01*
X17395476Y-10794143D01*
X17424048Y-10794143D01*
X17443095Y-10803667D01*
X17452619Y-10813190D01*
X17462143Y-10832238D01*
X17462143Y-10889381D01*
X17452619Y-10908429D01*
X17443095Y-10917952D01*
X17424048Y-10927476D01*
X17395476Y-10927476D01*
X17576429Y-10927476D02*
X17557381Y-10917952D01*
X17547857Y-10898905D01*
X17547857Y-10727476D01*
X17728810Y-10917952D02*
X17709762Y-10927476D01*
X17671667Y-10927476D01*
X17652619Y-10917952D01*
X17643095Y-10898905D01*
X17643095Y-10822714D01*
X17652619Y-10803667D01*
X17671667Y-10794143D01*
X17709762Y-10794143D01*
X17728810Y-10803667D01*
X17738333Y-10822714D01*
X17738333Y-10841762D01*
X17643095Y-10860810D01*
X17814524Y-10917952D02*
X17833571Y-10927476D01*
X17871667Y-10927476D01*
X17890714Y-10917952D01*
X17900238Y-10898905D01*
X17900238Y-10889381D01*
X17890714Y-10870333D01*
X17871667Y-10860810D01*
X17843095Y-10860810D01*
X17824048Y-10851286D01*
X17814524Y-10832238D01*
X17814524Y-10822714D01*
X17824048Y-10803667D01*
X17843095Y-10794143D01*
X17871667Y-10794143D01*
X17890714Y-10803667D01*
X17966905Y-11003667D02*
X17976429Y-10994143D01*
X17995476Y-10965571D01*
X18005000Y-10946524D01*
X18014524Y-10917952D01*
X18024048Y-10870333D01*
X18024048Y-10832238D01*
X18014524Y-10784619D01*
X18005000Y-10756048D01*
X17995476Y-10737000D01*
X17976429Y-10708429D01*
X17966905Y-10698905D01*
M02*
