G04 #@! TF.GenerationSoftware,KiCad,Pcbnew,6.0.2+dfsg-1*
G04 #@! TF.CreationDate,2022-12-03T12:38:50-05:00*
G04 #@! TF.ProjectId,remote,72656d6f-7465-42e6-9b69-6361645f7063,rev?*
G04 #@! TF.SameCoordinates,Original*
G04 #@! TF.FileFunction,Copper,L1,Top*
G04 #@! TF.FilePolarity,Positive*
%FSLAX46Y46*%
G04 Gerber Fmt 4.6, Leading zero omitted, Abs format (unit mm)*
G04 Created by KiCad (PCBNEW 6.0.2+dfsg-1) date 2022-12-03 12:38:50*
%MOMM*%
%LPD*%
G01*
G04 APERTURE LIST*
G04 Aperture macros list*
%AMRoundRect*
0 Rectangle with rounded corners*
0 $1 Rounding radius*
0 $2 $3 $4 $5 $6 $7 $8 $9 X,Y pos of 4 corners*
0 Add a 4 corners polygon primitive as box body*
4,1,4,$2,$3,$4,$5,$6,$7,$8,$9,$2,$3,0*
0 Add four circle primitives for the rounded corners*
1,1,$1+$1,$2,$3*
1,1,$1+$1,$4,$5*
1,1,$1+$1,$6,$7*
1,1,$1+$1,$8,$9*
0 Add four rect primitives between the rounded corners*
20,1,$1+$1,$2,$3,$4,$5,0*
20,1,$1+$1,$4,$5,$6,$7,0*
20,1,$1+$1,$6,$7,$8,$9,0*
20,1,$1+$1,$8,$9,$2,$3,0*%
G04 Aperture macros list end*
G04 #@! TA.AperFunction,ComponentPad*
%ADD10C,2.000000*%
G04 #@! TD*
G04 #@! TA.AperFunction,ComponentPad*
%ADD11R,1.700000X1.700000*%
G04 #@! TD*
G04 #@! TA.AperFunction,ComponentPad*
%ADD12O,1.700000X1.700000*%
G04 #@! TD*
G04 #@! TA.AperFunction,ComponentPad*
%ADD13C,1.600000*%
G04 #@! TD*
G04 #@! TA.AperFunction,ComponentPad*
%ADD14O,1.600000X1.600000*%
G04 #@! TD*
G04 #@! TA.AperFunction,ComponentPad*
%ADD15RoundRect,0.250000X-0.350000X-0.625000X0.350000X-0.625000X0.350000X0.625000X-0.350000X0.625000X0*%
G04 #@! TD*
G04 #@! TA.AperFunction,ComponentPad*
%ADD16O,1.200000X1.750000*%
G04 #@! TD*
G04 #@! TA.AperFunction,Conductor*
%ADD17C,0.250000*%
G04 #@! TD*
G04 APERTURE END LIST*
D10*
G04 #@! TO.P,SWSTOP1,1,1*
G04 #@! TO.N,Net-(J1-Pad3)*
X156750000Y-84750000D03*
X156750000Y-91250000D03*
G04 #@! TO.P,SWSTOP1,2,2*
G04 #@! TO.N,GND*
X161250000Y-84750000D03*
X161250000Y-91250000D03*
G04 #@! TD*
G04 #@! TO.P,SWSTART1,1,1*
G04 #@! TO.N,Net-(J1-Pad4)*
X156750000Y-65750000D03*
X156750000Y-72250000D03*
G04 #@! TO.P,SWSTART1,2,2*
G04 #@! TO.N,GND*
X161250000Y-65750000D03*
X161250000Y-72250000D03*
G04 #@! TD*
D11*
G04 #@! TO.P,J1,1,Pin_1*
G04 #@! TO.N,GND*
X135000000Y-68375000D03*
D12*
G04 #@! TO.P,J1,2,Pin_2*
G04 #@! TO.N,+9V*
X135000000Y-70915000D03*
G04 #@! TO.P,J1,3,Pin_3*
G04 #@! TO.N,Net-(J1-Pad3)*
X135000000Y-73455000D03*
G04 #@! TO.P,J1,4,Pin_4*
G04 #@! TO.N,Net-(J1-Pad4)*
X135000000Y-75995000D03*
G04 #@! TO.P,J1,5,Pin_5*
G04 #@! TO.N,+9V*
X135000000Y-78535000D03*
G04 #@! TO.P,J1,6,Pin_6*
X135000000Y-81075000D03*
G04 #@! TO.P,J1,7,Pin_7*
G04 #@! TO.N,Net-(J1-Pad7)*
X135000000Y-83615000D03*
G04 #@! TD*
D11*
G04 #@! TO.P,JANT1,1,Pin_1*
G04 #@! TO.N,Net-(J1-Pad7)*
X135000000Y-90000000D03*
G04 #@! TD*
D13*
G04 #@! TO.P,R1,1*
G04 #@! TO.N,+9V*
X149000000Y-77000000D03*
D14*
G04 #@! TO.P,R1,2*
G04 #@! TO.N,Net-(J1-Pad4)*
X149000000Y-66840000D03*
G04 #@! TD*
D13*
G04 #@! TO.P,R2,1*
G04 #@! TO.N,+9V*
X149000000Y-90080000D03*
D14*
G04 #@! TO.P,R2,2*
G04 #@! TO.N,Net-(J1-Pad3)*
X149000000Y-79920000D03*
G04 #@! TD*
D15*
G04 #@! TO.P,JPOWER1,1,Pin_1*
G04 #@! TO.N,GND*
X141000000Y-78000000D03*
D16*
G04 #@! TO.P,JPOWER1,2,Pin_2*
G04 #@! TO.N,+9V*
X143000000Y-78000000D03*
G04 #@! TD*
D17*
G04 #@! TO.N,Net-(J1-Pad3)*
X156750000Y-84750000D02*
X153830000Y-84750000D01*
X153830000Y-84750000D02*
X149000000Y-79920000D01*
G04 #@! TO.N,Net-(J1-Pad4)*
X149000000Y-66840000D02*
X155660000Y-66840000D01*
X155660000Y-66840000D02*
X156750000Y-65750000D01*
X156750000Y-72250000D02*
X156750000Y-65750000D01*
G04 #@! TO.N,Net-(J1-Pad3)*
X156750000Y-84750000D02*
X156750000Y-91250000D01*
X135000000Y-73787493D02*
X143787493Y-73787493D01*
X149000000Y-79000000D02*
X149000000Y-79920000D01*
X135000000Y-73455000D02*
X135000000Y-73787493D01*
X143787493Y-73787493D02*
X149000000Y-79000000D01*
G04 #@! TO.N,Net-(J1-Pad7)*
X135000000Y-90000000D02*
X135000000Y-83615000D01*
G04 #@! TD*
G04 #@! TA.AperFunction,Conductor*
G04 #@! TO.N,GND*
G36*
X156620480Y-64020002D02*
G01*
X156666973Y-64073658D01*
X156677077Y-64143932D01*
X156647583Y-64208512D01*
X156587857Y-64246896D01*
X156562245Y-64251612D01*
X156513289Y-64255465D01*
X156508482Y-64256619D01*
X156508476Y-64256620D01*
X156362609Y-64291640D01*
X156282406Y-64310895D01*
X156277835Y-64312788D01*
X156277833Y-64312789D01*
X156067611Y-64399865D01*
X156067607Y-64399867D01*
X156063037Y-64401760D01*
X156058817Y-64404346D01*
X155864798Y-64523241D01*
X155864792Y-64523245D01*
X155860584Y-64525824D01*
X155680031Y-64680031D01*
X155525824Y-64860584D01*
X155523245Y-64864792D01*
X155523241Y-64864798D01*
X155404346Y-65058817D01*
X155401760Y-65063037D01*
X155399867Y-65067607D01*
X155399865Y-65067611D01*
X155312789Y-65277833D01*
X155310895Y-65282406D01*
X155255465Y-65513289D01*
X155236835Y-65750000D01*
X155255465Y-65986711D01*
X155256619Y-65991518D01*
X155256620Y-65991524D01*
X155270920Y-66051086D01*
X155267373Y-66121994D01*
X155226053Y-66179728D01*
X155160079Y-66205958D01*
X155148401Y-66206500D01*
X150219394Y-66206500D01*
X150151273Y-66186498D01*
X150116181Y-66152771D01*
X150009357Y-66000211D01*
X150009355Y-66000208D01*
X150006198Y-65995700D01*
X149844300Y-65833802D01*
X149839792Y-65830645D01*
X149839789Y-65830643D01*
X149726235Y-65751132D01*
X149656749Y-65702477D01*
X149651767Y-65700154D01*
X149651762Y-65700151D01*
X149454225Y-65608039D01*
X149454224Y-65608039D01*
X149449243Y-65605716D01*
X149443935Y-65604294D01*
X149443933Y-65604293D01*
X149233402Y-65547881D01*
X149233400Y-65547881D01*
X149228087Y-65546457D01*
X149000000Y-65526502D01*
X148771913Y-65546457D01*
X148766600Y-65547881D01*
X148766598Y-65547881D01*
X148556067Y-65604293D01*
X148556065Y-65604294D01*
X148550757Y-65605716D01*
X148545776Y-65608039D01*
X148545775Y-65608039D01*
X148348238Y-65700151D01*
X148348233Y-65700154D01*
X148343251Y-65702477D01*
X148273765Y-65751132D01*
X148160211Y-65830643D01*
X148160208Y-65830645D01*
X148155700Y-65833802D01*
X147993802Y-65995700D01*
X147862477Y-66183251D01*
X147860154Y-66188233D01*
X147860151Y-66188238D01*
X147844330Y-66222167D01*
X147765716Y-66390757D01*
X147764294Y-66396065D01*
X147764293Y-66396067D01*
X147707881Y-66606598D01*
X147706457Y-66611913D01*
X147686502Y-66840000D01*
X147706457Y-67068087D01*
X147707881Y-67073400D01*
X147707881Y-67073402D01*
X147739066Y-67189783D01*
X147765716Y-67289243D01*
X147768039Y-67294224D01*
X147768039Y-67294225D01*
X147860151Y-67491762D01*
X147860154Y-67491767D01*
X147862477Y-67496749D01*
X147993802Y-67684300D01*
X148155700Y-67846198D01*
X148160208Y-67849355D01*
X148160211Y-67849357D01*
X148185832Y-67867297D01*
X148343251Y-67977523D01*
X148348233Y-67979846D01*
X148348238Y-67979849D01*
X148545775Y-68071961D01*
X148550757Y-68074284D01*
X148556065Y-68075706D01*
X148556067Y-68075707D01*
X148766598Y-68132119D01*
X148766600Y-68132119D01*
X148771913Y-68133543D01*
X149000000Y-68153498D01*
X149228087Y-68133543D01*
X149233400Y-68132119D01*
X149233402Y-68132119D01*
X149443933Y-68075707D01*
X149443935Y-68075706D01*
X149449243Y-68074284D01*
X149454225Y-68071961D01*
X149651762Y-67979849D01*
X149651767Y-67979846D01*
X149656749Y-67977523D01*
X149814168Y-67867297D01*
X149839789Y-67849357D01*
X149839792Y-67849355D01*
X149844300Y-67846198D01*
X150006198Y-67684300D01*
X150074663Y-67586522D01*
X150116181Y-67527229D01*
X150171638Y-67482901D01*
X150219394Y-67473500D01*
X155581233Y-67473500D01*
X155592416Y-67474027D01*
X155599909Y-67475702D01*
X155607835Y-67475453D01*
X155607836Y-67475453D01*
X155667986Y-67473562D01*
X155671945Y-67473500D01*
X155699856Y-67473500D01*
X155703791Y-67473003D01*
X155703856Y-67472995D01*
X155715693Y-67472062D01*
X155747951Y-67471048D01*
X155751970Y-67470922D01*
X155759889Y-67470673D01*
X155779343Y-67465021D01*
X155798700Y-67461013D01*
X155810930Y-67459468D01*
X155810931Y-67459468D01*
X155818797Y-67458474D01*
X155826168Y-67455555D01*
X155826170Y-67455555D01*
X155859912Y-67442196D01*
X155871142Y-67438351D01*
X155905983Y-67428229D01*
X155905984Y-67428229D01*
X155913593Y-67426018D01*
X155920411Y-67421986D01*
X155920415Y-67421984D01*
X155926357Y-67418469D01*
X155995173Y-67401007D01*
X156062505Y-67423521D01*
X156106976Y-67478864D01*
X156116500Y-67526920D01*
X156116500Y-70798434D01*
X156096498Y-70866555D01*
X156056335Y-70905867D01*
X155864798Y-71023241D01*
X155864792Y-71023245D01*
X155860584Y-71025824D01*
X155680031Y-71180031D01*
X155525824Y-71360584D01*
X155523245Y-71364792D01*
X155523241Y-71364798D01*
X155419542Y-71534020D01*
X155401760Y-71563037D01*
X155399867Y-71567607D01*
X155399865Y-71567611D01*
X155312789Y-71777833D01*
X155310895Y-71782406D01*
X155307034Y-71798489D01*
X155268458Y-71959171D01*
X155255465Y-72013289D01*
X155236835Y-72250000D01*
X155255465Y-72486711D01*
X155256619Y-72491518D01*
X155256620Y-72491524D01*
X155289293Y-72627617D01*
X155310895Y-72717594D01*
X155312788Y-72722165D01*
X155312789Y-72722167D01*
X155399772Y-72932163D01*
X155401760Y-72936963D01*
X155404346Y-72941183D01*
X155523241Y-73135202D01*
X155523245Y-73135208D01*
X155525824Y-73139416D01*
X155614067Y-73242735D01*
X155672677Y-73311358D01*
X155680031Y-73319969D01*
X155860584Y-73474176D01*
X155864792Y-73476755D01*
X155864798Y-73476759D01*
X156058084Y-73595205D01*
X156063037Y-73598240D01*
X156067607Y-73600133D01*
X156067611Y-73600135D01*
X156277833Y-73687211D01*
X156282406Y-73689105D01*
X156362609Y-73708360D01*
X156508476Y-73743380D01*
X156508482Y-73743381D01*
X156513289Y-73744535D01*
X156750000Y-73763165D01*
X156986711Y-73744535D01*
X156991518Y-73743381D01*
X156991524Y-73743380D01*
X157137391Y-73708360D01*
X157217594Y-73689105D01*
X157222167Y-73687211D01*
X157432389Y-73600135D01*
X157432393Y-73600133D01*
X157436963Y-73598240D01*
X157441916Y-73595205D01*
X157625556Y-73482670D01*
X160382160Y-73482670D01*
X160387887Y-73490320D01*
X160559042Y-73595205D01*
X160567837Y-73599687D01*
X160777988Y-73686734D01*
X160787373Y-73689783D01*
X161008554Y-73742885D01*
X161018301Y-73744428D01*
X161245070Y-73762275D01*
X161254930Y-73762275D01*
X161481699Y-73744428D01*
X161491446Y-73742885D01*
X161712627Y-73689783D01*
X161722012Y-73686734D01*
X161932163Y-73599687D01*
X161940958Y-73595205D01*
X162108445Y-73492568D01*
X162117907Y-73482110D01*
X162114124Y-73473334D01*
X161262812Y-72622022D01*
X161248868Y-72614408D01*
X161247035Y-72614539D01*
X161240420Y-72618790D01*
X160388920Y-73470290D01*
X160382160Y-73482670D01*
X157625556Y-73482670D01*
X157635202Y-73476759D01*
X157635208Y-73476755D01*
X157639416Y-73474176D01*
X157819969Y-73319969D01*
X157827324Y-73311358D01*
X157885933Y-73242735D01*
X157974176Y-73139416D01*
X157976755Y-73135208D01*
X157976759Y-73135202D01*
X158095654Y-72941183D01*
X158098240Y-72936963D01*
X158100229Y-72932163D01*
X158187211Y-72722167D01*
X158187212Y-72722165D01*
X158189105Y-72717594D01*
X158210707Y-72627617D01*
X158243380Y-72491524D01*
X158243381Y-72491518D01*
X158244535Y-72486711D01*
X158262777Y-72254930D01*
X159737725Y-72254930D01*
X159755572Y-72481699D01*
X159757115Y-72491446D01*
X159810217Y-72712627D01*
X159813266Y-72722012D01*
X159900313Y-72932163D01*
X159904795Y-72940958D01*
X160007432Y-73108445D01*
X160017890Y-73117907D01*
X160026666Y-73114124D01*
X160877978Y-72262812D01*
X160885592Y-72248868D01*
X160885461Y-72247035D01*
X160881210Y-72240420D01*
X160029710Y-71388920D01*
X160017330Y-71382160D01*
X160009680Y-71387887D01*
X159904795Y-71559042D01*
X159900313Y-71567837D01*
X159813266Y-71777988D01*
X159810217Y-71787373D01*
X159757115Y-72008554D01*
X159755572Y-72018301D01*
X159737725Y-72245070D01*
X159737725Y-72254930D01*
X158262777Y-72254930D01*
X158263165Y-72250000D01*
X158244535Y-72013289D01*
X158231543Y-71959171D01*
X158192966Y-71798489D01*
X158189105Y-71782406D01*
X158187211Y-71777833D01*
X158100135Y-71567611D01*
X158100133Y-71567607D01*
X158098240Y-71563037D01*
X158080458Y-71534020D01*
X157976759Y-71364798D01*
X157976755Y-71364792D01*
X157974176Y-71360584D01*
X157819969Y-71180031D01*
X157639416Y-71025824D01*
X157635208Y-71023245D01*
X157635202Y-71023241D01*
X157626470Y-71017890D01*
X160382093Y-71017890D01*
X160385876Y-71026666D01*
X161237188Y-71877978D01*
X161251132Y-71885592D01*
X161252965Y-71885461D01*
X161259580Y-71881210D01*
X162111080Y-71029710D01*
X162117840Y-71017330D01*
X162112113Y-71009680D01*
X161940958Y-70904795D01*
X161932163Y-70900313D01*
X161722012Y-70813266D01*
X161712627Y-70810217D01*
X161491446Y-70757115D01*
X161481699Y-70755572D01*
X161254930Y-70737725D01*
X161245070Y-70737725D01*
X161018301Y-70755572D01*
X161008554Y-70757115D01*
X160787373Y-70810217D01*
X160777988Y-70813266D01*
X160567837Y-70900313D01*
X160559042Y-70904795D01*
X160391555Y-71007432D01*
X160382093Y-71017890D01*
X157626470Y-71017890D01*
X157443665Y-70905867D01*
X157396034Y-70853219D01*
X157383500Y-70798434D01*
X157383500Y-67201566D01*
X157403502Y-67133445D01*
X157443665Y-67094133D01*
X157625556Y-66982670D01*
X160382160Y-66982670D01*
X160387887Y-66990320D01*
X160559042Y-67095205D01*
X160567837Y-67099687D01*
X160777988Y-67186734D01*
X160787373Y-67189783D01*
X161008554Y-67242885D01*
X161018301Y-67244428D01*
X161245070Y-67262275D01*
X161254930Y-67262275D01*
X161481699Y-67244428D01*
X161491446Y-67242885D01*
X161712627Y-67189783D01*
X161722012Y-67186734D01*
X161932163Y-67099687D01*
X161940958Y-67095205D01*
X162108445Y-66992568D01*
X162117907Y-66982110D01*
X162114124Y-66973334D01*
X161262812Y-66122022D01*
X161248868Y-66114408D01*
X161247035Y-66114539D01*
X161240420Y-66118790D01*
X160388920Y-66970290D01*
X160382160Y-66982670D01*
X157625556Y-66982670D01*
X157635202Y-66976759D01*
X157635208Y-66976755D01*
X157639416Y-66974176D01*
X157819969Y-66819969D01*
X157974176Y-66639416D01*
X157976755Y-66635208D01*
X157976759Y-66635202D01*
X158095654Y-66441183D01*
X158098240Y-66436963D01*
X158100229Y-66432163D01*
X158187211Y-66222167D01*
X158187212Y-66222165D01*
X158189105Y-66217594D01*
X158212050Y-66122022D01*
X158243380Y-65991524D01*
X158243381Y-65991518D01*
X158244535Y-65986711D01*
X158262777Y-65754930D01*
X159737725Y-65754930D01*
X159755572Y-65981699D01*
X159757115Y-65991446D01*
X159810217Y-66212627D01*
X159813266Y-66222012D01*
X159900313Y-66432163D01*
X159904795Y-66440958D01*
X160007432Y-66608445D01*
X160017890Y-66617907D01*
X160026666Y-66614124D01*
X160877978Y-65762812D01*
X160885592Y-65748868D01*
X160885461Y-65747035D01*
X160881210Y-65740420D01*
X160029710Y-64888920D01*
X160017330Y-64882160D01*
X160009680Y-64887887D01*
X159904795Y-65059042D01*
X159900313Y-65067837D01*
X159813266Y-65277988D01*
X159810217Y-65287373D01*
X159757115Y-65508554D01*
X159755572Y-65518301D01*
X159737725Y-65745070D01*
X159737725Y-65754930D01*
X158262777Y-65754930D01*
X158263165Y-65750000D01*
X158244535Y-65513289D01*
X158189105Y-65282406D01*
X158187211Y-65277833D01*
X158100135Y-65067611D01*
X158100133Y-65067607D01*
X158098240Y-65063037D01*
X158095654Y-65058817D01*
X157976759Y-64864798D01*
X157976755Y-64864792D01*
X157974176Y-64860584D01*
X157819969Y-64680031D01*
X157639416Y-64525824D01*
X157635208Y-64523245D01*
X157635202Y-64523241D01*
X157441183Y-64404346D01*
X157436963Y-64401760D01*
X157432393Y-64399867D01*
X157432389Y-64399865D01*
X157222167Y-64312789D01*
X157222165Y-64312788D01*
X157217594Y-64310895D01*
X157137391Y-64291640D01*
X156991524Y-64256620D01*
X156991518Y-64256619D01*
X156986711Y-64255465D01*
X156937755Y-64251612D01*
X156871414Y-64226326D01*
X156829274Y-64169188D01*
X156824715Y-64098338D01*
X156859184Y-64036271D01*
X156921738Y-64002691D01*
X156947641Y-64000000D01*
X161058729Y-64000000D01*
X161126850Y-64020002D01*
X161173343Y-64073658D01*
X161183447Y-64143932D01*
X161153953Y-64208512D01*
X161094227Y-64246896D01*
X161068615Y-64251612D01*
X161018301Y-64255572D01*
X161008554Y-64257115D01*
X160787373Y-64310217D01*
X160777988Y-64313266D01*
X160567837Y-64400313D01*
X160559042Y-64404795D01*
X160391555Y-64507432D01*
X160382093Y-64517890D01*
X160385876Y-64526666D01*
X161237188Y-65377978D01*
X161251132Y-65385592D01*
X161252965Y-65385461D01*
X161259580Y-65381210D01*
X162111080Y-64529710D01*
X162117840Y-64517330D01*
X162112113Y-64509680D01*
X161940958Y-64404795D01*
X161932163Y-64400313D01*
X161722012Y-64313266D01*
X161712627Y-64310217D01*
X161491446Y-64257115D01*
X161481699Y-64255572D01*
X161431385Y-64251612D01*
X161365044Y-64226327D01*
X161322904Y-64169189D01*
X161318345Y-64098339D01*
X161352814Y-64036271D01*
X161415367Y-64002691D01*
X161441271Y-64000000D01*
X162874000Y-64000000D01*
X162942121Y-64020002D01*
X162988614Y-64073658D01*
X163000000Y-64126000D01*
X163000000Y-65558729D01*
X162979998Y-65626850D01*
X162926342Y-65673343D01*
X162856068Y-65683447D01*
X162791488Y-65653953D01*
X162753104Y-65594227D01*
X162748388Y-65568615D01*
X162744428Y-65518301D01*
X162742885Y-65508554D01*
X162689783Y-65287373D01*
X162686734Y-65277988D01*
X162599687Y-65067837D01*
X162595205Y-65059042D01*
X162492568Y-64891555D01*
X162482110Y-64882093D01*
X162473334Y-64885876D01*
X161622022Y-65737188D01*
X161614408Y-65751132D01*
X161614539Y-65752965D01*
X161618790Y-65759580D01*
X162470290Y-66611080D01*
X162482670Y-66617840D01*
X162490320Y-66612113D01*
X162595205Y-66440958D01*
X162599687Y-66432163D01*
X162686734Y-66222012D01*
X162689783Y-66212627D01*
X162742885Y-65991446D01*
X162744428Y-65981699D01*
X162748388Y-65931385D01*
X162773673Y-65865044D01*
X162830811Y-65822904D01*
X162901661Y-65818345D01*
X162963729Y-65852814D01*
X162997309Y-65915367D01*
X163000000Y-65941271D01*
X163000000Y-72058729D01*
X162979998Y-72126850D01*
X162926342Y-72173343D01*
X162856068Y-72183447D01*
X162791488Y-72153953D01*
X162753104Y-72094227D01*
X162748388Y-72068615D01*
X162744428Y-72018301D01*
X162742885Y-72008554D01*
X162689783Y-71787373D01*
X162686734Y-71777988D01*
X162599687Y-71567837D01*
X162595205Y-71559042D01*
X162492568Y-71391555D01*
X162482110Y-71382093D01*
X162473334Y-71385876D01*
X161622022Y-72237188D01*
X161614408Y-72251132D01*
X161614539Y-72252965D01*
X161618790Y-72259580D01*
X162470290Y-73111080D01*
X162482670Y-73117840D01*
X162490320Y-73112113D01*
X162595205Y-72940958D01*
X162599687Y-72932163D01*
X162686734Y-72722012D01*
X162689783Y-72712627D01*
X162742885Y-72491446D01*
X162744428Y-72481699D01*
X162748388Y-72431385D01*
X162773673Y-72365044D01*
X162830811Y-72322904D01*
X162901661Y-72318345D01*
X162963729Y-72352814D01*
X162997309Y-72415367D01*
X163000000Y-72441271D01*
X163000000Y-84558729D01*
X162979998Y-84626850D01*
X162926342Y-84673343D01*
X162856068Y-84683447D01*
X162791488Y-84653953D01*
X162753104Y-84594227D01*
X162748388Y-84568615D01*
X162744428Y-84518301D01*
X162742885Y-84508554D01*
X162689783Y-84287373D01*
X162686734Y-84277988D01*
X162599687Y-84067837D01*
X162595205Y-84059042D01*
X162492568Y-83891555D01*
X162482110Y-83882093D01*
X162473334Y-83885876D01*
X161622022Y-84737188D01*
X161614408Y-84751132D01*
X161614539Y-84752965D01*
X161618790Y-84759580D01*
X162470290Y-85611080D01*
X162482670Y-85617840D01*
X162490320Y-85612113D01*
X162595205Y-85440958D01*
X162599687Y-85432163D01*
X162686734Y-85222012D01*
X162689783Y-85212627D01*
X162742885Y-84991446D01*
X162744428Y-84981699D01*
X162748388Y-84931385D01*
X162773673Y-84865044D01*
X162830811Y-84822904D01*
X162901661Y-84818345D01*
X162963729Y-84852814D01*
X162997309Y-84915367D01*
X163000000Y-84941271D01*
X163000000Y-91058729D01*
X162979998Y-91126850D01*
X162926342Y-91173343D01*
X162856068Y-91183447D01*
X162791488Y-91153953D01*
X162753104Y-91094227D01*
X162748388Y-91068615D01*
X162744428Y-91018301D01*
X162742885Y-91008554D01*
X162689783Y-90787373D01*
X162686734Y-90777988D01*
X162599687Y-90567837D01*
X162595205Y-90559042D01*
X162492568Y-90391555D01*
X162482110Y-90382093D01*
X162473334Y-90385876D01*
X161622022Y-91237188D01*
X161614408Y-91251132D01*
X161614539Y-91252965D01*
X161618790Y-91259580D01*
X162470290Y-92111080D01*
X162482670Y-92117840D01*
X162490320Y-92112113D01*
X162595205Y-91940958D01*
X162599687Y-91932163D01*
X162686734Y-91722012D01*
X162689783Y-91712627D01*
X162742885Y-91491446D01*
X162744428Y-91481699D01*
X162748388Y-91431385D01*
X162773673Y-91365044D01*
X162830811Y-91322904D01*
X162901661Y-91318345D01*
X162963729Y-91352814D01*
X162997309Y-91415367D01*
X163000000Y-91441271D01*
X163000000Y-92874000D01*
X162979998Y-92942121D01*
X162926342Y-92988614D01*
X162874000Y-93000000D01*
X161441271Y-93000000D01*
X161373150Y-92979998D01*
X161326657Y-92926342D01*
X161316553Y-92856068D01*
X161346047Y-92791488D01*
X161405773Y-92753104D01*
X161431385Y-92748388D01*
X161481699Y-92744428D01*
X161491446Y-92742885D01*
X161712627Y-92689783D01*
X161722012Y-92686734D01*
X161932163Y-92599687D01*
X161940958Y-92595205D01*
X162108445Y-92492568D01*
X162117907Y-92482110D01*
X162114124Y-92473334D01*
X161262812Y-91622022D01*
X161248868Y-91614408D01*
X161247035Y-91614539D01*
X161240420Y-91618790D01*
X160388920Y-92470290D01*
X160382160Y-92482670D01*
X160387887Y-92490320D01*
X160559042Y-92595205D01*
X160567837Y-92599687D01*
X160777988Y-92686734D01*
X160787373Y-92689783D01*
X161008554Y-92742885D01*
X161018301Y-92744428D01*
X161068615Y-92748388D01*
X161134956Y-92773673D01*
X161177096Y-92830811D01*
X161181655Y-92901661D01*
X161147186Y-92963729D01*
X161084633Y-92997309D01*
X161058729Y-93000000D01*
X156947641Y-93000000D01*
X156879520Y-92979998D01*
X156833027Y-92926342D01*
X156822923Y-92856068D01*
X156852417Y-92791488D01*
X156912143Y-92753104D01*
X156937755Y-92748388D01*
X156986711Y-92744535D01*
X156991518Y-92743381D01*
X156991524Y-92743380D01*
X157137391Y-92708360D01*
X157217594Y-92689105D01*
X157222167Y-92687211D01*
X157432389Y-92600135D01*
X157432393Y-92600133D01*
X157436963Y-92598240D01*
X157441916Y-92595205D01*
X157635202Y-92476759D01*
X157635208Y-92476755D01*
X157639416Y-92474176D01*
X157819969Y-92319969D01*
X157974176Y-92139416D01*
X157976755Y-92135208D01*
X157976759Y-92135202D01*
X158095654Y-91941183D01*
X158098240Y-91936963D01*
X158100229Y-91932163D01*
X158187211Y-91722167D01*
X158187212Y-91722165D01*
X158189105Y-91717594D01*
X158244535Y-91486711D01*
X158262777Y-91254930D01*
X159737725Y-91254930D01*
X159755572Y-91481699D01*
X159757115Y-91491446D01*
X159810217Y-91712627D01*
X159813266Y-91722012D01*
X159900313Y-91932163D01*
X159904795Y-91940958D01*
X160007432Y-92108445D01*
X160017890Y-92117907D01*
X160026666Y-92114124D01*
X160877978Y-91262812D01*
X160885592Y-91248868D01*
X160885461Y-91247035D01*
X160881210Y-91240420D01*
X160029710Y-90388920D01*
X160017330Y-90382160D01*
X160009680Y-90387887D01*
X159904795Y-90559042D01*
X159900313Y-90567837D01*
X159813266Y-90777988D01*
X159810217Y-90787373D01*
X159757115Y-91008554D01*
X159755572Y-91018301D01*
X159737725Y-91245070D01*
X159737725Y-91254930D01*
X158262777Y-91254930D01*
X158263165Y-91250000D01*
X158244535Y-91013289D01*
X158231818Y-90960316D01*
X158190260Y-90787218D01*
X158189105Y-90782406D01*
X158172061Y-90741257D01*
X158100135Y-90567611D01*
X158100133Y-90567607D01*
X158098240Y-90563037D01*
X158074277Y-90523933D01*
X157976759Y-90364798D01*
X157976755Y-90364792D01*
X157974176Y-90360584D01*
X157819969Y-90180031D01*
X157639416Y-90025824D01*
X157635208Y-90023245D01*
X157635202Y-90023241D01*
X157626470Y-90017890D01*
X160382093Y-90017890D01*
X160385876Y-90026666D01*
X161237188Y-90877978D01*
X161251132Y-90885592D01*
X161252965Y-90885461D01*
X161259580Y-90881210D01*
X162111080Y-90029710D01*
X162117840Y-90017330D01*
X162112113Y-90009680D01*
X161940958Y-89904795D01*
X161932163Y-89900313D01*
X161722012Y-89813266D01*
X161712627Y-89810217D01*
X161491446Y-89757115D01*
X161481699Y-89755572D01*
X161254930Y-89737725D01*
X161245070Y-89737725D01*
X161018301Y-89755572D01*
X161008554Y-89757115D01*
X160787373Y-89810217D01*
X160777988Y-89813266D01*
X160567837Y-89900313D01*
X160559042Y-89904795D01*
X160391555Y-90007432D01*
X160382093Y-90017890D01*
X157626470Y-90017890D01*
X157443665Y-89905867D01*
X157396034Y-89853219D01*
X157383500Y-89798434D01*
X157383500Y-86201566D01*
X157403502Y-86133445D01*
X157443665Y-86094133D01*
X157625556Y-85982670D01*
X160382160Y-85982670D01*
X160387887Y-85990320D01*
X160559042Y-86095205D01*
X160567837Y-86099687D01*
X160777988Y-86186734D01*
X160787373Y-86189783D01*
X161008554Y-86242885D01*
X161018301Y-86244428D01*
X161245070Y-86262275D01*
X161254930Y-86262275D01*
X161481699Y-86244428D01*
X161491446Y-86242885D01*
X161712627Y-86189783D01*
X161722012Y-86186734D01*
X161932163Y-86099687D01*
X161940958Y-86095205D01*
X162108445Y-85992568D01*
X162117907Y-85982110D01*
X162114124Y-85973334D01*
X161262812Y-85122022D01*
X161248868Y-85114408D01*
X161247035Y-85114539D01*
X161240420Y-85118790D01*
X160388920Y-85970290D01*
X160382160Y-85982670D01*
X157625556Y-85982670D01*
X157635202Y-85976759D01*
X157635208Y-85976755D01*
X157639416Y-85974176D01*
X157819969Y-85819969D01*
X157974176Y-85639416D01*
X157976755Y-85635208D01*
X157976759Y-85635202D01*
X158095654Y-85441183D01*
X158098240Y-85436963D01*
X158100229Y-85432163D01*
X158187211Y-85222167D01*
X158187212Y-85222165D01*
X158189105Y-85217594D01*
X158244535Y-84986711D01*
X158262777Y-84754930D01*
X159737725Y-84754930D01*
X159755572Y-84981699D01*
X159757115Y-84991446D01*
X159810217Y-85212627D01*
X159813266Y-85222012D01*
X159900313Y-85432163D01*
X159904795Y-85440958D01*
X160007432Y-85608445D01*
X160017890Y-85617907D01*
X160026666Y-85614124D01*
X160877978Y-84762812D01*
X160885592Y-84748868D01*
X160885461Y-84747035D01*
X160881210Y-84740420D01*
X160029710Y-83888920D01*
X160017330Y-83882160D01*
X160009680Y-83887887D01*
X159904795Y-84059042D01*
X159900313Y-84067837D01*
X159813266Y-84277988D01*
X159810217Y-84287373D01*
X159757115Y-84508554D01*
X159755572Y-84518301D01*
X159737725Y-84745070D01*
X159737725Y-84754930D01*
X158262777Y-84754930D01*
X158263165Y-84750000D01*
X158244535Y-84513289D01*
X158239975Y-84494292D01*
X158190260Y-84287218D01*
X158189105Y-84282406D01*
X158118462Y-84111857D01*
X158100135Y-84067611D01*
X158100133Y-84067607D01*
X158098240Y-84063037D01*
X158000211Y-83903069D01*
X157976759Y-83864798D01*
X157976755Y-83864792D01*
X157974176Y-83860584D01*
X157819969Y-83680031D01*
X157639416Y-83525824D01*
X157635208Y-83523245D01*
X157635202Y-83523241D01*
X157626470Y-83517890D01*
X160382093Y-83517890D01*
X160385876Y-83526666D01*
X161237188Y-84377978D01*
X161251132Y-84385592D01*
X161252965Y-84385461D01*
X161259580Y-84381210D01*
X162111080Y-83529710D01*
X162117840Y-83517330D01*
X162112113Y-83509680D01*
X161940958Y-83404795D01*
X161932163Y-83400313D01*
X161722012Y-83313266D01*
X161712627Y-83310217D01*
X161491446Y-83257115D01*
X161481699Y-83255572D01*
X161254930Y-83237725D01*
X161245070Y-83237725D01*
X161018301Y-83255572D01*
X161008554Y-83257115D01*
X160787373Y-83310217D01*
X160777988Y-83313266D01*
X160567837Y-83400313D01*
X160559042Y-83404795D01*
X160391555Y-83507432D01*
X160382093Y-83517890D01*
X157626470Y-83517890D01*
X157441183Y-83404346D01*
X157436963Y-83401760D01*
X157432393Y-83399867D01*
X157432389Y-83399865D01*
X157222167Y-83312789D01*
X157222165Y-83312788D01*
X157217594Y-83310895D01*
X157137391Y-83291640D01*
X156991524Y-83256620D01*
X156991518Y-83256619D01*
X156986711Y-83255465D01*
X156750000Y-83236835D01*
X156513289Y-83255465D01*
X156508482Y-83256619D01*
X156508476Y-83256620D01*
X156362609Y-83291640D01*
X156282406Y-83310895D01*
X156277835Y-83312788D01*
X156277833Y-83312789D01*
X156067611Y-83399865D01*
X156067607Y-83399867D01*
X156063037Y-83401760D01*
X156058817Y-83404346D01*
X155864798Y-83523241D01*
X155864792Y-83523245D01*
X155860584Y-83525824D01*
X155680031Y-83680031D01*
X155525824Y-83860584D01*
X155523245Y-83864792D01*
X155523241Y-83864798D01*
X155405867Y-84056335D01*
X155353219Y-84103966D01*
X155298434Y-84116500D01*
X154144594Y-84116500D01*
X154076473Y-84096498D01*
X154055499Y-84079595D01*
X150309152Y-80333248D01*
X150275126Y-80270936D01*
X150276541Y-80211541D01*
X150292118Y-80153409D01*
X150292120Y-80153398D01*
X150293543Y-80148087D01*
X150313498Y-79920000D01*
X150293543Y-79691913D01*
X150279505Y-79639522D01*
X150235707Y-79476067D01*
X150235706Y-79476065D01*
X150234284Y-79470757D01*
X150195327Y-79387213D01*
X150139849Y-79268238D01*
X150139846Y-79268233D01*
X150137523Y-79263251D01*
X150026160Y-79104208D01*
X150009357Y-79080211D01*
X150009355Y-79080208D01*
X150006198Y-79075700D01*
X149844300Y-78913802D01*
X149839792Y-78910645D01*
X149839789Y-78910643D01*
X149707394Y-78817939D01*
X149656749Y-78782477D01*
X149626733Y-78768481D01*
X149573450Y-78721567D01*
X149562834Y-78700673D01*
X149559552Y-78692383D01*
X149549549Y-78678614D01*
X149533564Y-78656613D01*
X149527048Y-78646693D01*
X149508580Y-78615465D01*
X149508578Y-78615462D01*
X149504542Y-78608638D01*
X149490221Y-78594317D01*
X149477380Y-78579283D01*
X149470131Y-78569306D01*
X149465472Y-78562893D01*
X149431395Y-78534702D01*
X149422616Y-78526712D01*
X149351930Y-78456026D01*
X149317904Y-78393714D01*
X149322969Y-78322899D01*
X149365516Y-78266063D01*
X149408413Y-78245224D01*
X149426032Y-78240503D01*
X149443933Y-78235707D01*
X149443935Y-78235706D01*
X149449243Y-78234284D01*
X149454225Y-78231961D01*
X149651762Y-78139849D01*
X149651767Y-78139846D01*
X149656749Y-78137523D01*
X149663633Y-78132703D01*
X156890743Y-78132703D01*
X156891302Y-78136947D01*
X156891302Y-78136951D01*
X156904116Y-78234284D01*
X156928268Y-78417734D01*
X157004129Y-78695036D01*
X157005813Y-78698984D01*
X157114998Y-78954962D01*
X157116923Y-78959476D01*
X157163207Y-79036811D01*
X157227855Y-79144829D01*
X157264561Y-79206161D01*
X157444313Y-79430528D01*
X157652851Y-79628423D01*
X157886317Y-79796186D01*
X157890112Y-79798195D01*
X157890113Y-79798196D01*
X157928191Y-79818357D01*
X158140392Y-79930712D01*
X158410373Y-80029511D01*
X158691264Y-80090755D01*
X158719841Y-80093004D01*
X158914282Y-80108307D01*
X158914291Y-80108307D01*
X158916739Y-80108500D01*
X159072271Y-80108500D01*
X159074407Y-80108354D01*
X159074418Y-80108354D01*
X159282548Y-80094165D01*
X159282554Y-80094164D01*
X159286825Y-80093873D01*
X159291020Y-80093004D01*
X159291022Y-80093004D01*
X159486464Y-80052530D01*
X159568342Y-80035574D01*
X159839343Y-79939607D01*
X160074261Y-79818357D01*
X160091005Y-79809715D01*
X160091006Y-79809715D01*
X160094812Y-79807750D01*
X160098313Y-79805289D01*
X160098317Y-79805287D01*
X160251834Y-79697393D01*
X160330023Y-79642441D01*
X160477894Y-79505031D01*
X160537479Y-79449661D01*
X160537481Y-79449658D01*
X160540622Y-79446740D01*
X160722713Y-79224268D01*
X160872927Y-78979142D01*
X160973523Y-78749979D01*
X160986757Y-78719830D01*
X160988483Y-78715898D01*
X160995182Y-78692383D01*
X161066068Y-78443534D01*
X161067244Y-78439406D01*
X161107751Y-78154784D01*
X161107830Y-78139849D01*
X161109235Y-77871583D01*
X161109235Y-77871576D01*
X161109257Y-77867297D01*
X161106743Y-77848197D01*
X161076950Y-77621899D01*
X161071732Y-77582266D01*
X161054527Y-77519373D01*
X161021760Y-77399598D01*
X160995871Y-77304964D01*
X160953708Y-77206114D01*
X160884763Y-77044476D01*
X160884761Y-77044472D01*
X160883077Y-77040524D01*
X160748370Y-76815445D01*
X160737643Y-76797521D01*
X160737640Y-76797517D01*
X160735439Y-76793839D01*
X160555687Y-76569472D01*
X160379882Y-76402639D01*
X160350258Y-76374527D01*
X160350255Y-76374525D01*
X160347149Y-76371577D01*
X160113683Y-76203814D01*
X160091843Y-76192250D01*
X160031331Y-76160211D01*
X159859608Y-76069288D01*
X159663982Y-75997699D01*
X159593658Y-75971964D01*
X159593656Y-75971963D01*
X159589627Y-75970489D01*
X159308736Y-75909245D01*
X159277685Y-75906801D01*
X159085718Y-75891693D01*
X159085709Y-75891693D01*
X159083261Y-75891500D01*
X158927729Y-75891500D01*
X158925593Y-75891646D01*
X158925582Y-75891646D01*
X158717452Y-75905835D01*
X158717446Y-75905836D01*
X158713175Y-75906127D01*
X158708980Y-75906996D01*
X158708978Y-75906996D01*
X158572416Y-75935277D01*
X158431658Y-75964426D01*
X158160657Y-76060393D01*
X158156848Y-76062359D01*
X157976003Y-76155700D01*
X157905188Y-76192250D01*
X157901687Y-76194711D01*
X157901683Y-76194713D01*
X157891594Y-76201804D01*
X157669977Y-76357559D01*
X157654892Y-76371577D01*
X157467433Y-76545775D01*
X157459378Y-76553260D01*
X157277287Y-76775732D01*
X157127073Y-77020858D01*
X157011517Y-77284102D01*
X157010342Y-77288229D01*
X157010341Y-77288230D01*
X156999478Y-77326364D01*
X156932756Y-77560594D01*
X156892249Y-77845216D01*
X156892227Y-77849505D01*
X156892226Y-77849512D01*
X156890765Y-78128417D01*
X156890743Y-78132703D01*
X149663633Y-78132703D01*
X149768020Y-78059610D01*
X149839789Y-78009357D01*
X149839792Y-78009355D01*
X149844300Y-78006198D01*
X150006198Y-77844300D01*
X150137523Y-77656749D01*
X150139846Y-77651767D01*
X150139849Y-77651762D01*
X150231961Y-77454225D01*
X150231961Y-77454224D01*
X150234284Y-77449243D01*
X150246729Y-77402800D01*
X150292119Y-77233402D01*
X150292119Y-77233400D01*
X150293543Y-77228087D01*
X150313498Y-77000000D01*
X150293543Y-76771913D01*
X150278436Y-76715533D01*
X150235707Y-76556067D01*
X150235706Y-76556065D01*
X150234284Y-76550757D01*
X150231961Y-76545775D01*
X150139849Y-76348238D01*
X150139846Y-76348233D01*
X150137523Y-76343251D01*
X150039888Y-76203814D01*
X150009357Y-76160211D01*
X150009355Y-76160208D01*
X150006198Y-76155700D01*
X149844300Y-75993802D01*
X149839792Y-75990645D01*
X149839789Y-75990643D01*
X149723540Y-75909245D01*
X149656749Y-75862477D01*
X149651767Y-75860154D01*
X149651762Y-75860151D01*
X149454225Y-75768039D01*
X149454224Y-75768039D01*
X149449243Y-75765716D01*
X149443935Y-75764294D01*
X149443933Y-75764293D01*
X149233402Y-75707881D01*
X149233400Y-75707881D01*
X149228087Y-75706457D01*
X149000000Y-75686502D01*
X148771913Y-75706457D01*
X148766600Y-75707881D01*
X148766598Y-75707881D01*
X148556067Y-75764293D01*
X148556065Y-75764294D01*
X148550757Y-75765716D01*
X148545776Y-75768039D01*
X148545775Y-75768039D01*
X148348238Y-75860151D01*
X148348233Y-75860154D01*
X148343251Y-75862477D01*
X148276460Y-75909245D01*
X148160211Y-75990643D01*
X148160208Y-75990645D01*
X148155700Y-75993802D01*
X147993802Y-76155700D01*
X147990645Y-76160208D01*
X147990643Y-76160211D01*
X147960112Y-76203814D01*
X147862477Y-76343251D01*
X147860154Y-76348233D01*
X147860151Y-76348238D01*
X147768039Y-76545775D01*
X147765716Y-76550757D01*
X147764294Y-76556065D01*
X147764293Y-76556067D01*
X147754776Y-76591586D01*
X147717824Y-76652209D01*
X147653964Y-76683230D01*
X147583469Y-76674802D01*
X147543974Y-76648070D01*
X144291145Y-73395240D01*
X144283605Y-73386954D01*
X144279493Y-73380475D01*
X144229841Y-73333849D01*
X144227000Y-73331095D01*
X144207263Y-73311358D01*
X144204066Y-73308878D01*
X144195044Y-73301173D01*
X144168593Y-73276334D01*
X144162814Y-73270907D01*
X144155868Y-73267088D01*
X144155865Y-73267086D01*
X144145059Y-73261145D01*
X144128540Y-73250294D01*
X144128076Y-73249934D01*
X144112534Y-73237879D01*
X144105265Y-73234734D01*
X144105261Y-73234731D01*
X144071956Y-73220319D01*
X144061306Y-73215102D01*
X144022553Y-73193798D01*
X144002930Y-73188760D01*
X143984227Y-73182356D01*
X143972913Y-73177460D01*
X143972912Y-73177460D01*
X143965638Y-73174312D01*
X143957815Y-73173073D01*
X143957805Y-73173070D01*
X143921969Y-73167394D01*
X143910349Y-73164988D01*
X143875204Y-73155965D01*
X143875203Y-73155965D01*
X143867523Y-73153993D01*
X143847269Y-73153993D01*
X143827558Y-73152442D01*
X143815379Y-73150513D01*
X143807550Y-73149273D01*
X143799658Y-73150019D01*
X143763532Y-73153434D01*
X143751674Y-73153993D01*
X136423432Y-73153993D01*
X136355311Y-73133991D01*
X136308818Y-73080335D01*
X136301228Y-73058688D01*
X136291690Y-73020715D01*
X136290431Y-73015702D01*
X136201354Y-72810840D01*
X136143889Y-72722012D01*
X136082822Y-72627617D01*
X136082820Y-72627614D01*
X136080014Y-72623277D01*
X135929670Y-72458051D01*
X135925619Y-72454852D01*
X135925615Y-72454848D01*
X135758414Y-72322800D01*
X135758410Y-72322798D01*
X135754359Y-72319598D01*
X135713053Y-72296796D01*
X135663084Y-72246364D01*
X135648312Y-72176921D01*
X135673428Y-72110516D01*
X135700780Y-72083909D01*
X135744603Y-72052650D01*
X135879860Y-71956173D01*
X136038096Y-71798489D01*
X136052828Y-71777988D01*
X136165435Y-71621277D01*
X136168453Y-71617077D01*
X136192901Y-71567611D01*
X136265136Y-71421453D01*
X136265137Y-71421451D01*
X136267430Y-71416811D01*
X136332370Y-71203069D01*
X136361529Y-70981590D01*
X136363156Y-70915000D01*
X136344852Y-70692361D01*
X136290431Y-70475702D01*
X136201354Y-70270840D01*
X136161906Y-70209862D01*
X136082822Y-70087617D01*
X136082820Y-70087614D01*
X136080014Y-70083277D01*
X136076540Y-70079459D01*
X136076533Y-70079450D01*
X135932435Y-69921088D01*
X135901383Y-69857242D01*
X135909779Y-69786744D01*
X135954956Y-69731976D01*
X135981400Y-69718307D01*
X136088052Y-69678325D01*
X136103649Y-69669786D01*
X136205724Y-69593285D01*
X136218285Y-69580724D01*
X136294786Y-69478649D01*
X136303324Y-69463054D01*
X136348478Y-69342606D01*
X136352105Y-69327351D01*
X136357631Y-69276486D01*
X136358000Y-69269672D01*
X136358000Y-68647115D01*
X136353525Y-68631876D01*
X136352135Y-68630671D01*
X136344452Y-68629000D01*
X133660116Y-68629000D01*
X133644877Y-68633475D01*
X133643672Y-68634865D01*
X133642001Y-68642548D01*
X133642001Y-69269669D01*
X133642371Y-69276490D01*
X133647895Y-69327352D01*
X133651521Y-69342604D01*
X133696676Y-69463054D01*
X133705214Y-69478649D01*
X133781715Y-69580724D01*
X133794276Y-69593285D01*
X133896351Y-69669786D01*
X133911946Y-69678324D01*
X134020827Y-69719142D01*
X134077591Y-69761784D01*
X134102291Y-69828345D01*
X134087083Y-69897694D01*
X134067691Y-69924175D01*
X133944200Y-70053401D01*
X133940629Y-70057138D01*
X133814743Y-70241680D01*
X133720688Y-70444305D01*
X133660989Y-70659570D01*
X133637251Y-70881695D01*
X133637548Y-70886848D01*
X133637548Y-70886851D01*
X133645104Y-71017890D01*
X133650110Y-71104715D01*
X133651247Y-71109761D01*
X133651248Y-71109767D01*
X133666360Y-71176823D01*
X133699222Y-71322639D01*
X133783266Y-71529616D01*
X133899987Y-71720088D01*
X134046250Y-71888938D01*
X134218126Y-72031632D01*
X134264497Y-72058729D01*
X134291445Y-72074476D01*
X134340169Y-72126114D01*
X134353240Y-72195897D01*
X134326509Y-72261669D01*
X134286055Y-72295027D01*
X134273607Y-72301507D01*
X134269474Y-72304610D01*
X134269471Y-72304612D01*
X134121959Y-72415367D01*
X134094965Y-72435635D01*
X133940629Y-72597138D01*
X133814743Y-72781680D01*
X133799003Y-72815590D01*
X133744787Y-72932389D01*
X133720688Y-72984305D01*
X133660989Y-73199570D01*
X133637251Y-73421695D01*
X133650110Y-73644715D01*
X133651247Y-73649761D01*
X133651248Y-73649767D01*
X133660374Y-73690260D01*
X133699222Y-73862639D01*
X133783266Y-74069616D01*
X133899987Y-74260088D01*
X134046250Y-74428938D01*
X134218126Y-74571632D01*
X134288595Y-74612811D01*
X134291445Y-74614476D01*
X134340169Y-74666114D01*
X134353240Y-74735897D01*
X134326509Y-74801669D01*
X134286055Y-74835027D01*
X134273607Y-74841507D01*
X134269474Y-74844610D01*
X134269471Y-74844612D01*
X134245247Y-74862800D01*
X134094965Y-74975635D01*
X133940629Y-75137138D01*
X133814743Y-75321680D01*
X133720688Y-75524305D01*
X133660989Y-75739570D01*
X133637251Y-75961695D01*
X133637548Y-75966848D01*
X133637548Y-75966851D01*
X133648212Y-76151803D01*
X133650110Y-76184715D01*
X133651247Y-76189761D01*
X133651248Y-76189767D01*
X133651365Y-76190285D01*
X133699222Y-76402639D01*
X133783266Y-76609616D01*
X133803281Y-76642278D01*
X133896158Y-76793839D01*
X133899987Y-76800088D01*
X134046250Y-76968938D01*
X134218126Y-77111632D01*
X134230230Y-77118705D01*
X134291445Y-77154476D01*
X134340169Y-77206114D01*
X134353240Y-77275897D01*
X134326509Y-77341669D01*
X134286055Y-77375027D01*
X134273607Y-77381507D01*
X134269474Y-77384610D01*
X134269471Y-77384612D01*
X134104232Y-77508677D01*
X134094965Y-77515635D01*
X133940629Y-77677138D01*
X133937715Y-77681410D01*
X133937714Y-77681411D01*
X133852556Y-77806249D01*
X133814743Y-77861680D01*
X133720688Y-78064305D01*
X133660989Y-78279570D01*
X133637251Y-78501695D01*
X133637548Y-78506848D01*
X133637548Y-78506851D01*
X133643202Y-78604908D01*
X133650110Y-78724715D01*
X133651247Y-78729761D01*
X133651248Y-78729767D01*
X133664282Y-78787600D01*
X133699222Y-78942639D01*
X133783266Y-79149616D01*
X133829013Y-79224268D01*
X133887042Y-79318963D01*
X133899987Y-79340088D01*
X134046250Y-79508938D01*
X134218126Y-79651632D01*
X134277963Y-79686598D01*
X134291445Y-79694476D01*
X134340169Y-79746114D01*
X134353240Y-79815897D01*
X134326509Y-79881669D01*
X134286055Y-79915027D01*
X134273607Y-79921507D01*
X134269474Y-79924610D01*
X134269471Y-79924612D01*
X134120526Y-80036443D01*
X134094965Y-80055635D01*
X134091393Y-80059373D01*
X133945978Y-80211541D01*
X133940629Y-80217138D01*
X133814743Y-80401680D01*
X133720688Y-80604305D01*
X133660989Y-80819570D01*
X133637251Y-81041695D01*
X133637548Y-81046848D01*
X133637548Y-81046851D01*
X133647077Y-81212118D01*
X133650110Y-81264715D01*
X133651247Y-81269761D01*
X133651248Y-81269767D01*
X133671119Y-81357939D01*
X133699222Y-81482639D01*
X133783266Y-81689616D01*
X133899987Y-81880088D01*
X134046250Y-82048938D01*
X134218126Y-82191632D01*
X134288595Y-82232811D01*
X134291445Y-82234476D01*
X134340169Y-82286114D01*
X134353240Y-82355897D01*
X134326509Y-82421669D01*
X134286055Y-82455027D01*
X134273607Y-82461507D01*
X134269474Y-82464610D01*
X134269471Y-82464612D01*
X134245247Y-82482800D01*
X134094965Y-82595635D01*
X133940629Y-82757138D01*
X133814743Y-82941680D01*
X133720688Y-83144305D01*
X133660989Y-83359570D01*
X133637251Y-83581695D01*
X133637548Y-83586848D01*
X133637548Y-83586851D01*
X133642921Y-83680031D01*
X133650110Y-83804715D01*
X133651247Y-83809761D01*
X133651248Y-83809767D01*
X133671119Y-83897939D01*
X133699222Y-84022639D01*
X133783266Y-84229616D01*
X133818659Y-84287373D01*
X133878768Y-84385461D01*
X133899987Y-84420088D01*
X134046250Y-84588938D01*
X134218126Y-84731632D01*
X134265954Y-84759580D01*
X134304070Y-84781853D01*
X134352794Y-84833491D01*
X134366500Y-84890641D01*
X134366500Y-88515500D01*
X134346498Y-88583621D01*
X134292842Y-88630114D01*
X134240500Y-88641500D01*
X134101866Y-88641500D01*
X134039684Y-88648255D01*
X133903295Y-88699385D01*
X133786739Y-88786739D01*
X133699385Y-88903295D01*
X133648255Y-89039684D01*
X133641500Y-89101866D01*
X133641500Y-90898134D01*
X133648255Y-90960316D01*
X133699385Y-91096705D01*
X133786739Y-91213261D01*
X133903295Y-91300615D01*
X134039684Y-91351745D01*
X134101866Y-91358500D01*
X135898134Y-91358500D01*
X135960316Y-91351745D01*
X136096705Y-91300615D01*
X136213261Y-91213261D01*
X136300615Y-91096705D01*
X136351745Y-90960316D01*
X136358500Y-90898134D01*
X136358500Y-89101866D01*
X136351745Y-89039684D01*
X136300615Y-88903295D01*
X136213261Y-88786739D01*
X136096705Y-88699385D01*
X135960316Y-88648255D01*
X135898134Y-88641500D01*
X135759500Y-88641500D01*
X135691379Y-88621498D01*
X135644886Y-88567842D01*
X135633500Y-88515500D01*
X135633500Y-88132703D01*
X139890743Y-88132703D01*
X139928268Y-88417734D01*
X140004129Y-88695036D01*
X140005813Y-88698984D01*
X140092960Y-88903295D01*
X140116923Y-88959476D01*
X140264561Y-89206161D01*
X140444313Y-89430528D01*
X140652851Y-89628423D01*
X140886317Y-89796186D01*
X140890112Y-89798195D01*
X140890113Y-89798196D01*
X140911869Y-89809715D01*
X141140392Y-89930712D01*
X141164699Y-89939607D01*
X141402599Y-90026666D01*
X141410373Y-90029511D01*
X141691264Y-90090755D01*
X141719841Y-90093004D01*
X141914282Y-90108307D01*
X141914291Y-90108307D01*
X141916739Y-90108500D01*
X142072271Y-90108500D01*
X142074407Y-90108354D01*
X142074418Y-90108354D01*
X142282548Y-90094165D01*
X142282554Y-90094164D01*
X142286825Y-90093873D01*
X142291020Y-90093004D01*
X142291022Y-90093004D01*
X142353815Y-90080000D01*
X147686502Y-90080000D01*
X147706457Y-90308087D01*
X147707881Y-90313400D01*
X147707881Y-90313402D01*
X147727840Y-90387887D01*
X147765716Y-90529243D01*
X147768039Y-90534224D01*
X147768039Y-90534225D01*
X147860151Y-90731762D01*
X147860154Y-90731767D01*
X147862477Y-90736749D01*
X147935902Y-90841611D01*
X147973088Y-90894717D01*
X147993802Y-90924300D01*
X148155700Y-91086198D01*
X148160208Y-91089355D01*
X148160211Y-91089357D01*
X148180968Y-91103891D01*
X148343251Y-91217523D01*
X148348233Y-91219846D01*
X148348238Y-91219849D01*
X148528203Y-91303767D01*
X148550757Y-91314284D01*
X148556065Y-91315706D01*
X148556067Y-91315707D01*
X148766598Y-91372119D01*
X148766600Y-91372119D01*
X148771913Y-91373543D01*
X149000000Y-91393498D01*
X149228087Y-91373543D01*
X149233400Y-91372119D01*
X149233402Y-91372119D01*
X149443933Y-91315707D01*
X149443935Y-91315706D01*
X149449243Y-91314284D01*
X149471797Y-91303767D01*
X149651762Y-91219849D01*
X149651767Y-91219846D01*
X149656749Y-91217523D01*
X149819032Y-91103891D01*
X149839789Y-91089357D01*
X149839792Y-91089355D01*
X149844300Y-91086198D01*
X150006198Y-90924300D01*
X150026913Y-90894717D01*
X150064098Y-90841611D01*
X150137523Y-90736749D01*
X150139846Y-90731767D01*
X150139849Y-90731762D01*
X150231961Y-90534225D01*
X150231961Y-90534224D01*
X150234284Y-90529243D01*
X150272161Y-90387887D01*
X150292119Y-90313402D01*
X150292119Y-90313400D01*
X150293543Y-90308087D01*
X150313498Y-90080000D01*
X150293543Y-89851913D01*
X150292119Y-89846598D01*
X150235707Y-89636067D01*
X150235706Y-89636065D01*
X150234284Y-89630757D01*
X150231820Y-89625473D01*
X150139849Y-89428238D01*
X150139846Y-89428233D01*
X150137523Y-89423251D01*
X150006198Y-89235700D01*
X149844300Y-89073802D01*
X149839792Y-89070645D01*
X149839789Y-89070643D01*
X149761611Y-89015902D01*
X149656749Y-88942477D01*
X149651767Y-88940154D01*
X149651762Y-88940151D01*
X149454225Y-88848039D01*
X149454224Y-88848039D01*
X149449243Y-88845716D01*
X149443935Y-88844294D01*
X149443933Y-88844293D01*
X149233402Y-88787881D01*
X149233400Y-88787881D01*
X149228087Y-88786457D01*
X149000000Y-88766502D01*
X148771913Y-88786457D01*
X148766600Y-88787881D01*
X148766598Y-88787881D01*
X148556067Y-88844293D01*
X148556065Y-88844294D01*
X148550757Y-88845716D01*
X148545776Y-88848039D01*
X148545775Y-88848039D01*
X148348238Y-88940151D01*
X148348233Y-88940154D01*
X148343251Y-88942477D01*
X148238389Y-89015902D01*
X148160211Y-89070643D01*
X148160208Y-89070645D01*
X148155700Y-89073802D01*
X147993802Y-89235700D01*
X147862477Y-89423251D01*
X147860154Y-89428233D01*
X147860151Y-89428238D01*
X147768180Y-89625473D01*
X147765716Y-89630757D01*
X147764294Y-89636065D01*
X147764293Y-89636067D01*
X147707881Y-89846598D01*
X147706457Y-89851913D01*
X147686502Y-90080000D01*
X142353815Y-90080000D01*
X142427584Y-90064723D01*
X142568342Y-90035574D01*
X142839343Y-89939607D01*
X143094812Y-89807750D01*
X143098313Y-89805289D01*
X143098317Y-89805287D01*
X143212418Y-89725095D01*
X143330023Y-89642441D01*
X143540622Y-89446740D01*
X143722713Y-89224268D01*
X143872927Y-88979142D01*
X143906222Y-88903295D01*
X143986757Y-88719830D01*
X143988483Y-88715898D01*
X144006962Y-88651029D01*
X144066068Y-88443534D01*
X144067244Y-88439406D01*
X144107751Y-88154784D01*
X144107845Y-88136951D01*
X144109235Y-87871583D01*
X144109235Y-87871576D01*
X144109257Y-87867297D01*
X144071732Y-87582266D01*
X143995871Y-87304964D01*
X143883077Y-87040524D01*
X143735439Y-86793839D01*
X143555687Y-86569472D01*
X143347149Y-86371577D01*
X143113683Y-86203814D01*
X143091843Y-86192250D01*
X143068654Y-86179972D01*
X142859608Y-86069288D01*
X142606761Y-85976759D01*
X142593658Y-85971964D01*
X142593656Y-85971963D01*
X142589627Y-85970489D01*
X142308736Y-85909245D01*
X142277685Y-85906801D01*
X142085718Y-85891693D01*
X142085709Y-85891693D01*
X142083261Y-85891500D01*
X141927729Y-85891500D01*
X141925593Y-85891646D01*
X141925582Y-85891646D01*
X141717452Y-85905835D01*
X141717446Y-85905836D01*
X141713175Y-85906127D01*
X141708980Y-85906996D01*
X141708978Y-85906996D01*
X141572417Y-85935276D01*
X141431658Y-85964426D01*
X141160657Y-86060393D01*
X140905188Y-86192250D01*
X140901687Y-86194711D01*
X140901683Y-86194713D01*
X140830946Y-86244428D01*
X140669977Y-86357559D01*
X140459378Y-86553260D01*
X140277287Y-86775732D01*
X140127073Y-87020858D01*
X140011517Y-87284102D01*
X139932756Y-87560594D01*
X139892249Y-87845216D01*
X139892227Y-87849505D01*
X139892226Y-87849512D01*
X139890765Y-88128417D01*
X139890743Y-88132703D01*
X135633500Y-88132703D01*
X135633500Y-84895427D01*
X135653502Y-84827306D01*
X135694618Y-84787550D01*
X135697994Y-84785896D01*
X135879860Y-84656173D01*
X136038096Y-84498489D01*
X136097594Y-84415689D01*
X136165435Y-84321277D01*
X136168453Y-84317077D01*
X136185589Y-84282406D01*
X136265136Y-84121453D01*
X136265137Y-84121451D01*
X136267430Y-84116811D01*
X136332370Y-83903069D01*
X136361529Y-83681590D01*
X136361611Y-83678240D01*
X136363074Y-83618365D01*
X136363074Y-83618361D01*
X136363156Y-83615000D01*
X136344852Y-83392361D01*
X136290431Y-83175702D01*
X136201354Y-82970840D01*
X136080014Y-82783277D01*
X135929670Y-82618051D01*
X135925619Y-82614852D01*
X135925615Y-82614848D01*
X135758414Y-82482800D01*
X135758410Y-82482798D01*
X135754359Y-82479598D01*
X135713053Y-82456796D01*
X135663084Y-82406364D01*
X135648312Y-82336921D01*
X135673428Y-82270516D01*
X135700780Y-82243909D01*
X135744603Y-82212650D01*
X135879860Y-82116173D01*
X136038096Y-81958489D01*
X136097594Y-81875689D01*
X136165435Y-81781277D01*
X136168453Y-81777077D01*
X136267430Y-81576811D01*
X136332370Y-81363069D01*
X136361529Y-81141590D01*
X136363156Y-81075000D01*
X136344852Y-80852361D01*
X136290431Y-80635702D01*
X136201354Y-80430840D01*
X136104941Y-80281808D01*
X136082822Y-80247617D01*
X136082820Y-80247614D01*
X136080014Y-80243277D01*
X135929670Y-80078051D01*
X135925619Y-80074852D01*
X135925615Y-80074848D01*
X135758414Y-79942800D01*
X135758410Y-79942798D01*
X135754359Y-79939598D01*
X135713053Y-79916796D01*
X135663084Y-79866364D01*
X135648312Y-79796921D01*
X135673428Y-79730516D01*
X135700780Y-79703909D01*
X135744603Y-79672650D01*
X135879860Y-79576173D01*
X136038096Y-79418489D01*
X136070780Y-79373005D01*
X136165435Y-79241277D01*
X136168453Y-79237077D01*
X136173465Y-79226937D01*
X136265136Y-79041453D01*
X136265137Y-79041451D01*
X136267430Y-79036811D01*
X136332370Y-78823069D01*
X136352247Y-78672095D01*
X139892001Y-78672095D01*
X139892338Y-78678614D01*
X139902257Y-78774206D01*
X139905149Y-78787600D01*
X139956588Y-78941784D01*
X139962761Y-78954962D01*
X140048063Y-79092807D01*
X140057099Y-79104208D01*
X140171829Y-79218739D01*
X140183240Y-79227751D01*
X140321243Y-79312816D01*
X140334424Y-79318963D01*
X140488710Y-79370138D01*
X140502086Y-79373005D01*
X140596438Y-79382672D01*
X140602854Y-79383000D01*
X140727885Y-79383000D01*
X140743124Y-79378525D01*
X140744329Y-79377135D01*
X140746000Y-79369452D01*
X140746000Y-79364884D01*
X141254000Y-79364884D01*
X141258475Y-79380123D01*
X141259865Y-79381328D01*
X141267548Y-79382999D01*
X141397095Y-79382999D01*
X141403614Y-79382662D01*
X141499206Y-79372743D01*
X141512600Y-79369851D01*
X141666784Y-79318412D01*
X141679962Y-79312239D01*
X141817807Y-79226937D01*
X141829208Y-79217901D01*
X141943739Y-79103171D01*
X141952751Y-79091760D01*
X141980745Y-79046345D01*
X142033517Y-78998852D01*
X142103589Y-78987428D01*
X142168713Y-79015702D01*
X142187088Y-79034625D01*
X142193604Y-79042920D01*
X142198135Y-79046852D01*
X142198138Y-79046855D01*
X142316560Y-79149616D01*
X142353363Y-79181552D01*
X142358549Y-79184552D01*
X142358553Y-79184555D01*
X142449341Y-79237077D01*
X142536454Y-79287473D01*
X142736271Y-79356861D01*
X142742206Y-79357722D01*
X142742208Y-79357722D01*
X142939664Y-79386352D01*
X142939667Y-79386352D01*
X142945604Y-79387213D01*
X143156899Y-79377433D01*
X143330111Y-79335689D01*
X143356701Y-79329281D01*
X143356703Y-79329280D01*
X143362534Y-79327875D01*
X143367992Y-79325393D01*
X143367996Y-79325392D01*
X143514581Y-79258743D01*
X143555087Y-79240326D01*
X143727611Y-79117946D01*
X143873881Y-78965150D01*
X143988620Y-78787452D01*
X144023963Y-78699754D01*
X144065442Y-78596832D01*
X144065443Y-78596829D01*
X144067686Y-78591263D01*
X144108228Y-78383663D01*
X144108500Y-78378101D01*
X144108500Y-77672154D01*
X144093452Y-77514434D01*
X144033908Y-77311466D01*
X144009536Y-77264144D01*
X143939804Y-77128751D01*
X143939802Y-77128748D01*
X143937058Y-77123420D01*
X143806396Y-76957080D01*
X143801865Y-76953148D01*
X143801862Y-76953145D01*
X143651167Y-76822379D01*
X143646637Y-76818448D01*
X143641451Y-76815448D01*
X143641447Y-76815445D01*
X143468742Y-76715533D01*
X143463546Y-76712527D01*
X143263729Y-76643139D01*
X143257794Y-76642278D01*
X143257792Y-76642278D01*
X143060336Y-76613648D01*
X143060333Y-76613648D01*
X143054396Y-76612787D01*
X142843101Y-76622567D01*
X142720105Y-76652209D01*
X142643299Y-76670719D01*
X142643297Y-76670720D01*
X142637466Y-76672125D01*
X142632008Y-76674607D01*
X142632004Y-76674608D01*
X142516959Y-76726916D01*
X142444913Y-76759674D01*
X142272389Y-76882054D01*
X142268251Y-76886377D01*
X142268246Y-76886381D01*
X142180836Y-76977691D01*
X142119280Y-77013067D01*
X142048371Y-77009548D01*
X141990621Y-76968251D01*
X141982674Y-76956863D01*
X141951937Y-76907193D01*
X141942901Y-76895792D01*
X141828171Y-76781261D01*
X141816760Y-76772249D01*
X141678757Y-76687184D01*
X141665576Y-76681037D01*
X141511290Y-76629862D01*
X141497914Y-76626995D01*
X141403562Y-76617328D01*
X141397145Y-76617000D01*
X141272115Y-76617000D01*
X141256876Y-76621475D01*
X141255671Y-76622865D01*
X141254000Y-76630548D01*
X141254000Y-79364884D01*
X140746000Y-79364884D01*
X140746000Y-78272115D01*
X140741525Y-78256876D01*
X140740135Y-78255671D01*
X140732452Y-78254000D01*
X139910116Y-78254000D01*
X139894877Y-78258475D01*
X139893672Y-78259865D01*
X139892001Y-78267548D01*
X139892001Y-78672095D01*
X136352247Y-78672095D01*
X136361529Y-78601590D01*
X136362318Y-78569306D01*
X136363074Y-78538365D01*
X136363074Y-78538361D01*
X136363156Y-78535000D01*
X136344852Y-78312361D01*
X136290431Y-78095702D01*
X136201354Y-77890840D01*
X136095934Y-77727885D01*
X139892000Y-77727885D01*
X139896475Y-77743124D01*
X139897865Y-77744329D01*
X139905548Y-77746000D01*
X140727885Y-77746000D01*
X140743124Y-77741525D01*
X140744329Y-77740135D01*
X140746000Y-77732452D01*
X140746000Y-76635116D01*
X140741525Y-76619877D01*
X140740135Y-76618672D01*
X140732452Y-76617001D01*
X140602905Y-76617001D01*
X140596386Y-76617338D01*
X140500794Y-76627257D01*
X140487400Y-76630149D01*
X140333216Y-76681588D01*
X140320038Y-76687761D01*
X140182193Y-76773063D01*
X140170792Y-76782099D01*
X140056261Y-76896829D01*
X140047249Y-76908240D01*
X139962184Y-77046243D01*
X139956037Y-77059424D01*
X139904862Y-77213710D01*
X139901995Y-77227086D01*
X139892328Y-77321438D01*
X139892000Y-77327855D01*
X139892000Y-77727885D01*
X136095934Y-77727885D01*
X136080014Y-77703277D01*
X135929670Y-77538051D01*
X135925619Y-77534852D01*
X135925615Y-77534848D01*
X135758414Y-77402800D01*
X135758410Y-77402798D01*
X135754359Y-77399598D01*
X135713053Y-77376796D01*
X135663084Y-77326364D01*
X135648312Y-77256921D01*
X135673428Y-77190516D01*
X135700780Y-77163909D01*
X135750070Y-77128751D01*
X135879860Y-77036173D01*
X135898899Y-77017201D01*
X136008241Y-76908240D01*
X136038096Y-76878489D01*
X136083398Y-76815445D01*
X136165435Y-76701277D01*
X136168453Y-76697077D01*
X136173058Y-76687761D01*
X136265136Y-76501453D01*
X136265137Y-76501451D01*
X136267430Y-76496811D01*
X136309738Y-76357559D01*
X136330865Y-76288023D01*
X136330865Y-76288021D01*
X136332370Y-76283069D01*
X136361529Y-76061590D01*
X136363156Y-75995000D01*
X136344852Y-75772361D01*
X136290431Y-75555702D01*
X136201354Y-75350840D01*
X136080014Y-75163277D01*
X135929670Y-74998051D01*
X135925619Y-74994852D01*
X135925615Y-74994848D01*
X135758414Y-74862800D01*
X135758410Y-74862798D01*
X135754359Y-74859598D01*
X135713053Y-74836796D01*
X135663084Y-74786364D01*
X135648312Y-74716921D01*
X135673428Y-74650516D01*
X135700780Y-74623909D01*
X135744603Y-74592650D01*
X135879860Y-74496173D01*
X135883515Y-74492531D01*
X135883523Y-74492524D01*
X135918425Y-74457743D01*
X135980796Y-74423826D01*
X136007365Y-74420993D01*
X143472899Y-74420993D01*
X143541020Y-74440995D01*
X143561994Y-74457898D01*
X147997704Y-78893608D01*
X148031730Y-78955920D01*
X148026665Y-79026735D01*
X148000691Y-79067151D01*
X148001226Y-79067600D01*
X147997707Y-79071794D01*
X147997704Y-79071798D01*
X147993802Y-79075700D01*
X147990645Y-79080208D01*
X147990643Y-79080211D01*
X147973840Y-79104208D01*
X147862477Y-79263251D01*
X147860154Y-79268233D01*
X147860151Y-79268238D01*
X147804673Y-79387213D01*
X147765716Y-79470757D01*
X147764294Y-79476065D01*
X147764293Y-79476067D01*
X147720495Y-79639522D01*
X147706457Y-79691913D01*
X147686502Y-79920000D01*
X147706457Y-80148087D01*
X147707881Y-80153400D01*
X147707881Y-80153402D01*
X147739375Y-80270936D01*
X147765716Y-80369243D01*
X147768039Y-80374224D01*
X147768039Y-80374225D01*
X147860151Y-80571762D01*
X147860154Y-80571767D01*
X147862477Y-80576749D01*
X147993802Y-80764300D01*
X148155700Y-80926198D01*
X148160208Y-80929355D01*
X148160211Y-80929357D01*
X148238389Y-80984098D01*
X148343251Y-81057523D01*
X148348233Y-81059846D01*
X148348238Y-81059849D01*
X148516350Y-81138240D01*
X148550757Y-81154284D01*
X148556065Y-81155706D01*
X148556067Y-81155707D01*
X148766598Y-81212119D01*
X148766600Y-81212119D01*
X148771913Y-81213543D01*
X149000000Y-81233498D01*
X149228087Y-81213543D01*
X149233398Y-81212120D01*
X149233409Y-81212118D01*
X149291541Y-81196541D01*
X149362517Y-81198230D01*
X149413248Y-81229152D01*
X153326343Y-85142247D01*
X153333887Y-85150537D01*
X153338000Y-85157018D01*
X153343777Y-85162443D01*
X153387667Y-85203658D01*
X153390509Y-85206413D01*
X153410231Y-85226135D01*
X153413355Y-85228558D01*
X153413359Y-85228562D01*
X153413424Y-85228612D01*
X153422445Y-85236317D01*
X153454679Y-85266586D01*
X153461627Y-85270405D01*
X153461629Y-85270407D01*
X153472432Y-85276346D01*
X153488959Y-85287202D01*
X153498698Y-85294757D01*
X153498700Y-85294758D01*
X153504960Y-85299614D01*
X153545540Y-85317174D01*
X153556188Y-85322391D01*
X153594940Y-85343695D01*
X153602616Y-85345666D01*
X153602619Y-85345667D01*
X153614562Y-85348733D01*
X153633267Y-85355137D01*
X153651855Y-85363181D01*
X153659678Y-85364420D01*
X153659688Y-85364423D01*
X153695524Y-85370099D01*
X153707144Y-85372505D01*
X153742289Y-85381528D01*
X153749970Y-85383500D01*
X153770224Y-85383500D01*
X153789934Y-85385051D01*
X153809943Y-85388220D01*
X153817835Y-85387474D01*
X153853961Y-85384059D01*
X153865819Y-85383500D01*
X155298434Y-85383500D01*
X155366555Y-85403502D01*
X155405867Y-85443665D01*
X155523241Y-85635202D01*
X155523245Y-85635208D01*
X155525824Y-85639416D01*
X155680031Y-85819969D01*
X155860584Y-85974176D01*
X155864792Y-85976755D01*
X155864798Y-85976759D01*
X156056335Y-86094133D01*
X156103966Y-86146781D01*
X156116500Y-86201566D01*
X156116500Y-89798434D01*
X156096498Y-89866555D01*
X156056335Y-89905867D01*
X155864798Y-90023241D01*
X155864792Y-90023245D01*
X155860584Y-90025824D01*
X155680031Y-90180031D01*
X155525824Y-90360584D01*
X155523245Y-90364792D01*
X155523241Y-90364798D01*
X155425723Y-90523933D01*
X155401760Y-90563037D01*
X155399867Y-90567607D01*
X155399865Y-90567611D01*
X155327939Y-90741257D01*
X155310895Y-90782406D01*
X155309740Y-90787218D01*
X155268183Y-90960316D01*
X155255465Y-91013289D01*
X155236835Y-91250000D01*
X155255465Y-91486711D01*
X155310895Y-91717594D01*
X155312788Y-91722165D01*
X155312789Y-91722167D01*
X155399772Y-91932163D01*
X155401760Y-91936963D01*
X155404346Y-91941183D01*
X155523241Y-92135202D01*
X155523245Y-92135208D01*
X155525824Y-92139416D01*
X155680031Y-92319969D01*
X155860584Y-92474176D01*
X155864792Y-92476755D01*
X155864798Y-92476759D01*
X156058084Y-92595205D01*
X156063037Y-92598240D01*
X156067607Y-92600133D01*
X156067611Y-92600135D01*
X156277833Y-92687211D01*
X156282406Y-92689105D01*
X156362609Y-92708360D01*
X156508476Y-92743380D01*
X156508482Y-92743381D01*
X156513289Y-92744535D01*
X156562245Y-92748388D01*
X156628586Y-92773674D01*
X156670726Y-92830812D01*
X156675285Y-92901662D01*
X156640816Y-92963729D01*
X156578262Y-92997309D01*
X156552359Y-93000000D01*
X133126000Y-93000000D01*
X133057879Y-92979998D01*
X133011386Y-92926342D01*
X133000000Y-92874000D01*
X133000000Y-68132703D01*
X139890743Y-68132703D01*
X139891302Y-68136947D01*
X139891302Y-68136951D01*
X139893650Y-68154784D01*
X139928268Y-68417734D01*
X140004129Y-68695036D01*
X140116923Y-68959476D01*
X140264561Y-69206161D01*
X140444313Y-69430528D01*
X140652851Y-69628423D01*
X140886317Y-69796186D01*
X140890112Y-69798195D01*
X140890113Y-69798196D01*
X140911869Y-69809715D01*
X141140392Y-69930712D01*
X141410373Y-70029511D01*
X141691264Y-70090755D01*
X141719841Y-70093004D01*
X141914282Y-70108307D01*
X141914291Y-70108307D01*
X141916739Y-70108500D01*
X142072271Y-70108500D01*
X142074407Y-70108354D01*
X142074418Y-70108354D01*
X142282548Y-70094165D01*
X142282554Y-70094164D01*
X142286825Y-70093873D01*
X142291020Y-70093004D01*
X142291022Y-70093004D01*
X142482258Y-70053401D01*
X142568342Y-70035574D01*
X142839343Y-69939607D01*
X143094812Y-69807750D01*
X143098313Y-69805289D01*
X143098317Y-69805287D01*
X143278965Y-69678325D01*
X143330023Y-69642441D01*
X143540622Y-69446740D01*
X143722713Y-69224268D01*
X143872927Y-68979142D01*
X143988483Y-68715898D01*
X144067244Y-68439406D01*
X144107751Y-68154784D01*
X144107845Y-68136951D01*
X144109235Y-67871583D01*
X144109235Y-67871576D01*
X144109257Y-67867297D01*
X144071732Y-67582266D01*
X143995871Y-67304964D01*
X143981534Y-67271351D01*
X143884763Y-67044476D01*
X143884761Y-67044472D01*
X143883077Y-67040524D01*
X143759789Y-66834525D01*
X143737643Y-66797521D01*
X143737640Y-66797517D01*
X143735439Y-66793839D01*
X143555687Y-66569472D01*
X143432289Y-66452372D01*
X143350258Y-66374527D01*
X143350255Y-66374525D01*
X143347149Y-66371577D01*
X143113683Y-66203814D01*
X143091843Y-66192250D01*
X143066332Y-66178743D01*
X142859608Y-66069288D01*
X142589627Y-65970489D01*
X142308736Y-65909245D01*
X142277685Y-65906801D01*
X142085718Y-65891693D01*
X142085709Y-65891693D01*
X142083261Y-65891500D01*
X141927729Y-65891500D01*
X141925593Y-65891646D01*
X141925582Y-65891646D01*
X141717452Y-65905835D01*
X141717446Y-65905836D01*
X141713175Y-65906127D01*
X141708980Y-65906996D01*
X141708978Y-65906996D01*
X141668556Y-65915367D01*
X141431658Y-65964426D01*
X141160657Y-66060393D01*
X140905188Y-66192250D01*
X140901687Y-66194711D01*
X140901683Y-66194713D01*
X140891594Y-66201804D01*
X140669977Y-66357559D01*
X140459378Y-66553260D01*
X140277287Y-66775732D01*
X140127073Y-67020858D01*
X140125347Y-67024791D01*
X140125346Y-67024792D01*
X140052920Y-67189783D01*
X140011517Y-67284102D01*
X140010342Y-67288229D01*
X140010341Y-67288230D01*
X140004395Y-67309103D01*
X139932756Y-67560594D01*
X139892249Y-67845216D01*
X139892227Y-67849505D01*
X139892226Y-67849512D01*
X139890819Y-68118124D01*
X139890743Y-68132703D01*
X133000000Y-68132703D01*
X133000000Y-68102885D01*
X133642000Y-68102885D01*
X133646475Y-68118124D01*
X133647865Y-68119329D01*
X133655548Y-68121000D01*
X134727885Y-68121000D01*
X134743124Y-68116525D01*
X134744329Y-68115135D01*
X134746000Y-68107452D01*
X134746000Y-68102885D01*
X135254000Y-68102885D01*
X135258475Y-68118124D01*
X135259865Y-68119329D01*
X135267548Y-68121000D01*
X136339884Y-68121000D01*
X136355123Y-68116525D01*
X136356328Y-68115135D01*
X136357999Y-68107452D01*
X136357999Y-67480331D01*
X136357629Y-67473502D01*
X136352105Y-67422648D01*
X136348479Y-67407396D01*
X136303324Y-67286946D01*
X136294786Y-67271351D01*
X136218285Y-67169276D01*
X136205724Y-67156715D01*
X136103649Y-67080214D01*
X136088054Y-67071676D01*
X135967606Y-67026522D01*
X135952351Y-67022895D01*
X135901486Y-67017369D01*
X135894672Y-67017000D01*
X135272115Y-67017000D01*
X135256876Y-67021475D01*
X135255671Y-67022865D01*
X135254000Y-67030548D01*
X135254000Y-68102885D01*
X134746000Y-68102885D01*
X134746000Y-67035116D01*
X134741525Y-67019877D01*
X134740135Y-67018672D01*
X134732452Y-67017001D01*
X134105331Y-67017001D01*
X134098510Y-67017371D01*
X134047648Y-67022895D01*
X134032396Y-67026521D01*
X133911946Y-67071676D01*
X133896351Y-67080214D01*
X133794276Y-67156715D01*
X133781715Y-67169276D01*
X133705214Y-67271351D01*
X133696676Y-67286946D01*
X133651522Y-67407394D01*
X133647895Y-67422649D01*
X133642370Y-67473502D01*
X133642000Y-67480328D01*
X133642000Y-68102885D01*
X133000000Y-68102885D01*
X133000000Y-64126000D01*
X133020002Y-64057879D01*
X133073658Y-64011386D01*
X133126000Y-64000000D01*
X156552359Y-64000000D01*
X156620480Y-64020002D01*
G37*
G04 #@! TD.AperFunction*
G04 #@! TD*
M02*
