G04 #@! TF.GenerationSoftware,KiCad,Pcbnew,6.0.2+dfsg-1*
G04 #@! TF.CreationDate,2022-11-27T01:25:19-05:00*
G04 #@! TF.ProjectId,remote,72656d6f-7465-42e6-9b69-6361645f7063,rev?*
G04 #@! TF.SameCoordinates,Original*
G04 #@! TF.FileFunction,Copper,L1,Top*
G04 #@! TF.FilePolarity,Positive*
%FSLAX46Y46*%
G04 Gerber Fmt 4.6, Leading zero omitted, Abs format (unit mm)*
G04 Created by KiCad (PCBNEW 6.0.2+dfsg-1) date 2022-11-27 01:25:19*
%MOMM*%
%LPD*%
G01*
G04 APERTURE LIST*
G04 Aperture macros list*
%AMRoundRect*
0 Rectangle with rounded corners*
0 $1 Rounding radius*
0 $2 $3 $4 $5 $6 $7 $8 $9 X,Y pos of 4 corners*
0 Add a 4 corners polygon primitive as box body*
4,1,4,$2,$3,$4,$5,$6,$7,$8,$9,$2,$3,0*
0 Add four circle primitives for the rounded corners*
1,1,$1+$1,$2,$3*
1,1,$1+$1,$4,$5*
1,1,$1+$1,$6,$7*
1,1,$1+$1,$8,$9*
0 Add four rect primitives between the rounded corners*
20,1,$1+$1,$2,$3,$4,$5,0*
20,1,$1+$1,$4,$5,$6,$7,0*
20,1,$1+$1,$6,$7,$8,$9,0*
20,1,$1+$1,$8,$9,$2,$3,0*%
G04 Aperture macros list end*
G04 #@! TA.AperFunction,ComponentPad*
%ADD10C,1.600000*%
G04 #@! TD*
G04 #@! TA.AperFunction,ComponentPad*
%ADD11O,1.600000X1.600000*%
G04 #@! TD*
G04 #@! TA.AperFunction,ComponentPad*
%ADD12RoundRect,0.250000X-0.625000X0.350000X-0.625000X-0.350000X0.625000X-0.350000X0.625000X0.350000X0*%
G04 #@! TD*
G04 #@! TA.AperFunction,ComponentPad*
%ADD13O,1.750000X1.200000*%
G04 #@! TD*
G04 #@! TA.AperFunction,ComponentPad*
%ADD14RoundRect,0.250000X-0.350000X-0.625000X0.350000X-0.625000X0.350000X0.625000X-0.350000X0.625000X0*%
G04 #@! TD*
G04 #@! TA.AperFunction,ComponentPad*
%ADD15O,1.200000X1.750000*%
G04 #@! TD*
G04 #@! TA.AperFunction,ComponentPad*
%ADD16R,1.700000X1.700000*%
G04 #@! TD*
G04 #@! TA.AperFunction,ComponentPad*
%ADD17O,1.700000X1.700000*%
G04 #@! TD*
G04 #@! TA.AperFunction,Conductor*
%ADD18C,0.250000*%
G04 #@! TD*
G04 APERTURE END LIST*
D10*
X149000000Y-90080000D03*
D11*
X149000000Y-79920000D03*
D10*
X149000000Y-77000000D03*
D11*
X149000000Y-66840000D03*
D12*
X155000000Y-84000000D03*
D13*
X155000000Y-86000000D03*
D12*
X155000000Y-71000000D03*
D13*
X155000000Y-73000000D03*
D14*
X141000000Y-78000000D03*
D15*
X143000000Y-78000000D03*
D16*
X135000000Y-90000000D03*
X135000000Y-68375000D03*
D17*
X135000000Y-70915000D03*
X135000000Y-73455000D03*
X135000000Y-75995000D03*
X135000000Y-78535000D03*
X135000000Y-81075000D03*
X135000000Y-83615000D03*
D18*
X135000000Y-90000000D02*
X135000000Y-83615000D01*
X149000000Y-79920000D02*
X150920000Y-79920000D01*
X150920000Y-79920000D02*
X155000000Y-84000000D01*
X135000000Y-73455000D02*
X135000000Y-73787493D01*
X135000000Y-73787493D02*
X143787493Y-73787493D01*
X143787493Y-73787493D02*
X149000000Y-79000000D01*
X149000000Y-79000000D02*
X149000000Y-79920000D01*
G04 #@! TA.AperFunction,Conductor*
G36*
X157942121Y-65020002D02*
G01*
X157988614Y-65073658D01*
X158000000Y-65126000D01*
X158000000Y-91874000D01*
X157979998Y-91942121D01*
X157926342Y-91988614D01*
X157874000Y-92000000D01*
X133126000Y-92000000D01*
X133057879Y-91979998D01*
X133011386Y-91926342D01*
X133000000Y-91874000D01*
X133000000Y-83581695D01*
X133637251Y-83581695D01*
X133637548Y-83586848D01*
X133637548Y-83586851D01*
X133643011Y-83681590D01*
X133650110Y-83804715D01*
X133651247Y-83809761D01*
X133651248Y-83809767D01*
X133671119Y-83897939D01*
X133699222Y-84022639D01*
X133783266Y-84229616D01*
X133899987Y-84420088D01*
X134046250Y-84588938D01*
X134218126Y-84731632D01*
X134222593Y-84734242D01*
X134304070Y-84781853D01*
X134352794Y-84833491D01*
X134366500Y-84890641D01*
X134366500Y-88515500D01*
X134346498Y-88583621D01*
X134292842Y-88630114D01*
X134240500Y-88641500D01*
X134101866Y-88641500D01*
X134039684Y-88648255D01*
X133903295Y-88699385D01*
X133786739Y-88786739D01*
X133699385Y-88903295D01*
X133648255Y-89039684D01*
X133641500Y-89101866D01*
X133641500Y-90898134D01*
X133648255Y-90960316D01*
X133699385Y-91096705D01*
X133786739Y-91213261D01*
X133903295Y-91300615D01*
X134039684Y-91351745D01*
X134101866Y-91358500D01*
X135898134Y-91358500D01*
X135960316Y-91351745D01*
X136096705Y-91300615D01*
X136213261Y-91213261D01*
X136300615Y-91096705D01*
X136351745Y-90960316D01*
X136358500Y-90898134D01*
X136358500Y-89101866D01*
X136351745Y-89039684D01*
X136300615Y-88903295D01*
X136213261Y-88786739D01*
X136096705Y-88699385D01*
X135960316Y-88648255D01*
X135898134Y-88641500D01*
X135759500Y-88641500D01*
X135691379Y-88621498D01*
X135644886Y-88567842D01*
X135633500Y-88515500D01*
X135633500Y-88132703D01*
X139890743Y-88132703D01*
X139928268Y-88417734D01*
X140004129Y-88695036D01*
X140005813Y-88698984D01*
X140092960Y-88903295D01*
X140116923Y-88959476D01*
X140264561Y-89206161D01*
X140444313Y-89430528D01*
X140652851Y-89628423D01*
X140886317Y-89796186D01*
X140890112Y-89798195D01*
X140890113Y-89798196D01*
X140911869Y-89809715D01*
X141140392Y-89930712D01*
X141410373Y-90029511D01*
X141691264Y-90090755D01*
X141719841Y-90093004D01*
X141914282Y-90108307D01*
X141914291Y-90108307D01*
X141916739Y-90108500D01*
X142072271Y-90108500D01*
X142074407Y-90108354D01*
X142074418Y-90108354D01*
X142282548Y-90094165D01*
X142282554Y-90094164D01*
X142286825Y-90093873D01*
X142291020Y-90093004D01*
X142291022Y-90093004D01*
X142353815Y-90080000D01*
X147686502Y-90080000D01*
X147706457Y-90308087D01*
X147765716Y-90529243D01*
X147768039Y-90534224D01*
X147768039Y-90534225D01*
X147860151Y-90731762D01*
X147860154Y-90731767D01*
X147862477Y-90736749D01*
X147865634Y-90741257D01*
X147973088Y-90894717D01*
X147993802Y-90924300D01*
X148155700Y-91086198D01*
X148160208Y-91089355D01*
X148160211Y-91089357D01*
X148180968Y-91103891D01*
X148343251Y-91217523D01*
X148348233Y-91219846D01*
X148348238Y-91219849D01*
X148528203Y-91303767D01*
X148550757Y-91314284D01*
X148556065Y-91315706D01*
X148556067Y-91315707D01*
X148766598Y-91372119D01*
X148766600Y-91372119D01*
X148771913Y-91373543D01*
X149000000Y-91393498D01*
X149228087Y-91373543D01*
X149233400Y-91372119D01*
X149233402Y-91372119D01*
X149443933Y-91315707D01*
X149443935Y-91315706D01*
X149449243Y-91314284D01*
X149471797Y-91303767D01*
X149651762Y-91219849D01*
X149651767Y-91219846D01*
X149656749Y-91217523D01*
X149819032Y-91103891D01*
X149839789Y-91089357D01*
X149839792Y-91089355D01*
X149844300Y-91086198D01*
X150006198Y-90924300D01*
X150026913Y-90894717D01*
X150134366Y-90741257D01*
X150137523Y-90736749D01*
X150139846Y-90731767D01*
X150139849Y-90731762D01*
X150231961Y-90534225D01*
X150231961Y-90534224D01*
X150234284Y-90529243D01*
X150293543Y-90308087D01*
X150313498Y-90080000D01*
X150293543Y-89851913D01*
X150282236Y-89809715D01*
X150235707Y-89636067D01*
X150235706Y-89636065D01*
X150234284Y-89630757D01*
X150231820Y-89625473D01*
X150139849Y-89428238D01*
X150139846Y-89428233D01*
X150137523Y-89423251D01*
X150006198Y-89235700D01*
X149844300Y-89073802D01*
X149839792Y-89070645D01*
X149839789Y-89070643D01*
X149761611Y-89015902D01*
X149656749Y-88942477D01*
X149651767Y-88940154D01*
X149651762Y-88940151D01*
X149454225Y-88848039D01*
X149454224Y-88848039D01*
X149449243Y-88845716D01*
X149443935Y-88844294D01*
X149443933Y-88844293D01*
X149233402Y-88787881D01*
X149233400Y-88787881D01*
X149228087Y-88786457D01*
X149000000Y-88766502D01*
X148771913Y-88786457D01*
X148766600Y-88787881D01*
X148766598Y-88787881D01*
X148556067Y-88844293D01*
X148556065Y-88844294D01*
X148550757Y-88845716D01*
X148545776Y-88848039D01*
X148545775Y-88848039D01*
X148348238Y-88940151D01*
X148348233Y-88940154D01*
X148343251Y-88942477D01*
X148238389Y-89015902D01*
X148160211Y-89070643D01*
X148160208Y-89070645D01*
X148155700Y-89073802D01*
X147993802Y-89235700D01*
X147862477Y-89423251D01*
X147860154Y-89428233D01*
X147860151Y-89428238D01*
X147768180Y-89625473D01*
X147765716Y-89630757D01*
X147764294Y-89636065D01*
X147764293Y-89636067D01*
X147717764Y-89809715D01*
X147706457Y-89851913D01*
X147686502Y-90080000D01*
X142353815Y-90080000D01*
X142427584Y-90064723D01*
X142568342Y-90035574D01*
X142839343Y-89939607D01*
X143094812Y-89807750D01*
X143098313Y-89805289D01*
X143098317Y-89805287D01*
X143212418Y-89725095D01*
X143330023Y-89642441D01*
X143540622Y-89446740D01*
X143722713Y-89224268D01*
X143872927Y-88979142D01*
X143906222Y-88903295D01*
X143986757Y-88719830D01*
X143988483Y-88715898D01*
X144006962Y-88651029D01*
X144066068Y-88443534D01*
X144067244Y-88439406D01*
X144107751Y-88154784D01*
X144107845Y-88136951D01*
X144109235Y-87871583D01*
X144109235Y-87871576D01*
X144109257Y-87867297D01*
X144071732Y-87582266D01*
X143995871Y-87304964D01*
X143911371Y-87106857D01*
X143884763Y-87044476D01*
X143884761Y-87044472D01*
X143883077Y-87040524D01*
X143780627Y-86869342D01*
X143737643Y-86797521D01*
X143737640Y-86797517D01*
X143735439Y-86793839D01*
X143555687Y-86569472D01*
X143347149Y-86371577D01*
X143202171Y-86267399D01*
X153649712Y-86267399D01*
X153671194Y-86356537D01*
X153675083Y-86367832D01*
X153757629Y-86549382D01*
X153763576Y-86559724D01*
X153878968Y-86722397D01*
X153886761Y-86731425D01*
X154030831Y-86869342D01*
X154040196Y-86876738D01*
X154207741Y-86984921D01*
X154218345Y-86990417D01*
X154403312Y-87064961D01*
X154414770Y-87068355D01*
X154611928Y-87106857D01*
X154620791Y-87107934D01*
X154623500Y-87108000D01*
X154727885Y-87108000D01*
X154743124Y-87103525D01*
X154744329Y-87102135D01*
X154746000Y-87094452D01*
X154746000Y-87089885D01*
X155254000Y-87089885D01*
X155258475Y-87105124D01*
X155259865Y-87106329D01*
X155267548Y-87108000D01*
X155324832Y-87108000D01*
X155330808Y-87107715D01*
X155479494Y-87093529D01*
X155491228Y-87091270D01*
X155682599Y-87035128D01*
X155693675Y-87030698D01*
X155870978Y-86939381D01*
X155881024Y-86932931D01*
X156037857Y-86809738D01*
X156046506Y-86801501D01*
X156177212Y-86650877D01*
X156184147Y-86641153D01*
X156284010Y-86468533D01*
X156288984Y-86457669D01*
X156354407Y-86269273D01*
X156354648Y-86268284D01*
X156353180Y-86257992D01*
X156339615Y-86254000D01*
X155272115Y-86254000D01*
X155256876Y-86258475D01*
X155255671Y-86259865D01*
X155254000Y-86267548D01*
X155254000Y-87089885D01*
X154746000Y-87089885D01*
X154746000Y-86272115D01*
X154741525Y-86256876D01*
X154740135Y-86255671D01*
X154732452Y-86254000D01*
X153664598Y-86254000D01*
X153651067Y-86257973D01*
X153649712Y-86267399D01*
X143202171Y-86267399D01*
X143113683Y-86203814D01*
X143091843Y-86192250D01*
X143068654Y-86179972D01*
X142859608Y-86069288D01*
X142589627Y-85970489D01*
X142308736Y-85909245D01*
X142277685Y-85906801D01*
X142085718Y-85891693D01*
X142085709Y-85891693D01*
X142083261Y-85891500D01*
X141927729Y-85891500D01*
X141925593Y-85891646D01*
X141925582Y-85891646D01*
X141717452Y-85905835D01*
X141717446Y-85905836D01*
X141713175Y-85906127D01*
X141708980Y-85906996D01*
X141708978Y-85906996D01*
X141572417Y-85935276D01*
X141431658Y-85964426D01*
X141160657Y-86060393D01*
X140905188Y-86192250D01*
X140901687Y-86194711D01*
X140901683Y-86194713D01*
X140795595Y-86269273D01*
X140669977Y-86357559D01*
X140459378Y-86553260D01*
X140277287Y-86775732D01*
X140127073Y-87020858D01*
X140125347Y-87024791D01*
X140125346Y-87024792D01*
X140091395Y-87102135D01*
X140011517Y-87284102D01*
X139932756Y-87560594D01*
X139892249Y-87845216D01*
X139892227Y-87849505D01*
X139892226Y-87849512D01*
X139890765Y-88128417D01*
X139890743Y-88132703D01*
X135633500Y-88132703D01*
X135633500Y-84895427D01*
X135653502Y-84827306D01*
X135694618Y-84787550D01*
X135697994Y-84785896D01*
X135879860Y-84656173D01*
X136038096Y-84498489D01*
X136097594Y-84415689D01*
X136165435Y-84321277D01*
X136168453Y-84317077D01*
X136267430Y-84116811D01*
X136332370Y-83903069D01*
X136361529Y-83681590D01*
X136363156Y-83615000D01*
X136344852Y-83392361D01*
X136290431Y-83175702D01*
X136201354Y-82970840D01*
X136080014Y-82783277D01*
X135929670Y-82618051D01*
X135925619Y-82614852D01*
X135925615Y-82614848D01*
X135758414Y-82482800D01*
X135758410Y-82482798D01*
X135754359Y-82479598D01*
X135713053Y-82456796D01*
X135663084Y-82406364D01*
X135648312Y-82336921D01*
X135673428Y-82270516D01*
X135700780Y-82243909D01*
X135744603Y-82212650D01*
X135879860Y-82116173D01*
X136038096Y-81958489D01*
X136097594Y-81875689D01*
X136165435Y-81781277D01*
X136168453Y-81777077D01*
X136267430Y-81576811D01*
X136332370Y-81363069D01*
X136361529Y-81141590D01*
X136363156Y-81075000D01*
X136344852Y-80852361D01*
X136290431Y-80635702D01*
X136201354Y-80430840D01*
X136080014Y-80243277D01*
X135929670Y-80078051D01*
X135925619Y-80074852D01*
X135925615Y-80074848D01*
X135758414Y-79942800D01*
X135758410Y-79942798D01*
X135754359Y-79939598D01*
X135713053Y-79916796D01*
X135663084Y-79866364D01*
X135648312Y-79796921D01*
X135673428Y-79730516D01*
X135700780Y-79703909D01*
X135744603Y-79672650D01*
X135879860Y-79576173D01*
X136038096Y-79418489D01*
X136048929Y-79403414D01*
X136165435Y-79241277D01*
X136168453Y-79237077D01*
X136173465Y-79226937D01*
X136265136Y-79041453D01*
X136265137Y-79041451D01*
X136267430Y-79036811D01*
X136332370Y-78823069D01*
X136352247Y-78672095D01*
X139892001Y-78672095D01*
X139892338Y-78678614D01*
X139902257Y-78774206D01*
X139905149Y-78787600D01*
X139956588Y-78941784D01*
X139962761Y-78954962D01*
X140048063Y-79092807D01*
X140057099Y-79104208D01*
X140171829Y-79218739D01*
X140183240Y-79227751D01*
X140321243Y-79312816D01*
X140334424Y-79318963D01*
X140488710Y-79370138D01*
X140502086Y-79373005D01*
X140596438Y-79382672D01*
X140602854Y-79383000D01*
X140727885Y-79383000D01*
X140743124Y-79378525D01*
X140744329Y-79377135D01*
X140746000Y-79369452D01*
X140746000Y-79364884D01*
X141254000Y-79364884D01*
X141258475Y-79380123D01*
X141259865Y-79381328D01*
X141267548Y-79382999D01*
X141397095Y-79382999D01*
X141403614Y-79382662D01*
X141499206Y-79372743D01*
X141512600Y-79369851D01*
X141666784Y-79318412D01*
X141679962Y-79312239D01*
X141817807Y-79226937D01*
X141829208Y-79217901D01*
X141943739Y-79103171D01*
X141952751Y-79091760D01*
X141980745Y-79046345D01*
X142033517Y-78998852D01*
X142103589Y-78987428D01*
X142168713Y-79015702D01*
X142187088Y-79034625D01*
X142193604Y-79042920D01*
X142198135Y-79046852D01*
X142198138Y-79046855D01*
X142316560Y-79149616D01*
X142353363Y-79181552D01*
X142358549Y-79184552D01*
X142358553Y-79184555D01*
X142449341Y-79237077D01*
X142536454Y-79287473D01*
X142736271Y-79356861D01*
X142742206Y-79357722D01*
X142742208Y-79357722D01*
X142939664Y-79386352D01*
X142939667Y-79386352D01*
X142945604Y-79387213D01*
X143156899Y-79377433D01*
X143330111Y-79335689D01*
X143356701Y-79329281D01*
X143356703Y-79329280D01*
X143362534Y-79327875D01*
X143367992Y-79325393D01*
X143367996Y-79325392D01*
X143514581Y-79258743D01*
X143555087Y-79240326D01*
X143727611Y-79117946D01*
X143873881Y-78965150D01*
X143988620Y-78787452D01*
X144035110Y-78672095D01*
X144065442Y-78596832D01*
X144065443Y-78596829D01*
X144067686Y-78591263D01*
X144108228Y-78383663D01*
X144108500Y-78378101D01*
X144108500Y-77672154D01*
X144093452Y-77514434D01*
X144033908Y-77311466D01*
X144009536Y-77264144D01*
X143939804Y-77128751D01*
X143939802Y-77128748D01*
X143937058Y-77123420D01*
X143806396Y-76957080D01*
X143801865Y-76953148D01*
X143801862Y-76953145D01*
X143651167Y-76822379D01*
X143646637Y-76818448D01*
X143641451Y-76815448D01*
X143641447Y-76815445D01*
X143468742Y-76715533D01*
X143463546Y-76712527D01*
X143263729Y-76643139D01*
X143257794Y-76642278D01*
X143257792Y-76642278D01*
X143060336Y-76613648D01*
X143060333Y-76613648D01*
X143054396Y-76612787D01*
X142843101Y-76622567D01*
X142720105Y-76652209D01*
X142643299Y-76670719D01*
X142643297Y-76670720D01*
X142637466Y-76672125D01*
X142632008Y-76674607D01*
X142632004Y-76674608D01*
X142516959Y-76726916D01*
X142444913Y-76759674D01*
X142272389Y-76882054D01*
X142268251Y-76886377D01*
X142268246Y-76886381D01*
X142180836Y-76977691D01*
X142119280Y-77013067D01*
X142048371Y-77009548D01*
X141990621Y-76968251D01*
X141982674Y-76956863D01*
X141951937Y-76907193D01*
X141942901Y-76895792D01*
X141828171Y-76781261D01*
X141816760Y-76772249D01*
X141678757Y-76687184D01*
X141665576Y-76681037D01*
X141511290Y-76629862D01*
X141497914Y-76626995D01*
X141403562Y-76617328D01*
X141397145Y-76617000D01*
X141272115Y-76617000D01*
X141256876Y-76621475D01*
X141255671Y-76622865D01*
X141254000Y-76630548D01*
X141254000Y-79364884D01*
X140746000Y-79364884D01*
X140746000Y-78272115D01*
X140741525Y-78256876D01*
X140740135Y-78255671D01*
X140732452Y-78254000D01*
X139910116Y-78254000D01*
X139894877Y-78258475D01*
X139893672Y-78259865D01*
X139892001Y-78267548D01*
X139892001Y-78672095D01*
X136352247Y-78672095D01*
X136361529Y-78601590D01*
X136362318Y-78569306D01*
X136363074Y-78538365D01*
X136363074Y-78538361D01*
X136363156Y-78535000D01*
X136344852Y-78312361D01*
X136290431Y-78095702D01*
X136201354Y-77890840D01*
X136095934Y-77727885D01*
X139892000Y-77727885D01*
X139896475Y-77743124D01*
X139897865Y-77744329D01*
X139905548Y-77746000D01*
X140727885Y-77746000D01*
X140743124Y-77741525D01*
X140744329Y-77740135D01*
X140746000Y-77732452D01*
X140746000Y-76635116D01*
X140741525Y-76619877D01*
X140740135Y-76618672D01*
X140732452Y-76617001D01*
X140602905Y-76617001D01*
X140596386Y-76617338D01*
X140500794Y-76627257D01*
X140487400Y-76630149D01*
X140333216Y-76681588D01*
X140320038Y-76687761D01*
X140182193Y-76773063D01*
X140170792Y-76782099D01*
X140056261Y-76896829D01*
X140047249Y-76908240D01*
X139962184Y-77046243D01*
X139956037Y-77059424D01*
X139904862Y-77213710D01*
X139901995Y-77227086D01*
X139892328Y-77321438D01*
X139892000Y-77327855D01*
X139892000Y-77727885D01*
X136095934Y-77727885D01*
X136080014Y-77703277D01*
X135929670Y-77538051D01*
X135925619Y-77534852D01*
X135925615Y-77534848D01*
X135758414Y-77402800D01*
X135758410Y-77402798D01*
X135754359Y-77399598D01*
X135713053Y-77376796D01*
X135663084Y-77326364D01*
X135648312Y-77256921D01*
X135673428Y-77190516D01*
X135700780Y-77163909D01*
X135750070Y-77128751D01*
X135879860Y-77036173D01*
X135910666Y-77005475D01*
X136008241Y-76908240D01*
X136038096Y-76878489D01*
X136083398Y-76815445D01*
X136165435Y-76701277D01*
X136168453Y-76697077D01*
X136173058Y-76687761D01*
X136265136Y-76501453D01*
X136265137Y-76501451D01*
X136267430Y-76496811D01*
X136332370Y-76283069D01*
X136361529Y-76061590D01*
X136363156Y-75995000D01*
X136344852Y-75772361D01*
X136290431Y-75555702D01*
X136201354Y-75350840D01*
X136080014Y-75163277D01*
X135929670Y-74998051D01*
X135925619Y-74994852D01*
X135925615Y-74994848D01*
X135758414Y-74862800D01*
X135758410Y-74862798D01*
X135754359Y-74859598D01*
X135713053Y-74836796D01*
X135663084Y-74786364D01*
X135648312Y-74716921D01*
X135673428Y-74650516D01*
X135700780Y-74623909D01*
X135744603Y-74592650D01*
X135879860Y-74496173D01*
X135883515Y-74492531D01*
X135883523Y-74492524D01*
X135918425Y-74457743D01*
X135980796Y-74423826D01*
X136007365Y-74420993D01*
X143472899Y-74420993D01*
X143541020Y-74440995D01*
X143561994Y-74457898D01*
X147997704Y-78893608D01*
X148031730Y-78955920D01*
X148026665Y-79026735D01*
X148000691Y-79067151D01*
X148001226Y-79067600D01*
X147997707Y-79071794D01*
X147997704Y-79071798D01*
X147993802Y-79075700D01*
X147990645Y-79080208D01*
X147990643Y-79080211D01*
X147973840Y-79104208D01*
X147862477Y-79263251D01*
X147860154Y-79268233D01*
X147860151Y-79268238D01*
X147779409Y-79441392D01*
X147765716Y-79470757D01*
X147764294Y-79476065D01*
X147764293Y-79476067D01*
X147736666Y-79579171D01*
X147706457Y-79691913D01*
X147686502Y-79920000D01*
X147706457Y-80148087D01*
X147765716Y-80369243D01*
X147768039Y-80374224D01*
X147768039Y-80374225D01*
X147860151Y-80571762D01*
X147860154Y-80571767D01*
X147862477Y-80576749D01*
X147993802Y-80764300D01*
X148155700Y-80926198D01*
X148160208Y-80929355D01*
X148160211Y-80929357D01*
X148238389Y-80984098D01*
X148343251Y-81057523D01*
X148348233Y-81059846D01*
X148348238Y-81059849D01*
X148516350Y-81138240D01*
X148550757Y-81154284D01*
X148556065Y-81155706D01*
X148556067Y-81155707D01*
X148766598Y-81212119D01*
X148766600Y-81212119D01*
X148771913Y-81213543D01*
X149000000Y-81233498D01*
X149228087Y-81213543D01*
X149233400Y-81212119D01*
X149233402Y-81212119D01*
X149443933Y-81155707D01*
X149443935Y-81155706D01*
X149449243Y-81154284D01*
X149483650Y-81138240D01*
X149651762Y-81059849D01*
X149651767Y-81059846D01*
X149656749Y-81057523D01*
X149761611Y-80984098D01*
X149839789Y-80929357D01*
X149839792Y-80929355D01*
X149844300Y-80926198D01*
X150006198Y-80764300D01*
X150096244Y-80635702D01*
X150116181Y-80607229D01*
X150171638Y-80562901D01*
X150219394Y-80553500D01*
X150605406Y-80553500D01*
X150673527Y-80573502D01*
X150694501Y-80590405D01*
X153582250Y-83478154D01*
X153616276Y-83540466D01*
X153618499Y-83580091D01*
X153616500Y-83599600D01*
X153616500Y-84400400D01*
X153616837Y-84403646D01*
X153616837Y-84403650D01*
X153618948Y-84423990D01*
X153627474Y-84506166D01*
X153629655Y-84512702D01*
X153629655Y-84512704D01*
X153655089Y-84588938D01*
X153683450Y-84673946D01*
X153776522Y-84824348D01*
X153901697Y-84949305D01*
X153907929Y-84953147D01*
X153907931Y-84953148D01*
X153953690Y-84981355D01*
X154001183Y-85034127D01*
X154012605Y-85104199D01*
X153984331Y-85169323D01*
X153965403Y-85187702D01*
X153962144Y-85190262D01*
X153953494Y-85198499D01*
X153822788Y-85349123D01*
X153815853Y-85358847D01*
X153715990Y-85531467D01*
X153711016Y-85542331D01*
X153645593Y-85730727D01*
X153645352Y-85731716D01*
X153646820Y-85742008D01*
X153660385Y-85746000D01*
X156335402Y-85746000D01*
X156348933Y-85742027D01*
X156350288Y-85732601D01*
X156328806Y-85643463D01*
X156324917Y-85632168D01*
X156242371Y-85450618D01*
X156236424Y-85440276D01*
X156121032Y-85277603D01*
X156113239Y-85268575D01*
X156022243Y-85181465D01*
X155986867Y-85119910D01*
X155990386Y-85049000D01*
X156031683Y-84991250D01*
X156043053Y-84983315D01*
X156099348Y-84948478D01*
X156224305Y-84823303D01*
X156247363Y-84785896D01*
X156313275Y-84678968D01*
X156313276Y-84678966D01*
X156317115Y-84672738D01*
X156372797Y-84504861D01*
X156383500Y-84400400D01*
X156383500Y-83599600D01*
X156381110Y-83576562D01*
X156373238Y-83500692D01*
X156373237Y-83500688D01*
X156372526Y-83493834D01*
X156316550Y-83326054D01*
X156223478Y-83175652D01*
X156098303Y-83050695D01*
X155947738Y-82957885D01*
X155867995Y-82931436D01*
X155786389Y-82904368D01*
X155786387Y-82904368D01*
X155779861Y-82902203D01*
X155773025Y-82901503D01*
X155773022Y-82901502D01*
X155729969Y-82897091D01*
X155675400Y-82891500D01*
X154839595Y-82891500D01*
X154771474Y-82871498D01*
X154750500Y-82854595D01*
X151423652Y-79527747D01*
X151416112Y-79519461D01*
X151412000Y-79512982D01*
X151362348Y-79466356D01*
X151359507Y-79463602D01*
X151339770Y-79443865D01*
X151336573Y-79441385D01*
X151327551Y-79433680D01*
X151301100Y-79408841D01*
X151295321Y-79403414D01*
X151288375Y-79399595D01*
X151288372Y-79399593D01*
X151277566Y-79393652D01*
X151261047Y-79382801D01*
X151253742Y-79377135D01*
X151245041Y-79370386D01*
X151237772Y-79367241D01*
X151237768Y-79367238D01*
X151204463Y-79352826D01*
X151193813Y-79347609D01*
X151155060Y-79326305D01*
X151135437Y-79321267D01*
X151116734Y-79314863D01*
X151105420Y-79309967D01*
X151105419Y-79309967D01*
X151098145Y-79306819D01*
X151090322Y-79305580D01*
X151090312Y-79305577D01*
X151054476Y-79299901D01*
X151042856Y-79297495D01*
X151007711Y-79288472D01*
X151007710Y-79288472D01*
X151000030Y-79286500D01*
X150979776Y-79286500D01*
X150960065Y-79284949D01*
X150947886Y-79283020D01*
X150940057Y-79281780D01*
X150932165Y-79282526D01*
X150896039Y-79285941D01*
X150884181Y-79286500D01*
X150219394Y-79286500D01*
X150151273Y-79266498D01*
X150116181Y-79232771D01*
X150009357Y-79080211D01*
X150009355Y-79080208D01*
X150006198Y-79075700D01*
X149844300Y-78913802D01*
X149839792Y-78910645D01*
X149839789Y-78910643D01*
X149707394Y-78817939D01*
X149656749Y-78782477D01*
X149626733Y-78768481D01*
X149573450Y-78721567D01*
X149562834Y-78700673D01*
X149559552Y-78692383D01*
X149549549Y-78678614D01*
X149533564Y-78656613D01*
X149527048Y-78646693D01*
X149508580Y-78615465D01*
X149508578Y-78615462D01*
X149504542Y-78608638D01*
X149490221Y-78594317D01*
X149477380Y-78579283D01*
X149470131Y-78569306D01*
X149465472Y-78562893D01*
X149431395Y-78534702D01*
X149422616Y-78526712D01*
X149351930Y-78456026D01*
X149317904Y-78393714D01*
X149322969Y-78322899D01*
X149365516Y-78266063D01*
X149408413Y-78245224D01*
X149426032Y-78240503D01*
X149443933Y-78235707D01*
X149443935Y-78235706D01*
X149449243Y-78234284D01*
X149454225Y-78231961D01*
X149651762Y-78139849D01*
X149651767Y-78139846D01*
X149656749Y-78137523D01*
X149768020Y-78059610D01*
X149839789Y-78009357D01*
X149839792Y-78009355D01*
X149844300Y-78006198D01*
X150006198Y-77844300D01*
X150137523Y-77656749D01*
X150139846Y-77651767D01*
X150139849Y-77651762D01*
X150231961Y-77454225D01*
X150231961Y-77454224D01*
X150234284Y-77449243D01*
X150246729Y-77402800D01*
X150292119Y-77233402D01*
X150292119Y-77233400D01*
X150293543Y-77228087D01*
X150313498Y-77000000D01*
X150293543Y-76771913D01*
X150278436Y-76715533D01*
X150235707Y-76556067D01*
X150235706Y-76556065D01*
X150234284Y-76550757D01*
X150231961Y-76545775D01*
X150139849Y-76348238D01*
X150139846Y-76348233D01*
X150137523Y-76343251D01*
X150006198Y-76155700D01*
X149844300Y-75993802D01*
X149839792Y-75990645D01*
X149839789Y-75990643D01*
X149761611Y-75935902D01*
X149656749Y-75862477D01*
X149651767Y-75860154D01*
X149651762Y-75860151D01*
X149454225Y-75768039D01*
X149454224Y-75768039D01*
X149449243Y-75765716D01*
X149443935Y-75764294D01*
X149443933Y-75764293D01*
X149233402Y-75707881D01*
X149233400Y-75707881D01*
X149228087Y-75706457D01*
X149000000Y-75686502D01*
X148771913Y-75706457D01*
X148766600Y-75707881D01*
X148766598Y-75707881D01*
X148556067Y-75764293D01*
X148556065Y-75764294D01*
X148550757Y-75765716D01*
X148545776Y-75768039D01*
X148545775Y-75768039D01*
X148348238Y-75860151D01*
X148348233Y-75860154D01*
X148343251Y-75862477D01*
X148238389Y-75935902D01*
X148160211Y-75990643D01*
X148160208Y-75990645D01*
X148155700Y-75993802D01*
X147993802Y-76155700D01*
X147862477Y-76343251D01*
X147860154Y-76348233D01*
X147860151Y-76348238D01*
X147768039Y-76545775D01*
X147765716Y-76550757D01*
X147764294Y-76556065D01*
X147764293Y-76556067D01*
X147754776Y-76591586D01*
X147717824Y-76652209D01*
X147653964Y-76683230D01*
X147583469Y-76674802D01*
X147543974Y-76648070D01*
X144291145Y-73395240D01*
X144283605Y-73386954D01*
X144279493Y-73380475D01*
X144266030Y-73367832D01*
X144229842Y-73333850D01*
X144227000Y-73331095D01*
X144207263Y-73311358D01*
X144204066Y-73308878D01*
X144195044Y-73301173D01*
X144168593Y-73276334D01*
X144162814Y-73270907D01*
X144156434Y-73267399D01*
X153649712Y-73267399D01*
X153671194Y-73356537D01*
X153675083Y-73367832D01*
X153757629Y-73549382D01*
X153763576Y-73559724D01*
X153878968Y-73722397D01*
X153886761Y-73731425D01*
X154030831Y-73869342D01*
X154040196Y-73876738D01*
X154207741Y-73984921D01*
X154218345Y-73990417D01*
X154403312Y-74064961D01*
X154414770Y-74068355D01*
X154611928Y-74106857D01*
X154620791Y-74107934D01*
X154623500Y-74108000D01*
X154727885Y-74108000D01*
X154743124Y-74103525D01*
X154744329Y-74102135D01*
X154746000Y-74094452D01*
X154746000Y-74089885D01*
X155254000Y-74089885D01*
X155258475Y-74105124D01*
X155259865Y-74106329D01*
X155267548Y-74108000D01*
X155324832Y-74108000D01*
X155330808Y-74107715D01*
X155479494Y-74093529D01*
X155491228Y-74091270D01*
X155682599Y-74035128D01*
X155693675Y-74030698D01*
X155870978Y-73939381D01*
X155881024Y-73932931D01*
X156037857Y-73809738D01*
X156046506Y-73801501D01*
X156177212Y-73650877D01*
X156184147Y-73641153D01*
X156284010Y-73468533D01*
X156288984Y-73457669D01*
X156354407Y-73269273D01*
X156354648Y-73268284D01*
X156353180Y-73257992D01*
X156339615Y-73254000D01*
X155272115Y-73254000D01*
X155256876Y-73258475D01*
X155255671Y-73259865D01*
X155254000Y-73267548D01*
X155254000Y-74089885D01*
X154746000Y-74089885D01*
X154746000Y-73272115D01*
X154741525Y-73256876D01*
X154740135Y-73255671D01*
X154732452Y-73254000D01*
X153664598Y-73254000D01*
X153651067Y-73257973D01*
X153649712Y-73267399D01*
X144156434Y-73267399D01*
X144155868Y-73267088D01*
X144155865Y-73267086D01*
X144145059Y-73261145D01*
X144128540Y-73250294D01*
X144128076Y-73249934D01*
X144112534Y-73237879D01*
X144105265Y-73234734D01*
X144105261Y-73234731D01*
X144071956Y-73220319D01*
X144061306Y-73215102D01*
X144022553Y-73193798D01*
X144002930Y-73188760D01*
X143984227Y-73182356D01*
X143972913Y-73177460D01*
X143972912Y-73177460D01*
X143965638Y-73174312D01*
X143957815Y-73173073D01*
X143957805Y-73173070D01*
X143921969Y-73167394D01*
X143910349Y-73164988D01*
X143875204Y-73155965D01*
X143875203Y-73155965D01*
X143867523Y-73153993D01*
X143847269Y-73153993D01*
X143827558Y-73152442D01*
X143815379Y-73150513D01*
X143807550Y-73149273D01*
X143799658Y-73150019D01*
X143763532Y-73153434D01*
X143751674Y-73153993D01*
X136423432Y-73153993D01*
X136355311Y-73133991D01*
X136308818Y-73080335D01*
X136301228Y-73058688D01*
X136291690Y-73020715D01*
X136290431Y-73015702D01*
X136201354Y-72810840D01*
X136080014Y-72623277D01*
X135929670Y-72458051D01*
X135925619Y-72454852D01*
X135925615Y-72454848D01*
X135758414Y-72322800D01*
X135758410Y-72322798D01*
X135754359Y-72319598D01*
X135713053Y-72296796D01*
X135663084Y-72246364D01*
X135648312Y-72176921D01*
X135673428Y-72110516D01*
X135700780Y-72083909D01*
X135760165Y-72041550D01*
X135879860Y-71956173D01*
X135883720Y-71952327D01*
X136034435Y-71802137D01*
X136038096Y-71798489D01*
X136097594Y-71715689D01*
X136165435Y-71621277D01*
X136168453Y-71617077D01*
X136223269Y-71506166D01*
X136265136Y-71421453D01*
X136265137Y-71421451D01*
X136267430Y-71416811D01*
X136272416Y-71400400D01*
X153616500Y-71400400D01*
X153627474Y-71506166D01*
X153629655Y-71512702D01*
X153629655Y-71512704D01*
X153636767Y-71534020D01*
X153683450Y-71673946D01*
X153776522Y-71824348D01*
X153901697Y-71949305D01*
X153907929Y-71953147D01*
X153907931Y-71953148D01*
X153953690Y-71981355D01*
X154001183Y-72034127D01*
X154012605Y-72104199D01*
X153984331Y-72169323D01*
X153965403Y-72187702D01*
X153962144Y-72190262D01*
X153953494Y-72198499D01*
X153822788Y-72349123D01*
X153815853Y-72358847D01*
X153715990Y-72531467D01*
X153711016Y-72542331D01*
X153645593Y-72730727D01*
X153645352Y-72731716D01*
X153646820Y-72742008D01*
X153660385Y-72746000D01*
X156335402Y-72746000D01*
X156348933Y-72742027D01*
X156350288Y-72732601D01*
X156328806Y-72643463D01*
X156324917Y-72632168D01*
X156242371Y-72450618D01*
X156236424Y-72440276D01*
X156121032Y-72277603D01*
X156113239Y-72268575D01*
X156022243Y-72181465D01*
X155986867Y-72119910D01*
X155990386Y-72049000D01*
X156031683Y-71991250D01*
X156043053Y-71983315D01*
X156099348Y-71948478D01*
X156224305Y-71823303D01*
X156317115Y-71672738D01*
X156343564Y-71592995D01*
X156370632Y-71511389D01*
X156370632Y-71511387D01*
X156372797Y-71504861D01*
X156383500Y-71400400D01*
X156383500Y-70599600D01*
X156372526Y-70493834D01*
X156354436Y-70439610D01*
X156318868Y-70333002D01*
X156316550Y-70326054D01*
X156223478Y-70175652D01*
X156098303Y-70050695D01*
X156075182Y-70036443D01*
X155953968Y-69961725D01*
X155953966Y-69961724D01*
X155947738Y-69957885D01*
X155865813Y-69930712D01*
X155786389Y-69904368D01*
X155786387Y-69904368D01*
X155779861Y-69902203D01*
X155773025Y-69901503D01*
X155773022Y-69901502D01*
X155715757Y-69895635D01*
X155675400Y-69891500D01*
X154324600Y-69891500D01*
X154321354Y-69891837D01*
X154321350Y-69891837D01*
X154225692Y-69901762D01*
X154225688Y-69901763D01*
X154218834Y-69902474D01*
X154212298Y-69904655D01*
X154212296Y-69904655D01*
X154113426Y-69937641D01*
X154051054Y-69958450D01*
X153900652Y-70051522D01*
X153775695Y-70176697D01*
X153771855Y-70182927D01*
X153771854Y-70182928D01*
X153732745Y-70246375D01*
X153682885Y-70327262D01*
X153680581Y-70334209D01*
X153631986Y-70480720D01*
X153627203Y-70495139D01*
X153616500Y-70599600D01*
X153616500Y-71400400D01*
X136272416Y-71400400D01*
X136332370Y-71203069D01*
X136361529Y-70981590D01*
X136363156Y-70915000D01*
X136344852Y-70692361D01*
X136290431Y-70475702D01*
X136201354Y-70270840D01*
X136136428Y-70170479D01*
X136082822Y-70087617D01*
X136082820Y-70087614D01*
X136080014Y-70083277D01*
X136076540Y-70079459D01*
X136076533Y-70079450D01*
X135932435Y-69921088D01*
X135901383Y-69857242D01*
X135909779Y-69786744D01*
X135954956Y-69731976D01*
X135981400Y-69718307D01*
X136088052Y-69678325D01*
X136103649Y-69669786D01*
X136205724Y-69593285D01*
X136218285Y-69580724D01*
X136294786Y-69478649D01*
X136303324Y-69463054D01*
X136348478Y-69342606D01*
X136352105Y-69327351D01*
X136357631Y-69276486D01*
X136358000Y-69269672D01*
X136358000Y-68647115D01*
X136353525Y-68631876D01*
X136352135Y-68630671D01*
X136344452Y-68629000D01*
X133660116Y-68629000D01*
X133644877Y-68633475D01*
X133643672Y-68634865D01*
X133642001Y-68642548D01*
X133642001Y-69269669D01*
X133642371Y-69276490D01*
X133647895Y-69327352D01*
X133651521Y-69342604D01*
X133696676Y-69463054D01*
X133705214Y-69478649D01*
X133781715Y-69580724D01*
X133794276Y-69593285D01*
X133896351Y-69669786D01*
X133911946Y-69678324D01*
X134020827Y-69719142D01*
X134077591Y-69761784D01*
X134102291Y-69828345D01*
X134087083Y-69897694D01*
X134067691Y-69924175D01*
X133949679Y-70047668D01*
X133940629Y-70057138D01*
X133814743Y-70241680D01*
X133720688Y-70444305D01*
X133660989Y-70659570D01*
X133637251Y-70881695D01*
X133637548Y-70886848D01*
X133637548Y-70886851D01*
X133643011Y-70981590D01*
X133650110Y-71104715D01*
X133651247Y-71109761D01*
X133651248Y-71109767D01*
X133671119Y-71197939D01*
X133699222Y-71322639D01*
X133783266Y-71529616D01*
X133785965Y-71534020D01*
X133867454Y-71666998D01*
X133899987Y-71720088D01*
X134046250Y-71888938D01*
X134218126Y-72031632D01*
X134235099Y-72041550D01*
X134291445Y-72074476D01*
X134340169Y-72126114D01*
X134353240Y-72195897D01*
X134326509Y-72261669D01*
X134286055Y-72295027D01*
X134273607Y-72301507D01*
X134269474Y-72304610D01*
X134269471Y-72304612D01*
X134245247Y-72322800D01*
X134094965Y-72435635D01*
X133940629Y-72597138D01*
X133814743Y-72781680D01*
X133720688Y-72984305D01*
X133660989Y-73199570D01*
X133637251Y-73421695D01*
X133637548Y-73426848D01*
X133637548Y-73426851D01*
X133649812Y-73639547D01*
X133650110Y-73644715D01*
X133651247Y-73649761D01*
X133651248Y-73649767D01*
X133669651Y-73731425D01*
X133699222Y-73862639D01*
X133783266Y-74069616D01*
X133899987Y-74260088D01*
X134046250Y-74428938D01*
X134218126Y-74571632D01*
X134288595Y-74612811D01*
X134291445Y-74614476D01*
X134340169Y-74666114D01*
X134353240Y-74735897D01*
X134326509Y-74801669D01*
X134286055Y-74835027D01*
X134273607Y-74841507D01*
X134269474Y-74844610D01*
X134269471Y-74844612D01*
X134245247Y-74862800D01*
X134094965Y-74975635D01*
X133940629Y-75137138D01*
X133814743Y-75321680D01*
X133720688Y-75524305D01*
X133660989Y-75739570D01*
X133637251Y-75961695D01*
X133637548Y-75966848D01*
X133637548Y-75966851D01*
X133643011Y-76061590D01*
X133650110Y-76184715D01*
X133651247Y-76189761D01*
X133651248Y-76189767D01*
X133671119Y-76277939D01*
X133699222Y-76402639D01*
X133783266Y-76609616D01*
X133803281Y-76642278D01*
X133886080Y-76777393D01*
X133899987Y-76800088D01*
X134046250Y-76968938D01*
X134218126Y-77111632D01*
X134230230Y-77118705D01*
X134291445Y-77154476D01*
X134340169Y-77206114D01*
X134353240Y-77275897D01*
X134326509Y-77341669D01*
X134286055Y-77375027D01*
X134273607Y-77381507D01*
X134269474Y-77384610D01*
X134269471Y-77384612D01*
X134104232Y-77508677D01*
X134094965Y-77515635D01*
X133940629Y-77677138D01*
X133937715Y-77681410D01*
X133937714Y-77681411D01*
X133852556Y-77806249D01*
X133814743Y-77861680D01*
X133720688Y-78064305D01*
X133660989Y-78279570D01*
X133637251Y-78501695D01*
X133637548Y-78506848D01*
X133637548Y-78506851D01*
X133643202Y-78604908D01*
X133650110Y-78724715D01*
X133651247Y-78729761D01*
X133651248Y-78729767D01*
X133664282Y-78787600D01*
X133699222Y-78942639D01*
X133783266Y-79149616D01*
X133830648Y-79226937D01*
X133888454Y-79321267D01*
X133899987Y-79340088D01*
X134046250Y-79508938D01*
X134218126Y-79651632D01*
X134277963Y-79686598D01*
X134291445Y-79694476D01*
X134340169Y-79746114D01*
X134353240Y-79815897D01*
X134326509Y-79881669D01*
X134286055Y-79915027D01*
X134273607Y-79921507D01*
X134269474Y-79924610D01*
X134269471Y-79924612D01*
X134245247Y-79942800D01*
X134094965Y-80055635D01*
X133940629Y-80217138D01*
X133814743Y-80401680D01*
X133720688Y-80604305D01*
X133660989Y-80819570D01*
X133637251Y-81041695D01*
X133637548Y-81046848D01*
X133637548Y-81046851D01*
X133643011Y-81141590D01*
X133650110Y-81264715D01*
X133651247Y-81269761D01*
X133651248Y-81269767D01*
X133671119Y-81357939D01*
X133699222Y-81482639D01*
X133783266Y-81689616D01*
X133899987Y-81880088D01*
X134046250Y-82048938D01*
X134218126Y-82191632D01*
X134288595Y-82232811D01*
X134291445Y-82234476D01*
X134340169Y-82286114D01*
X134353240Y-82355897D01*
X134326509Y-82421669D01*
X134286055Y-82455027D01*
X134273607Y-82461507D01*
X134269474Y-82464610D01*
X134269471Y-82464612D01*
X134245247Y-82482800D01*
X134094965Y-82595635D01*
X133940629Y-82757138D01*
X133814743Y-82941680D01*
X133720688Y-83144305D01*
X133660989Y-83359570D01*
X133637251Y-83581695D01*
X133000000Y-83581695D01*
X133000000Y-68132703D01*
X139890743Y-68132703D01*
X139891302Y-68136947D01*
X139891302Y-68136951D01*
X139893650Y-68154784D01*
X139928268Y-68417734D01*
X140004129Y-68695036D01*
X140116923Y-68959476D01*
X140264561Y-69206161D01*
X140444313Y-69430528D01*
X140652851Y-69628423D01*
X140886317Y-69796186D01*
X140890112Y-69798195D01*
X140890113Y-69798196D01*
X140911869Y-69809715D01*
X141140392Y-69930712D01*
X141410373Y-70029511D01*
X141691264Y-70090755D01*
X141719841Y-70093004D01*
X141914282Y-70108307D01*
X141914291Y-70108307D01*
X141916739Y-70108500D01*
X142072271Y-70108500D01*
X142074407Y-70108354D01*
X142074418Y-70108354D01*
X142282548Y-70094165D01*
X142282554Y-70094164D01*
X142286825Y-70093873D01*
X142291020Y-70093004D01*
X142291022Y-70093004D01*
X142482258Y-70053401D01*
X142568342Y-70035574D01*
X142839343Y-69939607D01*
X143094812Y-69807750D01*
X143098313Y-69805289D01*
X143098317Y-69805287D01*
X143278965Y-69678325D01*
X143330023Y-69642441D01*
X143540622Y-69446740D01*
X143722713Y-69224268D01*
X143872927Y-68979142D01*
X143988483Y-68715898D01*
X144067244Y-68439406D01*
X144107751Y-68154784D01*
X144107845Y-68136951D01*
X144109235Y-67871583D01*
X144109235Y-67871576D01*
X144109257Y-67867297D01*
X144071732Y-67582266D01*
X143995871Y-67304964D01*
X143932637Y-67156715D01*
X143884763Y-67044476D01*
X143884761Y-67044472D01*
X143883077Y-67040524D01*
X143763066Y-66840000D01*
X147686502Y-66840000D01*
X147706457Y-67068087D01*
X147765716Y-67289243D01*
X147768039Y-67294224D01*
X147768039Y-67294225D01*
X147860151Y-67491762D01*
X147860154Y-67491767D01*
X147862477Y-67496749D01*
X147993802Y-67684300D01*
X148155700Y-67846198D01*
X148160208Y-67849355D01*
X148160211Y-67849357D01*
X148185832Y-67867297D01*
X148343251Y-67977523D01*
X148348233Y-67979846D01*
X148348238Y-67979849D01*
X148545775Y-68071961D01*
X148550757Y-68074284D01*
X148556065Y-68075706D01*
X148556067Y-68075707D01*
X148766598Y-68132119D01*
X148766600Y-68132119D01*
X148771913Y-68133543D01*
X149000000Y-68153498D01*
X149228087Y-68133543D01*
X149233400Y-68132119D01*
X149233402Y-68132119D01*
X149443933Y-68075707D01*
X149443935Y-68075706D01*
X149449243Y-68074284D01*
X149454225Y-68071961D01*
X149651762Y-67979849D01*
X149651767Y-67979846D01*
X149656749Y-67977523D01*
X149814168Y-67867297D01*
X149839789Y-67849357D01*
X149839792Y-67849355D01*
X149844300Y-67846198D01*
X150006198Y-67684300D01*
X150137523Y-67496749D01*
X150139846Y-67491767D01*
X150139849Y-67491762D01*
X150231961Y-67294225D01*
X150231961Y-67294224D01*
X150234284Y-67289243D01*
X150293543Y-67068087D01*
X150313498Y-66840000D01*
X150293543Y-66611913D01*
X150292119Y-66606598D01*
X150235707Y-66396067D01*
X150235706Y-66396065D01*
X150234284Y-66390757D01*
X150147112Y-66203814D01*
X150139849Y-66188238D01*
X150139846Y-66188233D01*
X150137523Y-66183251D01*
X150006198Y-65995700D01*
X149844300Y-65833802D01*
X149839792Y-65830645D01*
X149839789Y-65830643D01*
X149761611Y-65775902D01*
X149656749Y-65702477D01*
X149651767Y-65700154D01*
X149651762Y-65700151D01*
X149454225Y-65608039D01*
X149454224Y-65608039D01*
X149449243Y-65605716D01*
X149443935Y-65604294D01*
X149443933Y-65604293D01*
X149233402Y-65547881D01*
X149233400Y-65547881D01*
X149228087Y-65546457D01*
X149000000Y-65526502D01*
X148771913Y-65546457D01*
X148766600Y-65547881D01*
X148766598Y-65547881D01*
X148556067Y-65604293D01*
X148556065Y-65604294D01*
X148550757Y-65605716D01*
X148545776Y-65608039D01*
X148545775Y-65608039D01*
X148348238Y-65700151D01*
X148348233Y-65700154D01*
X148343251Y-65702477D01*
X148238389Y-65775902D01*
X148160211Y-65830643D01*
X148160208Y-65830645D01*
X148155700Y-65833802D01*
X147993802Y-65995700D01*
X147862477Y-66183251D01*
X147860154Y-66188233D01*
X147860151Y-66188238D01*
X147852888Y-66203814D01*
X147765716Y-66390757D01*
X147764294Y-66396065D01*
X147764293Y-66396067D01*
X147707881Y-66606598D01*
X147706457Y-66611913D01*
X147686502Y-66840000D01*
X143763066Y-66840000D01*
X143735439Y-66793839D01*
X143555687Y-66569472D01*
X143347149Y-66371577D01*
X143113683Y-66203814D01*
X143091843Y-66192250D01*
X143066332Y-66178743D01*
X142859608Y-66069288D01*
X142589627Y-65970489D01*
X142308736Y-65909245D01*
X142277685Y-65906801D01*
X142085718Y-65891693D01*
X142085709Y-65891693D01*
X142083261Y-65891500D01*
X141927729Y-65891500D01*
X141925593Y-65891646D01*
X141925582Y-65891646D01*
X141717452Y-65905835D01*
X141717446Y-65905836D01*
X141713175Y-65906127D01*
X141708980Y-65906996D01*
X141708978Y-65906996D01*
X141572417Y-65935276D01*
X141431658Y-65964426D01*
X141160657Y-66060393D01*
X140905188Y-66192250D01*
X140901687Y-66194711D01*
X140901683Y-66194713D01*
X140891594Y-66201804D01*
X140669977Y-66357559D01*
X140459378Y-66553260D01*
X140277287Y-66775732D01*
X140127073Y-67020858D01*
X140125347Y-67024791D01*
X140125346Y-67024792D01*
X140067436Y-67156715D01*
X140011517Y-67284102D01*
X140010342Y-67288229D01*
X140010341Y-67288230D01*
X140008633Y-67294225D01*
X139932756Y-67560594D01*
X139892249Y-67845216D01*
X139892227Y-67849505D01*
X139892226Y-67849512D01*
X139890819Y-68118124D01*
X139890743Y-68132703D01*
X133000000Y-68132703D01*
X133000000Y-68102885D01*
X133642000Y-68102885D01*
X133646475Y-68118124D01*
X133647865Y-68119329D01*
X133655548Y-68121000D01*
X134727885Y-68121000D01*
X134743124Y-68116525D01*
X134744329Y-68115135D01*
X134746000Y-68107452D01*
X134746000Y-68102885D01*
X135254000Y-68102885D01*
X135258475Y-68118124D01*
X135259865Y-68119329D01*
X135267548Y-68121000D01*
X136339884Y-68121000D01*
X136355123Y-68116525D01*
X136356328Y-68115135D01*
X136357999Y-68107452D01*
X136357999Y-67480331D01*
X136357629Y-67473510D01*
X136352105Y-67422648D01*
X136348479Y-67407396D01*
X136303324Y-67286946D01*
X136294786Y-67271351D01*
X136218285Y-67169276D01*
X136205724Y-67156715D01*
X136103649Y-67080214D01*
X136088054Y-67071676D01*
X135967606Y-67026522D01*
X135952351Y-67022895D01*
X135901486Y-67017369D01*
X135894672Y-67017000D01*
X135272115Y-67017000D01*
X135256876Y-67021475D01*
X135255671Y-67022865D01*
X135254000Y-67030548D01*
X135254000Y-68102885D01*
X134746000Y-68102885D01*
X134746000Y-67035116D01*
X134741525Y-67019877D01*
X134740135Y-67018672D01*
X134732452Y-67017001D01*
X134105331Y-67017001D01*
X134098510Y-67017371D01*
X134047648Y-67022895D01*
X134032396Y-67026521D01*
X133911946Y-67071676D01*
X133896351Y-67080214D01*
X133794276Y-67156715D01*
X133781715Y-67169276D01*
X133705214Y-67271351D01*
X133696676Y-67286946D01*
X133651522Y-67407394D01*
X133647895Y-67422649D01*
X133642369Y-67473514D01*
X133642000Y-67480328D01*
X133642000Y-68102885D01*
X133000000Y-68102885D01*
X133000000Y-65126000D01*
X133020002Y-65057879D01*
X133073658Y-65011386D01*
X133126000Y-65000000D01*
X157874000Y-65000000D01*
X157942121Y-65020002D01*
G37*
G04 #@! TD.AperFunction*
M02*
