G04 #@! TF.GenerationSoftware,KiCad,Pcbnew,6.0.2+dfsg-1*
G04 #@! TF.CreationDate,2022-12-03T12:38:50-05:00*
G04 #@! TF.ProjectId,remote,72656d6f-7465-42e6-9b69-6361645f7063,rev?*
G04 #@! TF.SameCoordinates,Original*
G04 #@! TF.FileFunction,Legend,Top*
G04 #@! TF.FilePolarity,Positive*
%FSLAX46Y46*%
G04 Gerber Fmt 4.6, Leading zero omitted, Abs format (unit mm)*
G04 Created by KiCad (PCBNEW 6.0.2+dfsg-1) date 2022-12-03 12:38:50*
%MOMM*%
%LPD*%
G01*
G04 APERTURE LIST*
G04 Aperture macros list*
%AMRoundRect*
0 Rectangle with rounded corners*
0 $1 Rounding radius*
0 $2 $3 $4 $5 $6 $7 $8 $9 X,Y pos of 4 corners*
0 Add a 4 corners polygon primitive as box body*
4,1,4,$2,$3,$4,$5,$6,$7,$8,$9,$2,$3,0*
0 Add four circle primitives for the rounded corners*
1,1,$1+$1,$2,$3*
1,1,$1+$1,$4,$5*
1,1,$1+$1,$6,$7*
1,1,$1+$1,$8,$9*
0 Add four rect primitives between the rounded corners*
20,1,$1+$1,$2,$3,$4,$5,0*
20,1,$1+$1,$4,$5,$6,$7,0*
20,1,$1+$1,$6,$7,$8,$9,0*
20,1,$1+$1,$8,$9,$2,$3,0*%
G04 Aperture macros list end*
%ADD10C,0.150000*%
%ADD11C,0.120000*%
%ADD12C,3.200000*%
%ADD13C,2.000000*%
%ADD14R,1.700000X1.700000*%
%ADD15O,1.700000X1.700000*%
%ADD16C,1.600000*%
%ADD17O,1.600000X1.600000*%
%ADD18RoundRect,0.250000X-0.350000X-0.625000X0.350000X-0.625000X0.350000X0.625000X-0.350000X0.625000X0*%
%ADD19O,1.200000X1.750000*%
G04 APERTURE END LIST*
D10*
X141285714Y-81980714D02*
X141523809Y-82647380D01*
X141761904Y-81980714D01*
X142095238Y-81742619D02*
X142142857Y-81695000D01*
X142238095Y-81647380D01*
X142476190Y-81647380D01*
X142571428Y-81695000D01*
X142619047Y-81742619D01*
X142666666Y-81837857D01*
X142666666Y-81933095D01*
X142619047Y-82075952D01*
X142047619Y-82647380D01*
X142666666Y-82647380D01*
X137142857Y-83352619D02*
X137190476Y-83305000D01*
X137285714Y-83257380D01*
X137523809Y-83257380D01*
X137619047Y-83305000D01*
X137666666Y-83352619D01*
X137714285Y-83447857D01*
X137714285Y-83543095D01*
X137666666Y-83685952D01*
X137095238Y-84257380D01*
X137714285Y-84257380D01*
X138333333Y-83257380D02*
X138428571Y-83257380D01*
X138523809Y-83305000D01*
X138571428Y-83352619D01*
X138619047Y-83447857D01*
X138666666Y-83638333D01*
X138666666Y-83876428D01*
X138619047Y-84066904D01*
X138571428Y-84162142D01*
X138523809Y-84209761D01*
X138428571Y-84257380D01*
X138333333Y-84257380D01*
X138238095Y-84209761D01*
X138190476Y-84162142D01*
X138142857Y-84066904D01*
X138095238Y-83876428D01*
X138095238Y-83638333D01*
X138142857Y-83447857D01*
X138190476Y-83352619D01*
X138238095Y-83305000D01*
X138333333Y-83257380D01*
X139047619Y-83352619D02*
X139095238Y-83305000D01*
X139190476Y-83257380D01*
X139428571Y-83257380D01*
X139523809Y-83305000D01*
X139571428Y-83352619D01*
X139619047Y-83447857D01*
X139619047Y-83543095D01*
X139571428Y-83685952D01*
X139000000Y-84257380D01*
X139619047Y-84257380D01*
X140000000Y-83352619D02*
X140047619Y-83305000D01*
X140142857Y-83257380D01*
X140380952Y-83257380D01*
X140476190Y-83305000D01*
X140523809Y-83352619D01*
X140571428Y-83447857D01*
X140571428Y-83543095D01*
X140523809Y-83685952D01*
X139952380Y-84257380D01*
X140571428Y-84257380D01*
X141000000Y-83876428D02*
X141761904Y-83876428D01*
X142761904Y-84257380D02*
X142190476Y-84257380D01*
X142476190Y-84257380D02*
X142476190Y-83257380D01*
X142380952Y-83400238D01*
X142285714Y-83495476D01*
X142190476Y-83543095D01*
X143142857Y-83352619D02*
X143190476Y-83305000D01*
X143285714Y-83257380D01*
X143523809Y-83257380D01*
X143619047Y-83305000D01*
X143666666Y-83352619D01*
X143714285Y-83447857D01*
X143714285Y-83543095D01*
X143666666Y-83685952D01*
X143095238Y-84257380D01*
X143714285Y-84257380D01*
X144142857Y-83876428D02*
X144904761Y-83876428D01*
X145571428Y-83257380D02*
X145666666Y-83257380D01*
X145761904Y-83305000D01*
X145809523Y-83352619D01*
X145857142Y-83447857D01*
X145904761Y-83638333D01*
X145904761Y-83876428D01*
X145857142Y-84066904D01*
X145809523Y-84162142D01*
X145761904Y-84209761D01*
X145666666Y-84257380D01*
X145571428Y-84257380D01*
X145476190Y-84209761D01*
X145428571Y-84162142D01*
X145380952Y-84066904D01*
X145333333Y-83876428D01*
X145333333Y-83638333D01*
X145380952Y-83447857D01*
X145428571Y-83352619D01*
X145476190Y-83305000D01*
X145571428Y-83257380D01*
X146238095Y-83257380D02*
X146857142Y-83257380D01*
X146523809Y-83638333D01*
X146666666Y-83638333D01*
X146761904Y-83685952D01*
X146809523Y-83733571D01*
X146857142Y-83828809D01*
X146857142Y-84066904D01*
X146809523Y-84162142D01*
X146761904Y-84209761D01*
X146666666Y-84257380D01*
X146380952Y-84257380D01*
X146285714Y-84209761D01*
X146238095Y-84162142D01*
G04 #@! TO.C,SWSTOP1*
X155154761Y-91214285D02*
X155202380Y-91071428D01*
X155202380Y-90833333D01*
X155154761Y-90738095D01*
X155107142Y-90690476D01*
X155011904Y-90642857D01*
X154916666Y-90642857D01*
X154821428Y-90690476D01*
X154773809Y-90738095D01*
X154726190Y-90833333D01*
X154678571Y-91023809D01*
X154630952Y-91119047D01*
X154583333Y-91166666D01*
X154488095Y-91214285D01*
X154392857Y-91214285D01*
X154297619Y-91166666D01*
X154250000Y-91119047D01*
X154202380Y-91023809D01*
X154202380Y-90785714D01*
X154250000Y-90642857D01*
X154202380Y-90309523D02*
X155202380Y-90071428D01*
X154488095Y-89880952D01*
X155202380Y-89690476D01*
X154202380Y-89452380D01*
X155154761Y-89119047D02*
X155202380Y-88976190D01*
X155202380Y-88738095D01*
X155154761Y-88642857D01*
X155107142Y-88595238D01*
X155011904Y-88547619D01*
X154916666Y-88547619D01*
X154821428Y-88595238D01*
X154773809Y-88642857D01*
X154726190Y-88738095D01*
X154678571Y-88928571D01*
X154630952Y-89023809D01*
X154583333Y-89071428D01*
X154488095Y-89119047D01*
X154392857Y-89119047D01*
X154297619Y-89071428D01*
X154250000Y-89023809D01*
X154202380Y-88928571D01*
X154202380Y-88690476D01*
X154250000Y-88547619D01*
X154202380Y-88261904D02*
X154202380Y-87690476D01*
X155202380Y-87976190D02*
X154202380Y-87976190D01*
X154202380Y-87166666D02*
X154202380Y-86976190D01*
X154250000Y-86880952D01*
X154345238Y-86785714D01*
X154535714Y-86738095D01*
X154869047Y-86738095D01*
X155059523Y-86785714D01*
X155154761Y-86880952D01*
X155202380Y-86976190D01*
X155202380Y-87166666D01*
X155154761Y-87261904D01*
X155059523Y-87357142D01*
X154869047Y-87404761D01*
X154535714Y-87404761D01*
X154345238Y-87357142D01*
X154250000Y-87261904D01*
X154202380Y-87166666D01*
X155202380Y-86309523D02*
X154202380Y-86309523D01*
X154202380Y-85928571D01*
X154250000Y-85833333D01*
X154297619Y-85785714D01*
X154392857Y-85738095D01*
X154535714Y-85738095D01*
X154630952Y-85785714D01*
X154678571Y-85833333D01*
X154726190Y-85928571D01*
X154726190Y-86309523D01*
X155202380Y-84785714D02*
X155202380Y-85357142D01*
X155202380Y-85071428D02*
X154202380Y-85071428D01*
X154345238Y-85166666D01*
X154440476Y-85261904D01*
X154488095Y-85357142D01*
G04 #@! TO.C,SWSTART1*
X155154761Y-72500000D02*
X155202380Y-72357142D01*
X155202380Y-72119047D01*
X155154761Y-72023809D01*
X155107142Y-71976190D01*
X155011904Y-71928571D01*
X154916666Y-71928571D01*
X154821428Y-71976190D01*
X154773809Y-72023809D01*
X154726190Y-72119047D01*
X154678571Y-72309523D01*
X154630952Y-72404761D01*
X154583333Y-72452380D01*
X154488095Y-72500000D01*
X154392857Y-72500000D01*
X154297619Y-72452380D01*
X154250000Y-72404761D01*
X154202380Y-72309523D01*
X154202380Y-72071428D01*
X154250000Y-71928571D01*
X154202380Y-71595238D02*
X155202380Y-71357142D01*
X154488095Y-71166666D01*
X155202380Y-70976190D01*
X154202380Y-70738095D01*
X155154761Y-70404761D02*
X155202380Y-70261904D01*
X155202380Y-70023809D01*
X155154761Y-69928571D01*
X155107142Y-69880952D01*
X155011904Y-69833333D01*
X154916666Y-69833333D01*
X154821428Y-69880952D01*
X154773809Y-69928571D01*
X154726190Y-70023809D01*
X154678571Y-70214285D01*
X154630952Y-70309523D01*
X154583333Y-70357142D01*
X154488095Y-70404761D01*
X154392857Y-70404761D01*
X154297619Y-70357142D01*
X154250000Y-70309523D01*
X154202380Y-70214285D01*
X154202380Y-69976190D01*
X154250000Y-69833333D01*
X154202380Y-69547619D02*
X154202380Y-68976190D01*
X155202380Y-69261904D02*
X154202380Y-69261904D01*
X154916666Y-68690476D02*
X154916666Y-68214285D01*
X155202380Y-68785714D02*
X154202380Y-68452380D01*
X155202380Y-68119047D01*
X155202380Y-67214285D02*
X154726190Y-67547619D01*
X155202380Y-67785714D02*
X154202380Y-67785714D01*
X154202380Y-67404761D01*
X154250000Y-67309523D01*
X154297619Y-67261904D01*
X154392857Y-67214285D01*
X154535714Y-67214285D01*
X154630952Y-67261904D01*
X154678571Y-67309523D01*
X154726190Y-67404761D01*
X154726190Y-67785714D01*
X154202380Y-66928571D02*
X154202380Y-66357142D01*
X155202380Y-66642857D02*
X154202380Y-66642857D01*
X155202380Y-65500000D02*
X155202380Y-66071428D01*
X155202380Y-65785714D02*
X154202380Y-65785714D01*
X154345238Y-65880952D01*
X154440476Y-65976190D01*
X154488095Y-66071428D01*
G04 #@! TO.C,J1*
X134666666Y-65497380D02*
X134666666Y-66211666D01*
X134619047Y-66354523D01*
X134523809Y-66449761D01*
X134380952Y-66497380D01*
X134285714Y-66497380D01*
X135666666Y-66497380D02*
X135095238Y-66497380D01*
X135380952Y-66497380D02*
X135380952Y-65497380D01*
X135285714Y-65640238D01*
X135190476Y-65735476D01*
X135095238Y-65783095D01*
G04 #@! TO.C,JANT1*
X133333333Y-87122380D02*
X133333333Y-87836666D01*
X133285714Y-87979523D01*
X133190476Y-88074761D01*
X133047619Y-88122380D01*
X132952380Y-88122380D01*
X133761904Y-87836666D02*
X134238095Y-87836666D01*
X133666666Y-88122380D02*
X134000000Y-87122380D01*
X134333333Y-88122380D01*
X134666666Y-88122380D02*
X134666666Y-87122380D01*
X135238095Y-88122380D01*
X135238095Y-87122380D01*
X135571428Y-87122380D02*
X136142857Y-87122380D01*
X135857142Y-88122380D02*
X135857142Y-87122380D01*
X137000000Y-88122380D02*
X136428571Y-88122380D01*
X136714285Y-88122380D02*
X136714285Y-87122380D01*
X136619047Y-87265238D01*
X136523809Y-87360476D01*
X136428571Y-87408095D01*
G04 #@! TO.C,R1*
X147082380Y-72086666D02*
X146606190Y-72420000D01*
X147082380Y-72658095D02*
X146082380Y-72658095D01*
X146082380Y-72277142D01*
X146130000Y-72181904D01*
X146177619Y-72134285D01*
X146272857Y-72086666D01*
X146415714Y-72086666D01*
X146510952Y-72134285D01*
X146558571Y-72181904D01*
X146606190Y-72277142D01*
X146606190Y-72658095D01*
X147082380Y-71134285D02*
X147082380Y-71705714D01*
X147082380Y-71420000D02*
X146082380Y-71420000D01*
X146225238Y-71515238D01*
X146320476Y-71610476D01*
X146368095Y-71705714D01*
X151822380Y-73086666D02*
X151822380Y-73658095D01*
X151822380Y-73372380D02*
X150822380Y-73372380D01*
X150965238Y-73467619D01*
X151060476Y-73562857D01*
X151108095Y-73658095D01*
X150822380Y-72467619D02*
X150822380Y-72372380D01*
X150870000Y-72277142D01*
X150917619Y-72229523D01*
X151012857Y-72181904D01*
X151203333Y-72134285D01*
X151441428Y-72134285D01*
X151631904Y-72181904D01*
X151727142Y-72229523D01*
X151774761Y-72277142D01*
X151822380Y-72372380D01*
X151822380Y-72467619D01*
X151774761Y-72562857D01*
X151727142Y-72610476D01*
X151631904Y-72658095D01*
X151441428Y-72705714D01*
X151203333Y-72705714D01*
X151012857Y-72658095D01*
X150917619Y-72610476D01*
X150870000Y-72562857D01*
X150822380Y-72467619D01*
X151822380Y-71705714D02*
X150822380Y-71705714D01*
X151441428Y-71610476D02*
X151822380Y-71324761D01*
X151155714Y-71324761D02*
X151536666Y-71705714D01*
X151822380Y-70943809D02*
X151822380Y-70705714D01*
X151631904Y-70705714D01*
X151584285Y-70800952D01*
X151489047Y-70896190D01*
X151346190Y-70943809D01*
X151108095Y-70943809D01*
X150965238Y-70896190D01*
X150870000Y-70800952D01*
X150822380Y-70658095D01*
X150822380Y-70467619D01*
X150870000Y-70324761D01*
X150965238Y-70229523D01*
X151108095Y-70181904D01*
X151346190Y-70181904D01*
X151489047Y-70229523D01*
X151584285Y-70324761D01*
X151631904Y-70420000D01*
X151822380Y-70420000D01*
X151822380Y-70181904D01*
G04 #@! TO.C,R2*
X147082380Y-87166666D02*
X146606190Y-87500000D01*
X147082380Y-87738095D02*
X146082380Y-87738095D01*
X146082380Y-87357142D01*
X146130000Y-87261904D01*
X146177619Y-87214285D01*
X146272857Y-87166666D01*
X146415714Y-87166666D01*
X146510952Y-87214285D01*
X146558571Y-87261904D01*
X146606190Y-87357142D01*
X146606190Y-87738095D01*
X146177619Y-86785714D02*
X146130000Y-86738095D01*
X146082380Y-86642857D01*
X146082380Y-86404761D01*
X146130000Y-86309523D01*
X146177619Y-86261904D01*
X146272857Y-86214285D01*
X146368095Y-86214285D01*
X146510952Y-86261904D01*
X147082380Y-86833333D01*
X147082380Y-86214285D01*
X151822380Y-86166666D02*
X151822380Y-86738095D01*
X151822380Y-86452380D02*
X150822380Y-86452380D01*
X150965238Y-86547619D01*
X151060476Y-86642857D01*
X151108095Y-86738095D01*
X150822380Y-85547619D02*
X150822380Y-85452380D01*
X150870000Y-85357142D01*
X150917619Y-85309523D01*
X151012857Y-85261904D01*
X151203333Y-85214285D01*
X151441428Y-85214285D01*
X151631904Y-85261904D01*
X151727142Y-85309523D01*
X151774761Y-85357142D01*
X151822380Y-85452380D01*
X151822380Y-85547619D01*
X151774761Y-85642857D01*
X151727142Y-85690476D01*
X151631904Y-85738095D01*
X151441428Y-85785714D01*
X151203333Y-85785714D01*
X151012857Y-85738095D01*
X150917619Y-85690476D01*
X150870000Y-85642857D01*
X150822380Y-85547619D01*
X151822380Y-84785714D02*
X150822380Y-84785714D01*
X151441428Y-84690476D02*
X151822380Y-84404761D01*
X151155714Y-84404761D02*
X151536666Y-84785714D01*
X151822380Y-84023809D02*
X151822380Y-83785714D01*
X151631904Y-83785714D01*
X151584285Y-83880952D01*
X151489047Y-83976190D01*
X151346190Y-84023809D01*
X151108095Y-84023809D01*
X150965238Y-83976190D01*
X150870000Y-83880952D01*
X150822380Y-83738095D01*
X150822380Y-83547619D01*
X150870000Y-83404761D01*
X150965238Y-83309523D01*
X151108095Y-83261904D01*
X151346190Y-83261904D01*
X151489047Y-83309523D01*
X151584285Y-83404761D01*
X151631904Y-83500000D01*
X151822380Y-83500000D01*
X151822380Y-83261904D01*
G04 #@! TO.C,JPOWER1*
X139119047Y-74552380D02*
X139119047Y-75266666D01*
X139071428Y-75409523D01*
X138976190Y-75504761D01*
X138833333Y-75552380D01*
X138738095Y-75552380D01*
X139595238Y-75552380D02*
X139595238Y-74552380D01*
X139976190Y-74552380D01*
X140071428Y-74600000D01*
X140119047Y-74647619D01*
X140166666Y-74742857D01*
X140166666Y-74885714D01*
X140119047Y-74980952D01*
X140071428Y-75028571D01*
X139976190Y-75076190D01*
X139595238Y-75076190D01*
X140785714Y-74552380D02*
X140976190Y-74552380D01*
X141071428Y-74600000D01*
X141166666Y-74695238D01*
X141214285Y-74885714D01*
X141214285Y-75219047D01*
X141166666Y-75409523D01*
X141071428Y-75504761D01*
X140976190Y-75552380D01*
X140785714Y-75552380D01*
X140690476Y-75504761D01*
X140595238Y-75409523D01*
X140547619Y-75219047D01*
X140547619Y-74885714D01*
X140595238Y-74695238D01*
X140690476Y-74600000D01*
X140785714Y-74552380D01*
X141547619Y-74552380D02*
X141785714Y-75552380D01*
X141976190Y-74838095D01*
X142166666Y-75552380D01*
X142404761Y-74552380D01*
X142785714Y-75028571D02*
X143119047Y-75028571D01*
X143261904Y-75552380D02*
X142785714Y-75552380D01*
X142785714Y-74552380D01*
X143261904Y-74552380D01*
X144261904Y-75552380D02*
X143928571Y-75076190D01*
X143690476Y-75552380D02*
X143690476Y-74552380D01*
X144071428Y-74552380D01*
X144166666Y-74600000D01*
X144214285Y-74647619D01*
X144261904Y-74742857D01*
X144261904Y-74885714D01*
X144214285Y-74980952D01*
X144166666Y-75028571D01*
X144071428Y-75076190D01*
X143690476Y-75076190D01*
X145214285Y-75552380D02*
X144642857Y-75552380D01*
X144928571Y-75552380D02*
X144928571Y-74552380D01*
X144833333Y-74695238D01*
X144738095Y-74790476D01*
X144642857Y-74838095D01*
D11*
G04 #@! TO.C,SWSTOP1*
X159750000Y-84500000D02*
X158250000Y-84500000D01*
X155750000Y-85750000D02*
X155750000Y-90250000D01*
X158250000Y-91500000D02*
X159750000Y-91500000D01*
X162250000Y-90250000D02*
X162250000Y-85750000D01*
G04 #@! TO.C,SWSTART1*
X159750000Y-65500000D02*
X158250000Y-65500000D01*
X155750000Y-66750000D02*
X155750000Y-71250000D01*
X158250000Y-72500000D02*
X159750000Y-72500000D01*
X162250000Y-71250000D02*
X162250000Y-66750000D01*
G04 #@! TO.C,J1*
X133670000Y-68375000D02*
X133670000Y-67045000D01*
X136330000Y-69645000D02*
X136330000Y-84945000D01*
X133670000Y-69645000D02*
X133670000Y-84945000D01*
X133670000Y-69645000D02*
X136330000Y-69645000D01*
X133670000Y-84945000D02*
X136330000Y-84945000D01*
X133670000Y-67045000D02*
X135000000Y-67045000D01*
G04 #@! TO.C,JANT1*
X133670000Y-91270000D02*
X136330000Y-91270000D01*
X136330000Y-91270000D02*
X136330000Y-91330000D01*
X133670000Y-91330000D02*
X136330000Y-91330000D01*
X133670000Y-90000000D02*
X133670000Y-88670000D01*
X133670000Y-88670000D02*
X135000000Y-88670000D01*
X133670000Y-91270000D02*
X133670000Y-91330000D01*
G04 #@! TO.C,R1*
X149000000Y-75960000D02*
X149000000Y-75190000D01*
X147630000Y-68650000D02*
X147630000Y-75190000D01*
X150370000Y-75190000D02*
X150370000Y-68650000D01*
X147630000Y-75190000D02*
X150370000Y-75190000D01*
X150370000Y-68650000D02*
X147630000Y-68650000D01*
X149000000Y-67880000D02*
X149000000Y-68650000D01*
G04 #@! TO.C,R2*
X147630000Y-88270000D02*
X150370000Y-88270000D01*
X147630000Y-81730000D02*
X147630000Y-88270000D01*
X150370000Y-81730000D02*
X147630000Y-81730000D01*
X149000000Y-89040000D02*
X149000000Y-88270000D01*
X149000000Y-80960000D02*
X149000000Y-81730000D01*
X150370000Y-88270000D02*
X150370000Y-81730000D01*
G04 #@! TO.C,JPOWER1*
X141900000Y-79800000D02*
X142100000Y-79800000D01*
X141500000Y-76800000D02*
X139550000Y-76800000D01*
X142000000Y-80300000D02*
X142000000Y-79800000D01*
X139550000Y-76800000D02*
X139550000Y-80300000D01*
X140700000Y-75990000D02*
X140400000Y-75990000D01*
X144450000Y-80300000D02*
X144450000Y-76800000D01*
X145060000Y-78800000D02*
X144450000Y-78800000D01*
X138940000Y-76190000D02*
X138940000Y-80910000D01*
X145060000Y-77500000D02*
X144450000Y-77500000D01*
X139890000Y-75890000D02*
X138640000Y-75890000D01*
X139550000Y-80300000D02*
X144450000Y-80300000D01*
X141500000Y-76190000D02*
X141500000Y-76800000D01*
X140700000Y-76190000D02*
X140700000Y-75990000D01*
X145060000Y-76190000D02*
X138940000Y-76190000D01*
X142100000Y-79800000D02*
X142100000Y-80300000D01*
X141900000Y-80300000D02*
X141900000Y-79800000D01*
X140700000Y-76090000D02*
X140400000Y-76090000D01*
X138640000Y-75890000D02*
X138640000Y-77140000D01*
X138940000Y-78800000D02*
X139550000Y-78800000D01*
X138940000Y-80910000D02*
X145060000Y-80910000D01*
X140400000Y-75990000D02*
X140400000Y-76190000D01*
X142500000Y-76800000D02*
X142500000Y-76190000D01*
X144450000Y-76800000D02*
X142500000Y-76800000D01*
X145060000Y-80910000D02*
X145060000Y-76190000D01*
X138940000Y-77500000D02*
X139550000Y-77500000D01*
G04 #@! TD*
%LPC*%
D12*
G04 #@! TO.C,REF\u002A\u002A*
X159000000Y-78000000D03*
G04 #@! TD*
D13*
G04 #@! TO.C,SWSTOP1*
X156750000Y-84750000D03*
X156750000Y-91250000D03*
X161250000Y-84750000D03*
X161250000Y-91250000D03*
G04 #@! TD*
G04 #@! TO.C,SWSTART1*
X156750000Y-65750000D03*
X156750000Y-72250000D03*
X161250000Y-65750000D03*
X161250000Y-72250000D03*
G04 #@! TD*
D12*
G04 #@! TO.C,REF\u002A\u002A*
X142000000Y-68000000D03*
G04 #@! TD*
D14*
G04 #@! TO.C,J1*
X135000000Y-68375000D03*
D15*
X135000000Y-70915000D03*
X135000000Y-73455000D03*
X135000000Y-75995000D03*
X135000000Y-78535000D03*
X135000000Y-81075000D03*
X135000000Y-83615000D03*
G04 #@! TD*
D14*
G04 #@! TO.C,JANT1*
X135000000Y-90000000D03*
G04 #@! TD*
D16*
G04 #@! TO.C,R1*
X149000000Y-77000000D03*
D17*
X149000000Y-66840000D03*
G04 #@! TD*
D16*
G04 #@! TO.C,R2*
X149000000Y-90080000D03*
D17*
X149000000Y-79920000D03*
G04 #@! TD*
D18*
G04 #@! TO.C,JPOWER1*
X141000000Y-78000000D03*
D19*
X143000000Y-78000000D03*
G04 #@! TD*
D12*
G04 #@! TO.C,REF\u002A\u002A*
X142000000Y-88000000D03*
G04 #@! TD*
M02*
