%FSLAX45Y45*%
G04 Gerber Fmt 4.5, Leading zero omitted, Abs format (unit mm)*
G04 Created by KiCad (PCBNEW 6.0.2+dfsg-1) date 2022-12-03 12:38:54*
%MOMM*%
%LPD*%
G01*
G04 APERTURE LIST*
%TA.AperFunction,Profile*%
%ADD10C,0.100000*%
%TD*%
%ADD11C,0.200000*%
%ADD12C,0.320000*%
G04 APERTURE END LIST*
D10*
X13200000Y-6300000D02*
X16400000Y-6300000D01*
X16400000Y-6300000D02*
X16400000Y-9400000D01*
X16400000Y-9400000D02*
X13200000Y-9400000D01*
X13200000Y-9400000D02*
X13200000Y-6300000D01*
D11*
D12*
X14040000Y-6640000D02*
X14360000Y-6960000D01*
X14360000Y-6640000D02*
X14040000Y-6960000D01*
X14040000Y-8640000D02*
X14360000Y-8960000D01*
X14360000Y-8640000D02*
X14040000Y-8960000D01*
X15740000Y-7640000D02*
X16060000Y-7960000D01*
X16060000Y-7640000D02*
X15740000Y-7960000D01*
D11*
X13452619Y-9715476D02*
X13452619Y-9515476D01*
X13500238Y-9515476D01*
X13528809Y-9525000D01*
X13547857Y-9544048D01*
X13557381Y-9563095D01*
X13566905Y-9601190D01*
X13566905Y-9629762D01*
X13557381Y-9667857D01*
X13547857Y-9686905D01*
X13528809Y-9705952D01*
X13500238Y-9715476D01*
X13452619Y-9715476D01*
X13652619Y-9715476D02*
X13652619Y-9582143D01*
X13652619Y-9620238D02*
X13662143Y-9601190D01*
X13671667Y-9591667D01*
X13690714Y-9582143D01*
X13709762Y-9582143D01*
X13776428Y-9715476D02*
X13776428Y-9582143D01*
X13776428Y-9515476D02*
X13766905Y-9525000D01*
X13776428Y-9534524D01*
X13785952Y-9525000D01*
X13776428Y-9515476D01*
X13776428Y-9534524D01*
X13900238Y-9715476D02*
X13881190Y-9705952D01*
X13871667Y-9686905D01*
X13871667Y-9515476D01*
X14005000Y-9715476D02*
X13985952Y-9705952D01*
X13976428Y-9686905D01*
X13976428Y-9515476D01*
X14233571Y-9715476D02*
X14233571Y-9515476D01*
X14300238Y-9658333D01*
X14366905Y-9515476D01*
X14366905Y-9715476D01*
X14547857Y-9715476D02*
X14547857Y-9610714D01*
X14538333Y-9591667D01*
X14519286Y-9582143D01*
X14481190Y-9582143D01*
X14462143Y-9591667D01*
X14547857Y-9705952D02*
X14528809Y-9715476D01*
X14481190Y-9715476D01*
X14462143Y-9705952D01*
X14452619Y-9686905D01*
X14452619Y-9667857D01*
X14462143Y-9648810D01*
X14481190Y-9639286D01*
X14528809Y-9639286D01*
X14547857Y-9629762D01*
X14643095Y-9582143D02*
X14643095Y-9782143D01*
X14643095Y-9591667D02*
X14662143Y-9582143D01*
X14700238Y-9582143D01*
X14719286Y-9591667D01*
X14728809Y-9601190D01*
X14738333Y-9620238D01*
X14738333Y-9677381D01*
X14728809Y-9696429D01*
X14719286Y-9705952D01*
X14700238Y-9715476D01*
X14662143Y-9715476D01*
X14643095Y-9705952D01*
X14824048Y-9696429D02*
X14833571Y-9705952D01*
X14824048Y-9715476D01*
X14814524Y-9705952D01*
X14824048Y-9696429D01*
X14824048Y-9715476D01*
X14824048Y-9591667D02*
X14833571Y-9601190D01*
X14824048Y-9610714D01*
X14814524Y-9601190D01*
X14824048Y-9591667D01*
X14824048Y-9610714D01*
X12995000Y-9945000D02*
X13195000Y-10145000D01*
X13195000Y-9945000D02*
X12995000Y-10145000D01*
X13433571Y-9935476D02*
X13557381Y-9935476D01*
X13490714Y-10011667D01*
X13519286Y-10011667D01*
X13538333Y-10021190D01*
X13547857Y-10030714D01*
X13557381Y-10049762D01*
X13557381Y-10097381D01*
X13547857Y-10116429D01*
X13538333Y-10125952D01*
X13519286Y-10135476D01*
X13462143Y-10135476D01*
X13443095Y-10125952D01*
X13433571Y-10116429D01*
X13643095Y-10116429D02*
X13652619Y-10125952D01*
X13643095Y-10135476D01*
X13633571Y-10125952D01*
X13643095Y-10116429D01*
X13643095Y-10135476D01*
X13728809Y-9954524D02*
X13738333Y-9945000D01*
X13757381Y-9935476D01*
X13805000Y-9935476D01*
X13824048Y-9945000D01*
X13833571Y-9954524D01*
X13843095Y-9973571D01*
X13843095Y-9992619D01*
X13833571Y-10021190D01*
X13719286Y-10135476D01*
X13843095Y-10135476D01*
X13966905Y-9935476D02*
X13985952Y-9935476D01*
X14005000Y-9945000D01*
X14014524Y-9954524D01*
X14024048Y-9973571D01*
X14033571Y-10011667D01*
X14033571Y-10059286D01*
X14024048Y-10097381D01*
X14014524Y-10116429D01*
X14005000Y-10125952D01*
X13985952Y-10135476D01*
X13966905Y-10135476D01*
X13947857Y-10125952D01*
X13938333Y-10116429D01*
X13928809Y-10097381D01*
X13919286Y-10059286D01*
X13919286Y-10011667D01*
X13928809Y-9973571D01*
X13938333Y-9954524D01*
X13947857Y-9945000D01*
X13966905Y-9935476D01*
X14157381Y-9935476D02*
X14176428Y-9935476D01*
X14195476Y-9945000D01*
X14205000Y-9954524D01*
X14214524Y-9973571D01*
X14224048Y-10011667D01*
X14224048Y-10059286D01*
X14214524Y-10097381D01*
X14205000Y-10116429D01*
X14195476Y-10125952D01*
X14176428Y-10135476D01*
X14157381Y-10135476D01*
X14138333Y-10125952D01*
X14128809Y-10116429D01*
X14119286Y-10097381D01*
X14109762Y-10059286D01*
X14109762Y-10011667D01*
X14119286Y-9973571D01*
X14128809Y-9954524D01*
X14138333Y-9945000D01*
X14157381Y-9935476D01*
X14309762Y-10135476D02*
X14309762Y-10002143D01*
X14309762Y-10021190D02*
X14319286Y-10011667D01*
X14338333Y-10002143D01*
X14366905Y-10002143D01*
X14385952Y-10011667D01*
X14395476Y-10030714D01*
X14395476Y-10135476D01*
X14395476Y-10030714D02*
X14405000Y-10011667D01*
X14424048Y-10002143D01*
X14452619Y-10002143D01*
X14471667Y-10011667D01*
X14481190Y-10030714D01*
X14481190Y-10135476D01*
X14576428Y-10135476D02*
X14576428Y-10002143D01*
X14576428Y-10021190D02*
X14585952Y-10011667D01*
X14605000Y-10002143D01*
X14633571Y-10002143D01*
X14652619Y-10011667D01*
X14662143Y-10030714D01*
X14662143Y-10135476D01*
X14662143Y-10030714D02*
X14671667Y-10011667D01*
X14690714Y-10002143D01*
X14719286Y-10002143D01*
X14738333Y-10011667D01*
X14747857Y-10030714D01*
X14747857Y-10135476D01*
X15138333Y-9925952D02*
X14966905Y-10183095D01*
X15395476Y-9935476D02*
X15414524Y-9935476D01*
X15433571Y-9945000D01*
X15443095Y-9954524D01*
X15452619Y-9973571D01*
X15462143Y-10011667D01*
X15462143Y-10059286D01*
X15452619Y-10097381D01*
X15443095Y-10116429D01*
X15433571Y-10125952D01*
X15414524Y-10135476D01*
X15395476Y-10135476D01*
X15376428Y-10125952D01*
X15366905Y-10116429D01*
X15357381Y-10097381D01*
X15347857Y-10059286D01*
X15347857Y-10011667D01*
X15357381Y-9973571D01*
X15366905Y-9954524D01*
X15376428Y-9945000D01*
X15395476Y-9935476D01*
X15547857Y-10116429D02*
X15557381Y-10125952D01*
X15547857Y-10135476D01*
X15538333Y-10125952D01*
X15547857Y-10116429D01*
X15547857Y-10135476D01*
X15747857Y-10135476D02*
X15633571Y-10135476D01*
X15690714Y-10135476D02*
X15690714Y-9935476D01*
X15671667Y-9964048D01*
X15652619Y-9983095D01*
X15633571Y-9992619D01*
X15824048Y-9954524D02*
X15833571Y-9945000D01*
X15852619Y-9935476D01*
X15900238Y-9935476D01*
X15919286Y-9945000D01*
X15928809Y-9954524D01*
X15938333Y-9973571D01*
X15938333Y-9992619D01*
X15928809Y-10021190D01*
X15814524Y-10135476D01*
X15938333Y-10135476D01*
X16109762Y-9935476D02*
X16071667Y-9935476D01*
X16052619Y-9945000D01*
X16043095Y-9954524D01*
X16024048Y-9983095D01*
X16014524Y-10021190D01*
X16014524Y-10097381D01*
X16024048Y-10116429D01*
X16033571Y-10125952D01*
X16052619Y-10135476D01*
X16090714Y-10135476D01*
X16109762Y-10125952D01*
X16119286Y-10116429D01*
X16128809Y-10097381D01*
X16128809Y-10049762D01*
X16119286Y-10030714D01*
X16109762Y-10021190D01*
X16090714Y-10011667D01*
X16052619Y-10011667D01*
X16033571Y-10021190D01*
X16024048Y-10030714D01*
X16014524Y-10049762D01*
X16252619Y-9935476D02*
X16271667Y-9935476D01*
X16290714Y-9945000D01*
X16300238Y-9954524D01*
X16309762Y-9973571D01*
X16319286Y-10011667D01*
X16319286Y-10059286D01*
X16309762Y-10097381D01*
X16300238Y-10116429D01*
X16290714Y-10125952D01*
X16271667Y-10135476D01*
X16252619Y-10135476D01*
X16233571Y-10125952D01*
X16224048Y-10116429D01*
X16214524Y-10097381D01*
X16205000Y-10059286D01*
X16205000Y-10011667D01*
X16214524Y-9973571D01*
X16224048Y-9954524D01*
X16233571Y-9945000D01*
X16252619Y-9935476D01*
X16395476Y-9935476D02*
X16395476Y-9973571D01*
X16471667Y-9935476D02*
X16471667Y-9973571D01*
X16766905Y-10211667D02*
X16757381Y-10202143D01*
X16738333Y-10173571D01*
X16728809Y-10154524D01*
X16719286Y-10125952D01*
X16709762Y-10078333D01*
X16709762Y-10040238D01*
X16719286Y-9992619D01*
X16728809Y-9964048D01*
X16738333Y-9945000D01*
X16757381Y-9916429D01*
X16766905Y-9906905D01*
X16824048Y-9935476D02*
X16947857Y-9935476D01*
X16881190Y-10011667D01*
X16909762Y-10011667D01*
X16928810Y-10021190D01*
X16938333Y-10030714D01*
X16947857Y-10049762D01*
X16947857Y-10097381D01*
X16938333Y-10116429D01*
X16928810Y-10125952D01*
X16909762Y-10135476D01*
X16852619Y-10135476D01*
X16833571Y-10125952D01*
X16824048Y-10116429D01*
X17185952Y-10135476D02*
X17185952Y-9935476D01*
X17271667Y-10135476D02*
X17271667Y-10030714D01*
X17262143Y-10011667D01*
X17243095Y-10002143D01*
X17214524Y-10002143D01*
X17195476Y-10011667D01*
X17185952Y-10021190D01*
X17395476Y-10135476D02*
X17376429Y-10125952D01*
X17366905Y-10116429D01*
X17357381Y-10097381D01*
X17357381Y-10040238D01*
X17366905Y-10021190D01*
X17376429Y-10011667D01*
X17395476Y-10002143D01*
X17424048Y-10002143D01*
X17443095Y-10011667D01*
X17452619Y-10021190D01*
X17462143Y-10040238D01*
X17462143Y-10097381D01*
X17452619Y-10116429D01*
X17443095Y-10125952D01*
X17424048Y-10135476D01*
X17395476Y-10135476D01*
X17576429Y-10135476D02*
X17557381Y-10125952D01*
X17547857Y-10106905D01*
X17547857Y-9935476D01*
X17728810Y-10125952D02*
X17709762Y-10135476D01*
X17671667Y-10135476D01*
X17652619Y-10125952D01*
X17643095Y-10106905D01*
X17643095Y-10030714D01*
X17652619Y-10011667D01*
X17671667Y-10002143D01*
X17709762Y-10002143D01*
X17728810Y-10011667D01*
X17738333Y-10030714D01*
X17738333Y-10049762D01*
X17643095Y-10068810D01*
X17814524Y-10125952D02*
X17833571Y-10135476D01*
X17871667Y-10135476D01*
X17890714Y-10125952D01*
X17900238Y-10106905D01*
X17900238Y-10097381D01*
X17890714Y-10078333D01*
X17871667Y-10068810D01*
X17843095Y-10068810D01*
X17824048Y-10059286D01*
X17814524Y-10040238D01*
X17814524Y-10030714D01*
X17824048Y-10011667D01*
X17843095Y-10002143D01*
X17871667Y-10002143D01*
X17890714Y-10011667D01*
X17966905Y-10211667D02*
X17976429Y-10202143D01*
X17995476Y-10173571D01*
X18005000Y-10154524D01*
X18014524Y-10125952D01*
X18024048Y-10078333D01*
X18024048Y-10040238D01*
X18014524Y-9992619D01*
X18005000Y-9964048D01*
X17995476Y-9945000D01*
X17976429Y-9916429D01*
X17966905Y-9906905D01*
X18328810Y-10211667D02*
X18319286Y-10202143D01*
X18300238Y-10173571D01*
X18290714Y-10154524D01*
X18281190Y-10125952D01*
X18271667Y-10078333D01*
X18271667Y-10040238D01*
X18281190Y-9992619D01*
X18290714Y-9964048D01*
X18300238Y-9945000D01*
X18319286Y-9916429D01*
X18328810Y-9906905D01*
X18405000Y-10002143D02*
X18405000Y-10135476D01*
X18405000Y-10021190D02*
X18414524Y-10011667D01*
X18433571Y-10002143D01*
X18462143Y-10002143D01*
X18481190Y-10011667D01*
X18490714Y-10030714D01*
X18490714Y-10135476D01*
X18614524Y-10135476D02*
X18595476Y-10125952D01*
X18585952Y-10116429D01*
X18576429Y-10097381D01*
X18576429Y-10040238D01*
X18585952Y-10021190D01*
X18595476Y-10011667D01*
X18614524Y-10002143D01*
X18643095Y-10002143D01*
X18662143Y-10011667D01*
X18671667Y-10021190D01*
X18681190Y-10040238D01*
X18681190Y-10097381D01*
X18671667Y-10116429D01*
X18662143Y-10125952D01*
X18643095Y-10135476D01*
X18614524Y-10135476D01*
X18738333Y-10002143D02*
X18814524Y-10002143D01*
X18766905Y-9935476D02*
X18766905Y-10106905D01*
X18776429Y-10125952D01*
X18795476Y-10135476D01*
X18814524Y-10135476D01*
X19033571Y-10002143D02*
X19033571Y-10202143D01*
X19033571Y-10011667D02*
X19052619Y-10002143D01*
X19090714Y-10002143D01*
X19109762Y-10011667D01*
X19119286Y-10021190D01*
X19128810Y-10040238D01*
X19128810Y-10097381D01*
X19119286Y-10116429D01*
X19109762Y-10125952D01*
X19090714Y-10135476D01*
X19052619Y-10135476D01*
X19033571Y-10125952D01*
X19243095Y-10135476D02*
X19224048Y-10125952D01*
X19214524Y-10106905D01*
X19214524Y-9935476D01*
X19405000Y-10135476D02*
X19405000Y-10030714D01*
X19395476Y-10011667D01*
X19376429Y-10002143D01*
X19338333Y-10002143D01*
X19319286Y-10011667D01*
X19405000Y-10125952D02*
X19385952Y-10135476D01*
X19338333Y-10135476D01*
X19319286Y-10125952D01*
X19309762Y-10106905D01*
X19309762Y-10087857D01*
X19319286Y-10068810D01*
X19338333Y-10059286D01*
X19385952Y-10059286D01*
X19405000Y-10049762D01*
X19471667Y-10002143D02*
X19547857Y-10002143D01*
X19500238Y-9935476D02*
X19500238Y-10106905D01*
X19509762Y-10125952D01*
X19528810Y-10135476D01*
X19547857Y-10135476D01*
X19690714Y-10125952D02*
X19671667Y-10135476D01*
X19633571Y-10135476D01*
X19614524Y-10125952D01*
X19605000Y-10106905D01*
X19605000Y-10030714D01*
X19614524Y-10011667D01*
X19633571Y-10002143D01*
X19671667Y-10002143D01*
X19690714Y-10011667D01*
X19700238Y-10030714D01*
X19700238Y-10049762D01*
X19605000Y-10068810D01*
X19871667Y-10135476D02*
X19871667Y-9935476D01*
X19871667Y-10125952D02*
X19852619Y-10135476D01*
X19814524Y-10135476D01*
X19795476Y-10125952D01*
X19785952Y-10116429D01*
X19776429Y-10097381D01*
X19776429Y-10040238D01*
X19785952Y-10021190D01*
X19795476Y-10011667D01*
X19814524Y-10002143D01*
X19852619Y-10002143D01*
X19871667Y-10011667D01*
X19947857Y-10211667D02*
X19957381Y-10202143D01*
X19976429Y-10173571D01*
X19985952Y-10154524D01*
X19995476Y-10125952D01*
X20005000Y-10078333D01*
X20005000Y-10040238D01*
X19995476Y-9992619D01*
X19985952Y-9964048D01*
X19976429Y-9945000D01*
X19957381Y-9916429D01*
X19947857Y-9906905D01*
M02*
